<svg width="50" height="50" viewBox="0 0 50 50" fill="none" xmlns="http://www.w3.org/2000/svg">
<path d="M1.15727 25.0883L1.15726 25.0883C0.318695 32.0208 2.89896 37.6917 7.37979 41.7858C11.8842 45.9016 18.3291 48.4329 25.1516 48.9394C38.4557 49.927 48.4874 38.5651 48.9912 24.9313C49.1621 20.306 46.833 14.3035 42.5636 9.43717C38.3132 4.59242 32.2501 0.999756 25.0775 0.999756C18.7956 0.999756 13.3479 2.88398 9.21955 6.77452C5.08549 10.6704 2.17514 16.6721 1.15727 25.0883Z" fill="#FFE14B" stroke="black" stroke-width="2"/>
<path d="M25.0607 38.2695C27.4007 38.2695 28.5107 34.7295 28.5107 29.7795C28.5107 24.5595 27.3707 21.4695 25.6907 21.4695C25.4507 21.4695 25.2107 21.4995 25.0007 21.5895C25.9007 19.7595 27.4607 16.7595 28.2107 15.4995H22.0007V17.3595C23.2007 17.2995 24.3407 17.2995 25.2107 17.2995C24.2807 19.2495 23.1707 21.5295 22.5407 22.8495L24.0707 23.6595C24.3407 23.2395 24.6707 23.0895 24.9707 23.0895C25.8707 23.0895 26.5307 25.6395 26.5307 29.9595C26.5307 33.4095 25.9307 36.3495 25.0307 36.3495C24.0407 36.3495 23.7107 33.4995 23.7107 30.4395C23.7107 28.6395 23.7707 27.4395 23.8007 26.2695L21.9107 26.2095C21.8207 27.2895 21.7607 28.6995 21.7607 30.6195C21.7607 34.9395 22.6307 38.2695 25.0607 38.2695Z" fill="black"/>
</svg>
