<svg width="50" height="50" viewBox="0 0 50 50" fill="none" xmlns="http://www.w3.org/2000/svg">
<path d="M1.15727 25.0885L1.15726 25.0885C0.318695 32.021 2.89896 37.6919 7.37979 41.7861C11.8842 45.9018 18.3291 48.4331 25.1516 48.9396C38.4557 49.9273 48.4874 38.5654 48.9912 24.9315C49.1621 20.3063 46.833 14.3037 42.5636 9.43742C38.3132 4.59267 32.2501 1 25.0775 1C18.7956 1 13.3479 2.88423 9.21955 6.77476C5.08549 10.6706 2.17514 16.6723 1.15727 25.0885Z" fill="#FFE14B" stroke="black" stroke-width="2"/>
<path d="M28.8149 27.4998V25.5198C28.4549 25.5198 28.0349 25.5498 27.5849 25.5498C27.5849 21.5298 27.6149 17.7798 27.6149 15.5598L25.8149 15.3198C24.6749 18.1998 22.9049 22.9398 21.2549 27.4998C22.7249 27.4398 24.2849 27.4398 25.6349 27.4398C25.6349 31.5198 25.6049 35.5998 25.5749 38.0298H27.6149C27.5849 35.2998 27.5849 31.3698 27.5849 27.4698C28.0649 27.4698 28.4849 27.4998 28.8149 27.4998ZM25.6349 25.5498V25.5798C24.8849 25.5798 24.1049 25.5798 23.3849 25.5798C24.1049 23.5698 25.0049 20.7798 25.7249 18.6198C25.6949 20.5398 25.6649 23.0298 25.6349 25.5498Z" fill="black"/>
</svg>
