<svg width="120" height="120" viewBox="0 0 120 120" fill="none" xmlns="http://www.w3.org/2000/svg">
<path d="M53.7053 3.45093C54.1942 13.026 48.3781 22.9008 45.0988 31.5902C42.1378 39.4403 38.1528 46.9075 35.3393 54.8267C30.538 68.3452 26.719 82.3157 21.7747 95.7512C19.8791 100.908 17.6375 106.166 16.2354 111.479C15.7742 113.218 14.2844 118.098 17.5776 116.345C19.178 115.496 20.2065 110.644 20.7969 108.938C25.3169 95.8896 31.751 83.3535 35.7775 70.0841C39.2643 58.5857 42.8065 47.1012 47.059 35.7736C50.1539 27.5222 54.66 19.5015 56.4357 10.8766" fill="#CC90D3"/>
<path d="M53.2025 3.45082C53.5577 11.1164 50.1631 18.3945 47.1836 25.2621C45.6477 28.7997 44.3101 32.4157 42.8019 35.9672C41.1876 39.7723 39.435 43.5128 37.8022 47.3041C34.4676 55.0434 31.9585 63.1056 29.4126 71.1309C26.8482 79.2208 24.3299 87.3291 21.4057 95.2991C19.9667 99.2241 18.3708 103.089 17.0471 107.051C16.5029 108.675 16.0232 110.317 15.5851 111.972C15.3268 112.936 15.0823 113.923 15.0131 114.924C14.9624 115.681 15.027 116.668 15.7834 117.074C16.6044 117.512 17.8082 116.949 18.3893 116.345C19.2103 115.492 19.6485 114.26 20.0313 113.162C20.4464 111.972 20.7646 110.755 21.1336 109.551C22.2774 105.815 23.8271 102.171 25.2984 98.5554C26.8574 94.7318 28.4763 90.9313 30.0491 87.1124C31.6218 83.298 33.1439 79.4607 34.5137 75.5679C35.9066 71.5968 37.0735 67.5518 38.3096 63.5346C40.8325 55.334 43.4476 47.1611 46.3764 39.0943C47.7785 35.2338 49.3282 31.4518 50.9702 27.6882C52.5568 24.0491 54.1527 20.4054 55.4026 16.6326C56.0114 14.7877 56.5326 12.9105 56.9292 11.0103C57.063 10.3784 56.0898 10.1063 55.956 10.7428C54.351 18.4498 50.6981 25.4928 47.7278 32.7248C44.5592 40.441 41.9994 48.4387 39.4811 56.3856C36.9813 64.2725 34.7766 72.2563 31.8156 79.9911C28.9144 87.5644 25.5798 94.967 22.6372 102.522C21.9038 104.404 21.1981 106.29 20.5294 108.195C20.1281 109.339 19.8191 110.501 19.4639 111.659C19.095 112.867 18.7075 114.131 18.0157 115.196C17.7436 115.611 17.4392 115.897 16.9733 116.082C16.752 116.17 16.3645 116.308 16.1893 116.146C15.9679 115.944 16.0001 115.436 16.0048 115.173C16.014 114.694 16.0924 114.219 16.1893 113.753C16.406 112.678 16.7104 111.617 17.0102 110.566C18.131 106.613 19.6392 102.785 21.1059 98.952C24.0762 91.185 26.6222 83.275 29.1312 75.3511C31.6264 67.478 33.9741 59.4989 37.0135 51.8102C38.5171 48.0097 40.2283 44.2923 41.8887 40.561C43.4845 36.9772 44.9005 33.3382 46.381 29.7083C49.1806 22.8407 52.7828 16.0976 53.9082 8.68111C54.1711 6.95151 54.291 5.20347 54.208 3.45082C54.1757 2.80972 53.1703 2.80511 53.2025 3.45082Z" fill="black"/>
<path d="M30.1966 3.38652C34.6705 22.0569 40.8832 54.5594 46.1688 73.073C46.9483 75.808 52.7966 74.3967 64.7055 73.8524C74.7971 73.3912 86.4384 71.4356 96.6776 71.039C93.163 54.6286 84.8241 17.2463 77.5321 2.67163C75.5765 -1.23495 43.443 0.914356 30.1597 3.25738" fill="#CC90D3"/>
<path d="M29.7124 3.52012C31.5204 11.0704 33.1393 18.6714 34.772 26.2631C36.6169 34.8327 38.4434 43.4022 40.3897 51.9487C41.2983 55.9383 42.23 59.9233 43.2217 63.8944C43.669 65.6978 44.1303 67.4966 44.61 69.2861C44.836 70.1348 45.0666 70.9835 45.3018 71.8275C45.4678 72.4271 45.5785 73.1051 45.8737 73.6632C46.7546 75.319 49.296 75.2267 50.878 75.2037C54.7661 75.1483 58.6542 74.6871 62.5378 74.4657C67.5974 74.1797 72.634 73.7877 77.6752 73.2435C82.7901 72.69 87.9051 72.0858 93.0432 71.7352C94.2562 71.6522 95.4692 71.5877 96.6868 71.5369C97.0281 71.5231 97.2403 71.2279 97.1711 70.9004C95.4508 62.8659 93.6474 54.8452 91.7195 46.8568C89.4456 37.4386 87.0288 28.0434 84.1461 18.7913C82.9193 14.857 81.6094 10.9366 80.0643 7.11305C79.4463 5.5864 78.8005 4.06436 78.0626 2.58844C77.7074 1.87354 77.0709 1.50918 76.3468 1.22783C75.3506 0.840405 74.2759 0.655916 73.2197 0.508324C71.6977 0.291548 70.1664 0.176244 68.6305 0.107061C64.7009 -0.0774291 60.7528 0.000972334 56.8232 0.157789C48.618 0.489871 40.3805 1.15865 32.2583 2.39935C31.5158 2.51465 30.7732 2.63456 30.0353 2.76371C29.3988 2.8744 29.6663 3.84759 30.3028 3.7369C38.0006 2.38551 45.8552 1.73979 53.6499 1.31547C57.7133 1.09408 61.7813 0.960322 65.8493 1.02489C68.792 1.07102 71.8314 1.13098 74.7095 1.79053C75.4474 1.96118 76.3929 2.22408 76.8311 2.59767C76.9602 2.70375 77.0294 2.79599 77.0387 2.80521C77.1863 3.03583 77.2923 3.29412 77.4076 3.54318C77.7628 4.28114 78.0995 5.02833 78.427 5.78474C79.9536 9.33155 81.222 12.9891 82.4119 16.6604C85.3315 25.6774 87.7391 34.8649 90.0037 44.0664C92.0285 52.3085 93.9102 60.5828 95.7044 68.8757C95.8705 69.6367 96.0319 70.4023 96.1979 71.1633C96.3594 70.9512 96.5208 70.739 96.6822 70.5268C86.6137 70.9235 76.6512 72.6162 66.5965 73.2388C62.2057 73.511 57.8102 73.8108 53.4193 74.0829C52.0587 74.1659 50.6843 74.2489 49.3237 74.1613C48.5765 74.1152 47.6587 74.0137 47.1006 73.5801C46.9022 73.4279 46.7593 73.2112 46.6855 73.0082C46.418 72.2564 46.2427 71.4493 46.0305 70.679C45.5601 68.9633 45.1127 67.2429 44.6745 65.5226C43.6967 61.6852 42.7835 57.834 41.8933 53.9735C39.9562 45.5608 38.1436 37.125 36.331 28.6845C34.6798 21.0005 33.047 13.3119 31.2621 5.65559C31.073 4.85306 30.8839 4.05053 30.6948 3.248C30.5334 2.62535 29.5602 2.89286 29.7124 3.52012Z" fill="black"/>
<path d="M49.4067 80.0281C47.9169 84.0407 48.641 90.5394 48.4288 94.9072C48.1705 100.308 47.3265 105.681 47.059 111.041C46.9253 113.725 46.8192 123.268 50.5874 117.839C53.5116 113.624 52.114 102.61 52.5337 97.6053C53.018 91.8585 53.2533 85.7934 53.3132 80.0234" fill="#CC90D3"/>
<path d="M48.9223 79.8943C47.9122 82.6801 47.9215 85.7933 47.9307 88.7175C47.9445 92.0337 47.9538 95.3038 47.6678 98.6154C47.3311 102.499 46.8284 106.369 46.5978 110.261C46.4917 112.06 46.4548 113.873 46.607 115.671C46.7085 116.903 46.7915 119.08 48.0137 119.809C49.4896 120.69 50.9979 118.3 51.5052 117.263C52.5383 115.146 52.7782 112.678 52.9165 110.358C53.0734 107.683 53.0042 105.003 52.9673 102.328C52.9488 101.175 52.935 100.022 52.9673 98.869C53.0134 97.3608 53.1794 95.8526 53.2809 94.3444C53.5392 90.5209 53.6914 86.6881 53.7698 82.86C53.7883 81.9144 53.8021 80.9735 53.8159 80.028C53.8252 79.3777 52.8151 79.3777 52.8104 80.028C52.7689 83.6994 52.6629 87.3753 52.4738 91.0421C52.3216 93.9985 51.9664 96.9596 51.9434 99.9207C51.9249 102.333 52.0218 104.745 52.0079 107.157C51.9895 109.629 51.9249 112.152 51.3668 114.569C51.1455 115.529 50.8457 116.483 50.3291 117.327C49.9786 117.899 49.4112 118.785 48.7286 118.974C48.641 118.997 48.558 118.965 48.5072 118.928C48.3366 118.789 48.2213 118.563 48.129 118.337C47.8431 117.636 47.737 116.848 47.6586 116.1C47.4879 114.491 47.4879 112.853 47.5571 111.239C47.7093 107.734 48.1383 104.242 48.4842 100.755C48.6871 98.7122 48.8762 96.6644 48.95 94.612C49.01 93.0161 48.9684 91.4203 48.95 89.8291C48.9131 86.6374 48.7932 83.2197 49.8955 80.171C50.1123 79.5484 49.1391 79.2854 48.9223 79.8943Z" fill="black"/>
<path d="M92.3836 78.0724C95.7321 89.1649 97.5216 100.843 100.275 112.032C100.699 113.757 100.972 118.079 102.927 118.333C105.944 118.725 104.025 113.481 103.702 111.829C102.604 106.23 101.276 100.603 99.9016 94.9579C98.2734 88.2609 96.4793 81.4901 94.7266 74.9453" fill="#CC90D3"/>
<path d="M91.8947 78.2062C93.8779 84.7971 95.3123 91.5356 96.7191 98.2695C97.4247 101.632 98.1212 104.999 98.8822 108.347C99.2051 109.777 99.6017 111.193 99.8831 112.627C100.081 113.619 100.215 114.625 100.464 115.607C100.852 117.138 101.746 119.315 103.744 118.794C105.464 118.347 105.146 116.045 104.901 114.74C104.744 113.9 104.514 113.079 104.306 112.254C103.97 110.902 103.744 109.519 103.453 108.154C102.715 104.662 101.908 101.189 101.073 97.716C99.2328 90.0504 97.2357 82.4264 95.197 74.8116C95.031 74.1843 94.0578 74.4518 94.2239 75.0791C95.9488 81.5178 97.6554 87.9611 99.2374 94.4321C100.054 97.7575 100.852 101.088 101.603 104.427C102.226 107.185 102.683 110.003 103.384 112.738C103.587 113.527 103.799 114.315 103.942 115.118C104.066 115.81 104.242 116.737 103.937 117.406C103.697 117.927 102.996 117.968 102.563 117.659C101.908 117.194 101.654 116.197 101.46 115.464C101.216 114.546 101.073 113.605 100.902 112.674C100.663 111.377 100.307 110.1 100.012 108.818C99.2835 105.649 98.6147 102.467 97.9459 99.2888C96.447 92.126 94.9618 84.9447 92.854 77.9341C92.6834 77.3206 91.7102 77.5835 91.8947 78.2062Z" fill="black"/>
<path d="M33.9095 6.18592C36.354 16.9232 39.6795 29.0396 42.4975 39.7492C44.5915 47.7146 48.2075 62.3262 50.1908 70.2593C50.5828 71.8228 58.2945 70.6974 67.293 70.1993C75.3229 69.7565 84.7642 67.764 92.9048 67.2613C89.2611 53.4615 81.3419 17.7811 75.9363 5.66935C74.8525 3.2387 70.2172 3.58461 58.6589 3.58461C52.8382 3.58461 39.9055 4.62698 34.1771 5.40645" fill="#F9F9F9"/>
<path d="M33.3653 6.33817C35.2378 14.548 37.3871 22.6886 39.5457 30.8246C41.3306 37.5585 43.1017 44.2924 44.8036 51.0493C46.3995 57.3773 47.9676 63.7099 49.5496 70.0425C49.7572 70.8727 50.2 71.2509 51.0394 71.4308C52.1048 71.666 53.2348 71.6384 54.3187 71.6107C58.05 71.5185 61.7675 71.1126 65.4896 70.8727C69.5806 70.6098 73.6348 70.204 77.6982 69.6459C81.7754 69.0878 85.8434 68.4605 89.9391 68.0639C90.9215 67.967 91.9085 67.8886 92.8955 67.824C93.2599 67.801 93.5366 67.4827 93.4398 67.1138C91.7609 60.7489 90.2527 54.3378 88.6846 47.9499C86.7336 40.0168 84.7595 32.0884 82.5779 24.2153C80.8668 18.0256 79.1557 11.7253 76.6051 5.81699C76.2638 5.02829 75.8302 4.41026 75.0461 4.00438C74.1191 3.52009 73.0583 3.35406 72.0297 3.23414C70.4431 3.04965 68.8381 3.0312 67.2468 3.01737C64.8577 2.9943 62.4685 3.02197 60.0794 3.02658C52.1233 3.04503 44.1303 3.68152 36.2295 4.59475C35.4915 4.67777 34.7581 4.77001 34.0202 4.87148C33.3053 4.96834 33.6097 6.05222 34.32 5.95536C38.019 5.45263 41.7457 5.13899 45.4678 4.84381C49.3698 4.53479 53.2809 4.25806 57.1921 4.17043C61.357 4.07818 65.5587 4.03206 69.719 4.1981C70.9781 4.24883 72.2649 4.30879 73.4872 4.62242C73.9115 4.73311 74.2574 4.84381 74.608 5.04675C74.8893 5.20818 75.1153 5.4065 75.2445 5.60021C75.8164 6.44887 76.13 7.57427 76.4898 8.52439C76.9971 9.85733 77.463 11.1995 77.9104 12.5509C79.0035 15.844 79.9905 19.1787 80.9314 22.5179C83.1037 30.2112 85.0547 37.969 86.9734 45.7314C88.6154 52.373 90.1928 59.0331 91.8947 65.6609C92.0469 66.2467 92.1945 66.8324 92.3513 67.4135C92.5312 67.1783 92.711 66.9385 92.8955 66.7033C84.8933 67.2106 77.0156 68.8941 69.0272 69.526C65.0791 69.8396 61.1172 70.0933 57.1599 70.3515C55.7208 70.4438 54.2726 70.5361 52.8336 70.4946C52.3723 70.4807 51.9065 70.4623 51.4545 70.3746C51.2884 70.3423 51.1224 70.3054 50.961 70.2501C50.9333 70.2409 50.6889 70.1163 50.7581 70.1486C50.6704 70.1071 50.7165 70.1071 50.7119 70.0979C50.735 70.2362 50.7073 70.0425 50.6935 69.9964C50.6197 69.6597 50.5228 69.323 50.4398 68.9863C50.2738 68.3268 50.1077 67.6626 49.9463 67.0031C49.5727 65.4949 49.1945 63.9913 48.8209 62.4831C47.9953 59.1715 47.1697 55.8599 46.3349 52.5483C44.7022 46.0542 43.0279 39.5694 41.3075 33.0984C39.1721 25.0593 37.0274 17.0201 35.1133 8.92565C34.8873 7.96631 34.6659 7.00695 34.4445 6.0476C34.2923 5.3327 33.2084 5.6325 33.3653 6.33817Z" fill="black"/>
<path d="M45.8921 74.1658C54.1249 74.8992 64.092 73.0174 72.3895 72.2102C80.9959 71.3754 89.8653 70.3561 98.5548 70.6882C99.2558 72.8744 99.7124 75.3004 99.3757 77.6342C88.6107 79.3915 77.6152 79.8343 66.5873 80.4154C61.38 80.6875 56.242 80.7429 51.0532 80.8075C49.176 80.8305 45.8736 81.6515 44.7759 79.9588C43.9872 78.7458 45.4539 74.4794 45.8921 74.1658Z" fill="#CC90D3"/>
<path d="M45.892 74.6685C52.4322 75.2358 59.0231 74.3226 65.4987 73.5154C72.3848 72.6575 79.3032 71.9334 86.2262 71.463C90.3311 71.1816 94.4452 71.0432 98.5547 71.1954C98.3933 71.0709 98.2318 70.951 98.0704 70.8265C98.7668 73.0357 99.182 75.3234 98.873 77.6388C98.9975 77.4773 99.1174 77.3159 99.2419 77.1545C90.165 78.6304 80.9728 79.17 71.7991 79.6497C67.2053 79.8895 62.6161 80.1202 58.0177 80.2078C55.6977 80.2539 53.3777 80.2585 51.0578 80.3092C49.6326 80.3415 48.1936 80.669 46.7684 80.4799C46.178 80.4015 45.4031 80.1893 45.1449 79.5851C44.9189 79.0547 45.0619 78.3121 45.1633 77.7679C45.2925 77.053 45.4862 76.3473 45.726 75.6601C45.8459 75.3234 46.0627 74.6823 46.2472 74.5301C46.7453 74.1104 46.0258 73.4001 45.5369 73.8198C45.2371 74.0689 45.0895 74.5393 44.9465 74.8852C44.7067 75.4848 44.513 76.1029 44.3562 76.7301C44.0933 77.8048 43.7197 79.3361 44.4115 80.3231C45.2556 81.5315 46.9621 81.5868 48.2904 81.5223C49.0745 81.4854 49.8494 81.3793 50.6334 81.3378C51.7219 81.2778 52.8196 81.3009 53.9127 81.287C63.7184 81.1579 73.5287 80.6921 83.3066 79.9679C88.7306 79.5667 94.1408 79.0086 99.5094 78.1323C99.7446 78.0954 99.8507 77.8509 99.8784 77.648C100.197 75.2542 99.7585 72.8512 99.039 70.5682C98.9698 70.3514 98.7807 70.2084 98.5547 70.1992C91.295 69.9317 84.0446 70.5774 76.8218 71.2877C73.4502 71.6198 70.0787 71.9565 66.7117 72.3716C63.4232 72.7774 60.1347 73.2064 56.8369 73.5016C53.2025 73.8244 49.5311 73.9951 45.8875 73.6814C45.2464 73.6077 45.2509 74.6131 45.892 74.6685Z" fill="black"/>
<path d="M72.7539 36.1748C74.7971 35.9303 76.8357 35.6859 78.8789 35.4414C78.1733 34.7588 77.4676 34.0808 76.7573 33.3982C78.0164 32.9324 79.2756 32.4665 80.5347 32.0007C79.0819 31.2535 77.6982 30.3633 76.4114 29.3487C77.606 28.1218 78.8005 26.8949 79.9905 25.6635C78.7452 25.1331 77.4215 24.7871 76.0793 24.6442C76.19 23.1959 76.5267 21.7661 77.0756 20.4239C75.821 20.7376 74.5711 21.0558 73.3166 21.3695C73.2013 19.8151 73.0813 18.2608 72.966 16.7065C72.0482 17.4306 71.1257 18.1501 70.2079 18.8742C69.8989 17.4444 69.5899 16.01 69.2762 14.5802C68.2016 15.6872 67.1223 16.7987 66.0477 17.9057C65.5772 16.3329 65.1114 14.7601 64.6409 13.1873C63.9952 14.5526 63.0958 15.8025 62.0027 16.8449C61.417 15.558 60.8312 14.2758 60.2501 12.989C59.8396 14.5111 58.9955 15.9132 57.8517 16.9925C57.0215 16.0285 56.1913 15.0599 55.3611 14.096C55.3657 15.7886 55.0013 17.486 54.3003 19.0264C53.0273 17.9057 51.7497 16.7849 50.4767 15.6641C50.2922 17.366 50.1123 19.0634 49.9278 20.7653C49.8956 21.0881 49.8448 21.4387 49.6004 21.6508C49.3652 21.8538 49.0285 21.863 48.7194 21.863C47.6494 21.863 46.584 21.863 45.5139 21.863C46.1873 23.3158 46.8607 24.7687 47.5295 26.2215C46.4179 26.4614 45.3064 26.7012 44.1948 26.941C45.2925 27.9419 46.3856 28.9428 47.4834 29.9436C45.989 30.3864 44.4993 30.8338 43.0049 31.2766C44.1764 32.3651 45.5923 33.1814 47.119 33.6519C46.0167 34.3806 45.0343 35.2938 44.2317 36.3454C45.906 36.3408 47.5848 36.3362 49.2591 36.3316C48.8717 37.3463 48.4842 38.361 48.0968 39.3757C50.7811 38.7853 53.4655 38.1903 56.1498 37.6" fill="black"/>
<path d="M72.7539 36.6867C74.7971 36.4422 76.8357 36.1978 78.8789 35.9533C79.294 35.9026 79.5892 35.4137 79.2433 35.077C78.5376 34.3944 77.8319 33.7164 77.1216 33.0338C77.0479 33.3197 76.9694 33.6057 76.8956 33.8916C78.1548 33.4258 79.4139 32.96 80.6731 32.4942C81.0559 32.3512 81.2173 31.7746 80.7976 31.5579C79.3863 30.8245 78.0349 29.9712 76.7803 28.9888C76.7803 29.2287 76.7803 29.4731 76.7803 29.713C77.9749 28.4861 79.1695 27.2592 80.3595 26.0278C80.6546 25.7234 80.4794 25.3175 80.1335 25.1699C78.8328 24.6257 77.486 24.2936 76.0839 24.1321C76.2545 24.3028 76.4252 24.4734 76.5958 24.6441C76.7111 23.2374 77.0525 21.8721 77.5736 20.5577C77.7258 20.1748 77.2877 19.8428 76.9418 19.9258C75.6872 20.2394 74.4373 20.5576 73.1828 20.8713C73.3996 21.0373 73.6163 21.1988 73.8331 21.3648C73.7178 19.8105 73.5979 18.2561 73.4826 16.7018C73.4457 16.2314 72.9614 16.0607 72.6063 16.3374C71.6884 17.0616 70.766 17.7811 69.8481 18.5052C70.1341 18.579 70.4201 18.6574 70.706 18.7312C70.397 17.3014 70.088 15.867 69.7743 14.4372C69.6913 14.059 69.1748 13.9437 68.9165 14.2112C67.8418 15.3181 66.7625 16.4251 65.6879 17.5366C65.9739 17.6104 66.2598 17.6888 66.5458 17.7626C66.0753 16.1899 65.6095 14.6171 65.139 13.0443C65.0237 12.6523 64.4011 12.5047 64.2027 12.9198C63.5616 14.2527 62.7084 15.4427 61.6476 16.4758C61.9151 16.5081 62.1826 16.545 62.4547 16.5773C61.8689 15.2905 61.2832 14.0083 60.7021 12.7214C60.513 12.3017 59.8765 12.4493 59.7658 12.846C59.3553 14.2988 58.585 15.5764 57.4965 16.6234C57.7364 16.6234 57.9808 16.6234 58.2207 16.6234C57.3905 15.6594 56.5602 14.6909 55.73 13.7269C55.4302 13.381 54.8583 13.6669 54.8537 14.0913C54.8445 15.7056 54.517 17.2876 53.8621 18.7635C54.1296 18.7312 54.3971 18.6943 54.6692 18.662C53.3962 17.5413 52.1187 16.4205 50.8457 15.2997C50.4905 14.9907 50.0201 15.2167 49.9693 15.6641C49.7987 17.2553 49.628 18.8419 49.4574 20.4331C49.4251 20.7375 49.4574 21.1849 49.1299 21.3187C48.8301 21.4432 48.3551 21.3509 48.0368 21.3509C47.1974 21.3509 46.3579 21.3509 45.5185 21.3509C45.1034 21.3509 44.9189 21.7799 45.0758 22.1212C45.7491 23.5741 46.4225 25.0269 47.0913 26.4798C47.1928 26.2307 47.2942 25.977 47.3957 25.728C46.2842 25.9678 45.1726 26.2077 44.0611 26.4475C43.6921 26.5259 43.5583 27.0517 43.8351 27.3054C44.9328 28.3062 46.0259 29.3071 47.1236 30.308C47.1974 30.022 47.2758 29.736 47.3496 29.4501C45.8552 29.8928 44.3655 30.3402 42.8711 30.783C42.5159 30.8891 42.3499 31.3734 42.6451 31.6409C43.8996 32.7847 45.3617 33.6334 46.9852 34.1453C46.9437 33.8317 46.9022 33.5227 46.8607 33.209C45.7215 33.9747 44.716 34.8971 43.8674 35.981C43.6091 36.3131 43.7474 36.8573 44.2317 36.8573C45.906 36.8527 47.5848 36.8481 49.2591 36.8435C49.093 36.6267 48.9316 36.4099 48.7656 36.1932C48.3781 37.2078 47.9907 38.2226 47.6033 39.2373C47.4557 39.6247 47.8892 39.9429 48.2351 39.8691C50.9195 39.2788 53.6038 38.6838 56.2881 38.0934C56.9338 37.9504 56.6617 36.9634 56.016 37.1064C53.3317 37.6968 50.6474 38.2917 47.963 38.8821C48.1752 39.0943 48.3827 39.3018 48.5949 39.514C48.9823 38.4993 49.3697 37.4846 49.7572 36.4699C49.8771 36.1517 49.5681 35.8196 49.2637 35.8196C47.5894 35.8242 45.9106 35.8288 44.2363 35.8334C44.3562 36.124 44.4762 36.4192 44.6007 36.7098C45.3894 35.6951 46.3165 34.8141 47.3865 34.0992C47.7555 33.8501 47.6955 33.3013 47.262 33.1629C45.8137 32.7017 44.4992 31.9453 43.3738 30.9214C43.3 31.2073 43.2216 31.4933 43.1478 31.7793C44.6422 31.3365 46.132 30.8891 47.6263 30.4463C47.9815 30.3402 48.1475 29.856 47.8523 29.5884C46.7546 28.5876 45.6615 27.5867 44.5638 26.5859C44.49 26.8718 44.4116 27.1578 44.3378 27.4437C45.4493 27.2039 46.5609 26.9641 47.6725 26.7242C48.023 26.6504 48.1106 26.2538 47.9769 25.9724C47.3035 24.5196 46.6301 23.0667 45.9613 21.6138C45.8137 21.8721 45.6661 22.1304 45.5185 22.3841C46.5886 22.3841 47.6586 22.4025 48.724 22.3841C49.4251 22.3702 50.057 22.1904 50.3153 21.4663C50.6105 20.6499 50.5689 19.6352 50.6612 18.7773C50.7719 17.7442 50.8826 16.7064 50.9933 15.6733C50.7027 15.7932 50.4075 15.9131 50.1169 16.0377C51.3899 17.1584 52.6675 18.2792 53.9405 19.4C54.1619 19.5937 54.6047 19.6168 54.7476 19.2985C55.481 17.6519 55.8684 15.9131 55.8776 14.1051C55.5871 14.225 55.2919 14.345 55.0013 14.4695C55.8315 15.4334 56.6617 16.402 57.4919 17.366C57.6764 17.5781 58.0316 17.5459 58.216 17.366C59.4245 16.1991 60.2916 14.7508 60.7482 13.1365C60.4345 13.1781 60.1255 13.2196 59.8119 13.2611C60.3977 14.5479 60.9834 15.8301 61.5645 17.1169C61.7075 17.4259 62.1549 17.4306 62.3717 17.2184C63.4925 16.1299 64.4103 14.8661 65.0883 13.4548C64.7747 13.4133 64.4656 13.3718 64.152 13.3303C64.6225 14.903 65.0883 16.4758 65.5587 18.0486C65.6648 18.413 66.1399 18.5559 66.4166 18.2746C67.4913 17.1676 68.5705 16.0607 69.6452 14.9491C69.3592 14.8753 69.0733 14.7969 68.7873 14.7231C69.0963 16.1529 69.4054 17.5874 69.719 19.0172C69.8112 19.4323 70.2955 19.4645 70.5769 19.2431C71.4947 18.519 72.4171 17.7995 73.335 17.0754C73.0444 16.9555 72.7492 16.8356 72.4587 16.711C72.574 18.2654 72.6939 19.8197 72.8092 21.374C72.8323 21.7061 73.1182 21.9551 73.4595 21.8675C74.7141 21.5539 75.964 21.2356 77.2185 20.922C77.0064 20.7098 76.7988 20.5023 76.5866 20.2901C76.0239 21.6876 75.6965 23.1451 75.5719 24.6487C75.5489 24.9485 75.8302 25.133 76.0839 25.1607C77.3892 25.3083 78.6483 25.6542 79.8613 26.1615C79.7875 25.8756 79.7091 25.5896 79.6353 25.3036C78.4408 26.5305 77.2462 27.7574 76.0562 28.9888C75.881 29.1687 75.8348 29.5423 76.0562 29.713C77.3845 30.7507 78.7867 31.664 80.281 32.4434C80.3225 32.1298 80.3641 31.8208 80.4056 31.5071C79.1464 31.973 77.8873 32.4388 76.6281 32.9046C76.2822 33.0338 76.1023 33.4766 76.4021 33.7625C77.1078 34.4451 77.8135 35.1231 78.5238 35.8057C78.6437 35.5152 78.7636 35.22 78.8881 34.9294C76.8449 35.1739 74.8063 35.4183 72.7631 35.6628C72.1035 35.7366 72.0989 36.7651 72.7539 36.6867Z" fill="black"/>
<path d="M72.4632 33.283C73.3995 32.7065 74.7186 32.7295 75.5211 33.4767C76.3236 34.2239 76.3698 35.6952 75.5119 36.3778C75.1752 36.6453 74.7509 36.7745 74.3312 36.8575C73.7316 36.9728 72.989 36.9451 72.6615 36.4285" fill="black"/>
<path d="M72.7215 33.7256C72.7861 33.6841 72.8553 33.6472 72.9245 33.615C72.9568 33.6011 72.9844 33.5827 73.0167 33.5688C73.0951 33.5319 72.9568 33.5919 73.0352 33.5596C73.1828 33.5043 73.3303 33.4627 73.4825 33.4305C73.5148 33.4258 73.5517 33.4166 73.584 33.412C73.6809 33.3936 73.4641 33.4212 73.6255 33.4074C73.6947 33.4028 73.7639 33.3982 73.8331 33.3936C73.9023 33.3936 73.9715 33.3936 74.0406 33.3982C74.0729 33.3982 74.1098 33.4028 74.1421 33.4074C74.2989 33.4166 74.0545 33.389 74.2067 33.4166C74.3404 33.4397 74.4742 33.472 74.5987 33.5135C74.631 33.5227 74.6633 33.5365 74.6956 33.5504C74.6218 33.5227 74.7002 33.5504 74.714 33.5596C74.7878 33.5965 74.8662 33.6334 74.9354 33.6795C74.9492 33.6888 75.1014 33.7948 75.0369 33.7441C75.0968 33.7902 75.1522 33.8409 75.2029 33.8917C75.226 33.9147 75.2444 33.9378 75.2675 33.9563C75.2767 33.9655 75.3367 34.0393 75.2998 33.9932C75.2536 33.9378 75.3413 34.0531 75.3413 34.0531C75.3644 34.0854 75.3828 34.1177 75.4013 34.15C75.4335 34.2007 75.4612 34.2561 75.4889 34.3114C75.5027 34.3345 75.535 34.4267 75.4981 34.3345C75.5073 34.3621 75.5212 34.3898 75.5304 34.4221C75.5488 34.4821 75.5673 34.5374 75.5811 34.5974C75.5904 34.6389 75.6226 34.8372 75.6088 34.7311C75.6226 34.851 75.6272 34.9756 75.618 35.0955C75.618 35.1278 75.5903 35.2938 75.6134 35.1831C75.5996 35.2569 75.5857 35.3307 75.5627 35.3999C75.5442 35.4552 75.5258 35.5152 75.5073 35.5705C75.5442 35.4737 75.4704 35.6397 75.452 35.6674C75.4243 35.7182 75.392 35.7689 75.3551 35.815C75.309 35.8796 75.4059 35.7597 75.3505 35.815C75.3182 35.8473 75.2906 35.8796 75.2583 35.9119C75.2352 35.9349 75.2121 35.9534 75.1937 35.9718C75.1337 36.0225 75.2491 35.9349 75.1753 35.9857C75.1061 36.0364 75.0276 36.0825 74.9539 36.124C74.8339 36.1886 74.7002 36.2347 74.5341 36.2808C74.4511 36.3039 74.3635 36.3223 74.2759 36.3408C74.239 36.35 74.2021 36.3546 74.1652 36.3639C74.1467 36.3685 74.013 36.3869 74.0637 36.3823C74.1237 36.3731 74.0222 36.3869 74.0083 36.3869C73.9668 36.3915 73.9253 36.3915 73.8838 36.3961C73.8008 36.4007 73.7178 36.4007 73.6348 36.3961C73.6025 36.3961 73.5702 36.3915 73.5379 36.3869C73.644 36.4008 73.4918 36.3777 73.4825 36.3731C73.4503 36.3685 73.4226 36.3592 73.3903 36.35C73.3811 36.3454 73.2381 36.2947 73.3349 36.3362C73.3073 36.3223 73.2796 36.3085 73.2519 36.2947C73.2427 36.2901 73.1413 36.2209 73.1874 36.2578C73.2473 36.2993 73.132 36.207 73.1366 36.207C73.0628 36.1425 73.1597 36.2532 73.0997 36.1655C72.9429 35.9349 72.6477 35.8335 72.3987 35.981C72.1727 36.1148 72.0574 36.4515 72.2142 36.6821C72.7123 37.4154 73.6071 37.4985 74.4142 37.3555C75.2075 37.2125 76.0193 36.8389 76.3883 36.0779C76.6973 35.4368 76.7296 34.6712 76.4667 34.0116C76.1669 33.2598 75.5535 32.7156 74.774 32.4896C73.9207 32.2359 72.9568 32.3835 72.1957 32.8401C71.9605 32.9831 71.8729 33.3013 72.0112 33.5411C72.1588 33.781 72.4817 33.8686 72.7215 33.7256Z" fill="black"/>
<path d="M53.1104 32.296C53.8529 34.9757 54.2957 38.3195 54.9599 41.0177C55.624 43.7159 56.5326 46.4002 58.1239 48.6786C58.5205 49.2459 58.9817 49.8086 59.6182 50.0762C60.121 50.2883 60.6837 50.2929 61.2279 50.2837C65.093 50.2238 68.9442 49.5642 72.6109 48.3466C73.1598 48.1621 73.7456 47.9361 74.0454 47.4426C74.216 47.1658 74.2714 46.8337 74.3083 46.5155C74.4697 45.0995 74.3267 43.6697 74.1745 42.2538C73.704 37.9321 73.1275 33.6197 72.4449 29.321" fill="black"/>
<path d="M52.6168 32.4296C53.5116 35.6951 53.8667 39.0759 54.7753 42.3367C55.2319 43.9787 55.8039 45.5976 56.5879 47.1151C57.2337 48.365 58.0916 50.03 59.4844 50.5696C60.3054 50.8879 61.2417 50.8048 62.1088 50.7726C63.0174 50.7357 63.9306 50.6665 64.8346 50.565C66.6565 50.3621 68.4645 50.0346 70.2356 49.578C71.135 49.3474 72.039 49.0937 72.9199 48.7801C73.5979 48.5356 74.2575 48.2035 74.5849 47.5255C74.9355 46.7968 74.9078 45.8374 74.8986 45.0534C74.8893 44.0756 74.7879 43.1024 74.6818 42.1338C74.2067 37.8029 73.6256 33.4812 72.9476 29.178C72.8461 28.5277 71.8591 28.8044 71.9606 29.4501C72.5233 33.0246 73.0168 36.6084 73.4365 40.1967C73.6394 41.9124 73.9023 43.6559 73.8747 45.3855C73.8608 46.1511 73.9162 47.1243 73.169 47.5624C72.4818 47.9683 71.5685 48.1436 70.8075 48.3603C67.5974 49.2643 64.1659 49.8455 60.822 49.7671C60.0149 49.7486 59.4337 49.4811 58.9079 48.8677C58.3729 48.2404 57.9486 47.4978 57.5657 46.7737C56.8047 45.3439 56.2605 43.8127 55.8177 42.2583C54.8768 38.9375 54.5171 35.483 53.6085 32.1529C53.4332 31.521 52.4415 31.7932 52.6168 32.4296Z" fill="black"/>
<path d="M61.7399 35.3169C61.0204 35.3538 60.287 35.4184 59.6275 35.7043C58.9679 35.9903 58.3914 36.5392 58.2622 37.2264C58.1884 37.623 58.2668 38.0289 58.3499 38.4256C58.419 38.7438 58.4928 39.0667 58.6912 39.3296C59.097 39.8692 59.8811 39.9707 60.5776 39.9845C60.8866 39.9891 61.2002 39.9891 61.5 39.9153C62.1181 39.7677 62.6439 39.3203 62.939 38.7669C63.2342 38.218 63.3126 37.5769 63.2389 36.9635C63.1881 36.5622 63.0682 36.1563 62.8145 35.8335C62.5608 35.5106 62.1596 35.2846 61.7399 35.3031" fill="black"/>
<path d="M61.7398 34.805C60.5176 34.8696 59.157 35.0448 58.3083 36.0318C57.8978 36.5115 57.6764 37.0973 57.7226 37.7291C57.7641 38.3333 57.884 39.0805 58.2438 39.5786C58.5712 40.0353 59.0878 40.2936 59.632 40.3996C60.2455 40.5149 60.9235 40.5472 61.5369 40.4227C62.7084 40.1921 63.5478 39.122 63.7185 37.9782C63.9214 36.636 63.3772 34.7681 61.7306 34.7865C61.0711 34.7911 61.0711 35.8197 61.7306 35.8104C62.63 35.8012 62.796 36.9958 62.7315 37.6738C62.6577 38.4302 62.1872 39.182 61.4262 39.3941C60.9973 39.5141 60.4945 39.4864 60.0564 39.431C59.7473 39.3942 59.3876 39.3157 59.1616 39.0851C58.8802 38.8038 58.8249 38.2872 58.7649 37.9136C58.7004 37.4939 58.7511 37.1019 59.0186 36.7606C59.6505 35.9626 60.7943 35.8704 61.7352 35.8197C62.3994 35.7966 62.404 34.7681 61.7398 34.805Z" fill="black"/>
<path d="M68.2753 36.6682C68.2523 37.1341 68.6628 37.5354 69.1148 37.6599C69.5668 37.7844 70.0465 37.7014 70.5031 37.6184C70.7982 37.563 71.1211 37.4984 71.3194 37.2678C71.4762 37.0833 71.5177 36.8343 71.55 36.5945C71.5869 36.3177 71.5916 35.9856 71.3656 35.8196" fill="black"/>
<path d="M67.7634 36.6684C67.7496 37.2633 68.1508 37.7937 68.6766 38.0382C69.3039 38.3288 69.9819 38.2319 70.6368 38.112C70.8997 38.0659 71.1672 38.0013 71.3979 37.8583C71.6884 37.6785 71.8775 37.4063 71.9744 37.0835C72.1266 36.5761 72.1865 35.8243 71.7299 35.4507C71.5224 35.2801 71.2041 35.234 71.0058 35.4507C70.8352 35.6398 70.7844 35.995 71.0058 36.1749C71.0243 36.1933 71.1027 36.2809 71.0381 36.1933C71.0934 36.2671 71.0335 36.1333 71.0473 36.2256C71.0658 36.3224 71.0566 36.1795 71.0519 36.244C71.0519 36.2902 71.0566 36.3363 71.0519 36.3824C71.0519 36.4193 71.0473 36.4608 71.0427 36.4977C71.0335 36.6453 71.0612 36.3916 71.0381 36.5531C71.0243 36.6499 71.0012 36.7422 70.9781 36.8344C70.9643 36.8851 70.992 36.7929 70.9597 36.8759C70.9274 36.9682 70.9781 36.8713 70.9228 36.9359C70.849 37.0235 70.9781 36.9174 70.8813 36.9728C70.8628 36.982 70.7429 37.042 70.8352 37.0051C70.6691 37.0742 70.4846 37.1019 70.3048 37.1342C69.9219 37.2034 69.5253 37.2634 69.1563 37.1342C69.2485 37.1665 69.1194 37.1158 69.1056 37.1065C69.0641 37.0835 69.0225 37.0558 68.9856 37.0327C69.0456 37.0696 68.9856 37.0327 68.958 37.0097C68.9303 36.982 68.9026 36.9543 68.8749 36.9267C68.7965 36.8482 68.8888 36.9682 68.8427 36.8805C68.8334 36.8667 68.7781 36.7376 68.815 36.839C68.8011 36.7975 68.7873 36.7514 68.7781 36.7099C68.7966 36.8021 68.7827 36.7053 68.7827 36.6638C68.7873 36.3962 68.5429 36.138 68.2707 36.1518C67.9894 36.1656 67.768 36.3778 67.7634 36.6684Z" fill="black"/>
<path d="M66.02 37.623C68.28 37.9274 70.5584 37.4846 72.823 37.2263C73.2197 37.1802 73.6302 37.1433 74.0084 37.2724C74.6818 37.4984 75.1061 38.2871 74.9216 38.9743C74.7602 39.5878 74.1883 40.0305 73.5841 40.215C72.9752 40.4041 72.3249 40.3811 71.6884 40.358C69.659 40.2796 67.625 40.2012 65.5956 40.1274" fill="black"/>
<path d="M66.02 38.1349C67.6342 38.3379 69.2485 38.1903 70.8536 37.9873C71.6469 37.8859 72.4494 37.7383 73.252 37.7014C73.87 37.6737 74.5296 38.0012 74.4512 38.7299C74.382 39.371 73.6671 39.7031 73.1136 39.8046C72.2972 39.9568 71.4071 39.8322 70.5861 39.8C68.9257 39.7354 67.2607 39.6708 65.6003 39.6109C64.9407 39.5878 64.9407 40.6117 65.6003 40.6348C67.1684 40.6947 68.7412 40.7547 70.3093 40.8147C71.6653 40.8654 73.3396 41.156 74.5203 40.3211C75.4751 39.6478 75.7979 38.3932 75.0554 37.4293C74.1652 36.267 72.5371 36.742 71.301 36.8989C69.5483 37.1249 67.7818 37.3278 66.02 37.1064C65.3696 37.028 65.3742 38.0565 66.02 38.1349Z" fill="black"/>
<path d="M51.5606 32.1851C52.4738 32.817 54.268 34.602 55.2827 35.0632C55.4718 35.1508 55.684 35.2338 55.8823 35.1692C56.0806 35.1047 56.1959 34.911 56.302 34.7265C57.003 33.495 57.6995 32.2635 58.4006 31.0367C60.1486 32.3788 61.892 33.721 63.6401 35.0632C63.8522 33.7348 64.0644 32.4019 64.2766 31.0736C65.3974 32.1713 66.638 33.1491 67.9664 33.9839C68.4276 32.9185 68.8934 31.8577 69.3547 30.7922C70.683 31.7101 72.2096 32.3373 73.8009 32.6233C73.5749 31.1012 73.5195 29.5561 73.6487 28.0203" fill="black"/>
<path d="M51.3023 32.6279C52.5522 33.5135 53.5807 34.8095 54.9736 35.4829C55.3657 35.672 55.7992 35.7966 56.2051 35.5752C56.6064 35.3584 56.8001 34.8787 57.0169 34.5005C57.6257 33.4305 58.2299 32.365 58.8387 31.295C58.6035 31.3549 58.3729 31.4195 58.1376 31.4795C59.8857 32.8217 61.6291 34.1638 63.3771 35.506C63.6262 35.6951 64.0828 35.5014 64.1289 35.2016C64.3411 33.8732 64.5533 32.5403 64.7654 31.212C64.4795 31.2858 64.1935 31.3642 63.9075 31.438C65.0652 32.5634 66.3382 33.5642 67.7034 34.4313C67.9156 34.5651 68.2984 34.4959 68.4045 34.2468C68.8657 33.1814 69.3315 32.1206 69.7928 31.0552C69.5575 31.1151 69.3269 31.1797 69.0917 31.2396C70.4708 32.1759 72.0205 32.8124 73.6624 33.1214C74.0776 33.1999 74.3497 32.8908 74.2943 32.4896C74.0822 31.009 74.0453 29.5147 74.1606 28.0249C74.2113 27.3654 73.1874 27.37 73.1366 28.0249C73.0167 29.6115 73.0813 31.1889 73.3073 32.7617C73.5195 32.5495 73.727 32.342 73.9392 32.1298C72.3756 31.8346 70.932 31.2396 69.6175 30.3495C69.4053 30.2065 69.0225 30.2895 68.9165 30.534C68.4552 31.5994 67.9894 32.6602 67.5282 33.7256C67.7634 33.6657 67.994 33.6011 68.2292 33.5411C66.9378 32.7202 65.7432 31.7747 64.6409 30.7092C64.3872 30.4648 63.8476 30.5386 63.783 30.9352C63.5709 32.2636 63.3587 33.5965 63.1465 34.9248C63.3956 34.8234 63.6493 34.7219 63.8983 34.6204C62.1503 33.2783 60.4069 31.9361 58.6588 30.5939C58.442 30.4279 58.0823 30.5616 57.9578 30.7784C57.4412 31.687 56.9246 32.591 56.4126 33.4997C56.3019 33.6934 56.1913 33.8871 56.0806 34.0808C56.0206 34.1869 55.9007 34.542 55.7808 34.6066C55.5271 34.7357 55.1351 34.399 54.9275 34.2561C53.8298 33.4997 52.912 32.5126 51.8281 31.747C51.2792 31.3596 50.7673 32.2497 51.3023 32.6279Z" fill="black"/>
<path d="M58.5251 38.8546C60.0148 38.5179 61.5 38.1812 62.9897 37.8445C63.0497 37.8306 63.1097 37.8168 63.1512 37.7707C63.1973 37.7154 63.1973 37.6416 63.1927 37.5678C63.165 36.9359 63.1096 36.2302 62.6438 35.8013C62.3486 35.5291 61.9335 35.4138 61.5277 35.4138C61.1264 35.4138 60.7297 35.5107 60.3377 35.6076C60.144 35.6537 59.9502 35.7044 59.7565 35.7505C59.3922 35.8428 59.0094 35.9396 58.7234 36.1795C58.3683 36.47 58.2022 36.9405 58.1745 37.3971C58.1469 37.8537 58.2437 38.3103 58.3406 38.7577" fill="black"/>
<path d="M58.6588 39.348C59.775 39.0943 60.8911 38.8452 62.0073 38.5915C62.2656 38.5316 62.5239 38.4762 62.7822 38.4163C63.0589 38.3517 63.3587 38.3194 63.5478 38.0796C63.8337 37.7245 63.6815 37.028 63.6031 36.6175C63.5201 36.184 63.331 35.7458 63.0035 35.4368C62.6253 35.0816 62.118 34.9202 61.606 34.9018C61.0664 34.8787 60.5268 35.0309 60.0056 35.1554C59.5305 35.2753 59.0093 35.363 58.5896 35.6351C57.4688 36.3638 57.598 37.7475 57.8424 38.8867C57.9808 39.5325 58.9678 39.2603 58.8295 38.6146C58.7003 38.0242 58.5204 37.2909 58.8894 36.742C59.0324 36.5253 59.2584 36.4192 59.4982 36.3454C59.8441 36.2347 60.2085 36.1609 60.5591 36.0733C61.0895 35.9441 61.809 35.7596 62.2748 36.1609C62.4685 36.327 62.5469 36.576 62.5977 36.8158C62.6253 36.9404 62.6392 37.0695 62.653 37.1987C62.6576 37.2586 62.6622 37.3232 62.6669 37.3831C62.6669 37.42 62.6714 37.4569 62.6714 37.4938C62.6668 37.6091 62.6853 37.5953 62.736 37.4431C62.8098 37.397 62.8882 37.3555 62.962 37.3094C62.6299 37.4477 62.2287 37.4892 61.8782 37.5676C61.4907 37.6553 61.1033 37.7429 60.7159 37.8305C59.941 38.0058 59.1615 38.1811 58.3867 38.3563C57.741 38.5039 58.0177 39.4956 58.6588 39.348Z" fill="black"/>
<path d="M60.4299 38.6515C60.4899 38.9052 60.7666 39.0804 61.0249 39.0343C61.2786 38.9836 61.4723 38.7161 61.4354 38.4624C61.1725 38.6192 60.8635 38.6884 60.5591 38.6607" fill="black"/>
<path d="M59.9364 38.7852C60.001 39.0435 60.1762 39.2557 60.3976 39.394C60.4853 39.454 60.5914 39.4955 60.6974 39.5186C60.8635 39.5555 60.9926 39.5509 61.154 39.5232C61.4123 39.4771 61.6245 39.2972 61.7721 39.0896C61.8367 39.002 61.8828 38.8959 61.9105 38.7944C61.9427 38.6884 61.9612 38.5638 61.9473 38.4531C61.9473 38.3609 61.9243 38.2733 61.8782 38.1948C61.832 38.1164 61.7721 38.0565 61.6937 38.0103C61.5369 37.9181 61.3339 37.9181 61.1771 38.0103C61.1171 38.0472 61.0572 38.0749 60.9926 38.1026C61.0341 38.0841 61.0756 38.0703 61.1171 38.0519C61.0018 38.098 60.8773 38.1349 60.7528 38.1533C60.7989 38.1487 60.845 38.1395 60.8911 38.1349C60.7804 38.1487 60.6744 38.1533 60.5637 38.1441C60.4391 38.1349 60.2869 38.2087 60.1993 38.2963C60.1117 38.3839 60.0425 38.5315 60.0471 38.6607C60.0517 38.7944 60.0978 38.9328 60.1993 39.025C60.2362 39.0527 60.2685 39.0804 60.3054 39.1034C60.3838 39.1496 60.4714 39.1726 60.5637 39.1726C60.9557 39.2049 61.3616 39.1035 61.6983 38.9005C61.44 38.7529 61.1817 38.6053 60.928 38.4577C60.9327 38.4993 60.9327 38.5408 60.928 38.5823C60.9327 38.5362 60.9419 38.49 60.9465 38.4439C60.9419 38.49 60.928 38.5315 60.9096 38.5777C60.928 38.5362 60.9419 38.4946 60.9603 38.4531C60.9419 38.4946 60.9188 38.5362 60.8911 38.5731C60.9188 38.5362 60.9465 38.5039 60.9695 38.4716C60.9373 38.5131 60.905 38.5454 60.8635 38.5777C60.9004 38.55 60.9327 38.5223 60.965 38.4992C60.9327 38.5223 60.8957 38.5454 60.8589 38.5592C60.9004 38.5408 60.9419 38.5269 60.9834 38.5085C60.9465 38.5223 60.905 38.5362 60.8635 38.5408C60.9096 38.5362 60.9557 38.5269 61.0018 38.5223C60.9603 38.5269 60.9188 38.5269 60.8773 38.5223C60.9234 38.5269 60.9696 38.5362 61.0157 38.5408C60.9696 38.5315 60.928 38.5223 60.8819 38.5039C60.9234 38.5223 60.9649 38.5362 61.0064 38.5546C60.9649 38.5362 60.9234 38.5131 60.8865 38.4854C60.9234 38.5131 60.9557 38.5408 60.988 38.5638C60.9511 38.5361 60.9188 38.5039 60.8911 38.467C60.9188 38.5039 60.9465 38.5362 60.9695 38.5684C60.9419 38.5315 60.9188 38.4946 60.9004 38.4485C60.9188 38.49 60.9327 38.5315 60.9511 38.5731C60.9419 38.55 60.9373 38.5315 60.928 38.5085C60.8958 38.3839 60.8035 38.264 60.6928 38.2041C60.5821 38.1395 60.4207 38.1118 60.2962 38.1533C60.1716 38.1948 60.0517 38.2686 59.9917 38.3886C59.9226 38.5131 59.8995 38.6515 59.9364 38.7852Z" fill="black"/>
<path d="M68.2753 36.59C69.3684 36.4147 70.4661 36.304 71.5731 36.2625C71.3471 35.6168 71.3932 34.8327 70.8997 34.3576C70.5445 34.021 70.0095 33.9518 69.5252 34.0071C69.3039 34.0302 69.0825 34.0763 68.8888 34.1824C68.5013 34.3899 68.2615 34.805 68.16 35.234C68.0632 35.6629 68.0862 36.1103 68.1139 36.5485" fill="black"/>
<path d="M68.4091 37.0835C69.4515 36.9175 70.5077 36.816 71.5685 36.7745C71.8822 36.7606 72.1727 36.4562 72.062 36.1241C71.9191 35.6998 71.8868 35.2432 71.7438 34.8189C71.5639 34.2838 71.2272 33.8595 70.7014 33.6381C70.1987 33.4306 69.6037 33.4306 69.0825 33.5597C68.5429 33.6889 68.0909 34.0625 67.851 34.5652C67.5513 35.1879 67.5513 35.8705 67.5928 36.5438C67.6112 36.8206 67.8141 37.0558 68.1047 37.0558C68.3676 37.0558 68.6351 36.8206 68.6167 36.5438C68.5982 36.2164 68.5705 35.8797 68.6074 35.5568C68.6167 35.4692 68.649 35.3262 68.6812 35.2201C68.6951 35.1694 68.7135 35.1233 68.732 35.0772C68.6997 35.1556 68.7827 34.9849 68.7919 34.9711C68.8657 34.8419 68.8473 34.8604 68.958 34.7543C68.981 34.7312 69.0041 34.7082 69.0318 34.6851C68.9949 34.7128 68.9995 34.7082 69.0502 34.6759C69.0963 34.6482 69.1425 34.6159 69.1932 34.5975C69.3869 34.5145 69.6175 34.496 69.862 34.5006C69.9219 34.5006 69.9865 34.5052 70.0465 34.5099C69.9589 34.5006 70.1525 34.5329 70.171 34.5375C70.314 34.5744 70.3047 34.5652 70.4293 34.639C70.4339 34.6436 70.5492 34.7312 70.4939 34.6805C70.5446 34.722 70.5907 34.7728 70.6322 34.8235C70.5769 34.7497 70.6507 34.8604 70.6599 34.8788C70.6691 34.8973 70.7521 35.0633 70.7152 34.9757C70.9043 35.4277 70.9182 35.935 71.075 36.3962C71.241 36.1795 71.4025 35.9627 71.5685 35.7459C70.4201 35.7921 69.2716 35.912 68.137 36.0919C67.8649 36.1334 67.7127 36.4747 67.7772 36.7237C67.8603 37.0143 68.137 37.125 68.4091 37.0835Z" fill="black"/>
<path d="M69.8481 36.5989C69.7236 36.7281 69.9127 36.9679 70.0834 36.9218C70.2586 36.8757 70.337 36.6543 70.2863 36.4836" fill="black"/>
<path d="M69.4884 36.2347C69.4515 36.2763 69.41 36.3224 69.3824 36.3777C69.3316 36.4792 69.3224 36.5115 69.3085 36.6083C69.3039 36.636 69.2993 36.6683 69.2993 36.696C69.2993 36.7467 69.3132 36.8251 69.3178 36.8528C69.3224 36.8712 69.3224 36.8851 69.3316 36.8989C69.3777 37.0234 69.4239 37.1065 69.5161 37.2079C69.5576 37.2494 69.6083 37.2863 69.6545 37.3186C69.6683 37.3278 69.6868 37.3371 69.7006 37.3463C69.7467 37.3693 69.7929 37.3878 69.8436 37.4062C69.8528 37.4109 69.8574 37.4109 69.8666 37.4109C69.9266 37.4247 69.9912 37.4385 70.0511 37.4339C70.1803 37.4293 70.291 37.397 70.4063 37.3325C70.457 37.3048 70.5031 37.2633 70.5492 37.2264C70.5631 37.2126 70.5769 37.1987 70.5908 37.1849C70.6231 37.1434 70.6692 37.0926 70.6968 37.0419C70.7291 36.9865 70.7522 36.9266 70.7706 36.8712C70.7798 36.8482 70.7845 36.8297 70.7891 36.8067C70.8029 36.7421 70.8122 36.6729 70.8168 36.6083C70.8168 36.5853 70.8168 36.5622 70.8168 36.5391C70.8122 36.4746 70.8029 36.4054 70.7845 36.3408C70.7706 36.2762 70.7383 36.2163 70.6922 36.1655C70.6553 36.1102 70.6092 36.0641 70.5492 36.0318C70.4893 35.9949 70.4247 35.9718 70.3602 35.9718C70.291 35.958 70.2218 35.958 70.1572 35.9811C70.1157 35.9995 70.0742 36.0134 70.0327 36.0318C69.9543 36.0779 69.8943 36.1379 69.8482 36.2163C69.8297 36.2578 69.8159 36.2993 69.7974 36.3408C69.7744 36.4331 69.7744 36.5207 69.7974 36.613C69.8021 36.6314 69.8067 36.6498 69.8067 36.6683C69.8021 36.6222 69.7928 36.5761 69.7882 36.5299C69.7928 36.5668 69.7928 36.5991 69.7882 36.636C69.7928 36.5899 69.8021 36.5438 69.8067 36.4976C69.8021 36.5345 69.7928 36.5668 69.779 36.5991C69.7975 36.5576 69.8113 36.5161 69.8297 36.4746C69.8159 36.5023 69.8021 36.5299 69.7836 36.553C69.8113 36.5161 69.839 36.4838 69.862 36.4515C69.8482 36.47 69.8297 36.4838 69.8113 36.5023C69.8482 36.4746 69.8805 36.4469 69.9128 36.4238C69.8943 36.4377 69.8759 36.4515 69.8528 36.4607C69.8943 36.4423 69.9358 36.4285 69.9773 36.41C69.9589 36.4146 69.9451 36.4238 69.9266 36.4238C69.9727 36.4192 70.0188 36.41 70.065 36.4054C70.0465 36.4054 70.0327 36.4054 70.0142 36.4054C70.0604 36.41 70.1065 36.4192 70.1526 36.4238C70.1342 36.4192 70.1157 36.4146 70.1019 36.41C70.1434 36.4285 70.1849 36.4423 70.2264 36.4607C70.2079 36.4515 70.1895 36.4423 70.171 36.4284C70.2079 36.4561 70.2402 36.4838 70.2725 36.5069C70.2541 36.493 70.2402 36.4792 70.2264 36.4607C70.2541 36.4976 70.2817 36.5299 70.3048 36.5622C70.291 36.5438 70.2817 36.5253 70.2725 36.5069C70.291 36.5484 70.3048 36.5899 70.3233 36.6314C70.314 36.6129 70.3094 36.5945 70.3094 36.576C70.314 36.6222 70.3233 36.6683 70.3279 36.7144C70.3279 36.7006 70.3279 36.6867 70.3279 36.6729C70.3233 36.719 70.314 36.7652 70.3094 36.8113C70.3094 36.7974 70.314 36.7882 70.3186 36.7744C70.3002 36.8159 70.2864 36.8574 70.2679 36.8989C70.2725 36.8851 70.2771 36.8758 70.2863 36.8666C70.2587 36.9035 70.231 36.9358 70.2079 36.9681C70.2126 36.9635 70.2126 36.9589 70.2172 36.9543C70.2679 36.9081 70.3002 36.8528 70.3233 36.7882C70.3555 36.7283 70.3694 36.6591 70.3694 36.5899C70.374 36.5207 70.3555 36.4515 70.3233 36.3916C70.3048 36.327 70.2679 36.2716 70.2172 36.2255C70.1803 36.1978 70.148 36.1702 70.1157 36.1471C70.0373 36.101 69.9497 36.0779 69.8574 36.0779C69.8113 36.0825 69.7652 36.0918 69.719 36.0964C69.6268 36.1287 69.553 36.1702 69.4884 36.2347Z" fill="black"/>
<path d="M68.6351 42.2767C66.0615 42.4981 63.5432 43.3099 61.3247 44.629C60.6928 45.0026 60.0056 45.5929 60.1347 46.3124C60.2454 46.9397 60.9557 47.2995 61.5922 47.2764C62.2287 47.2533 62.8145 46.9535 63.4048 46.7275C65.6556 45.8558 68.1647 45.9389 70.4939 45.3116C71.3379 45.0856 72.3249 44.5137 72.2188 43.6466C72.1081 42.7287 70.9228 42.4566 70.0003 42.4059C69.2854 42.369 69.636 42.2398 68.6074 42.286" fill="black"/>
<path d="M68.6351 41.7647C66.2367 41.9861 63.9076 42.6549 61.7767 43.7895C60.928 44.2415 59.8396 44.818 59.6366 45.8558C59.4568 46.769 60.1624 47.5254 61.0111 47.7284C62.1042 47.9913 63.1189 47.3317 64.1243 47.0181C65.3097 46.6445 66.5504 46.4923 67.7772 46.3263C69.2393 46.1279 72.7216 45.9434 72.74 43.7895C72.7492 42.7979 71.8729 42.2306 71.0012 42.0276C70.2586 41.8524 69.3685 41.7463 68.6074 41.774C67.9479 41.797 67.9479 42.8256 68.6074 42.7979C69.0779 42.7794 69.4699 42.8717 69.9312 42.9132C70.4524 42.9593 71.3056 42.9778 71.6239 43.4805C72.4402 44.7812 68.3907 45.2101 67.8141 45.2885C66.924 45.413 66.0338 45.5191 65.1529 45.6944C64.2489 45.8789 63.4187 46.1879 62.5608 46.5153C62.0949 46.6906 60.5176 47.055 60.6513 46.0587C60.7528 45.3069 61.9889 44.8273 62.57 44.5275C64.461 43.5681 66.5319 42.9824 68.6397 42.7841C69.2854 42.7287 69.29 41.7048 68.6351 41.7647Z" fill="black"/>
<path d="M54.8815 36.3084C53.8253 36.0178 52.5615 36.4099 52.0034 37.3554C51.4453 38.3009 51.8097 39.7215 52.829 40.1366C53.2257 40.298 53.6685 40.3026 54.0974 40.2611C54.7062 40.2058 55.4073 39.9659 55.5779 39.3802" fill="black"/>
<path d="M55.0198 35.815C53.5531 35.4321 51.699 36.1332 51.307 37.7152C51.1363 38.407 51.2516 39.2003 51.6575 39.7953C52.1556 40.524 52.9443 40.8238 53.8114 40.7962C54.7154 40.7685 55.767 40.4779 56.076 39.5186C56.159 39.2557 55.9792 38.9605 55.7163 38.8867C55.4395 38.8129 55.172 38.979 55.0844 39.2465C55.0521 39.3433 55.0706 39.288 55.0798 39.2695C55.066 39.3018 55.0475 39.3295 55.029 39.3572C55.0198 39.371 54.9691 39.4309 55.0198 39.371C54.9968 39.394 54.9737 39.4171 54.9506 39.4448C54.9506 39.4448 54.8907 39.5001 54.9276 39.4678C54.9691 39.4356 54.8861 39.4955 54.8769 39.5048C54.8123 39.5463 54.7431 39.5832 54.6693 39.6154C54.7339 39.5878 54.5863 39.6431 54.5678 39.6523C54.4986 39.6754 54.4295 39.6939 54.3557 39.7077C54.2957 39.7215 54.2311 39.7353 54.1712 39.7446C54.0651 39.763 54.125 39.7492 54.1481 39.7492C54.0928 39.7538 54.042 39.7584 53.9867 39.763C53.6684 39.7861 53.281 39.7769 53.0181 39.6662C52.9674 39.6431 52.9166 39.6154 52.8705 39.5878C52.8521 39.5785 52.7091 39.4678 52.7783 39.5278C52.7276 39.4863 52.6814 39.4448 52.6399 39.3987C52.6214 39.3802 52.5154 39.2465 52.5661 39.3203C52.4923 39.2142 52.4278 39.1035 52.3724 38.9882C52.4093 39.0666 52.354 38.9328 52.3447 38.9051C52.3217 38.836 52.3032 38.7668 52.2848 38.693C52.2755 38.6607 52.2525 38.4946 52.2617 38.5869C52.2571 38.5315 52.2525 38.4716 52.2479 38.4162C52.2479 38.3609 52.2479 38.3009 52.2479 38.2456C52.2479 38.2133 52.2525 38.181 52.2571 38.1488C52.2709 37.9965 52.2432 38.1995 52.2617 38.1165C52.2847 37.9965 52.317 37.8766 52.3632 37.7613C52.3355 37.8351 52.4001 37.6921 52.4139 37.6644C52.4508 37.5953 52.4969 37.5261 52.5431 37.4615C52.5984 37.3877 52.5061 37.503 52.5615 37.4384C52.5799 37.42 52.5984 37.3969 52.6168 37.3785C52.6676 37.3278 52.7183 37.277 52.7691 37.2263C52.8521 37.1525 52.9213 37.1018 53.0596 37.0234C53.1288 36.9819 53.2026 36.9449 53.2764 36.9126C53.3594 36.8757 53.221 36.9311 53.3041 36.9034C53.3456 36.885 53.3917 36.8711 53.4332 36.8573C53.5116 36.8296 53.59 36.8112 53.6731 36.7927C53.71 36.7835 53.7468 36.7789 53.7791 36.7697C53.793 36.7651 53.9037 36.7512 53.8345 36.7605C53.9913 36.742 54.1481 36.7374 54.3049 36.7466C54.4894 36.7558 54.5356 36.7651 54.7385 36.8204C55.3842 36.9726 55.6563 35.981 55.0198 35.815Z" fill="black"/>
<path d="M52.8243 38.3195C53.2579 37.7937 53.9728 37.5216 54.6462 37.6185L52.8243 38.3195Z" fill="black"/>
<path d="M53.1887 38.6838C53.2671 38.5916 53.3501 38.5086 53.4424 38.4302C53.5162 38.3656 53.3501 38.4947 53.4239 38.444C53.4516 38.4255 53.4746 38.4071 53.5023 38.3886C53.553 38.3564 53.6038 38.3241 53.6545 38.2964C53.7006 38.2687 53.7514 38.2457 53.8021 38.2226C53.8897 38.1811 53.6822 38.2687 53.7929 38.2272C53.8252 38.218 53.8528 38.2042 53.8851 38.1949C54.0004 38.158 54.1157 38.1304 54.231 38.1165C54.1849 38.1212 54.1388 38.1304 54.0927 38.135C54.2679 38.1119 54.4386 38.1119 54.6139 38.1304C54.5677 38.1257 54.5216 38.1165 54.4755 38.1119C54.4847 38.1119 54.4939 38.1165 54.5032 38.1165C54.6462 38.135 54.7661 38.1396 54.8998 38.0658C55.0059 38.0058 55.1074 37.8813 55.135 37.7614C55.1627 37.6322 55.1581 37.4847 55.0843 37.3647C55.0197 37.2633 54.9044 37.148 54.7799 37.1295C54.351 37.0696 53.9174 37.088 53.5069 37.2448C53.1056 37.397 52.7367 37.6276 52.46 37.9597C52.3723 38.0658 52.3077 38.1765 52.3077 38.3241C52.3077 38.4486 52.3631 38.6008 52.46 38.6885C52.6537 38.8591 53.0042 38.9052 53.1887 38.6838Z" fill="black"/>
<path d="M54.9552 38.4578C55.112 38.6054 55.0336 38.9191 54.8261 38.979C54.6185 39.039 54.3879 38.8176 54.4386 38.6101C54.494 38.3979 54.803 38.3102 54.9552 38.4578Z" fill="black"/>
<path d="M54.5954 38.8222C54.6047 38.8314 54.6139 38.8406 54.6185 38.8498C54.5908 38.8129 54.5631 38.7807 54.5401 38.7484C54.5539 38.7668 54.5677 38.7853 54.577 38.8083C54.5585 38.7668 54.5447 38.7253 54.5262 38.6838C54.5355 38.7069 54.5447 38.7345 54.5493 38.7622C54.5447 38.7161 54.5355 38.67 54.5309 38.6238C54.5355 38.6515 54.5355 38.6838 54.5309 38.7115C54.5355 38.6654 54.5447 38.6192 54.5493 38.5731C54.5447 38.6054 54.5355 38.6377 54.5216 38.67C54.5401 38.6285 54.5539 38.587 54.5723 38.5454C54.5585 38.5731 54.5447 38.5962 54.5262 38.6192C54.5539 38.5823 54.5816 38.5501 54.6046 38.5178C54.5908 38.5362 54.5724 38.5501 54.5539 38.5685C54.5862 38.5408 54.6231 38.5132 54.6554 38.4901C54.6369 38.5039 54.6185 38.5178 54.5954 38.527C54.6369 38.5085 54.6784 38.4947 54.7199 38.4763C54.7015 38.4855 54.6784 38.4901 54.66 38.4947C54.7061 38.4901 54.7522 38.4809 54.7983 38.4763C54.7753 38.4809 54.7476 38.4809 54.7246 38.4763C54.7707 38.4809 54.8168 38.4901 54.8629 38.4947C54.8352 38.4901 54.8122 38.4855 54.7845 38.4716C54.826 38.4901 54.8676 38.5039 54.9091 38.5224C54.8814 38.5086 54.8583 38.4947 54.8306 38.4763C54.8675 38.5039 54.8998 38.5316 54.9321 38.5547C54.9091 38.5362 54.886 38.5132 54.8675 38.4901C54.8952 38.527 54.9229 38.5593 54.9459 38.5916C54.9275 38.5685 54.9137 38.5408 54.8998 38.5132C54.9183 38.5547 54.9321 38.5962 54.9506 38.6377C54.9413 38.6146 54.9321 38.5869 54.9275 38.5593C54.9321 38.6054 54.9413 38.6515 54.9459 38.6977C54.9413 38.6746 54.9413 38.6515 54.9459 38.6285C54.9413 38.6746 54.9321 38.7207 54.9275 38.7668C54.9321 38.7438 54.9367 38.7207 54.9459 38.7022C54.9275 38.7438 54.9137 38.7853 54.8952 38.8268C54.9044 38.8037 54.9183 38.7853 54.9321 38.7668C54.9044 38.7991 54.8768 38.836 54.8537 38.8683C54.8676 38.8499 54.886 38.8314 54.9091 38.8176C54.8722 38.8452 54.8399 38.8729 54.8076 38.896C54.8306 38.8775 54.8583 38.8637 54.886 38.8498C54.8445 38.8683 54.803 38.8821 54.7615 38.9006C54.7891 38.8868 54.8214 38.8821 54.8537 38.8775C54.8076 38.8821 54.7614 38.8914 54.7153 38.896C54.743 38.8914 54.7753 38.8914 54.803 38.896C54.7568 38.8914 54.7107 38.8821 54.6646 38.8775C54.6923 38.8821 54.7153 38.8868 54.743 38.896C54.7015 38.8775 54.66 38.8637 54.6185 38.8452C54.6369 38.8545 54.6554 38.8637 54.6738 38.8775C54.6369 38.8498 54.6046 38.8222 54.5723 38.7991C54.5816 38.8083 54.5862 38.8129 54.5954 38.8222C54.6923 38.9144 54.8214 38.9744 54.9598 38.9744C55.029 38.979 55.0982 38.9606 55.1581 38.9283C55.2227 38.9098 55.278 38.8729 55.3241 38.8222C55.4118 38.7253 55.481 38.5962 55.4764 38.4578C55.4717 38.4117 55.4625 38.3656 55.4579 38.3195C55.4349 38.2318 55.3887 38.158 55.3241 38.0935C55.2826 38.0566 55.2365 38.0196 55.1904 37.9874C55.1766 37.9781 55.1627 37.9689 55.1489 37.9643C55.1028 37.9458 55.0428 37.9136 54.9921 37.8997C54.9552 37.8905 54.9137 37.8859 54.8768 37.8813C54.8399 37.8767 54.803 37.8674 54.7661 37.8674C54.7061 37.8674 54.6369 37.8813 54.5862 37.8905C54.5539 37.8951 54.5262 37.9043 54.4939 37.9136C54.4248 37.9412 54.3556 37.9643 54.2956 38.0104C54.2587 38.0381 54.1988 38.0796 54.1619 38.1165C54.1204 38.158 54.0881 38.2088 54.0512 38.2549C54.0419 38.2687 54.0327 38.2779 54.0281 38.2918C54.005 38.3379 53.9866 38.384 53.9681 38.4301C53.9635 38.4394 53.9589 38.4486 53.9589 38.4578C53.9359 38.5316 53.9267 38.6146 53.9313 38.693C53.9359 38.7484 53.9405 38.8176 53.9589 38.8775C53.9728 38.9329 54.0004 38.9928 54.0281 39.0436C54.0373 39.062 54.0466 39.0759 54.0558 39.0897C54.0881 39.1404 54.125 39.1912 54.1665 39.2327C54.2172 39.2926 54.2818 39.3388 54.351 39.3803C54.3833 39.3987 54.4201 39.4125 54.457 39.431C54.4939 39.4448 54.5308 39.4633 54.5677 39.4725C54.577 39.4725 54.5862 39.4771 54.5954 39.4771C54.6462 39.4864 54.7015 39.4956 54.7522 39.4956C54.7707 39.4956 54.7891 39.4956 54.8076 39.4956C54.8583 39.491 54.9321 39.4863 54.9875 39.4679C55.0428 39.4494 55.0981 39.4264 55.1489 39.3987C55.2135 39.3618 55.2734 39.3157 55.3195 39.265C55.3703 39.2142 55.4164 39.1543 55.4533 39.0851C55.481 39.0297 55.504 38.9744 55.5225 38.919C55.5271 38.9006 55.5317 38.8868 55.5363 38.8683C55.5502 38.8084 55.5548 38.7484 55.5594 38.6838C55.5594 38.6654 55.5594 38.6469 55.5594 38.6331C55.5548 38.5731 55.5502 38.5085 55.5317 38.4486C55.5179 38.3932 55.4856 38.3287 55.4625 38.2779C55.4533 38.2641 55.4487 38.2457 55.4395 38.2318C55.4118 38.1903 55.3795 38.1488 55.3472 38.1119C55.3426 38.1027 55.3334 38.0981 55.3288 38.0888C55.2826 38.0381 55.2273 38.0012 55.1627 37.9827C55.1028 37.9505 55.0336 37.9366 54.9644 37.9366C54.8952 37.932 54.826 37.9505 54.7661 37.9827C54.7015 38.0012 54.6461 38.0381 54.6 38.0888C54.5124 38.1857 54.4432 38.3148 54.4478 38.4532C54.4524 38.4993 54.4617 38.5454 54.4663 38.5916C54.4893 38.6838 54.5309 38.7576 54.5954 38.8222Z" fill="black"/>
<path d="M73.5287 34.5697C73.907 34.2653 74.4558 34.1915 74.8986 34.3898L73.5287 34.5697Z" fill="black"/>
<path d="M73.8931 34.9341C73.8977 34.9295 73.9023 34.9249 73.9116 34.9203C73.8793 34.948 73.8424 34.9756 73.8101 34.9987C73.8977 34.9295 73.9946 34.8742 74.1007 34.828C74.0592 34.8465 74.0177 34.8603 73.9762 34.8788C74.0868 34.8326 74.2022 34.8004 74.3221 34.7865C74.2759 34.7911 74.2298 34.8004 74.1837 34.805C74.3082 34.7865 74.4374 34.7865 74.5619 34.805C74.5158 34.8004 74.4697 34.7911 74.4236 34.7865C74.5342 34.805 74.6449 34.8326 74.7464 34.8741C74.7049 34.8557 74.6634 34.8419 74.6219 34.8234C74.6265 34.828 74.6357 34.828 74.6403 34.8327C74.7695 34.888 74.8894 34.9249 75.037 34.8834C75.1569 34.8511 75.286 34.7588 75.3414 34.6482C75.406 34.5282 75.4336 34.3853 75.3921 34.2515C75.3552 34.1316 75.2768 33.9978 75.1569 33.9471C74.977 33.8687 74.8156 33.8133 74.6219 33.7903C74.4697 33.7718 74.3267 33.7626 74.1745 33.781C74.0084 33.8041 73.8516 33.8318 73.6948 33.8917C73.598 33.9332 73.5011 33.9702 73.4135 34.0255C73.3258 34.0762 73.2428 34.1454 73.1644 34.21C73.0675 34.2884 73.0122 34.4545 73.0122 34.5744C73.0122 34.6989 73.0675 34.8511 73.1644 34.9387C73.2612 35.0264 73.3904 35.0956 73.5288 35.0909C73.5749 35.0863 73.621 35.0771 73.6671 35.0725C73.7502 35.0402 73.8286 34.9987 73.8931 34.9341Z" fill="black"/>
<path d="M73.9531 35.4091C74.0546 35.3998 74.1514 35.3906 74.2529 35.3814C74.3497 35.5151 74.2068 35.7411 74.05 35.6996C73.8931 35.6581 73.8885 35.3768 74.05 35.3445" fill="black"/>
<path d="M73.9531 35.9257C74.0545 35.9165 74.1514 35.9072 74.2529 35.898C74.1053 35.815 73.9577 35.7273 73.8101 35.6443C73.8193 35.6536 73.8239 35.6628 73.8285 35.6766C73.8101 35.6351 73.7963 35.5936 73.7778 35.5521C73.7824 35.5659 73.787 35.5798 73.7917 35.5936C73.787 35.5475 73.7778 35.5014 73.7732 35.4552C73.7778 35.4737 73.7778 35.4921 73.7732 35.5106C73.7778 35.4645 73.787 35.4183 73.7917 35.3722C73.787 35.3907 73.7824 35.4137 73.7732 35.4322C73.7916 35.3907 73.8055 35.3492 73.8239 35.3076C73.8147 35.3261 73.8055 35.3445 73.7917 35.363C73.8193 35.3261 73.847 35.2938 73.8701 35.2615C73.8562 35.2754 73.8424 35.2938 73.8285 35.303C73.8654 35.2754 73.8977 35.2477 73.9346 35.2246C73.9208 35.2339 73.9069 35.2431 73.8931 35.2477C73.9346 35.2292 73.9761 35.2154 74.0176 35.197C74.0038 35.2016 73.99 35.2062 73.9715 35.2108C74.0176 35.2062 74.0638 35.197 74.1099 35.1923C74.0961 35.1923 74.0822 35.1923 74.0684 35.1923C74.1145 35.197 74.1606 35.2062 74.2067 35.2108C74.1929 35.2108 74.1791 35.2062 74.1698 35.2016C74.2113 35.22 74.2529 35.2339 74.2944 35.2523C74.2851 35.2477 74.2759 35.2431 74.2667 35.2339C74.3036 35.2615 74.3359 35.2892 74.3682 35.3123C74.359 35.303 74.3497 35.2938 74.3405 35.2846C74.3682 35.3169 74.3959 35.3538 74.4189 35.386C74.4097 35.3722 74.4005 35.3584 74.3959 35.3446C74.4143 35.3861 74.4281 35.4276 74.4466 35.4691C74.4374 35.4506 74.4327 35.4322 74.4327 35.4091C74.4373 35.4553 74.4466 35.5014 74.4512 35.5475C74.4466 35.529 74.4466 35.506 74.4512 35.4875C74.4466 35.5337 74.4373 35.5798 74.4327 35.6259C74.4373 35.6074 74.442 35.589 74.4466 35.5752C74.4281 35.6167 74.4143 35.6582 74.3959 35.6997C74.4005 35.6859 74.4097 35.672 74.4189 35.6582C74.3912 35.6951 74.3636 35.7273 74.3405 35.7596C74.3497 35.7504 74.3543 35.7412 74.3636 35.7366C74.3267 35.7643 74.2944 35.7919 74.2621 35.815C74.2713 35.8058 74.2805 35.8012 74.2944 35.7965C74.2529 35.815 74.2113 35.8288 74.1698 35.8473C74.1791 35.8427 74.1883 35.8427 74.1975 35.8381C74.2621 35.8242 74.322 35.7919 74.3728 35.7458C74.4281 35.7089 74.4743 35.6628 74.5065 35.6028C74.5434 35.5429 74.5665 35.4783 74.5665 35.4137C74.5803 35.3445 74.5803 35.2754 74.5573 35.2108C74.5388 35.1693 74.525 35.1278 74.5065 35.0863C74.4604 35.0079 74.4005 34.9479 74.322 34.9018C74.2805 34.8833 74.239 34.8695 74.1975 34.851C74.1053 34.828 74.0176 34.828 73.9254 34.851C73.9162 34.851 73.907 34.8557 73.8977 34.8603C73.8562 34.8741 73.8101 34.8972 73.7686 34.9156C73.764 34.9156 73.7594 34.9202 73.7547 34.9248C73.704 34.9571 73.6533 34.9894 73.6164 35.0355C73.5887 35.0678 73.5518 35.1139 73.5241 35.1554C73.5103 35.1831 73.4965 35.2154 73.4872 35.2385C73.4734 35.2754 73.4549 35.3077 73.4503 35.3492C73.4411 35.3953 73.4365 35.446 73.4319 35.4968C73.4319 35.5014 73.4319 35.506 73.4319 35.5106C73.4319 35.5198 73.4319 35.529 73.4319 35.5383C73.4365 35.5982 73.4411 35.6628 73.4596 35.7228C73.4918 35.8335 73.5564 35.9534 73.6394 36.0318C73.6441 36.0364 73.6441 36.0364 73.6487 36.041C73.6856 36.0687 73.7225 36.101 73.7594 36.124C73.8009 36.1517 73.8793 36.1794 73.9023 36.1886C73.9623 36.2117 74.0315 36.2162 74.0914 36.2209C74.096 36.2209 74.1007 36.2209 74.1053 36.2209C74.1514 36.2162 74.2021 36.207 74.2529 36.2024C74.2621 36.2024 74.2713 36.1978 74.2851 36.1978C74.3451 36.1794 74.4097 36.1563 74.4604 36.1194C74.5065 36.0871 74.5665 36.0456 74.608 35.9995C74.6403 35.958 74.6772 35.9165 74.7049 35.8749C74.7095 35.8657 74.7141 35.8565 74.7187 35.8473C74.7371 35.8058 74.7556 35.7596 74.7741 35.7135C74.7741 35.7089 74.7787 35.7043 74.7787 35.6997C74.7833 35.6905 74.7833 35.6812 74.7879 35.6674C74.7971 35.6167 74.8017 35.5706 74.8063 35.5198C74.8063 35.5152 74.8063 35.5106 74.8063 35.506C74.8063 35.4967 74.8063 35.4829 74.8063 35.4737C74.8017 35.4229 74.7971 35.3722 74.7879 35.3215C74.7879 35.3169 74.7833 35.3076 74.7833 35.303C74.7833 35.2984 74.7787 35.2938 74.7787 35.2892C74.7602 35.2431 74.7418 35.1969 74.7233 35.1554C74.7187 35.1508 74.7187 35.1462 74.7141 35.1416C74.7141 35.137 74.7095 35.137 74.7095 35.137C74.6818 35.1047 74.6541 35.0678 74.6311 35.0355C74.5849 34.9848 74.5296 34.9525 74.465 34.9294C74.3958 34.8972 74.3543 34.8787 74.2621 34.8833C74.2575 34.8833 74.2483 34.8833 74.2436 34.8833C74.2344 34.8833 74.2252 34.8833 74.216 34.8879C74.133 34.8972 74.0499 34.9018 73.9669 34.911C73.8977 34.9064 73.8285 34.9248 73.7686 34.9571C73.704 34.9756 73.6487 35.0125 73.6025 35.0632C73.5518 35.1093 73.5149 35.1647 73.4965 35.2292C73.4642 35.2892 73.4503 35.3584 73.4503 35.4276C73.4549 35.4737 73.4642 35.5198 73.4688 35.5659C73.4919 35.6536 73.538 35.7274 73.6025 35.7919C73.6348 35.8196 73.6717 35.8473 73.704 35.8704C73.7732 35.898 73.8608 35.9257 73.9531 35.9257Z" fill="black"/>
<path d="M57.9393 22.6195C57.6488 21.7893 57.3536 20.9591 57.063 20.1289L57.9393 22.6195Z" fill="black"/>
<path d="M58.4328 22.4809C58.1422 21.6507 57.8471 20.8205 57.5565 19.9903C57.4689 19.7366 57.2014 19.5429 56.9246 19.6305C56.6756 19.7089 56.4726 19.9903 56.5649 20.2624C56.8554 21.0926 57.1506 21.9228 57.4412 22.753C57.5288 23.0067 57.7963 23.2004 58.0731 23.1128C58.3221 23.0297 58.5251 22.753 58.4328 22.4809Z" fill="black"/>
<path d="M62.7914 22.5087C63.4186 22.2181 64.0413 21.9275 64.6686 21.637L62.7914 22.5087Z" fill="black"/>
<path d="M63.0496 22.9515C63.6769 22.6609 64.2995 22.3703 64.9268 22.0797C65.0375 22.029 65.1297 21.886 65.162 21.7753C65.1943 21.6508 65.1805 21.4894 65.1113 21.3787C64.9499 21.125 64.6731 21.0743 64.4102 21.1942C63.783 21.4848 63.1603 21.7753 62.533 22.0659C62.4224 22.1167 62.3301 22.2596 62.2978 22.3703C62.2655 22.4948 62.2794 22.6563 62.3486 22.767C62.5146 23.0206 62.7913 23.0714 63.0496 22.9515Z" fill="black"/>
<path d="M69.4053 25.5481C69.7374 24.5703 70.0695 23.5925 70.4016 22.6101L69.4053 25.5481Z" fill="black"/>
<path d="M69.8989 25.6818C70.231 24.704 70.563 23.7262 70.8951 22.7438C70.9828 22.4901 70.7983 22.1719 70.5354 22.1119C70.2494 22.0474 69.9957 22.1995 69.9035 22.4717C69.5714 23.4495 69.2393 24.4273 68.9072 25.4097C68.8196 25.6634 69.0041 25.9816 69.267 26.0416C69.553 26.1061 69.8066 25.9539 69.8989 25.6818Z" fill="black"/>
<path d="M67.7819 19.2017C67.6804 20.2855 67.9156 21.3925 68.4506 22.338L67.7819 19.2017Z" fill="black"/>
<path d="M67.2699 19.2017C67.1638 20.3779 67.4359 21.5724 68.0078 22.601C68.1369 22.8362 68.4783 22.9331 68.7089 22.7855C68.9441 22.6333 69.0317 22.3335 68.8934 22.0844C68.6443 21.6324 68.4875 21.2219 68.3722 20.6869C68.3122 20.4101 68.2984 20.2856 68.2799 20.0043C68.2661 19.7368 68.2707 19.4693 68.2938 19.2064C68.3168 18.9389 68.0401 18.6805 67.7818 18.6944C67.4866 18.7036 67.2975 18.9158 67.2699 19.2017Z" fill="black"/>
<path d="M59.1615 26.6736C60.2961 27.0979 61.4307 27.5222 62.57 27.9466L59.1615 26.6736Z" fill="black"/>
<path d="M59.0278 27.167C60.1624 27.5913 61.297 28.0156 62.4362 28.44C62.6899 28.5322 63.0081 28.3339 63.0681 28.0802C63.1327 27.7896 62.9804 27.5498 62.7083 27.4483C61.5737 27.024 60.4391 26.5997 59.2999 26.1754C59.0462 26.0831 58.728 26.2814 58.668 26.5351C58.6034 26.8303 58.7602 27.0701 59.0278 27.167Z" fill="black"/>
<path d="M66.7765 29.3439C66.758 28.3431 66.7349 27.3468 66.7165 26.3459L66.7765 29.3439Z" fill="black"/>
<path d="M67.2883 29.3439C67.2699 28.3431 67.2468 27.3468 67.2284 26.346C67.2238 26.0785 66.9978 25.8202 66.7164 25.834C66.4443 25.8479 66.1999 26.06 66.2045 26.346C66.2229 27.3468 66.246 28.3431 66.2644 29.3439C66.269 29.6115 66.495 29.8697 66.7764 29.8559C67.0485 29.8421 67.293 29.6299 67.2883 29.3439Z" fill="black"/>
<path d="M52.4785 21.4248C51.8789 22.4948 51.2747 23.5649 50.6751 24.6395L52.4785 21.4248Z" fill="black"/>
<path d="M52.0357 21.1666C51.4361 22.2366 50.8319 23.3066 50.2323 24.3813C50.1031 24.6165 50.1677 24.9532 50.4168 25.0823C50.6612 25.2115 50.9795 25.1469 51.1178 24.8978C51.7174 23.8278 52.3216 22.7578 52.9212 21.6831C53.0504 21.4479 52.9858 21.1112 52.7367 20.9821C52.4969 20.8575 52.1786 20.9175 52.0357 21.1666Z" fill="black"/>
<path d="M54.7246 24.6719C54.6877 25.4744 54.6462 26.277 54.6093 27.0795L54.7246 24.6719Z" fill="black"/>
<path d="M54.2126 24.6719C54.1757 25.4744 54.1342 26.277 54.0973 27.0795C54.0835 27.347 54.3418 27.6053 54.6093 27.5915C54.8999 27.5776 55.1074 27.3655 55.1212 27.0795C55.1581 26.277 55.1996 25.4744 55.2365 24.6719C55.2504 24.4044 54.9921 24.1461 54.7246 24.16C54.4386 24.1738 54.2265 24.3859 54.2126 24.6719Z" fill="black"/>
<path d="M49.3375 30.8155C49.8771 29.9392 50.4214 29.0582 50.961 28.1819L49.3375 30.8155Z" fill="black"/>
<path d="M49.7803 31.0737C50.3199 30.1974 50.8641 29.3164 51.4038 28.4401C51.5468 28.2095 51.4591 27.8682 51.2193 27.739C50.9702 27.6053 50.6704 27.6791 50.5182 27.9235C49.9786 28.7998 49.4343 29.6808 48.8947 30.5571C48.7517 30.7877 48.8394 31.129 49.0792 31.2582C49.3283 31.3919 49.6327 31.3181 49.7803 31.0737Z" fill="black"/>
<path d="M73.0767 25.8341C73.5333 25.7695 73.99 25.7049 74.4512 25.6357L73.0767 25.8341Z" fill="black"/>
<path d="M73.2151 26.3276C73.6717 26.2631 74.1284 26.1939 74.5896 26.1293C74.7095 26.1109 74.8386 25.991 74.894 25.8941C74.9585 25.7834 74.9862 25.622 74.9447 25.4974C74.9032 25.3729 74.8294 25.253 74.7095 25.193C74.668 25.1746 74.6265 25.1607 74.585 25.1423C74.4927 25.1192 74.4051 25.1192 74.3129 25.1423C73.8562 25.2069 73.3996 25.2714 72.9384 25.3406C72.8185 25.3591 72.6893 25.479 72.634 25.5758C72.5694 25.6865 72.5417 25.848 72.5833 25.9725C72.6248 26.097 72.6985 26.2169 72.8185 26.2769C72.86 26.2953 72.9015 26.3092 72.943 26.3276C73.0306 26.3553 73.1229 26.3553 73.2151 26.3276Z" fill="black"/>
<path d="M60.4762 45.6207C60.7944 45.8421 61.2187 45.8283 61.6015 45.7776C61.7399 45.7591 61.8829 45.7314 61.9982 45.6576C62.2288 45.5147 62.3164 45.2241 62.3349 44.9566C62.3533 44.6845 62.3164 44.4077 62.2242 44.1541C61.5001 44.4907 60.859 45.0073 60.3701 45.6392" fill="black"/>
<path d="M60.2178 46.0635C60.5176 46.2664 60.8958 46.331 61.251 46.3217C61.4355 46.3171 61.62 46.2894 61.7998 46.2618C61.9705 46.2341 62.1458 46.1788 62.2887 46.0773C62.9298 45.6253 62.9529 44.6936 62.7177 44.0156C62.6024 43.6835 62.2749 43.5636 61.9659 43.7112C61.2049 44.071 60.5222 44.6152 60.0057 45.2747C59.918 45.3854 59.8535 45.4869 59.8535 45.6391C59.8535 45.7637 59.9088 45.9159 60.0057 46.0035C60.1902 46.1741 60.5545 46.2295 60.7298 46.0035C60.9742 45.6899 61.2464 45.4085 61.5554 45.1594C61.5738 45.1456 61.5877 45.1318 61.6061 45.1179C61.6568 45.0764 61.5046 45.1964 61.5923 45.1272C61.6292 45.0995 61.6707 45.0672 61.7122 45.0395C61.7906 44.9842 61.8736 44.9288 61.9566 44.8781C62.1273 44.772 62.3026 44.6798 62.4824 44.5921C62.2334 44.4907 61.9797 44.3892 61.7306 44.2877C61.7537 44.3569 61.7768 44.4215 61.7906 44.4907C61.7998 44.523 61.8044 44.5599 61.8137 44.5968C61.8137 44.6106 61.8183 44.6198 61.8183 44.6337C61.8275 44.689 61.8275 44.6798 61.8137 44.6014C61.8367 44.6244 61.8275 44.7628 61.8275 44.7951C61.8275 44.8597 61.8229 44.9196 61.8229 44.9842C61.8183 45.0856 61.846 44.8643 61.8275 44.9611C61.8229 44.9888 61.8183 45.0165 61.809 45.0441C61.8044 45.0718 61.7952 45.0995 61.786 45.1272C61.7675 45.1871 61.7353 45.1917 61.7998 45.1087C61.786 45.1318 61.7768 45.1595 61.7629 45.1825C61.7537 45.201 61.6984 45.2609 61.7583 45.201C61.8183 45.1318 61.7491 45.2056 61.7353 45.2194C61.6569 45.2978 61.7952 45.1871 61.7537 45.2102C61.7491 45.2148 61.6845 45.2425 61.6845 45.2471C61.7583 45.2194 61.7675 45.2102 61.7168 45.2286C61.7076 45.2332 61.6984 45.2333 61.6845 45.2379C61.6246 45.2563 61.56 45.2655 61.4954 45.2747C61.3939 45.2932 61.6153 45.2609 61.5046 45.2747C61.4724 45.2794 61.4401 45.284 61.4078 45.284C61.3478 45.2886 61.2925 45.2932 61.2325 45.2932C61.1726 45.2932 61.1172 45.2932 61.0572 45.2886C61.025 45.2886 60.9927 45.2794 60.965 45.2794C61.0849 45.2701 61.0342 45.2886 60.9788 45.2747C60.9466 45.2701 60.9189 45.2609 60.8912 45.2517C60.8681 45.2425 60.8266 45.2194 60.8036 45.2194C60.8359 45.2194 60.9097 45.2701 60.8266 45.224C60.7943 45.2056 60.7621 45.1871 60.7344 45.1687C60.513 45.0211 60.1579 45.1179 60.0333 45.3532C59.8996 45.6207 59.9826 45.902 60.2178 46.0635Z" fill="black"/>
<path d="M62.5239 44.2509C62.796 44.6245 63.2665 44.7674 63.7093 44.8412C63.8707 44.8689 64.0322 44.892 64.189 44.8458C64.4934 44.7628 64.7009 44.4584 64.8208 44.1494C64.9408 43.8357 65.0007 43.4991 64.9915 43.167C64.069 43.2961 63.1697 43.6651 62.3994 44.2278" fill="black"/>
<path d="M62.0811 44.5092C62.344 44.8597 62.6807 45.0857 63.0958 45.2241C63.2526 45.2748 63.4094 45.3117 63.5708 45.3394C63.8337 45.3855 64.1013 45.4178 64.3595 45.3347C65.2174 45.058 65.5126 43.9741 65.5034 43.1716C65.5034 43.0102 65.4296 42.8672 65.3004 42.7703C65.1621 42.6643 65.0237 42.655 64.8531 42.6781C63.8799 42.8211 62.9344 43.2131 62.1411 43.7897C61.9243 43.9465 61.7951 44.2417 61.9566 44.4907C62.0949 44.7075 62.427 44.8412 62.6576 44.6752C62.8513 44.5322 63.0543 44.4031 63.2664 44.2832C63.3587 44.2324 63.4509 44.1817 63.5478 44.1356C63.6031 44.1079 63.6539 44.0848 63.7092 44.0572C63.7369 44.0433 63.7645 44.0341 63.7922 44.0203C63.7369 44.0433 63.7415 44.0433 63.7922 44.0203C64.2258 43.8496 64.6639 43.7251 65.1252 43.6605C64.9084 43.4945 64.6916 43.3331 64.4749 43.167C64.4749 43.2454 64.4748 43.3284 64.4702 43.4068C64.4702 43.4161 64.4518 43.5729 64.4702 43.4622C64.4656 43.4945 64.461 43.5267 64.4564 43.5544C64.4241 43.7205 64.378 43.8727 64.318 44.0295C64.2996 44.0895 64.3641 43.9465 64.3134 44.0295C64.2996 44.0572 64.2857 44.0895 64.2673 44.1171C64.2535 44.1448 64.235 44.1725 64.2166 44.2001C64.212 44.2048 64.1428 44.297 64.1889 44.2416C64.2396 44.1817 64.1658 44.2647 64.1566 44.2739C64.1474 44.2832 64.0782 44.3385 64.0736 44.3477C64.0782 44.3247 64.152 44.297 64.0874 44.3293C64.0736 44.3385 64.0551 44.3477 64.0413 44.3569C64.009 44.3754 64.0182 44.3662 64.0828 44.3385C64.0736 44.3523 63.9537 44.3616 64.0228 44.3569C64.0828 44.3523 63.9444 44.3523 63.9444 44.3523C63.9306 44.3523 63.8061 44.3385 63.866 44.3477C63.9306 44.357 63.8153 44.3385 63.8015 44.3339C63.6723 44.3108 63.5432 44.2832 63.4186 44.2463C63.3771 44.2324 63.2664 44.2186 63.2342 44.1817C63.2895 44.2047 63.3033 44.2094 63.2664 44.1955C63.248 44.1863 63.2295 44.1771 63.2157 44.1679C63.188 44.154 63.1603 44.1356 63.1327 44.1217C63.105 44.1033 63.0773 44.0894 63.0543 44.071C62.9759 44.0203 63.0958 44.1125 63.0543 44.071C63.0312 44.0479 63.0081 44.0295 62.9851 44.0064C62.9666 43.988 62.8928 43.8911 62.9666 43.9926C62.8052 43.7804 62.5146 43.6467 62.2656 43.8081C62.0534 43.9465 61.9058 44.2785 62.0811 44.5092Z" fill="black"/>
<path d="M64.9406 43.31C65.162 43.7158 65.6094 43.9188 66.0384 44.0525C66.1906 44.0986 66.352 44.1447 66.5134 44.1217C66.827 44.0802 67.0715 43.8035 67.2283 43.5129C67.3897 43.2177 67.4912 42.8948 67.5235 42.5627C66.5918 42.572 65.6555 42.8211 64.8161 43.2777" fill="black"/>
<path d="M64.4979 43.5683C64.6916 43.9142 65.0099 44.1725 65.365 44.3385C65.7663 44.523 66.2229 44.6982 66.6703 44.6106C67.09 44.5322 67.4174 44.1955 67.6296 43.8404C67.8648 43.4483 67.9848 43.0102 68.0355 42.5582C68.0678 42.2861 67.7726 42.0416 67.5235 42.0462C66.4858 42.06 65.4711 42.3368 64.5579 42.8303C64.3226 42.9594 64.2258 43.3054 64.3734 43.5314C64.5302 43.7712 64.8208 43.8542 65.0744 43.7158C65.1759 43.6605 65.2774 43.6098 65.3834 43.559C65.4434 43.5314 65.5034 43.5037 65.5633 43.476C65.4849 43.5129 65.6048 43.4576 65.6233 43.453C65.8355 43.3699 66.0522 43.2961 66.2736 43.2408C66.495 43.1808 66.7164 43.1393 66.9424 43.107C66.8317 43.1209 66.9885 43.1024 66.9977 43.1024C67.0623 43.0978 67.1269 43.0886 67.1915 43.084C67.3022 43.0747 67.4175 43.0701 67.5282 43.0701C67.3575 42.8995 67.1869 42.7288 67.0162 42.5582C67.03 42.4567 67.0162 42.5674 67.0116 42.5859C67.007 42.6274 66.9978 42.6643 66.9885 42.7012C66.9701 42.7796 66.9516 42.858 66.924 42.9318C66.9101 42.9687 66.8963 43.0056 66.8824 43.0425C66.8778 43.0609 66.8317 43.1578 66.8686 43.0748C66.8363 43.1439 66.804 43.2131 66.7625 43.2823C66.7302 43.3377 66.6933 43.3884 66.661 43.4391C66.6288 43.4852 66.7164 43.3838 66.6518 43.4483C66.6288 43.4714 66.6057 43.4991 66.578 43.5221C66.5411 43.559 66.5181 43.5729 66.5734 43.5314C66.5457 43.5498 66.5181 43.5683 66.4904 43.5867C66.4812 43.5913 66.4673 43.6005 66.4535 43.6051C66.4212 43.6236 66.4304 43.619 66.4858 43.5913C66.4812 43.6006 66.3613 43.6144 66.4351 43.6098C66.5088 43.6005 66.3612 43.6051 66.3612 43.6051C66.412 43.6051 66.3982 43.6144 66.352 43.6005C66.2736 43.5821 66.1998 43.559 66.126 43.536C66.0615 43.5175 65.9969 43.4945 65.9369 43.4714C65.9231 43.4668 65.817 43.4207 65.8862 43.453C65.9554 43.4806 65.8401 43.4299 65.8355 43.4299C65.7755 43.4022 65.7155 43.3699 65.6602 43.333C65.6371 43.3192 65.6141 43.3054 65.591 43.2915C65.4803 43.2223 65.6648 43.3607 65.5679 43.2777C65.5218 43.2408 65.4803 43.1993 65.4388 43.1532C65.4019 43.1116 65.3973 43.0932 65.4342 43.1485C65.4111 43.1163 65.3927 43.0794 65.3696 43.0471C65.2359 42.8119 64.8992 42.715 64.6686 42.8626C64.4472 43.0194 64.3595 43.3192 64.4979 43.5683Z" fill="black"/>
<path d="M67.7126 42.6596C67.8325 43.107 68.2199 43.4068 68.6074 43.6374C68.7457 43.7204 68.8933 43.7988 69.0548 43.8173C69.3684 43.8496 69.6728 43.6374 69.8942 43.3929C70.1156 43.1439 70.2908 42.8533 70.4061 42.535C69.4975 42.3275 68.529 42.3506 67.6065 42.5996" fill="black"/>
<path d="M67.2145 42.7934C67.3252 43.1808 67.5697 43.5083 67.8879 43.7574C68.2292 44.0249 68.6259 44.3016 69.0733 44.3247C69.9819 44.3708 70.623 43.4115 70.8951 42.6643C70.9874 42.4106 70.789 42.0924 70.5354 42.0324C69.5207 41.8064 68.4691 41.8295 67.4636 42.097C67.2053 42.1662 67.0208 42.466 67.1039 42.7289C67.1915 42.9964 67.459 43.1624 67.7357 43.0886C67.9571 43.0286 68.1831 42.9825 68.4091 42.9456C68.529 42.9272 68.3722 42.9456 68.4829 42.9364C68.5429 42.9318 68.6028 42.9226 68.6674 42.918C68.7827 42.9087 68.8934 42.9041 69.0087 42.8995C69.2347 42.8949 69.4607 42.9041 69.6867 42.9226C69.7374 42.9272 69.7882 42.9318 69.8435 42.941C69.7467 42.9318 69.9127 42.9502 69.9127 42.9502C70.0326 42.9687 70.1525 42.9918 70.2679 43.0194C70.1479 42.8073 70.028 42.5997 69.9081 42.3876C69.9035 42.3968 69.8574 42.5167 69.8804 42.4613C69.9035 42.4106 69.8481 42.5352 69.8481 42.5305C69.8158 42.5951 69.7836 42.6597 69.7467 42.7196C69.7098 42.7796 69.6683 42.8396 69.6267 42.8995C69.576 42.9733 69.6406 42.8903 69.6037 42.9272C69.5806 42.9502 69.5622 42.9779 69.5437 43.001C69.493 43.0563 69.4377 43.1117 69.3823 43.1624C69.3731 43.167 69.3039 43.227 69.3454 43.1947C69.3961 43.1578 69.2947 43.227 69.2854 43.2316C69.2532 43.25 69.2209 43.2685 69.1886 43.2823C69.1286 43.3146 69.2531 43.2731 69.1886 43.2777C69.1332 43.2823 69.1056 43.2962 69.1794 43.2915C69.1655 43.2915 69.0502 43.2962 69.1148 43.3008C69.1701 43.3008 69.0825 43.2915 69.0687 43.2869C69.0364 43.2777 68.9672 43.2454 69.0318 43.2777C68.9672 43.2454 68.9026 43.2085 68.8427 43.1716C68.7873 43.1393 68.732 43.1025 68.6812 43.0702C68.6536 43.0517 68.6213 43.0287 68.5936 43.0102C68.5567 42.9825 68.5244 42.9548 68.5752 43.001C68.4783 42.918 68.3861 42.8303 68.303 42.7335C68.3722 42.8119 68.3123 42.7381 68.2984 42.7196C68.28 42.692 68.2615 42.6597 68.2431 42.6274C68.2154 42.5813 68.2246 42.5905 68.2431 42.6366C68.2292 42.5951 68.2154 42.5582 68.2016 42.5167C68.1278 42.2584 67.8372 42.0739 67.5697 42.1569C67.3114 42.2492 67.1361 42.5167 67.2145 42.7934Z" fill="black"/>
<path d="M60.3331 43.6189C59.3507 44.3753 58.8848 45.7497 59.2123 46.9489L60.3331 43.6189Z" fill="black"/>
<path d="M59.9687 43.2546C58.8433 44.1356 58.3544 45.7084 58.7141 47.0828C58.7833 47.3503 59.0785 47.5117 59.346 47.4426C59.6181 47.3688 59.7749 47.0828 59.7058 46.8107C59.6873 46.7415 59.6689 46.6723 59.655 46.5985C59.6458 46.557 59.6412 46.5201 59.6366 46.4786C59.6458 46.534 59.6412 46.5155 59.6366 46.4694C59.6228 46.3264 59.6181 46.1788 59.6227 46.0358C59.6274 45.962 59.632 45.8929 59.6366 45.8191C59.6412 45.7591 59.6227 45.8836 59.6412 45.7868C59.6458 45.7545 59.6504 45.7222 59.6596 45.6899C59.6873 45.5377 59.7288 45.3901 59.775 45.2471C59.798 45.1779 59.8211 45.1088 59.8487 45.0442C59.8257 45.0949 59.8395 45.0673 59.8534 45.035C59.8718 44.9981 59.8902 44.9612 59.9041 44.9243C59.9687 44.7951 60.0425 44.6706 60.1255 44.5507C60.1439 44.523 60.1624 44.4999 60.1808 44.4723C60.2131 44.4261 60.1439 44.5138 60.2039 44.4446C60.25 44.3893 60.2961 44.3339 60.3469 44.2832C60.4529 44.1725 60.5683 44.071 60.6882 43.9742C60.9049 43.8035 60.868 43.4299 60.6882 43.25C60.476 43.0379 60.1854 43.084 59.9687 43.2546Z" fill="black"/>
<path d="M58.5296 34.8833C57.8055 35.4552 57.3212 36.3177 57.2151 37.2309L58.5296 34.8833Z" fill="black"/>
<path d="M58.1653 34.5236C57.3304 35.1924 56.8323 36.184 56.6986 37.2356C56.6663 37.5031 56.9569 37.7614 57.2105 37.7476C57.5149 37.7338 57.6856 37.5216 57.7225 37.2356C57.7133 37.2956 57.7086 37.314 57.7225 37.2448C57.7271 37.2218 57.7317 37.1987 57.7363 37.1711C57.7456 37.1157 57.7594 37.0603 57.7686 37.0096C57.7917 36.9035 57.8239 36.7974 57.8562 36.6914C57.8747 36.6406 57.8931 36.5853 57.9116 36.5346C57.9208 36.5115 57.93 36.4884 57.9393 36.4654C57.9623 36.4054 57.8978 36.5576 57.9393 36.47C57.9854 36.3685 58.0361 36.2717 58.0915 36.1748C58.1422 36.0826 58.1975 35.9949 58.2575 35.9119C58.2759 35.8842 58.3497 35.8104 58.3544 35.7781C58.3175 35.8289 58.3082 35.8381 58.3313 35.8104C58.3405 35.8012 58.3451 35.792 58.3544 35.7828C58.3682 35.7643 58.3867 35.7459 58.4005 35.7274C58.5481 35.5522 58.7141 35.3953 58.8894 35.257C59.1016 35.0909 59.0785 34.7035 58.8894 34.5328C58.668 34.3161 58.3913 34.3437 58.1653 34.5236Z" fill="black"/>
<path d="M67.3899 35.0632C67.5283 33.8179 68.7321 32.7894 69.982 32.854L67.3899 35.0632Z" fill="black"/>
<path d="M67.9018 35.0631C67.8834 35.2061 67.8972 35.0908 67.9064 35.0539C67.911 35.017 67.9203 34.9847 67.9295 34.9478C67.9433 34.8787 67.9664 34.8095 67.9894 34.7403C67.9987 34.708 68.0125 34.6711 68.0264 34.6388C68.0632 34.5327 67.9848 34.7218 68.0309 34.6296C68.0632 34.565 68.0955 34.5004 68.1278 34.4359C68.1647 34.3713 68.2016 34.3113 68.2431 34.2514C68.2616 34.2237 68.28 34.1822 68.3077 34.1638C68.2154 34.2422 68.2939 34.1822 68.3169 34.1545C68.4138 34.0392 68.5198 33.9285 68.6351 33.8317C68.649 33.8224 68.7459 33.744 68.6813 33.7902C68.6213 33.8409 68.7182 33.7625 68.732 33.7533C68.792 33.7117 68.8519 33.6702 68.9165 33.6333C68.9811 33.5964 69.041 33.5642 69.1102 33.5319C69.1241 33.5273 69.2394 33.4719 69.1656 33.5042C69.0918 33.5365 69.2071 33.4903 69.2209 33.4857C69.3547 33.435 69.4977 33.3981 69.6406 33.375C69.6591 33.3704 69.6775 33.3705 69.696 33.3658C69.6268 33.3751 69.6083 33.375 69.6498 33.375C69.6867 33.3704 69.7237 33.3705 69.7559 33.3658C69.8344 33.3612 69.9127 33.3612 69.9911 33.3658C70.2587 33.3751 70.517 33.1214 70.5031 32.8539C70.4893 32.5679 70.2771 32.3511 69.9911 32.3419C69.2255 32.3096 68.4922 32.6186 67.9156 33.1075C67.3299 33.6057 66.9747 34.3067 66.8871 35.0631C66.8548 35.3307 67.1454 35.5889 67.3991 35.5751C67.6942 35.5659 67.8695 35.3491 67.9018 35.0631Z" fill="black"/>
</svg>
