<svg width="341" preserveAspectRatio="none" height="341" viewBox="0 0 341 341" fill="none" xmlns="http://www.w3.org/2000/svg">
<path d="M2.17421 2.15603C2.16875 2.11491 2.16322 2.07431 2.15762 2.03426C28.5835 2.7051 93.2625 4.05712 151.862 4.36738C186.583 4.55123 222.946 3.53655 255.095 2.63943C257.466 2.57328 259.813 2.50777 262.136 2.44343C295.338 1.52355 323.325 0.844607 339.367 1.93145C339.341 38.7559 337.767 124.546 336.977 163.152L336.976 163.17L336.976 163.187C337.756 215.541 339.297 322.158 339.365 338.944L215.63 338.944L215.621 338.945C161.795 339.471 85.0223 339.943 54.7057 337.58L54.6669 337.577H54.628C28.5954 337.577 9.29806 338.098 1.79209 338.834C1.14917 318.235 0.773816 259.542 4.21785 180.183L4.21879 180.161V180.139C4.21879 147.191 4.11922 102.402 3.7705 65.8495C3.59615 47.5741 3.35947 31.3522 3.04164 19.6967C2.88277 13.8709 2.70337 9.17562 2.50062 5.9322C2.39949 4.31426 2.29135 3.0373 2.17421 2.15603Z" stroke="black" stroke-width="2"/>
</svg>
