<svg width="120" height="120" viewBox="0 0 120 120" fill="none" xmlns="http://www.w3.org/2000/svg">
<path d="M33.9154 105.283C35.2265 105.307 36.9088 104.484 36.1745 102.927C35.6622 101.838 33.9759 101.681 32.8503 101.789" fill="#F9F9F9"/>
<path d="M33.9154 105.775C35.0208 105.787 36.3884 105.311 36.7677 104.166C36.9774 103.532 36.7596 102.806 36.3521 102.302C35.985 101.842 35.4122 101.572 34.8514 101.43C34.2019 101.265 33.516 101.237 32.8504 101.297C32.5841 101.322 32.3582 101.507 32.3582 101.789C32.3582 102.036 32.5841 102.306 32.8504 102.282C33.0884 102.262 33.3224 102.249 33.5604 102.253C33.6814 102.253 33.7984 102.261 33.9154 102.27C33.9759 102.274 34.0365 102.278 34.097 102.286C34.1252 102.29 34.1575 102.294 34.1857 102.298C34.0808 102.286 34.214 102.302 34.2341 102.306C34.4843 102.346 34.7263 102.415 34.9643 102.495C34.9805 102.5 35.0531 102.532 34.9684 102.495C34.9926 102.508 35.0208 102.52 35.045 102.532C35.0975 102.556 35.1459 102.58 35.1943 102.608C35.2427 102.637 35.2911 102.665 35.3355 102.693C35.3597 102.709 35.3799 102.725 35.4041 102.742C35.3153 102.681 35.4202 102.754 35.4323 102.766C35.4726 102.802 35.513 102.838 35.5493 102.879C35.5735 102.903 35.6623 103.02 35.6018 102.935C35.634 102.98 35.6623 103.024 35.6905 103.072C35.7026 103.097 35.7187 103.121 35.7308 103.145C35.7349 103.149 35.7873 103.274 35.7591 103.206C35.8035 103.318 35.8357 103.435 35.8559 103.556C35.8357 103.452 35.8559 103.597 35.8559 103.629C35.8559 103.657 35.8559 103.682 35.8559 103.71C35.8559 103.742 35.8317 103.851 35.8559 103.73C35.8438 103.778 35.8357 103.827 35.8236 103.875C35.8115 103.916 35.751 104.028 35.8075 103.928C35.7833 103.968 35.7631 104.012 35.7389 104.057C35.7268 104.077 35.7107 104.097 35.6986 104.117C35.6502 104.194 35.7389 104.081 35.6986 104.121C35.6219 104.194 35.5533 104.275 35.4726 104.347C35.4565 104.363 35.4 104.4 35.4807 104.339C35.4605 104.355 35.4404 104.367 35.4161 104.383C35.3677 104.416 35.3153 104.448 35.2628 104.476C35.2104 104.505 35.158 104.533 35.1015 104.561C35.1015 104.561 34.9805 104.613 35.0491 104.585C35.1096 104.557 35.0047 104.601 34.9926 104.605C34.8675 104.65 34.7424 104.69 34.6133 104.722C34.5528 104.739 34.4923 104.751 34.4278 104.763C34.3995 104.767 34.3713 104.771 34.3471 104.775C34.2301 104.795 34.4197 104.771 34.3148 104.779C34.1776 104.791 34.0445 104.799 33.9114 104.799C33.6451 104.795 33.4192 105.029 33.4192 105.291C33.4233 105.553 33.6492 105.775 33.9154 105.775Z" fill="black"/>
<path d="M34.2382 99.599C35.279 100.394 37.1226 100.729 37.4534 99.0383C37.6834 97.8562 36.4166 96.7307 35.4484 96.1538" fill="#F9F9F9"/>
<path d="M33.988 100.027C34.7949 100.636 36.0092 101.007 36.9612 100.535C37.4696 100.281 37.8004 99.7645 37.9174 99.2199C38.0666 98.5219 37.8487 97.8321 37.4332 97.2673C36.9693 96.638 36.3601 96.1337 35.6945 95.7343C35.4686 95.5971 35.1539 95.6818 35.0208 95.9118C34.8836 96.1458 34.9683 96.4484 35.1983 96.5855C35.3032 96.6501 35.408 96.7146 35.5129 96.7872C35.5654 96.8235 35.6219 96.8598 35.6743 96.9002C35.7509 96.9567 35.7792 96.9768 35.8155 97.0051C36.0414 97.1906 36.2593 97.3883 36.4529 97.6062C36.4973 97.6586 36.5417 97.7111 36.586 97.7635C36.5457 97.7111 36.6506 97.8563 36.6587 97.8684C36.7353 97.9814 36.8079 98.1024 36.8685 98.2274C36.8765 98.2476 36.9168 98.3404 36.8846 98.2637C36.8967 98.292 36.9048 98.3242 36.9169 98.3525C36.937 98.413 36.9532 98.4695 36.9653 98.53C36.9733 98.5582 36.9773 98.5905 36.9814 98.6188C36.9773 98.5986 36.9773 98.526 36.9814 98.6268C36.9854 98.6954 36.9895 98.764 36.9854 98.8326C36.9854 98.8447 36.9773 98.9415 36.9814 98.885C36.9895 98.8245 36.9734 98.9213 36.9693 98.9375C36.9572 98.998 36.941 99.0545 36.9249 99.115C36.9168 99.1432 36.9088 99.1715 36.8967 99.1957C36.8926 99.2118 36.8604 99.2925 36.8846 99.232C36.9088 99.1755 36.8765 99.2521 36.8685 99.2642C36.8523 99.2925 36.8402 99.3207 36.824 99.349C36.8119 99.3691 36.7232 99.5023 36.7595 99.4498C36.7999 99.3974 36.7071 99.5063 36.695 99.5184C36.6829 99.5305 36.5739 99.6273 36.6304 99.583C36.6788 99.5426 36.5659 99.6233 36.5417 99.6394C36.5054 99.6636 36.461 99.6798 36.4247 99.6999C36.5336 99.6354 36.4287 99.6959 36.3884 99.708C36.344 99.7201 36.3037 99.7322 36.2593 99.7403C36.2391 99.7443 36.2149 99.7483 36.1947 99.7524C36.0818 99.7766 36.3036 99.7483 36.1907 99.7524C36.0979 99.7564 36.0051 99.7605 35.9083 99.7564C35.8599 99.7524 35.8115 99.7483 35.7631 99.7443C35.9003 99.7524 35.7146 99.7362 35.6783 99.7282C35.5694 99.708 35.4605 99.6757 35.3516 99.6434C35.2911 99.6233 35.2305 99.5991 35.1741 99.5789C35.1539 99.5708 35.0853 99.5426 35.1862 99.587C35.1579 99.5749 35.1297 99.5628 35.0974 99.5466C34.8755 99.4458 34.6698 99.3207 34.4761 99.1715C34.2623 99.0101 33.9275 99.1392 33.8024 99.349C33.6652 99.6031 33.7742 99.8653 33.988 100.027Z" fill="black"/>
<path d="M38.9461 95.5164C38.8977 96.8234 39.6924 98.5259 41.2618 97.8199C42.3591 97.3237 42.5447 95.6414 42.46 94.5159" fill="#F9F9F9"/>
<path d="M38.4539 95.5162C38.4216 96.6257 38.8815 97.9933 40.0192 98.3886C40.5961 98.5903 41.3061 98.429 41.7902 98.074C42.3106 97.6947 42.6172 97.1219 42.7826 96.5087C42.9561 95.8632 42.9965 95.1774 42.9481 94.5117C42.9279 94.2455 42.7343 94.0195 42.4559 94.0195C42.2058 94.0195 41.9436 94.2455 41.9637 94.5117C41.9799 94.7497 41.9879 94.9918 41.9798 95.2298C41.9758 95.3508 41.9678 95.4719 41.9557 95.5889C41.9516 95.609 41.9314 95.7865 41.9476 95.6857C41.9355 95.7623 41.9234 95.8349 41.9113 95.9116C41.8669 96.1536 41.8024 96.3957 41.7096 96.6257C41.6773 96.7023 41.762 96.5248 41.6975 96.6499C41.6854 96.6741 41.6733 96.7023 41.6612 96.7265C41.637 96.779 41.6087 96.8274 41.5804 96.8758C41.5522 96.9242 41.5199 96.9686 41.4877 97.017C41.4756 97.0331 41.4312 97.0896 41.4877 97.017C41.4675 97.0452 41.4433 97.0694 41.4191 97.0936C41.3828 97.134 41.3424 97.1703 41.3021 97.2106C41.29 97.2187 41.2254 97.2752 41.2738 97.2389C41.3223 97.1985 41.2537 97.251 41.2416 97.2631C41.1972 97.2953 41.1488 97.3236 41.1004 97.3478C41.0762 97.3599 41.052 97.372 41.0278 97.3841C40.9995 97.3962 41.0036 97.3962 41.0318 97.3841C41.0157 97.3881 40.9995 97.3962 40.9874 97.4002C40.9188 97.4244 40.8543 97.4446 40.7857 97.4607C40.7575 97.4688 40.7292 97.4728 40.697 97.4809C40.6203 97.5011 40.7736 97.4769 40.701 97.4809C40.6486 97.4849 40.5921 97.489 40.5396 97.489C40.5154 97.489 40.4872 97.4809 40.463 97.485C40.4065 97.489 40.5517 97.5051 40.463 97.485C40.4145 97.4728 40.3661 97.4648 40.3177 97.4486C40.2935 97.4406 40.2734 97.4325 40.2492 97.4244C40.346 97.4527 40.2935 97.4446 40.2653 97.4285C40.2209 97.4043 40.1806 97.3841 40.1402 97.3559C40.1201 97.3438 40.0999 97.3276 40.0797 97.3155C40.1765 97.372 40.0878 97.3236 40.0636 97.2994C39.9869 97.2348 39.9183 97.1582 39.8578 97.0815C39.9304 97.1703 39.8377 97.0492 39.8215 97.025C39.7852 96.9686 39.7529 96.9121 39.7207 96.8556C39.6924 96.8032 39.6682 96.7467 39.64 96.6902C39.6077 96.6216 39.6682 96.7628 39.644 96.6942C39.6319 96.662 39.6198 96.6297 39.6077 96.5974C39.5633 96.4724 39.527 96.3473 39.4988 96.2182C39.4826 96.1496 39.4705 96.081 39.4584 96.0124C39.4463 95.9358 39.4665 96.0931 39.4584 96.0205C39.4544 95.9842 39.4504 95.9519 39.4463 95.9156C39.4342 95.7825 39.4302 95.6453 39.4343 95.5082C39.4423 95.2419 39.2043 95.016 38.942 95.016C38.6717 95.0241 38.462 95.25 38.4539 95.5162Z" fill="black"/>
<path d="M47.7932 98.5986C46.5748 99.0787 45.3363 100.487 46.6111 101.64C47.5027 102.451 49.1204 101.947 50.1169 101.415" fill="#F9F9F9"/>
<path d="M47.66 98.1226C46.5748 98.5623 45.3927 99.5749 45.6106 100.878C45.7114 101.483 46.1875 102.056 46.7362 102.314C47.3131 102.584 47.9343 102.592 48.5516 102.488C49.1849 102.383 49.7981 102.137 50.3629 101.838C50.5969 101.713 50.6695 101.386 50.5404 101.164C50.4033 100.926 50.1047 100.862 49.8667 100.987C49.7739 101.035 49.6811 101.084 49.5843 101.128C49.5359 101.152 49.4834 101.172 49.435 101.197C49.3826 101.221 49.431 101.197 49.4431 101.193C49.4068 101.209 49.3665 101.225 49.3301 101.237C49.1123 101.322 48.8905 101.398 48.6645 101.455C48.5516 101.483 48.4345 101.507 48.3216 101.531C48.2974 101.536 48.1441 101.556 48.2288 101.548C48.1643 101.556 48.0997 101.56 48.0352 101.564C47.9222 101.572 47.8093 101.572 47.7003 101.564C47.6519 101.56 47.6076 101.556 47.5592 101.552C47.6519 101.564 47.4906 101.536 47.4623 101.527C47.4099 101.515 47.3615 101.499 47.309 101.483C47.2808 101.475 47.1597 101.423 47.2364 101.459C47.188 101.435 47.1436 101.41 47.0992 101.386C47.0791 101.374 47.0629 101.362 47.0428 101.35C46.9258 101.285 47.075 101.382 47.0145 101.334C46.9298 101.265 46.8128 101.148 46.7603 101.08C46.7523 101.068 46.6998 100.995 46.6797 100.955C46.6676 100.934 46.6555 100.91 46.6434 100.89C46.6313 100.866 46.603 100.789 46.6232 100.854C46.6071 100.801 46.5909 100.753 46.5788 100.7C46.5748 100.68 46.5707 100.656 46.5667 100.636C46.5707 100.66 46.5667 100.725 46.5707 100.636C46.5707 100.592 46.5707 100.547 46.5707 100.503C46.5667 100.414 46.5707 100.479 46.5667 100.503C46.5707 100.475 46.5788 100.446 46.5829 100.418C46.595 100.366 46.6111 100.317 46.6232 100.269C46.6272 100.257 46.6595 100.168 46.6393 100.22C46.6192 100.269 46.6474 100.2 46.6515 100.196C46.7079 100.091 46.7644 99.9904 46.833 99.8936C46.8652 99.8492 46.833 99.8896 46.8289 99.8976C46.8531 99.8654 46.8814 99.8331 46.9056 99.8049C46.95 99.7564 46.9944 99.708 47.0428 99.6596C47.0912 99.6112 47.1396 99.5668 47.188 99.5225C47.2082 99.5063 47.2283 99.4902 47.2445 99.474C47.3655 99.3692 47.2122 99.4982 47.2848 99.4418C47.3937 99.3611 47.5067 99.2885 47.6237 99.2199C47.6801 99.1876 47.7407 99.1553 47.8012 99.1271C47.8214 99.115 47.8456 99.1069 47.8658 99.0948C47.8698 99.0948 48.0069 99.0343 47.9262 99.0666C48.1723 98.9657 48.3458 98.7398 48.2692 98.4614C48.2006 98.2355 47.9101 98.0217 47.66 98.1226Z" fill="black"/>
<path d="M62.2397 66.252C62.2397 69.9756 62.974 75.2281 61.7556 78.746C56.1521 79.0405 49.2334 79.928 51.4764 87.3873C52.4971 90.7841 54.7683 91.6636 58.032 91.9944C58.7259 92.063 61.7355 91.825 62.2478 92.2042C63.1595 92.8698 62.6835 95.5889 62.744 96.7911C62.8691 99.3408 63.1192 101.943 63.1555 104.541C66.0602 105.574 70.7358 104.751 73.8583 104.751C75.3671 104.751 77.2955 105.073 78.768 104.751L92.557 104.263C94.6911 104.375 96.7849 104.19 98.9029 104.089C100.557 104.008 108.355 104.944 109.42 103.403C109.973 102.604 109.122 99.4053 109.17 98.4492C109.271 96.5007 108.992 94.6328 109.247 93.0594C112.353 93.7493 116.129 93.241 118.17 90.53C120.813 87.0202 119.566 82.9255 115.613 81.0939C114.003 80.3476 112.232 80.4444 110.638 79.811C108.855 79.101 108.892 78.6935 108.988 76.3981C109.118 73.2675 109.42 70.0078 109.166 66.8732C104.87 66.5747 97.4183 66.4859 93.2469 67.6438C92.8516 70.7501 93.8641 73.8323 92.8314 76.9104C91.5888 80.6058 87.8007 82.9093 83.9883 82.0863C77.114 80.6017 79.9621 72.1621 78.9858 67.2C73.5356 66.8652 68.0047 66.9378 62.4697 66.9378" fill="#7BDF9B"/>
<path d="M61.792 66.2519C61.796 68.3335 61.9735 70.4112 62.0058 72.4969C62.0381 74.5503 61.9857 76.6683 61.3241 78.6289C61.4653 78.52 61.6105 78.4111 61.7517 78.3021C57.4592 78.5281 50.4316 79.1412 50.597 84.9465C50.6414 86.4432 51.0569 88.0569 51.8355 89.3438C52.5375 90.4976 53.5864 91.3085 54.841 91.7846C56.0311 92.2364 57.3906 92.4623 58.6655 92.4502C59.2948 92.4462 59.9242 92.422 60.5535 92.426C60.9327 92.43 61.6871 92.3574 61.9857 92.5632C62.4657 92.8899 62.3689 93.9993 62.3649 94.4835C62.3568 95.2379 62.268 95.9923 62.2922 96.7467C62.377 99.3487 62.6674 101.939 62.7037 104.541C62.7078 104.747 62.8409 104.904 63.0305 104.968C65.5358 105.832 68.3719 105.501 70.9619 105.327C72.2972 105.239 73.6285 105.158 74.9638 105.235C75.698 105.279 76.4322 105.34 77.1665 105.336C77.7151 105.336 78.2315 105.247 78.7721 105.194C79.6032 105.106 80.4665 105.134 81.3016 105.106C82.9677 105.045 84.6379 104.989 86.304 104.928C87.8693 104.872 89.4305 104.815 90.9958 104.763C92.1819 104.722 93.3518 104.759 94.5379 104.738C96.0628 104.714 97.5837 104.541 99.1087 104.529C99.8106 104.525 100.513 104.577 101.211 104.617C103.163 104.722 105.148 104.851 107.101 104.65C107.815 104.577 108.593 104.48 109.231 104.125C109.884 103.758 110.041 103.137 110.041 102.423C110.041 101.39 109.82 100.361 109.678 99.3407C109.614 98.8727 109.614 98.437 109.622 97.965C109.642 97.1218 109.602 96.2787 109.582 95.4355C109.565 94.6852 109.553 93.9227 109.666 93.1804C109.485 93.2853 109.299 93.3861 109.118 93.491C111.591 94.0235 114.358 93.8904 116.565 92.5511C118.687 91.2641 120.184 88.7347 119.982 86.2213C119.784 83.7322 118.037 81.7272 115.827 80.7106C114.318 80.0167 112.635 80.0288 111.078 79.5043C110.3 79.2421 109.489 78.9476 109.4 78.0439C109.335 77.3783 109.408 76.6844 109.436 76.0187C109.481 75.0142 109.541 74.0137 109.59 73.0092C109.691 70.9679 109.751 68.9185 109.594 66.8772C109.573 66.623 109.404 66.4495 109.15 66.4334C106.463 66.2478 103.76 66.1954 101.065 66.2761C98.4108 66.3568 95.6836 66.5181 93.1098 67.2201C92.904 67.2766 92.8072 67.45 92.783 67.6477C92.3877 70.984 93.5777 74.5503 92.0084 77.701C90.8466 80.0369 88.4704 81.6949 85.8401 81.8039C83.7826 81.8886 81.6243 81.11 80.5875 79.2421C79.6637 77.576 79.6153 75.5306 79.6153 73.6749C79.6112 71.4843 79.8129 69.2493 79.3974 67.087C79.3611 66.8893 79.1513 66.7723 78.9698 66.7602C73.4711 66.4253 67.9603 66.498 62.4536 66.498C61.8807 66.498 61.8807 67.3895 62.4536 67.3895C67.9603 67.3895 73.4711 67.3209 78.9698 67.6517C78.8286 67.5428 78.6833 67.4339 78.5421 67.325C78.9375 69.3865 78.7278 71.5367 78.7278 73.6224C78.7278 75.6436 78.8124 77.8342 79.8008 79.6536C80.886 81.6505 83.0686 82.6228 85.2753 82.7035C88.0428 82.8043 90.6893 81.3561 92.2384 79.0848C93.2631 77.58 93.6907 75.7969 93.7432 73.9936C93.8037 71.8756 93.4325 69.7657 93.6826 67.6517C93.5737 67.7929 93.4648 67.9382 93.3559 68.0794C95.9015 67.3855 98.6004 67.2362 101.227 67.1636C103.869 67.091 106.52 67.1475 109.154 67.325C109.005 67.1757 108.855 67.0264 108.71 66.8812C108.968 70.2256 108.638 73.574 108.513 76.9184C108.484 77.7212 108.408 78.6652 108.96 79.3228C109.606 80.0933 110.848 80.4201 111.776 80.6218C113.273 80.9486 114.762 81.0777 116.109 81.8724C117.15 82.4856 118.041 83.3449 118.586 84.4301C119.683 86.6207 118.921 89.2591 117.23 90.9253C115.197 92.9303 112.022 93.2167 109.352 92.6398C109.138 92.5954 108.839 92.7003 108.803 92.9505C108.577 94.4593 108.734 95.9761 108.734 97.493C108.734 98.0215 108.686 98.5459 108.746 99.0704C108.799 99.5505 108.88 100.026 108.952 100.503C109.029 101.019 109.106 101.535 109.134 102.06C109.154 102.382 109.214 102.838 109.053 103.137C108.851 103.508 108.02 103.633 107.589 103.706C105.741 104.004 103.796 103.867 101.937 103.774C101.146 103.734 100.355 103.682 99.5645 103.657C98.4148 103.621 97.2651 103.75 96.1153 103.803C94.5863 103.875 93.0654 103.811 91.5365 103.863C90.1366 103.911 88.7367 103.964 87.3368 104.012C84.5532 104.113 81.7695 104.21 78.9859 104.311C78.3727 104.331 77.7757 104.46 77.1584 104.46C75.7787 104.46 74.4111 104.283 73.0314 104.331C70.3688 104.424 67.6739 104.839 65.0114 104.517C64.4143 104.444 63.8253 104.315 63.2605 104.121C63.3694 104.262 63.4783 104.408 63.5873 104.549C63.5509 102.29 63.3654 100.035 63.2282 97.7794C63.1838 97.0371 63.1677 96.315 63.204 95.5727C63.2403 94.8667 63.2806 94.1526 63.1999 93.4467C63.1394 92.9141 63.0184 92.3251 62.6069 91.9459C62.264 91.6272 61.7436 91.603 61.3039 91.5748C60.1622 91.4981 59.0084 91.6595 57.8748 91.5465C56.5677 91.4134 55.196 91.1552 54.0705 90.4411C52.844 89.6585 52.1784 88.3595 51.8032 86.9919C51.4563 85.7372 51.2909 84.3616 51.7427 83.1109C52.0937 82.1387 52.836 81.3924 53.7115 80.876C56.0634 79.4842 59.0769 79.347 61.7355 79.2058C61.9413 79.1937 62.0986 79.0727 62.1632 78.879C62.8328 76.8982 62.9055 74.748 62.8813 72.6744C62.8571 70.5362 62.6715 68.4062 62.6634 66.268C62.6836 65.679 61.792 65.679 61.792 66.2519Z" fill="black"/>
<path d="M58.3669 20.2334C64.4989 19.8178 70.8852 20.076 77.11 20.2334C79.3853 20.2898 79.3086 20.0599 79.5507 22.2868C79.7282 23.9328 79.6354 25.6473 79.7887 27.2852C80.0549 30.085 79.8492 34.7122 83.0161 35.7813C85.6746 36.681 89.6968 35.9225 90.8264 33.2398C91.9439 30.5812 91.3185 27.0069 91.1854 24.2273C91.0967 22.3998 90.7215 21.1088 92.198 20.4593C93.1703 20.0317 95.5666 20.4633 96.6478 20.4633C99.4798 20.4633 102.203 20.6892 105.059 20.6892C106.713 20.6892 109.021 20.1406 109.836 21.5687C110.602 22.9161 109.69 26.079 109.618 27.5636C109.448 31.0492 109.501 34.5105 109.368 37.9759C104.43 38.2059 98.092 37.3385 97.7733 43.9345C97.4022 51.6278 103.389 51.2768 109.134 51.9788C109.029 56.9933 109.65 62.0966 109.356 67.1435C104.014 66.9337 98.3139 66.9297 93.0008 67.1999C94.8364 73.7636 92.7991 84.2728 84.5047 82.998C80.5794 82.3929 78.8851 80.1499 78.8649 76.2851C78.8528 74.0259 78.9819 67.1636 78.6228 67.1798C77.5013 66.9902 69.5861 66.8127 67.0607 66.7078C65.2171 66.6311 63.3613 66.7642 61.5217 66.6795C61.5056 63.4642 61.4935 59.9827 61.32 56.6666C61.2514 55.3433 60.5293 53.1568 61.6508 52.3661C62.3285 51.886 65.205 52.0716 66.1167 51.8497C73.1322 50.1351 74.5442 40.812 69.5458 35.9023C66.625 33.034 62.1994 34.9785 58.617 34.5509C58.8026 30.0527 58.1329 25.2842 58.1329 20.6892" fill="#FFE35B"/>
<path d="M58.3669 20.6894C62.389 20.4191 66.4233 20.4352 70.4535 20.5159C72.4787 20.5603 74.5038 20.6208 76.529 20.6733C77.1543 20.6894 77.7958 20.6692 78.4211 20.7217C78.5381 20.7297 78.7156 20.7499 78.7962 20.7902C78.8285 20.8064 78.8487 20.8306 78.8931 20.9274C79.0867 21.3833 79.0746 21.9925 79.123 22.4766C79.2199 23.469 79.2239 24.4695 79.2481 25.4659C79.2844 26.8779 79.4054 28.2939 79.5184 29.7019C79.6999 31.9207 80.071 34.781 82.2657 35.9428C84.428 37.0886 87.6796 36.7618 89.6443 35.3579C92.2303 33.5102 92.0527 29.8431 91.851 27.0151C91.7421 25.474 91.5283 23.9047 91.5444 22.3596C91.5485 21.7827 91.6735 21.2743 92.206 20.9677C92.7305 20.6692 93.4002 20.7096 93.9851 20.7338C94.675 20.762 95.3608 20.8386 96.0466 20.8911C96.8373 20.9476 97.6361 20.9234 98.4309 20.9476C100.448 21 102.461 21.1251 104.478 21.1453C105.225 21.1533 105.963 21.1049 106.709 21.0686C107.359 21.0323 108.061 20.992 108.686 21.2058C109.997 21.6495 109.739 23.3722 109.614 24.4533C109.44 25.9097 109.182 27.3096 109.13 28.778C109.057 30.8113 109.045 32.8486 109.009 34.8859C108.993 35.9186 108.968 36.9514 108.928 37.9842C109.081 37.8309 109.231 37.6816 109.38 37.5323C107.238 37.6291 105.079 37.5283 102.957 37.8752C101.077 38.1778 99.2054 38.9564 98.2009 40.6669C97.6038 41.6795 97.378 42.8615 97.3295 44.0274C97.2771 45.2539 97.3658 46.5327 97.7975 47.6905C98.4994 49.5705 100.024 50.7404 101.892 51.3496C104.22 52.104 106.737 52.1524 109.146 52.4429C108.992 52.2896 108.843 52.1403 108.694 51.991C108.601 57.05 109.198 62.1008 108.916 67.1557C109.069 67.0024 109.218 66.8531 109.368 66.7039C103.917 66.4901 98.4591 66.4901 93.0129 66.7604C92.7224 66.7765 92.4925 67.0387 92.5772 67.3332C93.5414 70.8309 93.4809 74.97 91.968 78.3104C91.2701 79.8555 90.205 81.2554 88.668 82.034C86.9252 82.9175 84.8073 82.7965 82.9999 82.1833C81.0756 81.5297 79.8693 80.0572 79.4901 78.0764C79.1472 76.2973 79.3449 74.3609 79.3489 72.5576C79.353 70.8834 79.4538 69.1325 79.2077 67.4704C79.1351 66.9823 78.9455 66.7725 78.4412 66.716C77.82 66.6474 77.1946 66.6272 76.5693 66.595C72.4262 66.4013 68.2548 66.2077 64.1116 66.2601C63.2564 66.2722 62.4011 66.2763 61.5418 66.2399C61.6951 66.3932 61.8444 66.5425 61.9936 66.6918C61.9815 64.2228 61.9694 61.7539 61.8968 59.289C61.8645 58.2118 61.8686 57.1145 61.7274 56.0414C61.6185 55.2224 61.3966 54.343 61.5297 53.516C61.6467 52.7898 62.0824 52.6325 62.74 52.5518C63.5025 52.463 64.273 52.463 65.0355 52.4267C66.4394 52.3581 67.7667 51.9144 68.9447 51.1398C74.0036 47.8156 74.1286 40.1828 70.2194 35.9388C68.7954 34.3937 66.9114 33.845 64.8539 33.8571C62.7803 33.8692 60.7108 34.3412 58.6331 34.1073C58.7864 34.2606 58.9357 34.4098 59.085 34.5591C59.2665 29.9318 58.6089 25.3207 58.6009 20.6975C58.6009 20.1125 57.6932 20.1125 57.6932 20.6975C57.7012 25.3247 58.3588 29.9318 58.1773 34.5591C58.1652 34.8253 58.3951 34.9867 58.6291 35.0109C60.4122 35.2086 62.1954 34.8899 63.9745 34.789C65.7374 34.6882 67.6174 34.8052 69.0132 36.0195C71.1917 37.9236 72.2406 40.9655 72.0591 43.8096C71.8856 46.5206 70.5301 49.159 68.1499 50.5589C67.5205 50.93 66.8428 51.2084 66.1328 51.3859C65.5236 51.5392 64.8741 51.519 64.2528 51.5432C63.0547 51.5876 61.3522 51.4545 60.7995 52.7777C60.4687 53.5684 60.5978 54.4842 60.7148 55.3072C60.8681 56.4045 60.9286 57.4897 60.969 58.5951C61.0618 61.2899 61.0738 63.9848 61.0859 66.6797C61.0859 66.9338 61.2917 67.1234 61.5378 67.1315C63.2846 67.2082 65.0314 67.0992 66.7782 67.1517C67.5972 67.1759 68.4162 67.2122 69.2351 67.2364C71.3289 67.301 73.4226 67.3615 75.5164 67.4462C76.3111 67.4785 77.1099 67.5107 77.9047 67.5672C78.0338 67.5753 78.1629 67.5874 78.292 67.5995C78.3363 67.6035 78.3888 67.6156 78.4372 67.6156C78.5582 67.6116 78.5017 67.6358 78.5017 67.6237C78.5058 67.5914 78.2516 67.4583 78.2798 67.43C78.2718 67.4381 78.292 67.3897 78.2879 67.4704C78.2799 67.5753 78.3202 67.6439 78.3283 67.7205C78.534 69.4835 78.4453 71.311 78.4372 73.082C78.4291 74.9579 78.2476 76.9468 78.7196 78.7824C79.2279 80.7592 80.5713 82.2196 82.4674 82.9497C84.3352 83.6678 86.5944 83.8373 88.4824 83.099C90.1284 82.4535 91.4073 81.2029 92.2827 79.6861C94.1949 76.374 94.4612 72.1098 93.7632 68.4144C93.6785 67.9666 93.5736 67.5269 93.4566 67.0871C93.3114 67.2767 93.1662 67.4704 93.021 67.66C98.4672 67.3857 103.93 67.3897 109.376 67.6035C109.63 67.6116 109.815 67.3857 109.828 67.1517C110.11 62.0928 109.513 57.0419 109.606 51.987C109.61 51.7207 109.392 51.5634 109.154 51.5352C107.153 51.2931 105.116 51.2044 103.147 50.7485C101.469 50.3612 99.8186 49.631 98.9593 48.0536C98.4631 47.1459 98.2816 46.097 98.2413 45.0763C98.1969 43.9266 98.2695 42.7083 98.7294 41.6392C99.4556 39.9529 101.069 39.1662 102.788 38.8273C104.954 38.3997 107.197 38.5409 109.388 38.4441C109.638 38.432 109.832 38.2464 109.84 37.9922C109.916 35.8944 109.932 33.7926 109.969 31.6948C109.997 29.9197 109.965 28.1164 110.243 26.3615C110.457 25.01 110.78 23.5698 110.538 22.2022C110.304 20.875 109.239 20.2739 107.976 20.173C107.266 20.1165 106.552 20.1891 105.842 20.2295C104.962 20.2819 104.083 20.2537 103.203 20.2295C101.158 20.173 99.1127 20.0479 97.0633 20.0318C95.0219 20.0157 90.9756 18.8982 90.665 21.9763C90.5964 22.6541 90.6972 23.3399 90.7376 24.0176C90.786 24.8325 90.8425 25.6434 90.907 26.4543C91.0442 28.2173 91.1894 30.0488 90.8183 31.7916C90.5197 33.2036 89.8662 34.2928 88.5671 34.9746C87.3609 35.608 85.9248 35.7976 84.5773 35.6685C83.3792 35.5515 82.2374 35.14 81.5556 34.0952C80.8819 33.0624 80.648 31.7795 80.5108 30.5733C80.3656 29.3025 80.2889 28.0115 80.2082 26.7327C80.0953 24.9213 80.1517 23.1099 79.8976 21.3107C79.7806 20.4796 79.4579 19.935 78.5744 19.8422C77.9652 19.7776 77.3399 19.8019 76.7267 19.7857C75.7181 19.7575 74.7055 19.7292 73.697 19.705C69.5861 19.5961 65.4712 19.4993 61.3603 19.6445C60.3638 19.6808 59.3674 19.7292 58.3709 19.7978C57.7859 19.818 57.7819 20.7257 58.3669 20.6894Z" fill="black"/>
<path d="M72.3173 41.9336C71.5266 33.611 65.7536 34.1515 58.9559 33.9135C57.7053 30.0084 58.5363 24.3161 57.8707 20.653C57.5681 18.9828 49.4956 19.4387 46.0262 19.4387H45.7236C35.5452 19.4387 25.4032 19.5516 15.253 19.9389C15.0594 24.8889 15.5153 30.0366 14.8093 34.8575C18.2464 35.0592 22.8051 34.2121 25.2499 37.3104C27.852 40.6104 26.7506 45.875 23.6765 47.8599C20.9453 49.6228 16.7739 49.1831 15.6484 49.9617C14.9464 50.4458 15.3458 52.8462 15.3458 54.6697C15.3458 58.3045 15.4991 63.1738 15.6484 66.9701C20.4289 67.2323 25.6533 67.2928 31.0229 67.2444C31.0511 66.026 31.1398 64.7956 31.1398 63.666C31.1398 58.8048 33.0359 54.2663 38.7403 55.1134C40.935 55.4402 43.3394 56.2148 44.6626 58.1593C45.7559 59.7649 46.0423 63.6499 46.3005 66.8773C51.4159 66.6998 56.9267 66.5707 61.554 66.4053C61.7073 62.6857 61.2514 56.001 61.3281 52.2814C68.63 52.6808 73.0394 49.518 72.3173 41.9336Z" fill="#92D6E8"/>
<path d="M72.7732 41.9335C72.5271 39.4444 71.7888 36.8988 69.691 35.3536C67.9039 34.0345 65.5559 33.7521 63.4057 33.6149C61.9251 33.5221 60.4446 33.51 58.96 33.4576C59.1052 33.5705 59.2504 33.6794 59.3956 33.7924C58.254 30.1374 58.8066 26.1838 58.5364 22.4158C58.4597 21.3589 58.5444 20.1325 57.4511 19.6242C56.4426 19.1562 55.2363 19.0876 54.1431 19.011C51.3756 18.8254 48.6 18.9787 45.8285 18.9787C41.1125 18.9787 36.3924 19.0029 31.6764 19.0674C26.202 19.1441 20.7234 19.2732 15.253 19.4789C15.0029 19.487 14.8092 19.6806 14.8012 19.9308C14.6156 24.8566 15.0755 29.8308 14.3736 34.7283C14.3292 35.0269 14.4905 35.2851 14.8093 35.3012C17.73 35.4626 21.1874 34.809 23.7693 36.5357C26.3875 38.2865 26.8111 42.0666 25.6251 44.7776C25.032 46.1372 24.0477 47.2385 22.7002 47.8759C21.2681 48.5577 19.6463 48.7473 18.0931 48.941C17.2217 49.0499 15.6645 49.0337 15.1159 49.8729C14.7851 50.3812 14.7851 51.0831 14.7851 51.6641C14.7851 52.5153 14.8657 53.3665 14.8899 54.2177C15.0069 58.4658 15.0311 62.7138 15.2006 66.9619C15.2127 67.216 15.4023 67.4016 15.6524 67.4137C20.7718 67.6921 25.9034 67.7324 31.0269 67.688C31.277 67.684 31.4747 67.4823 31.4787 67.2362C31.511 65.913 31.5715 64.5898 31.5997 63.2665C31.6199 62.3387 31.7087 61.4148 31.9104 60.5071C32.2573 58.9378 32.9552 57.308 34.3188 56.3559C35.9285 55.2303 37.9496 55.3393 39.7812 55.7548C41.7701 56.2026 43.9405 57.191 44.707 59.2283C45.6066 61.6165 45.651 64.3517 45.8527 66.8651C45.8729 67.1031 46.0463 67.329 46.3045 67.3169C51.3877 67.1394 56.4748 67.0264 61.558 66.8449C61.8121 66.8368 62.0018 66.6432 62.0098 66.3931C62.1914 61.6851 61.6952 56.9771 61.7839 52.2692C61.6306 52.4225 61.4813 52.5718 61.332 52.721C63.8171 52.8501 66.4515 52.6363 68.6784 51.4381C70.6229 50.3933 71.9582 48.59 72.5029 46.4639C72.8781 44.9955 72.9103 43.4463 72.7732 41.9335C72.7207 41.3566 71.813 41.3526 71.8655 41.9335C72.0753 44.2128 71.9058 46.6495 70.5785 48.594C69.4288 50.2763 67.5327 51.184 65.5841 51.5834C64.1883 51.8698 62.7521 51.9021 61.332 51.8295C61.0819 51.8174 60.8843 52.0473 60.8802 52.2813C60.7915 56.9893 61.2917 61.6972 61.1062 66.4052C61.2595 66.2519 61.4087 66.1026 61.558 65.9533C56.4748 66.1349 51.3877 66.2478 46.3045 66.4253C46.4578 66.5786 46.6071 66.7279 46.7564 66.8772C46.5587 64.384 46.474 61.7456 45.6994 59.3452C44.9813 57.1063 43.0691 55.779 40.8866 55.1174C38.8735 54.5082 36.5699 54.2339 34.6093 55.1496C32.9351 55.9323 31.8781 57.5339 31.3174 59.2404C30.9704 60.2933 30.7969 61.4027 30.7243 62.5041C30.6194 64.0774 30.6073 65.6709 30.571 67.2443C30.7243 67.091 30.8736 66.9417 31.0229 66.7924C25.8954 66.8409 20.7678 66.7965 15.6484 66.5181C15.8017 66.6714 15.9509 66.8207 16.1002 66.97C15.9429 63.0245 15.8097 59.0709 15.7976 55.1214C15.7936 54.2339 15.7452 53.3544 15.7048 52.4669C15.6887 52.0715 15.6726 51.6721 15.6887 51.2768C15.7008 51.0186 15.6927 50.6273 15.8501 50.4054C16.0639 50.1068 16.6771 50.0665 17.0079 50.01C17.726 49.885 18.4562 49.8204 19.1783 49.7196C20.8081 49.4977 22.5026 49.1628 23.9024 48.2551C25.1087 47.4725 25.9801 46.2824 26.5207 44.9592C27.6704 42.1473 27.2992 38.5124 24.9957 36.3703C22.2726 33.8368 18.1819 34.5912 14.8012 34.4016C14.9464 34.5912 15.0917 34.7848 15.2369 34.9744C15.951 29.9881 15.5072 24.9494 15.6968 19.9348C15.5435 20.0881 15.3942 20.2374 15.2449 20.3866C24.6608 20.0276 34.0808 19.9025 43.5048 19.8864C46.4457 19.8824 49.3907 19.7775 52.3277 19.842C53.5984 19.8702 54.9015 19.9025 56.1481 20.1648C56.5354 20.2454 56.967 20.3382 57.2938 20.5762C57.3422 20.6125 57.4148 20.7094 57.4067 20.6852C57.5318 21.0039 57.5318 21.4355 57.5681 21.7744C57.9796 25.8328 57.2776 30.0728 58.5121 34.0264C58.5726 34.2241 58.7461 34.3532 58.9478 34.3612C61.2675 34.4419 63.6437 34.3693 65.9351 34.8131C67.8635 35.1842 69.6426 36.0274 70.6713 37.7742C71.4096 39.0288 71.7122 40.4933 71.8574 41.9254C71.922 42.5064 72.8297 42.5144 72.7732 41.9335Z" fill="black"/>
<path d="M44.2431 56.9128C41.8709 54.1049 36.5377 54.4962 33.75 56.4448C30.4823 58.7322 30.8131 63.5975 30.5428 67.1274C28.4329 67.3776 25.8913 67.0508 23.7169 66.9419C21.2197 66.8168 18.7023 67.1113 16.2495 66.962C16.0841 70.7179 16.1366 74.4617 15.959 78.2377C11.4931 78.8751 7.2895 78.6653 3.4247 81.6103C-0.682154 84.7369 -0.948419 91.4539 4.88105 92.2204C7.04744 92.5068 9.10489 92.3455 11.2269 92.2406C14.063 92.0994 14.9303 92.0711 14.9303 92.3737C14.9303 94.4836 14.6964 99.2198 14.6197 101.318C14.5108 104.186 14.6157 105.279 17.6333 105.437C22.8253 105.707 28.3038 105.65 33.4999 105.408C33.5725 102.423 33.7743 97.836 36.4489 96.2627C41.1125 93.5194 46.6152 94.0035 48.5799 99.1553C49.0317 100.341 48.8784 104.275 49.7337 104.956C50.593 105.642 53.8284 104.807 54.8894 104.759C56.6161 104.678 58.367 104.759 60.0976 104.759C62.3124 104.759 62.9418 105.235 63.434 103.113C64.1803 99.8774 63.2968 95.2098 63.1193 91.8008C59.4199 91.6395 52.9006 92.5875 51.8759 87.811C51.4765 85.9512 52.3357 82.518 53.8688 81.2634C55.7084 79.7546 59.666 79.5811 61.788 79.5811C62.5867 79.5811 62.4536 75.9745 62.4698 74.2277C62.4819 72.7996 62.1309 67.8617 62.0139 66.9378C61.8848 65.9293 52.3761 66.8249 50.1613 66.9378C46.9864 67.0992 47.0428 66.9257 46.7604 63.9404C46.5466 61.6691 45.7882 58.4619 44.0131 56.9168" fill="#CC90D3"/>
<path d="M44.5537 56.602C42.4841 54.2178 38.7565 54.0604 35.9285 54.9318C34.4802 55.3796 33.1166 56.134 32.1767 57.3483C31.2004 58.6111 30.7405 60.1804 30.5065 61.7376C30.2362 63.5248 30.2362 65.3321 30.099 67.1314C30.2443 66.9861 30.3935 66.8369 30.5387 66.6916C28.2957 66.9377 26.0406 66.6271 23.7976 66.5101C21.2802 66.381 18.7628 66.6674 16.2455 66.5262C15.9994 66.5141 15.8138 66.74 15.8057 66.966C15.6443 70.7218 15.6887 74.4858 15.5153 78.2416C15.6242 78.1005 15.7291 77.9593 15.838 77.8181C10.9203 78.5079 4.97781 78.4434 1.62536 82.7923C-0.424037 85.4468 -0.89603 89.8683 2.34346 91.837C3.23503 92.3817 4.24762 92.6035 5.27232 92.7165C6.86988 92.89 8.47551 92.8295 10.0731 92.7488C11.3681 92.6802 12.6711 92.5793 13.9702 92.5874C14.071 92.5874 14.6196 92.6762 14.656 92.6479C14.5551 92.7367 14.543 92.2566 14.4865 92.4744C14.4381 92.6681 14.4825 92.9343 14.4785 93.136C14.4381 95.3871 14.3292 97.6342 14.2323 99.8813C14.192 100.854 14.1194 101.83 14.1517 102.802C14.1759 103.532 14.2727 104.315 14.7609 104.896C15.2692 105.505 16.076 105.715 16.8304 105.816C18.2908 106.009 19.8037 105.989 21.2762 106.025C24.552 106.102 27.8277 106.07 31.0995 105.957C31.8983 105.929 32.6971 105.896 33.4918 105.86C33.7339 105.848 33.9275 105.666 33.9316 105.42C33.98 103.516 34.0526 101.572 34.5972 99.732C34.8554 98.8647 35.2265 97.9933 35.8478 97.3195C36.4691 96.6458 37.3566 96.2303 38.1917 95.8834C39.9062 95.1693 41.8588 94.8183 43.6903 95.246C45.4452 95.6575 46.8613 96.787 47.7205 98.3644C48.5355 99.8611 48.4387 101.56 48.6686 103.206C48.7574 103.835 48.8502 104.589 49.2576 105.11C49.6651 105.63 50.4033 105.683 51.0165 105.678C51.9121 105.67 52.8118 105.513 53.6953 105.372C54.6716 105.215 55.6236 105.174 56.612 105.174C57.907 105.174 59.206 105.186 60.501 105.215C61.1707 105.231 61.9332 105.364 62.5827 105.146C63.325 104.896 63.6195 104.137 63.797 103.439C64.1036 102.253 64.1681 101.003 64.156 99.7845C64.1278 97.1138 63.6961 94.4754 63.5509 91.8128C63.5388 91.5667 63.3613 91.3811 63.1112 91.3731C59.5933 91.2279 52.3357 92.2526 52.2106 86.9435C52.1784 85.592 52.5173 84.1639 53.1345 82.9657C53.7558 81.7595 54.6998 81.106 55.9827 80.7106C57.3664 80.283 58.8268 80.1337 60.2671 80.0692C60.7915 80.045 61.4329 80.1458 61.9412 80.0167C62.3204 79.9199 62.506 79.5608 62.619 79.2179C62.97 78.1287 62.9014 76.8498 62.9054 75.7203C62.9094 74.7077 62.9095 73.6951 62.861 72.6865C62.8046 71.4682 62.7239 70.2498 62.6311 69.0315C62.5948 68.5312 62.5544 68.031 62.5101 67.5308C62.4859 67.2605 62.502 66.9014 62.3648 66.6634C62.0905 66.1914 61.3159 66.1551 60.8439 66.1067C59.9241 66.0139 58.9922 66.03 58.0724 66.0542C55.898 66.1067 53.7235 66.268 51.5531 66.4213C50.6736 66.4819 49.7901 66.5545 48.9107 66.5545C48.2289 66.5545 47.6358 66.5504 47.4422 65.8323C47.1437 64.7229 47.188 63.5167 46.9863 62.3831C46.7281 60.9267 46.3045 59.4542 45.5582 58.1673C45.2274 57.5944 44.82 57.0619 44.3237 56.6181C43.9042 56.2389 43.2789 56.8602 43.7025 57.2394C45.8769 59.192 46.1109 62.4315 46.4377 65.1385C46.5264 65.8767 46.6354 66.7481 47.3494 67.1556C48.1563 67.6155 49.3302 67.438 50.2097 67.3896C52.1098 67.2887 54.0059 67.1152 55.9101 67.0184C57.0235 66.9619 58.137 66.9135 59.2464 66.9216C59.9806 66.9256 60.7633 66.9054 61.4814 67.0951C61.5257 67.1072 61.671 67.1757 61.671 67.1757C61.6105 67.2363 61.5822 66.849 61.5902 67.1152C61.6064 67.5227 61.6669 67.9301 61.6992 68.3376C61.796 69.56 61.8807 70.7824 61.9453 72.0088C62.0017 73.0052 62.0219 73.9976 62.026 74.9941C62.026 76.2124 62.1066 77.5074 61.8444 78.7016C61.8081 78.8629 61.7355 79.0122 61.6951 79.1655C61.6709 79.2542 61.6629 79.1736 61.7839 79.1574C61.6266 79.1736 61.4612 79.1574 61.3038 79.1615C60.6463 79.1695 59.9927 79.1978 59.3351 79.2462C57.9151 79.3591 56.4547 79.5528 55.1234 80.0813C53.9131 80.5573 53.0175 81.3077 52.4083 82.4615C51.7669 83.6798 51.4079 85.0797 51.3393 86.4513C51.2263 88.8113 52.5052 90.7074 54.6998 91.5345C56.8621 92.3534 59.2988 92.2364 61.5701 92.2324C62.0865 92.2324 62.5988 92.2324 63.1152 92.2525C62.97 92.1073 62.8207 91.9581 62.6755 91.8128C62.8046 94.2011 63.1676 96.5692 63.2604 98.9574C63.3048 100.115 63.3088 101.297 63.1152 102.443C63.0264 102.967 62.9337 104.016 62.3689 104.287C61.8243 104.549 60.9488 104.335 60.372 104.327C58.9922 104.303 57.6125 104.279 56.2328 104.291C55.309 104.299 54.4335 104.363 53.5218 104.509C52.6585 104.646 51.7871 104.803 50.9116 104.795C50.6535 104.791 50.2218 104.807 50.008 104.626C49.8426 104.488 49.7821 104.206 49.7256 104.012C49.5037 103.206 49.4513 102.354 49.3746 101.527C49.306 100.785 49.2697 100.01 49.0761 99.2882C48.8502 98.4451 48.3741 97.6221 47.8456 96.9363C45.5219 93.8985 41.4312 93.6524 38.0908 94.9878C37.1266 95.3751 36.0979 95.8309 35.3516 96.5773C34.6456 97.2832 34.1897 98.195 33.871 99.1309C33.1892 101.14 33.1086 103.323 33.0561 105.428C33.2013 105.283 33.3506 105.134 33.4958 104.989C30.3653 105.134 27.2307 105.211 24.0961 105.194C22.5147 105.186 20.9292 105.154 19.3478 105.094C18.2706 105.053 16.9837 105.158 15.9671 104.718C15.366 104.46 15.1401 103.936 15.0675 103.314C14.9585 102.435 15.0433 101.527 15.0796 100.644C15.1683 98.4814 15.2732 96.3231 15.3337 94.1608C15.3458 93.7331 15.3579 93.3055 15.3619 92.8779C15.366 92.5793 15.4265 92.2284 15.2006 91.9903C14.8617 91.6394 14.1678 91.716 13.7321 91.72C10.9122 91.7523 8.08418 92.1557 5.26828 91.8491C3.52146 91.6595 1.8271 90.889 1.15742 89.1543C0.576489 87.6495 0.862895 85.9107 1.58502 84.5028C2.74688 82.2355 5.04239 80.8115 7.41049 80.045C10.2062 79.1413 13.1835 79.0889 16.072 78.6814C16.2656 78.6532 16.3867 78.4312 16.3947 78.2578C16.5682 74.5019 16.5238 70.738 16.6852 66.9821C16.54 67.1273 16.3907 67.2766 16.2455 67.4218C18.7628 67.563 21.2802 67.2766 23.7976 67.4057C26.0406 67.5227 28.2957 67.8333 30.5387 67.5872C30.7889 67.559 30.9583 67.4057 30.9785 67.1475C31.1882 64.3235 30.9583 61.1486 32.4066 58.599C33.8347 56.0816 37.0702 55.1779 39.8054 55.3796C41.3545 55.4926 42.8916 56.0453 43.9284 57.2435C44.3036 57.6509 44.9248 57.0256 44.5537 56.602Z" fill="black"/>
<path d="M51.3796 23.6503C47.0186 21.7825 46.5466 31.9488 49.5763 33.4656C53.3766 35.3658 53.9333 25.0341 51.3353 23.6705" fill="#F9F9F9"/>
<path d="M51.5087 23.1783C50.7059 22.8475 49.7901 22.8313 49.0518 23.3316C48.3055 23.8359 47.8658 24.6669 47.5834 25.502C46.95 27.3981 46.9701 29.7057 47.6237 31.5937C48.1401 33.0823 49.6327 34.9018 51.3997 33.9537C53.0175 33.0864 53.3402 30.6013 53.4129 28.9795C53.4653 27.8217 53.3805 26.6235 53.0618 25.506C52.8198 24.6508 52.4003 23.6987 51.5853 23.2509C51.0286 22.9443 50.5324 23.7955 51.0891 24.1021C51.5773 24.3684 51.8637 24.9856 52.0493 25.5464C52.3155 26.3734 52.4204 27.2488 52.4406 28.1162C52.4608 29.0118 52.3922 29.9155 52.1905 30.7909C52.0331 31.4807 51.8032 32.2311 51.3231 32.7717C50.9439 33.1953 50.5163 33.3244 49.9716 33.1146C49.3625 32.8806 48.9832 32.3078 48.725 31.7309C48.0352 30.1858 47.9707 28.2493 48.3095 26.6114C48.4749 25.8207 48.7412 24.9534 49.3342 24.3724C49.8829 23.8318 50.5525 23.848 51.2464 24.1344C51.8314 24.3684 52.0896 23.4163 51.5087 23.1783Z" fill="black"/>
<path d="M35.2064 23.727C30.8857 21.8954 30.9745 29.2821 32.4308 32.0698C33.2619 33.6552 35.0934 35.2568 36.7676 34.2967C38.3934 33.3648 37.9658 30.2261 37.8972 28.4874C37.7923 25.8813 37.0581 25.1511 35.2346 23.6705" fill="#F9F9F9"/>
<path d="M35.3354 23.2509C34.5609 22.9322 33.6854 22.8071 32.9068 23.1783C32.221 23.505 31.7813 24.1586 31.5029 24.8444C30.8292 26.5227 30.9381 28.5478 31.3093 30.2826C31.749 32.3441 33.1327 34.8332 35.4645 35.0631C38.3449 35.3455 38.5588 31.9285 38.462 29.9033C38.4014 28.6366 38.4378 27.273 37.9577 26.0789C37.4897 24.9049 36.5336 24.1021 35.5775 23.3235C35.0893 22.9281 34.3914 23.618 34.8836 24.0174C35.5936 24.5943 36.3682 25.1873 36.8321 25.9942C37.3243 26.8494 37.3647 27.8378 37.4131 28.7939C37.4655 29.7783 37.5502 30.7707 37.4655 31.7591C37.3969 32.57 37.1912 33.5664 36.3762 33.9457C35.2063 34.4903 33.992 33.4656 33.3264 32.5821C32.8423 31.9366 32.5478 31.2145 32.3501 30.4359C31.983 28.9997 31.8579 27.39 32.1887 25.9337C32.3299 25.3124 32.5639 24.6064 33.0964 24.203C33.6854 23.7552 34.4398 23.9407 35.0692 24.1989C35.6582 24.441 35.9164 23.4889 35.3354 23.2509Z" fill="black"/>
<path d="M34.9966 27.2005C34.5206 27.3175 34.0445 27.6483 33.9517 28.1566C33.8629 28.6407 34.0486 29.1208 34.3995 29.4637C34.6174 29.6775 34.8755 29.8228 35.162 29.9236C35.3233 29.9801 35.5251 29.9156 35.6421 29.7986C35.9487 29.4879 36.1665 29.0845 36.1746 28.6367C36.1786 28.2656 36.0294 27.9146 35.7873 27.6402C35.5654 27.3861 35.2427 27.2247 34.9078 27.2045C34.5447 27.1803 34.1938 27.3901 34.0203 27.7048C33.754 28.1849 33.8267 28.786 33.9356 29.2983C34.0082 29.6412 34.5286 29.7986 34.7585 29.5162C34.9401 29.2943 35.0571 29.0321 35.0208 28.7376C35.0046 28.6004 34.9764 28.4915 34.8756 28.3906C34.7908 28.3059 34.6496 28.2413 34.5286 28.2454C34.3995 28.2494 34.2704 28.2938 34.1817 28.3906C34.101 28.4794 34.0203 28.6125 34.0365 28.7376C34.0405 28.7739 34.0405 28.8142 34.0445 28.8505C34.0486 28.9393 34.0728 28.7376 34.0486 28.8263C34.0445 28.8384 34.0405 28.8505 34.0365 28.8626C34.0244 28.8989 34.0324 28.8787 34.0606 28.8061C34.0526 28.8223 34.0445 28.8384 34.0365 28.8505C34.0082 28.8909 34.0163 28.8828 34.0647 28.8182C34.339 28.8908 34.6133 28.9635 34.8877 29.0361C34.8756 28.9796 34.8635 28.9191 34.8554 28.8586C34.8514 28.8344 34.8473 28.8061 34.8433 28.7819C34.8272 28.6609 34.8554 28.8949 34.8473 28.7981C34.8352 28.7012 34.8312 28.6044 34.8312 28.5036C34.8312 28.4632 34.8312 28.4229 34.8352 28.3785C34.8352 28.3624 34.8393 28.3422 34.8393 28.3261C34.8473 28.2252 34.815 28.4592 34.8312 28.3785C34.8433 28.314 34.8594 28.2494 34.8796 28.1849C34.9078 28.1042 34.8272 28.2938 34.8514 28.2494C34.8554 28.2373 34.8634 28.2252 34.8675 28.2171C34.8796 28.1929 34.8957 28.1728 34.9119 28.1486C34.9441 28.0921 34.8191 28.2575 34.8634 28.2091C34.8715 28.201 34.8796 28.1929 34.8836 28.1849C34.8917 28.1768 34.8997 28.1687 34.9078 28.1607C34.9603 28.1082 34.8554 28.205 34.8433 28.2091C34.8594 28.205 34.8796 28.1849 34.8957 28.1768C34.9805 28.1284 34.7505 28.2252 34.8473 28.197C34.8675 28.1929 34.8876 28.1889 34.9078 28.1808C34.9764 28.1607 34.7787 28.1929 34.8191 28.1929C34.8312 28.1929 34.8433 28.1929 34.8514 28.1889C34.8715 28.1889 34.8957 28.1889 34.9159 28.1889C34.9885 28.1929 34.8231 28.1768 34.8231 28.1768C34.8352 28.1808 34.8513 28.1808 34.8634 28.1849C34.8836 28.1889 34.9078 28.197 34.928 28.201C34.9401 28.205 34.9522 28.2091 34.9643 28.2131C35.0369 28.2373 34.8352 28.1526 34.8877 28.1808C34.932 28.205 34.9764 28.2252 35.0167 28.2534C35.0248 28.2615 35.0369 28.2656 35.045 28.2736C35.0854 28.2978 34.924 28.1768 34.9845 28.2292C35.0047 28.2454 35.0248 28.2655 35.045 28.2817C35.0652 28.2978 35.0813 28.318 35.0975 28.3382C35.1055 28.3462 35.1136 28.3583 35.1216 28.3664C35.1741 28.4269 35.0369 28.2534 35.0813 28.314C35.1136 28.3583 35.1418 28.4067 35.166 28.4552C35.1741 28.4673 35.1781 28.4794 35.1862 28.4955C35.2144 28.5479 35.1297 28.3543 35.1539 28.4229C35.162 28.4511 35.1741 28.4794 35.1822 28.5076C35.1902 28.5358 35.1943 28.5601 35.2024 28.5883C35.2104 28.6327 35.2104 28.7053 35.1943 28.5116C35.1943 28.5278 35.1983 28.5399 35.1983 28.556C35.2024 28.5923 35.2024 28.6246 35.2024 28.6609C35.1983 28.7335 35.1741 28.8102 35.2104 28.6448C35.1942 28.7174 35.1741 28.79 35.1499 28.8586C35.1338 28.907 35.2144 28.7214 35.1741 28.8021C35.166 28.8223 35.1539 28.8384 35.1459 28.8586C35.1257 28.8949 35.1055 28.9312 35.0813 28.9675C35.0692 28.9877 35.0531 29.0038 35.041 29.024C34.9926 29.0926 35.1297 28.9151 35.0652 28.9957C35.0329 29.0361 34.9966 29.0724 34.9603 29.1087C35.1216 29.0684 35.279 29.024 35.4404 28.9836C35.4 28.9715 35.3032 28.9191 35.4565 28.9917C35.4323 28.9796 35.404 28.9675 35.3798 28.9554C35.3314 28.9312 35.283 28.903 35.2346 28.8707C35.2104 28.8545 35.1902 28.8384 35.166 28.8223C35.1015 28.7779 35.275 28.911 35.1862 28.8384C35.1459 28.8061 35.1095 28.7698 35.0732 28.7295C35.0571 28.7093 35.041 28.6932 35.0248 28.673C34.9724 28.6125 35.1096 28.79 35.045 28.6972C35.0168 28.6569 34.9925 28.6165 34.9683 28.5762C34.9562 28.556 34.9482 28.5318 34.9361 28.5116C35.0168 28.6488 34.9724 28.6004 34.9563 28.5479C34.9401 28.5076 34.932 28.4632 34.924 28.4188C34.9078 28.3462 34.9361 28.5722 34.932 28.4713C34.932 28.4511 34.928 28.431 34.928 28.4067C34.928 28.3866 34.932 28.3664 34.932 28.3422C34.9361 28.2696 34.8998 28.4955 34.928 28.3946C34.932 28.3745 34.9361 28.3543 34.9442 28.3341C34.9603 28.2817 35.0006 28.2534 34.924 28.3785C34.9441 28.3422 34.9684 28.3059 34.9885 28.2696C34.924 28.3946 34.924 28.3462 34.9643 28.3059C34.9804 28.2898 34.9966 28.2736 35.0127 28.2575C35.0934 28.1849 34.9199 28.322 34.9845 28.2776C35.0047 28.2615 35.0248 28.2494 35.0491 28.2373C35.0733 28.2252 35.0974 28.2091 35.1216 28.201C35.2306 28.1486 35.0248 28.2373 35.1015 28.2091C35.162 28.1889 35.2225 28.1687 35.283 28.1566C35.5331 28.0961 35.7066 27.7976 35.6259 27.5515C35.521 27.2852 35.2669 27.136 34.9966 27.2005Z" fill="black"/>
<path d="M50.7503 27.2005C49.6611 26.9464 49.1084 28.3624 49.5562 29.1894C49.8265 29.6937 50.48 29.7986 50.9561 29.5202C51.4079 29.258 51.5612 28.7174 51.5571 28.2293C51.5531 27.7734 51.4482 27.2489 51.2062 26.8576C51.069 26.6398 50.7624 26.5349 50.5325 26.6801C49.8023 27.1521 49.5804 28.0639 49.8426 28.8667C49.9233 29.1128 50.1855 29.2943 50.4477 29.2096C50.6938 29.1289 50.8754 28.8667 50.7907 28.6044C50.7665 28.5318 50.7463 28.4632 50.7342 28.3906C50.7302 28.3705 50.7261 28.3503 50.7221 28.3301C50.714 28.2777 50.714 28.2898 50.7261 28.3705C50.7342 28.3463 50.718 28.3059 50.718 28.2777C50.714 28.2091 50.714 28.1365 50.7221 28.0679C50.7221 28.0477 50.7261 28.0276 50.7261 28.0074C50.714 28.0881 50.714 28.1042 50.7221 28.0518C50.7302 28.0195 50.7342 27.9872 50.7422 27.9509C50.7503 27.9186 50.7584 27.8864 50.7705 27.8541C50.7786 27.8379 50.7826 27.8178 50.7907 27.8016C50.7624 27.8702 50.7544 27.8864 50.7705 27.8541C50.7987 27.7936 50.831 27.7371 50.8673 27.6806C50.9319 27.5838 50.8028 27.7492 50.8673 27.6806C50.8915 27.6564 50.9117 27.6322 50.9359 27.608C50.9561 27.5878 51.0004 27.5636 51.0125 27.5394C50.952 27.5878 50.9399 27.5919 50.9843 27.5636C51.0005 27.5515 51.0166 27.5394 51.0327 27.5313C50.8068 27.4708 50.5849 27.4144 50.359 27.3538C50.3913 27.4063 50.4155 27.4587 50.4397 27.5112C50.4719 27.5798 50.3913 27.3821 50.4155 27.4547C50.4235 27.4708 50.4276 27.487 50.4357 27.5031C50.4518 27.5434 50.4639 27.5838 50.476 27.6282C50.4962 27.6967 50.5163 27.7694 50.5325 27.8379C50.5406 27.8783 50.5486 27.9186 50.5567 27.959C50.5607 27.9791 50.5647 27.9993 50.5647 28.0195C50.5768 28.1042 50.5486 27.8702 50.5607 27.9912C50.5688 28.076 50.5728 28.1607 50.5728 28.2414C50.5728 28.2817 50.5728 28.3221 50.5688 28.3664C50.5688 28.3866 50.5647 28.4068 50.5647 28.427C50.5607 28.4754 50.5284 28.5238 50.5728 28.3745C50.5526 28.4471 50.5405 28.5238 50.5163 28.5964C50.5002 28.6448 50.4639 28.6609 50.5405 28.548C50.5324 28.5641 50.5244 28.5802 50.5163 28.5964C50.5083 28.6125 50.5002 28.6287 50.4881 28.6408C50.4558 28.6932 50.4114 28.6972 50.5163 28.6125C50.4921 28.6327 50.4679 28.6609 50.4437 28.6851C50.3912 28.7376 50.5446 28.6166 50.4961 28.6448C50.484 28.6529 50.4719 28.6609 50.4598 28.669C50.4437 28.6771 50.4276 28.6851 50.4114 28.6932C50.5123 28.6206 50.5163 28.6569 50.4598 28.669C50.4397 28.673 50.4235 28.6771 50.4034 28.6851C50.2904 28.7174 50.5164 28.6771 50.4357 28.6851C50.3994 28.6851 50.363 28.6811 50.3267 28.6851C50.4599 28.673 50.4477 28.7093 50.3953 28.6932C50.3791 28.6892 50.3671 28.6851 50.3509 28.6811C50.2823 28.665 50.476 28.7456 50.4155 28.7093C50.4034 28.7013 50.3913 28.6932 50.3792 28.6892C50.3187 28.6569 50.4719 28.7739 50.4397 28.7376C50.4276 28.7255 50.4155 28.7134 50.4034 28.7013C50.3671 28.669 50.3711 28.6246 50.4437 28.7577C50.4356 28.7456 50.4276 28.7335 50.4195 28.7214C50.3872 28.669 50.3792 28.5802 50.4236 28.7456C50.4155 28.7134 50.4034 28.6851 50.3953 28.6569C50.3791 28.5964 50.3872 28.4713 50.3912 28.6569C50.3912 28.5923 50.3832 28.5318 50.3873 28.4673C50.3873 28.4511 50.3912 28.431 50.3912 28.4148C50.3953 28.3342 50.3671 28.556 50.3832 28.4754C50.3913 28.435 50.3993 28.3947 50.4074 28.3543C50.4195 28.314 50.4316 28.2777 50.4437 28.2373C50.4679 28.1647 50.3832 28.3624 50.4195 28.2898C50.4316 28.2696 50.4397 28.2494 50.4518 28.2293C50.4679 28.201 50.4881 28.1728 50.5042 28.1445C50.5446 28.08 50.4155 28.2454 50.4679 28.193C50.4841 28.1768 50.4962 28.1607 50.5123 28.1486C50.5244 28.1365 50.5365 28.1284 50.5446 28.1163C50.4437 28.2212 50.4598 28.1809 50.5083 28.1486C50.5204 28.1405 50.5365 28.1365 50.5486 28.1284C50.6091 28.0921 50.4034 28.1728 50.5002 28.1526C50.5123 28.1486 50.5324 28.1486 50.5446 28.1405C50.4155 28.1889 50.4235 28.1526 50.4921 28.1486C50.5082 28.1486 50.5244 28.1526 50.5405 28.1486C50.4114 28.1607 50.4276 28.1284 50.4961 28.1445C50.7463 28.2051 51.0408 28.0679 51.1013 27.8016C51.1537 27.5555 51.0206 27.2651 50.7503 27.2005Z" fill="black"/>
<path d="M34.7909 28.2816C34.7909 28.3179 34.7909 28.3542 34.7868 28.3945C34.7909 28.3501 34.799 28.3058 34.803 28.2654C34.7949 28.3259 34.7788 28.3864 34.7626 28.4429C34.7424 28.5276 34.7263 28.6083 34.7142 28.693C34.7061 28.7455 34.6981 28.7979 34.6981 28.8504C34.6981 28.9069 34.7061 28.9593 34.7142 29.0118C34.7344 29.153 34.7788 29.274 34.8433 29.4071C35.0692 29.1812 35.2911 28.9593 35.517 28.7334C35.4928 28.7173 35.4686 28.7011 35.4444 28.6809C35.4767 28.7051 35.509 28.7334 35.5453 28.7576C35.4686 28.6971 35.4 28.6285 35.3355 28.5519C35.3597 28.5841 35.3879 28.6164 35.4121 28.6527C35.4081 28.6487 35.4081 28.6446 35.4041 28.6406C35.3718 28.5841 35.3315 28.5357 35.279 28.5034C35.2306 28.4591 35.1741 28.4308 35.1136 28.4147C34.9966 28.3824 34.8393 28.3986 34.7344 28.4631C34.6295 28.5317 34.5367 28.6325 34.5085 28.7576C34.4802 28.8786 34.4802 29.036 34.5569 29.1368C34.6214 29.2215 34.686 29.3103 34.7667 29.3829C34.8473 29.4555 34.9321 29.5241 35.0208 29.5806C35.0612 29.5967 35.0975 29.6129 35.1378 29.629C35.2024 29.6492 35.2669 29.6532 35.3355 29.6371C35.4404 29.625 35.5453 29.5806 35.6179 29.4999C35.6743 29.4353 35.7187 29.3627 35.743 29.2821C35.7833 29.157 35.751 29.0158 35.6945 28.9028C35.6865 28.8827 35.6743 28.8625 35.6663 28.8423C35.6824 28.8827 35.6986 28.919 35.7147 28.9593C35.6945 28.9109 35.6824 28.8584 35.6744 28.806C35.6784 28.8504 35.6865 28.8948 35.6905 28.9351C35.6824 28.8706 35.6824 28.81 35.6905 28.7455C35.6865 28.7899 35.6784 28.8342 35.6744 28.8746C35.7026 28.6688 35.7833 28.4752 35.7752 28.2695C35.7712 28.1404 35.7228 28.0153 35.63 27.9225C35.5453 27.8378 35.4041 27.7732 35.283 27.7773C35.154 27.7813 35.0249 27.8257 34.9361 27.9225C34.8474 28.0274 34.7828 28.1525 34.7909 28.2816Z" fill="black"/>
<path d="M61.3281 51.8256C58.9196 51.9184 56.37 51.9547 53.9938 51.4988C51.8476 51.0873 50.0362 50.0384 48.9429 48.102C48.5597 47.4242 47.5148 48.0334 47.8981 48.7112C49.0841 50.809 51.0649 52.1039 53.3967 52.6082C55.9585 53.1609 58.7259 53.1367 61.332 53.0359C62.1026 53.0076 62.1067 51.7974 61.3281 51.8256Z" fill="black"/>
<path d="M72.7167 52.584C68.7107 52.5921 68.2588 61.7135 72.5513 61.4714C76.4362 61.2536 76.1821 53.1447 72.7167 52.584Z" fill="#F9F9F9"/>
<path d="M72.7167 52.0918C70.9296 52.1201 69.804 53.6289 69.332 55.2103C68.8439 56.8442 68.864 58.8532 69.7354 60.358C70.5867 61.8345 72.4747 62.4598 73.9754 61.5279C75.5326 60.5597 75.9723 58.4377 75.8634 56.7353C75.7505 54.8956 74.9234 52.4751 72.8458 52.108C72.2286 51.9991 71.9623 52.9471 72.5836 53.056C74.0117 53.3102 74.6209 54.8876 74.8186 56.1624C75.0324 57.526 74.8912 59.301 73.8826 60.3459C73.0072 61.2496 71.5428 61.1689 70.7803 60.1684C69.9452 59.067 69.8685 57.417 70.1187 56.11C70.3769 54.7787 71.1353 53.0964 72.7127 53.0722C73.3501 53.0641 73.3541 52.0838 72.7167 52.0918Z" fill="black"/>
<path d="M97.3215 52.5236C94.0901 51.0471 92.6337 61.0923 96.7325 61.2416C100.795 61.3868 100.847 52.8584 97.2448 52.5841" fill="#F9F9F9"/>
<path d="M97.5717 52.1C95.9177 51.3738 94.772 52.8141 94.2435 54.226C93.6343 55.868 93.4891 57.9416 94.1144 59.6037C94.3927 60.35 94.8526 61.0641 95.5788 61.4393C96.3655 61.8427 97.3256 61.8225 98.1244 61.4514C99.843 60.6485 100.4 58.4095 100.359 56.6789C100.319 54.7465 99.4799 52.2977 97.249 52.096C96.6196 52.0395 96.6237 53.0238 97.249 53.0803C98.6367 53.2054 99.2096 54.9038 99.3387 56.0899C99.492 57.4897 99.2742 59.3576 98.1042 60.3137C97.0432 61.173 95.7361 60.7212 95.1834 59.6158C94.538 58.3248 94.6187 56.6345 94.9576 55.2709C95.127 54.5972 95.3973 53.8388 95.8451 53.3425C95.9379 53.2417 96.079 53.1086 96.1315 53.0723C96.2686 52.9754 96.3534 52.9351 96.4421 52.9109C96.668 52.8463 96.8536 52.8544 97.0796 52.9553C97.6484 53.2013 98.1486 52.3542 97.5717 52.1Z" fill="black"/>
<path d="M31.1802 20.0802C30.8615 19.0475 30.212 16.1509 32.0072 16.1186C31.5635 15.1907 31.0431 11.8988 32.6769 11.8706C32.7899 10.1399 32.3421 8.23168 33.4636 6.78742C34.9482 4.87923 36.11 5.41175 37.7923 6.06933C38.6516 3.68913 41.8952 4.24586 43.4725 5.81921C45.4292 7.77178 43.9607 10.39 44.8361 12.4838C45.0419 12.98 45.6954 13.0687 45.9213 13.5407C46.1513 14.0248 45.8931 14.513 46.0544 14.985C46.4094 16.0057 46.8209 16.3123 46.8209 17.6516C46.8209 19.108 47.0267 19.5195 45.6147 20.1206C43.8437 20.875 41.4877 20.6934 39.5996 20.6894C36.9048 20.6813 34.1938 20.5361 31.4828 20.5361" fill="#E59E41"/>
<path d="M31.6562 19.951C31.4384 19.241 30.7122 16.6792 32.0072 16.6147C32.4025 16.5945 32.5922 16.2153 32.4348 15.8724C32.1605 15.2713 32.0717 14.5209 32.0596 13.8674C32.0516 13.4196 32.0435 12.3989 32.6769 12.3666C32.9552 12.3505 33.1529 12.1528 33.169 11.8744C33.2618 10.176 32.8221 8.25978 34.0445 6.85989C34.5004 6.33948 35.049 5.91992 35.7711 5.96833C36.4247 6.01271 37.0621 6.31528 37.6632 6.5533C37.9295 6.65819 38.1836 6.43631 38.2683 6.21039C38.9985 4.3143 41.536 4.89926 42.7907 5.87554C44.7917 7.44082 43.6823 9.99047 44.1946 12.1004C44.3237 12.6289 44.5335 13.0363 44.9773 13.355C45.1507 13.4801 45.3766 13.5729 45.4735 13.7705C45.6227 14.0731 45.4815 14.5007 45.5219 14.8315C45.5864 15.3318 45.8648 15.7836 46.0584 16.2435C46.2924 16.7922 46.3247 17.3328 46.3328 17.9258C46.3368 18.2566 46.3973 18.6479 46.3045 18.9707C46.1996 19.3338 45.8204 19.4951 45.4976 19.6404C44.3197 20.1608 42.9843 20.2172 41.7176 20.2213C38.3046 20.2374 34.8957 20.0518 31.4827 20.0478C30.8493 20.0478 30.8453 21.0322 31.4827 21.0362C34.8957 21.0402 38.3046 21.2258 41.7176 21.2097C43.1901 21.2016 44.7069 21.0967 46.0584 20.4633C46.958 20.0397 47.3292 19.4265 47.3252 18.4462C47.3252 17.829 47.3413 17.1956 47.2082 16.5905C47.0912 16.0539 46.8088 15.5779 46.6071 15.0696C46.3529 14.416 46.6797 13.6979 46.2077 13.0968C46.0463 12.8871 45.8325 12.7539 45.6187 12.6047C45.3403 12.407 45.2435 12.2335 45.1588 11.9067C44.836 10.6763 45.1507 9.37323 45.0176 8.12261C44.8764 6.81955 44.2753 5.73435 43.2062 4.96381C41.3303 3.61234 38.2804 3.46308 37.3203 5.94817C37.522 5.83521 37.7237 5.71821 37.9254 5.60525C37.1872 5.31479 36.4166 4.97591 35.6057 4.98398C34.7545 4.99205 34.0283 5.43581 33.4595 6.04095C32.7535 6.79131 32.3662 7.66272 32.2412 8.68338C32.1121 9.74438 32.2372 10.8175 32.1807 11.8825C32.3461 11.7171 32.5115 11.5517 32.6728 11.3903C30.4298 11.5154 30.9623 15.0333 31.5795 16.3807C31.7207 16.1346 31.862 15.8845 32.0072 15.6384C29.7238 15.7514 30.2563 18.7609 30.7041 20.2213C30.8897 20.8184 31.8418 20.5602 31.6562 19.951Z" fill="black"/>
<path d="M97.4386 55.5086C97.0917 55.549 96.6358 55.6135 96.5188 56.0129C96.4543 56.2348 96.418 56.4688 96.4018 56.6947C96.3655 57.1748 96.4946 57.6871 96.8617 58.022C97.0433 58.1874 97.3862 58.2358 97.5556 58.022C97.8219 57.6952 97.9792 57.2877 97.9631 56.8601C97.955 56.6302 97.8985 56.4163 97.8017 56.2066C97.6968 55.9928 97.5314 55.8273 97.3377 55.6902C97.1764 55.5732 96.8698 55.6135 96.7407 55.7668C96.1678 56.4567 95.9339 57.8364 96.8537 58.3568C97.0392 58.4617 97.3015 58.4415 97.4507 58.2802C97.5919 58.1269 97.6766 57.9655 97.6928 57.7557C97.7008 57.6629 97.6887 57.5742 97.6968 57.4814C97.721 57.2232 97.4548 56.9771 97.2046 56.9892C96.9182 57.0013 96.7367 57.2071 96.7125 57.4814C96.7044 57.554 96.7084 57.6266 96.7084 57.6992C96.7084 57.7073 96.7125 57.7315 96.7084 57.7355C96.7044 57.7396 96.7367 57.5943 96.7165 57.6589C96.7246 57.6387 96.781 57.5419 96.7367 57.6064C96.7084 57.6468 96.8254 57.5056 96.7528 57.5822C96.9505 57.558 97.1522 57.5298 97.3499 57.5056C97.3297 57.4935 97.3136 57.4854 97.2974 57.4733C97.2288 57.433 97.3902 57.558 97.3338 57.5016C97.3096 57.4773 97.2894 57.4531 97.2652 57.4289C97.3579 57.5177 97.3216 57.5056 97.2934 57.4652C97.2813 57.4491 97.2732 57.433 97.2611 57.4128C97.2087 57.316 97.2974 57.5258 97.2611 57.4209C97.249 57.3805 97.2369 57.3402 97.2289 57.2998C97.2248 57.2837 97.2208 57.2635 97.2208 57.2474C97.2087 57.1909 97.2329 57.3805 97.2289 57.3039C97.2248 57.2192 97.2208 57.1344 97.2289 57.0497C97.2289 57.0295 97.2329 57.0134 97.2329 56.9932C97.2248 57.1506 97.2208 57.078 97.2289 57.0336C97.2369 56.9932 97.245 56.9529 97.253 56.9085C97.2732 56.8278 97.2974 56.7471 97.3257 56.6705C97.3338 56.6544 97.3378 56.6382 97.3458 56.6181C97.2934 56.7673 97.3136 56.6907 97.3297 56.6584C97.3459 56.6221 97.362 56.5898 97.3822 56.5575C97.3983 56.5253 97.4184 56.497 97.4386 56.4648C97.4467 56.4567 97.4628 56.4244 97.4709 56.4204C97.4548 56.4284 97.3821 56.5293 97.4386 56.4648C97.2409 56.489 97.0392 56.5172 96.8415 56.5414C96.898 56.5817 96.8093 56.5212 96.8012 56.5091C96.8093 56.5212 96.8294 56.5333 96.8375 56.5414C96.8536 56.5575 96.9021 56.5898 96.9061 56.614C96.9061 56.61 96.8375 56.5132 96.8739 56.5737C96.886 56.5898 96.898 56.606 96.9061 56.6221C96.9222 56.6503 96.9343 56.6786 96.9505 56.7068C96.9787 56.7512 96.9142 56.6019 96.9303 56.6544C96.9344 56.6705 96.9424 56.6826 96.9464 56.6987C96.9545 56.727 96.9666 56.7593 96.9707 56.7915C96.9747 56.8157 96.9949 56.9287 96.9787 56.8319C96.9666 56.735 96.9787 56.8601 96.9787 56.8843C96.9787 56.9166 96.9787 56.9489 96.9787 56.9811C96.9787 56.9973 96.9747 57.0134 96.9747 57.0296C96.9707 57.0981 96.9828 56.9771 96.9828 56.969C96.9949 57.0175 96.9545 57.1102 96.9384 57.1546C96.9303 57.1788 96.9222 57.2272 96.9061 57.2434C96.9182 57.2313 96.9626 57.1264 96.9223 57.203C96.9142 57.2151 96.9101 57.2313 96.9021 57.2434C96.8859 57.2716 96.8738 57.2958 96.8577 57.324C96.8335 57.3604 96.7568 57.4531 96.8617 57.324C97.0917 57.324 97.3257 57.324 97.5556 57.324C97.5274 57.2998 97.5032 57.2716 97.479 57.2474C97.4144 57.1788 97.5354 57.3361 97.4911 57.2635C97.4749 57.2353 97.4547 57.2071 97.4386 57.1748C97.4305 57.1586 97.4225 57.1425 97.4144 57.1264C97.4225 57.1506 97.4346 57.1748 97.4426 57.195C97.4346 57.1385 97.4023 57.078 97.3902 57.0175C97.3862 57.0013 97.3822 56.9811 97.3822 56.965C97.3741 56.9126 97.3781 56.9287 97.3902 57.0175C97.3902 56.9852 97.3862 56.9529 97.3822 56.9247C97.3781 56.8601 97.3781 56.7956 97.3822 56.731C97.3822 56.6987 97.3862 56.6665 97.3902 56.6342C97.3902 56.614 97.3942 56.5979 97.3942 56.5777C97.3821 56.6584 97.3822 56.6786 97.3862 56.6382C97.4064 56.5091 97.4346 56.38 97.4669 56.2509C97.3902 56.3478 97.3176 56.4486 97.2409 56.5454C97.2571 56.5333 97.2772 56.5253 97.2934 56.5132C97.3418 56.489 97.3297 56.493 97.253 56.5293C97.2773 56.5293 97.3096 56.5091 97.3338 56.5051C97.362 56.497 97.3862 56.493 97.4144 56.489C97.4669 56.4809 97.4507 56.4809 97.3701 56.493C97.3902 56.489 97.4104 56.489 97.4306 56.4849C97.5637 56.4688 97.6767 56.4405 97.7775 56.3397C97.8622 56.255 97.9268 56.1138 97.9227 55.9928C97.9187 55.7588 97.7089 55.4764 97.4386 55.5086Z" fill="black"/>
<path d="M72.8337 56.1905C72.285 56.2067 71.7808 56.5455 71.5347 57.0377C71.2805 57.546 71.2725 58.1431 71.6517 58.5909C72.0067 59.0105 72.753 59.1678 73.2291 58.8773C73.6688 58.607 73.8059 58.0786 73.81 57.5944C73.814 57.1063 73.7091 56.598 73.4993 56.1542C73.4146 55.9727 73.1322 55.8557 72.9426 55.9283C72.3496 56.1502 71.9179 56.6262 71.7041 57.2152C71.5064 57.7679 71.5911 58.4376 72.0309 58.8491C72.3133 59.1153 72.7288 58.9822 72.8539 58.6312C73.1322 57.8567 72.9466 56.9732 72.7328 56.2107C72.6642 55.9646 72.3818 55.7831 72.1277 55.8678C71.8735 55.9485 71.7081 56.2067 71.7848 56.4729C71.8292 56.6383 71.8736 56.8037 71.9099 56.9732C71.93 57.066 71.9502 57.1628 71.9664 57.2596C71.9704 57.2959 71.9825 57.3322 71.9825 57.3685C71.9744 57.2273 71.9825 57.3927 71.9865 57.421C72.0026 57.6025 72.0107 57.784 71.9986 57.9656C71.9986 57.9938 72.0026 58.0463 71.9905 58.0705C72.0026 57.9979 72.0026 57.9898 71.9946 58.0422C71.9905 58.0664 71.9865 58.0866 71.9825 58.1108C71.9663 58.1996 71.9381 58.2883 71.9099 58.373C72.1842 58.3004 72.4585 58.2278 72.7328 58.1552C72.7167 58.1391 72.6965 58.1229 72.6804 58.1028C72.6199 58.0382 72.6764 58.0907 72.6965 58.127C72.6764 58.0866 72.6441 58.0503 72.6239 58.0059C72.5997 57.9575 72.6118 57.9253 72.636 58.0382C72.632 58.018 72.6199 57.9938 72.6159 57.9737C72.5997 57.9172 72.5957 57.776 72.5997 57.9414C72.5997 57.893 72.5916 57.8446 72.5916 57.7962C72.5916 57.772 72.5916 57.7477 72.5957 57.7235C72.5957 57.7034 72.6078 57.6267 72.5957 57.7155C72.5836 57.8123 72.5957 57.7155 72.5997 57.6953C72.6037 57.6711 72.6118 57.6469 72.6159 57.6227C72.628 57.5743 72.6441 57.5259 72.6602 57.4774C72.6683 57.4573 72.6763 57.4371 72.6844 57.4169C72.6441 57.5541 72.6602 57.4775 72.6764 57.4411C72.7006 57.3927 72.7248 57.3484 72.749 57.304C72.7772 57.2596 72.8054 57.2152 72.8377 57.1709C72.8942 57.0902 72.7611 57.2596 72.8256 57.187C72.8418 57.1668 72.8579 57.1466 72.8781 57.1265C72.9144 57.0861 72.9507 57.0498 72.991 57.0176C73.0112 57.0014 73.0354 56.9853 73.0515 56.9651C73.0193 57.0014 72.9668 57.0297 73.0354 56.9812C73.0757 56.953 73.1161 56.9288 73.1564 56.9086C73.1806 56.8965 73.2008 56.8844 73.225 56.8723C73.3259 56.8199 73.1282 56.9086 73.2129 56.8764C73.0273 56.7997 72.8418 56.7271 72.6562 56.6504C72.6602 56.6625 72.6683 56.6787 72.6723 56.6908C72.7046 56.7473 72.6239 56.5657 72.6481 56.6303C72.6602 56.6625 72.6723 56.6988 72.6844 56.7311C72.7086 56.8037 72.7288 56.8764 72.749 56.953C72.7691 57.0377 72.7893 57.1224 72.8014 57.2072C72.8055 57.2273 72.8095 57.2475 72.8095 57.2677C72.8216 57.3484 72.8135 57.2515 72.8014 57.2193C72.8135 57.2596 72.8135 57.312 72.8135 57.3564C72.8216 57.4411 72.8256 57.5299 72.8216 57.6146C72.8216 57.655 72.8176 57.6953 72.8176 57.7356C72.8176 57.7558 72.8135 57.776 72.8135 57.7962C72.8095 57.8688 72.8377 57.659 72.8176 57.7518C72.8014 57.8325 72.7853 57.9051 72.757 57.9817C72.7328 58.0584 72.7974 57.9051 72.7812 57.9293C72.7732 57.9414 72.7651 57.9616 72.757 57.9737C72.753 57.9817 72.7086 58.0665 72.7006 58.0624C72.6965 58.0624 72.8014 57.9535 72.7369 58.01C72.7248 58.0221 72.7127 58.0301 72.7046 58.0422C72.6643 58.0907 72.8095 57.9737 72.757 58.0059C72.7409 58.014 72.7248 58.0261 72.7086 58.0342C72.6885 58.0463 72.628 58.0705 72.7167 58.0342C72.8055 57.9938 72.745 58.0221 72.7208 58.0301C72.7046 58.0342 72.6885 58.0382 72.6723 58.0422C72.5876 58.0624 72.7893 58.0382 72.7208 58.0342C72.6804 58.0301 72.632 58.0301 72.5916 58.0301C72.5473 58.0301 72.6764 58.0342 72.6683 58.0422L72.636 58.0382C72.6078 58.0342 72.5795 58.0261 72.5553 58.018C72.5311 58.01 72.5069 58.0059 72.4867 57.9979C72.4746 57.9938 72.4666 57.9898 72.4545 57.9858C72.4061 57.9737 72.5231 58.018 72.519 58.014C72.4787 57.9898 72.4383 57.9696 72.398 57.9454C72.3899 57.9414 72.3819 57.9333 72.3738 57.9293C72.3698 57.9293 72.4585 58.0059 72.4343 57.9737C72.4222 57.9575 72.4061 57.9454 72.3899 57.9333C72.3778 57.9212 72.3657 57.9051 72.3536 57.8889C72.3254 57.8607 72.4101 57.9495 72.402 57.9495C72.398 57.9495 72.3818 57.9212 72.3818 57.9172C72.3738 57.901 72.3617 57.8849 72.3536 57.8688C72.3092 57.7881 72.3778 57.9172 72.3738 57.9212C72.3698 57.9212 72.3415 57.8163 72.3415 57.8083C72.3375 57.7841 72.3254 57.7114 72.3415 57.8083C72.3536 57.9091 72.3455 57.8244 72.3455 57.8002C72.3455 57.7599 72.3456 57.7195 72.3496 57.6751C72.3536 57.5904 72.3334 57.7598 72.3415 57.7276C72.3455 57.7074 72.3496 57.6872 72.3536 57.6711C72.3617 57.6308 72.3738 57.5864 72.3899 57.546C72.398 57.5259 72.4303 57.4411 72.394 57.5299C72.3576 57.6186 72.394 57.538 72.402 57.5138C72.4222 57.4734 72.4464 57.429 72.4747 57.3927C72.4868 57.3726 72.5432 57.304 72.4827 57.3766C72.4262 57.4492 72.4827 57.3806 72.4948 57.3645C72.5271 57.3282 72.5594 57.2959 72.5957 57.2636C72.6723 57.191 72.515 57.3161 72.5755 57.2757C72.5957 57.2636 72.6158 57.2475 72.636 57.2354C72.6562 57.2233 72.6764 57.2112 72.6965 57.1991C72.7167 57.187 72.7974 57.1507 72.7127 57.191C72.6239 57.2273 72.7086 57.1951 72.7288 57.187C72.753 57.1789 72.7732 57.1749 72.7974 57.1668C72.8054 57.1628 72.8175 57.1628 72.8296 57.1587C72.8942 57.1426 72.7571 57.1668 72.7611 57.1668C72.7772 57.1547 72.8256 57.1628 72.8458 57.1628C73.104 57.1547 73.3501 56.9409 73.338 56.6706C73.3137 56.4245 73.108 56.1865 72.8337 56.1905Z" fill="black"/>
<path d="M72.3778 70.8107C69.1706 70.609 67.4399 78.7541 73.0233 77.4873C77.3359 76.507 75.7665 69.4794 71.4297 70.9599" fill="#F9F9F9"/>
<path d="M72.3777 70.3183C70.8568 70.2376 69.7878 71.6012 69.2876 72.88C68.7833 74.1629 68.6663 75.8573 69.5336 77.0151C70.6148 78.4594 72.9184 78.3585 74.3344 77.4871C75.8593 76.5512 76.3757 74.6188 75.8876 72.9526C75.6253 72.0651 75.0847 71.2462 74.294 70.7459C73.3944 70.1771 72.289 70.1529 71.2966 70.4837C70.6995 70.6814 70.9537 71.6334 71.5588 71.4317C72.9829 70.9597 74.2375 71.5044 74.8144 72.8599C75.3026 74.0056 75.1533 75.5103 74.1649 76.3938C73.6122 76.886 72.7973 77.1039 72.047 77.1281C71.6798 77.1402 71.4418 77.116 71.103 77.0071C70.9053 76.9425 70.6592 76.7973 70.5099 76.652C70.171 76.3293 69.9653 75.8048 69.9088 75.3611C69.8281 74.7035 69.9007 74.1871 70.0823 73.582C70.2638 72.9728 70.5785 72.3637 71.0061 71.9199C71.2401 71.6738 71.3531 71.5891 71.6637 71.4358C71.6879 71.4237 71.7726 71.3874 71.6798 71.4237C71.7202 71.4075 71.7565 71.3914 71.7968 71.3793C71.8654 71.3591 71.93 71.339 71.9985 71.3228C72.0671 71.3067 72.1882 71.2946 72.3738 71.3026C73.0112 71.3349 73.0071 70.3506 72.3777 70.3183Z" fill="black"/>
<path d="M99.0684 70.3547C95.9136 70.0844 94.3967 76.6966 97.8218 77.0395C101.513 77.4106 102.865 70.9639 99.3709 70.3547" fill="#F9F9F9"/>
<path d="M99.0683 69.8626C97.5917 69.7536 96.442 70.9155 95.8853 72.1742C95.3285 73.4329 95.1026 75.095 95.8449 76.3294C96.6397 77.6527 98.4107 77.8342 99.6936 77.1484C101.009 76.4424 101.739 74.9376 101.872 73.5014C102.021 71.8756 101.219 70.1974 99.504 69.8787C98.8868 69.7657 98.6205 70.7138 99.2418 70.8267C100.367 71.0365 100.888 71.9402 100.908 73.0294C100.928 74.1389 100.468 75.3653 99.5604 76.0712C99.1489 76.39 98.6245 76.5715 98.088 76.5634C97.5555 76.5554 97.1359 76.394 96.8091 76.0027C96.555 75.6961 96.4017 75.1514 96.3734 74.7036C96.3371 74.0985 96.4259 73.5579 96.6195 72.981C96.8172 72.392 97.1359 71.8272 97.5837 71.4036C98.0033 71.0043 98.4833 70.8025 99.0683 70.8469C99.7017 70.8913 99.6976 69.9069 99.0683 69.8626Z" fill="black"/>
<path d="M62.8449 92.3372C64.3941 92.2888 65.9271 92.4865 67.4763 92.2767C69.3239 92.0266 70.9901 91.2036 72.0027 89.5899C72.3415 89.0533 71.4903 88.5571 71.1514 89.0937C69.332 91.9903 65.7294 91.2681 62.8449 91.3569C62.2156 91.369 62.2115 92.3533 62.8449 92.3372Z" fill="black"/>
<path d="M98.8989 72.3839C98.6689 72.4767 98.5156 72.6179 98.3704 72.8156C98.2534 72.9729 98.1727 73.1504 98.1041 73.332C97.9508 73.7193 97.8984 74.1751 98.0799 74.5584C98.1808 74.7722 98.3865 74.9336 98.6164 74.99C98.8545 75.0506 99.149 75.0344 99.3587 74.8892C99.7541 74.6149 99.8308 74.1187 99.7945 73.6709C99.7622 73.2634 99.6815 72.8035 99.4757 72.4404C99.3789 72.2669 99.1167 72.1378 98.919 72.2145C98.4268 72.4041 98.0436 72.7591 97.8499 73.2513C97.7733 73.4449 97.741 73.6668 97.7652 73.8766C97.8015 74.1913 97.9226 74.4454 98.1202 74.6875C98.2856 74.8852 98.6487 74.869 98.8141 74.6875C99.0078 74.4737 98.9876 74.2034 98.8141 73.9936C98.7536 73.921 98.8626 74.0662 98.8343 74.0178C98.8222 73.9976 98.8101 73.9815 98.798 73.9653C98.7859 73.9492 98.7778 73.929 98.7657 73.9089C98.7455 73.8685 98.7456 73.8282 98.7778 73.9492C98.7698 73.9169 98.7536 73.8806 98.7456 73.8484C98.7415 73.8282 98.7375 73.812 98.7335 73.7919C98.7133 73.7152 98.7415 73.9008 98.7415 73.8443C98.7415 73.8121 98.7375 73.7757 98.7375 73.7435C98.7375 73.7193 98.7415 73.6991 98.7415 73.6749C98.7456 73.6023 98.7335 73.7394 98.7335 73.7394C98.7254 73.7314 98.7576 73.6386 98.7576 73.6265C98.7738 73.5781 98.8302 73.4732 98.7536 73.6144C98.7899 73.5498 98.8182 73.4812 98.8625 73.4207C98.8746 73.4046 98.8827 73.3844 98.8989 73.3723C98.8827 73.3884 98.8182 73.4651 98.8746 73.4086C98.8989 73.3804 98.9231 73.3562 98.9473 73.3279C98.9715 73.3037 99.0078 73.2594 99.036 73.2473C99.0159 73.2553 98.9351 73.3199 99.0037 73.2715C99.0199 73.2594 99.036 73.2473 99.0521 73.2392C99.0844 73.219 99.1127 73.2029 99.145 73.1827C99.1611 73.1746 99.1813 73.1666 99.2014 73.1545C99.2781 73.1141 99.0885 73.1988 99.1732 73.1666C98.9876 73.0899 98.802 73.0173 98.6164 72.9407C98.6245 72.9568 98.6326 72.9729 98.6447 72.9931C98.6891 73.0859 98.5963 72.864 98.6286 72.9568C98.6487 73.0133 98.6689 73.0738 98.6891 73.1303C98.7335 73.2755 98.7657 73.4248 98.7899 73.5781C98.794 73.5982 98.794 73.6144 98.798 73.6345C98.8021 73.6668 98.7819 73.4933 98.7899 73.5781C98.794 73.6184 98.798 73.6587 98.802 73.7031C98.806 73.7798 98.8101 73.8564 98.806 73.9331C98.806 73.9694 98.8021 74.0097 98.798 74.046C98.794 74.1187 98.8222 73.9129 98.806 73.9815C98.802 74.0017 98.798 74.0178 98.794 74.038C98.7859 74.0662 98.7778 74.0985 98.7698 74.1267C98.7496 74.1993 98.8142 74.042 98.798 74.0622C98.7899 74.0743 98.7819 74.0904 98.7778 74.1065C98.7738 74.1146 98.7576 74.1308 98.7576 74.1388C98.7576 74.1267 98.8545 74.0299 98.802 74.0783C98.7939 74.0864 98.7819 74.0944 98.7738 74.1065C98.7375 74.1469 98.8908 74.0218 98.8262 74.0622C98.8061 74.0743 98.7536 74.0985 98.8464 74.0581C98.9392 74.0178 98.8827 74.042 98.8625 74.0501C98.8383 74.0581 98.7778 74.0662 98.8787 74.0501C98.9836 74.0339 98.9069 74.046 98.8787 74.046C98.8585 74.046 98.8383 74.042 98.8222 74.042C98.794 74.042 98.9634 74.0702 98.8948 74.0501C98.8827 74.046 98.8666 74.042 98.8545 74.038C98.7818 74.0218 98.9594 74.0944 98.915 74.0662C98.9069 74.0581 98.8908 74.0541 98.8827 74.046C98.8383 74.0259 98.9755 74.1308 98.9432 74.0944C98.9352 74.0864 98.9271 74.0743 98.919 74.0702C98.8787 74.042 98.9957 74.1872 98.9634 74.1267C98.9513 74.1025 98.9069 74.0138 98.9513 74.1146C98.9916 74.2155 98.9554 74.1146 98.9473 74.0864C98.9432 74.0743 98.9432 74.0541 98.9392 74.046C98.9473 74.0581 98.9553 74.1993 98.9513 74.1186C98.9513 74.0864 98.9473 74.0541 98.9473 74.0218C98.9473 73.9855 98.9513 73.9532 98.9553 73.9169C98.9593 73.8443 98.9311 74.0541 98.9473 73.9815C98.9513 73.9613 98.9553 73.9412 98.9593 73.925C98.9715 73.8564 98.9916 73.7838 99.0158 73.7152C99.0279 73.6749 99.0441 73.6386 99.0562 73.6023C99.0602 73.5942 99.0642 73.5861 99.0642 73.5781C99.0844 73.5297 99.0118 73.6951 99.036 73.6467C99.0441 73.6305 99.0521 73.6103 99.0602 73.5942C99.0925 73.5256 99.1288 73.457 99.1732 73.3965C99.1853 73.3804 99.1974 73.3642 99.2095 73.3481C99.2579 73.2795 99.1611 73.4086 99.1732 73.3965C99.1933 73.3723 99.2135 73.3481 99.2377 73.3279C99.2498 73.3158 99.2579 73.3078 99.27 73.2997C99.3265 73.2473 99.1974 73.3522 99.2135 73.3441C99.2619 73.3199 99.3587 73.2755 99.1732 73.3521C99.2982 73.3037 99.3991 73.2432 99.4677 73.1262C99.5282 73.0213 99.5564 72.864 99.5161 72.747C99.4314 72.4969 99.1571 72.2831 98.8989 72.3839Z" fill="black"/>
<path d="M71.8372 73.2958C71.7243 73.4773 71.6275 73.679 71.5629 73.8848C71.5145 74.0381 71.4863 74.2035 71.5024 74.3649C71.5226 74.5827 71.5911 74.7602 71.7283 74.9337C71.8292 75.0547 71.9704 75.1354 72.1156 75.1838C72.3738 75.2725 72.6925 75.2242 72.9184 75.0789C73.217 74.8893 73.3823 74.5787 73.3985 74.2277C73.4187 73.7597 73.1363 73.3321 72.8458 72.9892C72.7732 72.9004 72.6118 72.8399 72.4989 72.8439C72.3698 72.848 72.2447 72.8924 72.1519 72.9892C71.9179 73.2191 71.7041 73.4693 71.5145 73.7355C71.2846 74.0704 71.103 74.5222 71.3814 74.8853C71.5629 75.1192 71.8615 75.1878 72.1479 75.1717C72.277 75.1636 72.402 75.1233 72.4948 75.0265C72.5795 74.9418 72.6441 74.8005 72.64 74.6795C72.6279 74.4254 72.4222 74.1712 72.1479 74.1873C72.0874 74.1914 72.0228 74.1914 71.9623 74.1833C72.0067 74.1873 72.0511 74.1954 72.0914 74.1995C72.0551 74.1954 72.0188 74.1873 71.9825 74.1712C72.0228 74.1873 72.0591 74.2035 72.0995 74.2196C72.0793 74.2115 72.0632 74.1995 72.043 74.1873C72.0753 74.2116 72.1075 74.2398 72.1438 74.264C72.1317 74.2559 72.1237 74.2479 72.1156 74.2358C72.1398 74.268 72.168 74.3003 72.1923 74.3366C72.1842 74.3245 72.1761 74.3124 72.1681 74.2963C72.1842 74.3366 72.2003 74.3729 72.2165 74.4133C72.2084 74.3971 72.2044 74.377 72.2003 74.3608C72.2044 74.4052 72.2124 74.4496 72.2165 74.4899C72.2124 74.4617 72.2165 74.4375 72.2165 74.4133C72.2124 74.4576 72.2044 74.502 72.2003 74.5424C72.2084 74.4899 72.2245 74.4415 72.2447 74.3931C72.2286 74.4334 72.2124 74.4697 72.1963 74.5101C72.2608 74.3608 72.3536 74.2277 72.4504 74.1026C72.4262 74.1349 72.398 74.1672 72.3738 74.2035C72.515 74.0179 72.6723 73.8485 72.8377 73.6831C72.6078 73.6831 72.3738 73.6831 72.1438 73.6831C72.1721 73.7194 72.2003 73.7516 72.2285 73.788C72.2043 73.7557 72.1761 73.7234 72.1519 73.6871C72.2487 73.8122 72.3335 73.9453 72.398 74.0946C72.3819 74.0542 72.3657 74.0179 72.3496 73.9776C72.3819 74.0582 72.4101 74.143 72.4222 74.2317C72.4182 74.1873 72.4101 74.143 72.4061 74.1026C72.4141 74.1631 72.4141 74.2237 72.4061 74.2842C72.4101 74.2398 72.4182 74.1954 72.4222 74.1551C72.4142 74.2035 72.402 74.2479 72.3859 74.2922C72.402 74.2519 72.4182 74.2156 72.4343 74.1752C72.4182 74.2156 72.394 74.2559 72.3698 74.2882C72.394 74.2559 72.4222 74.2237 72.4464 74.1873C72.4222 74.2196 72.3899 74.2519 72.3577 74.2761C72.3899 74.2519 72.4222 74.2237 72.4585 74.1995C72.4263 74.2237 72.3859 74.2479 72.3496 74.264C72.3899 74.2479 72.4263 74.2317 72.4666 74.2156C72.4222 74.2317 72.3778 74.2479 72.3334 74.2519C72.3778 74.2479 72.4222 74.2398 72.4626 74.2358C72.4182 74.2398 72.3778 74.2398 72.3334 74.2358C72.3778 74.2398 72.4222 74.2479 72.4626 74.2519C72.4263 74.2479 72.3899 74.2358 72.3536 74.2237C72.394 74.2398 72.4303 74.2559 72.4706 74.2721C72.4424 74.26 72.4141 74.2438 72.3899 74.2237C72.4222 74.2479 72.4545 74.2761 72.4908 74.3003C72.4666 74.2801 72.4424 74.2559 72.4222 74.2317C72.4464 74.264 72.4747 74.2963 72.4989 74.3326C72.4787 74.3043 72.4626 74.2801 72.4504 74.2479C72.4666 74.2882 72.4827 74.3245 72.4989 74.3649C72.4827 74.3245 72.4706 74.2801 72.4666 74.2398C72.4706 74.2842 72.4787 74.3286 72.4827 74.3689C72.4746 74.3084 72.4787 74.2479 72.4867 74.1833C72.4827 74.2277 72.4747 74.2721 72.4706 74.3124C72.4868 74.2035 72.519 74.0946 72.5634 73.9937C72.5473 74.034 72.5311 74.0704 72.515 74.1107C72.5634 73.9977 72.6199 73.8928 72.6844 73.788C72.8216 73.5701 72.7409 73.2353 72.5069 73.1142C72.2689 72.9892 71.9825 73.0618 71.8372 73.2958Z" fill="black"/>
<path d="M32.0919 72.6301C29.6996 73.1505 28.328 74.5262 28.445 77.0759C28.5257 78.9034 29.0985 81.804 31.4908 81.4288C34.9643 80.8802 35.7509 72.6664 32.0919 72.6301Z" fill="#F9F9F9"/>
<path d="M31.9588 72.1582C30.9261 72.3922 29.8974 72.8077 29.143 73.5702C28.4007 74.3165 28.0416 75.3129 27.9609 76.3497C27.8843 77.322 28.0214 78.3749 28.2837 79.3109C28.5338 80.1944 28.9775 81.1021 29.7844 81.6023C31.3134 82.5463 33.0561 81.5418 33.9074 80.2105C34.7707 78.8631 35.1177 77.088 34.9442 75.5026C34.7667 73.8808 33.9275 72.1864 32.092 72.142C31.4586 72.1259 31.4586 73.1103 32.092 73.1264C33.2256 73.1546 33.7339 74.2156 33.9195 75.2121C34.1535 76.4748 33.9477 77.9029 33.4152 79.0648C32.9432 80.0935 32.0032 81.2231 30.7284 80.9367C29.2559 80.6059 29.0018 78.383 28.9412 77.1647C28.8928 76.2045 29.034 75.2 29.6755 74.4456C30.3209 73.6872 31.2771 73.3241 32.2211 73.1103C32.8383 72.965 32.5801 72.017 31.9588 72.1582Z" fill="black"/>
<path d="M20.9292 70.1249C18.3514 67.4905 15.9389 74.1511 17.8592 76.1036C20.5339 78.8227 21.9176 72.3316 21.0825 70.2903" fill="#F9F9F9"/>
<path d="M21.2761 69.7778C20.7799 69.2775 20.1425 68.9427 19.4244 69.0516C18.8274 69.1444 18.3231 69.5519 17.956 70.0158C17.0523 71.1575 16.6085 72.755 16.6811 74.2033C16.7134 74.877 16.8586 75.5871 17.258 76.1438C17.6574 76.7005 18.2908 77.1927 18.9927 77.2492C20.3523 77.3581 21.0704 75.7847 21.4012 74.7157C21.6432 73.925 21.7764 73.0858 21.8127 72.2588C21.8409 71.569 21.8167 70.8105 21.5585 70.161C21.4617 69.9149 21.2317 69.7415 20.9534 69.8181C20.7194 69.8827 20.5096 70.1731 20.6105 70.4232C20.8162 70.9356 20.8324 71.3188 20.8364 71.8635C20.8405 72.4968 20.7759 73.0778 20.6508 73.6789C20.5258 74.2679 20.3523 74.8528 20.0941 75.345C20.0336 75.462 19.969 75.575 19.8964 75.6839C19.7996 75.8332 19.8198 75.8049 19.7109 75.9259C19.6745 75.9663 19.6342 76.0066 19.5898 76.047C19.5656 76.0712 19.4728 76.1438 19.5495 76.0873C19.5091 76.1196 19.4648 76.1438 19.4204 76.172C19.4002 76.1841 19.376 76.1962 19.3558 76.2083C19.255 76.2689 19.4486 76.1801 19.3356 76.2204C19.2872 76.2366 19.2429 76.2487 19.1945 76.2608C19.1138 76.285 19.2832 76.2648 19.1622 76.2648C19.1098 76.2648 19.0614 76.2648 19.0129 76.2648C18.9403 76.2608 19.1017 76.2809 19.029 76.2648C18.9968 76.2567 18.9645 76.2527 18.9322 76.2406C18.908 76.2325 18.7588 76.1801 18.8475 76.2164C18.791 76.1922 18.7346 76.164 18.6821 76.1317C18.5449 76.051 18.4764 75.9986 18.3715 75.9017C18.1334 75.6839 18.0649 75.5992 17.9196 75.3168C17.8793 75.2361 17.8591 75.1836 17.8147 75.0424C17.7704 74.9012 17.7381 74.756 17.7099 74.6108C17.6171 74.1105 17.6614 73.4086 17.7663 72.872C17.8874 72.2548 18.077 71.686 18.3715 71.1575C18.5328 70.871 18.666 70.6693 18.8637 70.4636C18.9121 70.4111 18.9605 70.3627 19.017 70.3143C19.0412 70.2942 19.0613 70.274 19.0855 70.2538C19.1945 70.161 19.0089 70.3022 19.1259 70.2215C19.1783 70.1852 19.2348 70.1489 19.2913 70.1207C19.3236 70.1045 19.4768 70.036 19.38 70.0723C19.4365 70.0521 19.493 70.036 19.5535 70.0198C19.5777 70.0118 19.6059 70.0077 19.6301 70.0037C19.6907 69.9916 19.5414 70.0077 19.6382 70.0037C19.6987 70.0037 19.7593 69.9997 19.8198 70.0037C19.8924 70.0077 19.7391 69.9876 19.8117 70.0037C19.848 70.0118 19.8803 70.0158 19.9166 70.0279C19.9529 70.036 20.1223 70.1045 20.0497 70.0682C20.1143 70.1005 20.1788 70.1328 20.2393 70.1731C20.3644 70.2498 20.4572 70.3345 20.5863 70.4636C21.03 70.9235 21.7239 70.2256 21.2761 69.7778Z" fill="black"/>
<path d="M14.7447 92.8012C16.782 92.2041 18.9646 92.4824 20.9736 91.7361C21.5021 91.5425 21.2721 90.6913 20.7396 90.8849C18.7346 91.6272 16.5521 91.3529 14.5108 91.9499C13.9661 92.1073 14.1961 92.9585 14.7447 92.8012Z" fill="black"/>
<path d="M78.5664 104.069C80.1196 108.737 77.7232 117.475 86.1709 115.921C93.7835 114.522 91.7705 109.156 91.9318 103.613" fill="#7BDF9B"/>
<path d="M78.1347 104.19C78.7519 106.09 78.7398 108.139 78.9577 110.104C79.1594 111.911 79.474 113.989 80.8497 115.316C82.5965 116.994 85.36 116.672 87.4941 116.079C89.8098 115.433 91.6817 113.997 92.2424 111.585C92.8476 108.991 92.307 106.247 92.3755 103.617C92.3917 103.044 91.5001 103.044 91.484 103.617C91.4235 105.876 91.7784 108.151 91.5404 110.402C91.4436 111.33 91.1976 112.254 90.6771 113.041C90.072 113.953 89.1119 114.558 88.1033 114.941C86.2354 115.651 83.359 116.264 81.6485 114.844C80.3414 113.759 80.0469 111.835 79.8613 110.249C79.6193 108.159 79.6475 105.973 78.9899 103.956C78.8164 103.407 77.9572 103.641 78.1347 104.19Z" fill="black"/>
<path d="M31.2932 75.6396C30.9744 75.8655 30.7607 76.2245 30.6074 76.5755C30.4137 77.0233 30.2362 77.5518 30.4379 78.0278C30.688 78.6209 31.4747 78.7944 31.975 78.4071C32.3703 78.1005 32.4591 77.5679 32.4187 77.0919C32.3824 76.6643 32.3017 76.2003 32.1 75.8171C31.8943 75.4379 31.2528 75.4096 31.0551 75.8171C30.7001 76.5594 30.5993 77.3945 30.6558 78.2094C30.6759 78.524 30.918 78.8306 31.2609 78.8145C31.5715 78.8024 31.8902 78.5482 31.866 78.2094C31.8418 77.8463 31.8499 77.4792 31.8983 77.1201C31.8902 77.1726 31.8822 77.2291 31.8781 77.2815C31.9024 77.1121 31.9346 76.9467 31.979 76.7813C31.9992 76.7046 32.0234 76.628 32.0516 76.5513C32.0637 76.515 32.0839 76.4787 32.096 76.4384C32.0435 76.6159 32.0798 76.4747 32.104 76.4303C31.7571 76.4303 31.4061 76.4303 31.0592 76.4303C31.0713 76.4505 31.0793 76.4706 31.0874 76.4868C31.0471 76.402 31.0229 76.3254 31.0592 76.4222C31.0834 76.4827 31.0995 76.5473 31.1197 76.6078C31.1641 76.7651 31.1964 76.9225 31.2206 77.0838C31.2125 77.0314 31.2044 76.9749 31.2004 76.9224C31.2246 77.1121 31.2367 77.3098 31.2125 77.4994C31.2206 77.4469 31.2286 77.3904 31.2326 77.338C31.2246 77.3945 31.2125 77.455 31.1963 77.5115C31.1923 77.5236 31.1883 77.5316 31.1842 77.5437C31.1641 77.6164 31.2488 77.4146 31.2246 77.4509C31.2125 77.4711 31.2004 77.4953 31.1883 77.5195C31.1439 77.6002 31.3093 77.3904 31.2326 77.459C31.2246 77.4671 31.2125 77.4751 31.2085 77.4832C31.1681 77.5276 31.3577 77.3864 31.2891 77.4187C31.281 77.4227 31.2649 77.4308 31.2569 77.4348C31.2327 77.455 31.4142 77.3824 31.3537 77.3945C31.3295 77.3985 31.3012 77.4066 31.277 77.4146C31.3294 77.4066 31.3859 77.3985 31.4384 77.3945C31.39 77.3985 31.3416 77.3985 31.2932 77.3945C31.3456 77.4025 31.4021 77.4106 31.4545 77.4146C31.4303 77.4106 31.4101 77.4066 31.3859 77.4025C31.3093 77.3824 31.3295 77.342 31.4586 77.4348C31.4505 77.4267 31.4303 77.4187 31.4223 77.4146C31.5635 77.4792 31.5433 77.5195 31.4908 77.463C31.4343 77.4066 31.5998 77.6204 31.5433 77.5316C31.5352 77.5195 31.5312 77.5074 31.5231 77.4953C31.6159 77.6244 31.5796 77.6446 31.5594 77.572C31.5554 77.5518 31.5513 77.5316 31.5473 77.5115C31.5554 77.5639 31.5635 77.6204 31.5675 77.6728C31.5554 77.5921 31.5594 77.5155 31.5715 77.4348C31.5635 77.4872 31.5554 77.5437 31.5514 77.5962C31.5675 77.4671 31.6038 77.342 31.6441 77.221C31.6562 77.1928 31.6643 77.1605 31.6764 77.1322C31.6845 77.1121 31.6925 77.0919 31.7006 77.0717C31.7006 77.0677 31.632 77.2291 31.6643 77.1564C31.6926 77.0919 31.7208 77.0314 31.7531 76.9709C31.8095 76.866 31.866 76.7651 31.9346 76.6683C31.9427 76.6562 31.9507 76.6481 31.9588 76.636C32.0072 76.5675 31.8943 76.7208 31.8983 76.7167C31.9144 76.7006 31.9265 76.6804 31.9427 76.6643C32.0072 76.5917 32.0637 76.5674 31.9064 76.6804C32.0395 76.5876 32.1403 76.4787 32.1847 76.3173C32.225 76.1721 32.2049 75.9784 32.1242 75.8494C31.9548 75.5992 31.5715 75.4459 31.2932 75.6396Z" fill="black"/>
<path d="M19.0855 72.1302C18.8071 72.3198 18.6458 72.6224 18.5611 72.9411C18.4804 73.2356 18.4481 73.6027 18.6054 73.8811C18.7184 74.0787 18.9322 74.2159 19.1622 74.2159C19.3437 74.2159 19.5253 74.1513 19.6745 74.0424C20.0416 73.7802 20.1667 73.3566 20.1909 72.9209C20.2151 72.5215 20.1465 72.0979 19.9731 71.7348C19.9246 71.634 19.7874 71.5331 19.6785 71.5089C19.5535 71.4807 19.4123 71.4888 19.2993 71.5573C18.6216 71.9809 18.3513 72.8281 18.4804 73.5946C18.5005 73.7076 18.6095 73.8326 18.7063 73.8891C18.8112 73.9496 18.9685 73.9779 19.0855 73.9375C19.2065 73.8972 19.3195 73.8246 19.38 73.7116C19.4445 73.5866 19.4526 73.4696 19.4284 73.3324C19.4244 73.3122 19.4204 73.2921 19.4204 73.2679C19.4244 73.3122 19.4324 73.3566 19.4365 73.3969C19.4203 73.2638 19.4203 73.1307 19.4405 72.9976C19.4365 73.0419 19.4284 73.0863 19.4244 73.1267C19.4446 72.9814 19.4808 72.8402 19.5373 72.7071C19.5212 72.7474 19.5051 72.7837 19.4889 72.8241C19.5131 72.7676 19.5374 72.7152 19.5696 72.6587C19.5858 72.6304 19.6019 72.6062 19.618 72.582C19.6301 72.5619 19.7027 72.465 19.6463 72.5417C19.5898 72.6143 19.6584 72.5336 19.6745 72.5135C19.6947 72.4933 19.7148 72.4691 19.739 72.4489C19.7552 72.4328 19.8399 72.3682 19.7633 72.4247C19.6866 72.4812 19.7834 72.4126 19.8036 72.4005C19.5777 72.34 19.3558 72.2835 19.1299 72.223C19.1339 72.2351 19.142 72.2472 19.146 72.2593C19.1299 72.219 19.1137 72.1826 19.0976 72.1423C19.1581 72.2835 19.1904 72.4328 19.2106 72.5861C19.2065 72.5417 19.1985 72.4973 19.1944 72.457C19.2227 72.6546 19.2267 72.8564 19.2025 73.054C19.2065 73.0097 19.2146 72.9653 19.2187 72.9249C19.2025 73.0339 19.1783 73.1428 19.1379 73.2437C19.1541 73.2033 19.1702 73.167 19.1863 73.1267C19.1702 73.163 19.1541 73.1952 19.1339 73.2275C19.1097 73.2719 19.0734 73.28 19.1742 73.1791C19.1621 73.1912 19.15 73.2073 19.1379 73.2194C19.1057 73.2517 19.0532 73.2719 19.1863 73.1872C19.1742 73.1952 19.1581 73.2073 19.146 73.2154C19.1178 73.2356 19.0855 73.2517 19.0532 73.2638C19.0936 73.2477 19.1299 73.2315 19.1702 73.2154C19.142 73.2275 19.1097 73.2356 19.0815 73.2396C19.1258 73.2356 19.1702 73.2275 19.2106 73.2235C19.1944 73.2235 19.1783 73.2235 19.1622 73.2235C19.2065 73.2275 19.2509 73.2356 19.2912 73.2396C19.2751 73.2356 19.263 73.2356 19.2509 73.2275C19.2913 73.2436 19.3276 73.2598 19.3679 73.2759C19.3599 73.2719 19.3477 73.2678 19.3397 73.2598C19.4647 73.3405 19.4486 73.3485 19.4123 73.3122C19.501 73.401 19.4809 73.4171 19.4486 73.3445C19.4647 73.3849 19.4809 73.4212 19.497 73.4615C19.4849 73.4292 19.4768 73.3929 19.4728 73.3606C19.4768 73.405 19.4849 73.4494 19.4889 73.4897C19.4768 73.4091 19.4849 73.3243 19.493 73.2437C19.4889 73.288 19.4808 73.3324 19.4768 73.3727C19.4929 73.2477 19.5292 73.1226 19.5777 73.0056C19.5615 73.046 19.5454 73.0823 19.5292 73.1226C19.5575 73.0581 19.5898 72.9935 19.6301 72.933C19.6382 72.9209 19.6463 72.9088 19.6543 72.8967C19.5575 73.0419 19.5858 72.9855 19.614 72.9491C19.6261 72.937 19.6342 72.929 19.6463 72.9169C19.7068 72.8604 19.5373 72.9976 19.5898 72.9613C19.6947 72.8886 19.7794 72.7958 19.8157 72.6667C19.848 72.5498 19.8319 72.3924 19.7673 72.2875C19.6221 72.0979 19.3114 71.9769 19.0855 72.1302Z" fill="black"/>
</svg>
