<svg width="50" height="50" viewBox="0 0 50 50" fill="none" xmlns="http://www.w3.org/2000/svg">
<path d="M1.15727 25.0885L1.15726 25.0885C0.318695 32.021 2.89896 37.6919 7.37979 41.7861C11.8842 45.9018 18.3291 48.4331 25.1516 48.9396C38.4557 49.9273 48.4874 38.5654 48.9912 24.9315C49.1621 20.3063 46.833 14.3037 42.5636 9.43742C38.3132 4.59267 32.2501 1 25.0775 1C18.7956 1 13.3479 2.88423 9.21955 6.77476C5.08549 10.6706 2.17514 16.6723 1.15727 25.0885Z" stroke="black" stroke-width="2"/>
<path d="M21.7391 17.5581C22.9978 17.0062 24.376 16.783 25.7445 16.9094C27.113 17.0359 28.427 17.5079 29.5632 18.2812C28.6237 19.5552 27.441 20.6302 26.0833 21.4441C24.9423 19.8418 23.4582 18.5142 21.7391 17.5581ZM24.9669 22.0339C23.7893 20.4266 22.2286 19.1393 20.4267 18.289C18.8527 19.3628 17.7044 20.9538 17.1812 22.7859C18.1038 23.0114 19.0502 23.1251 20 23.1249C21.7152 23.1265 23.4102 22.7542 24.9669 22.0339ZM33.1092 24.5071C32.9833 22.4298 32.0633 20.4804 30.5397 19.0627C29.5143 20.4417 28.2301 21.6077 26.7589 22.4956C27.1872 23.2376 27.5416 24.0199 27.8168 24.8313C29.5406 24.3646 31.3414 24.2543 33.1092 24.5071L33.1092 24.5071ZM28.1615 26.033C28.393 27.0181 28.5096 28.0266 28.5091 29.0385C28.5083 30.2206 28.3485 31.3973 28.0338 32.5368C29.4146 31.9784 30.6159 31.052 31.5068 29.8584C32.3978 28.6648 32.9444 27.2497 33.0871 25.7671C31.4447 25.5109 29.7668 25.6015 28.1615 26.033H28.1615ZM26.6271 25.2163C26.3753 24.4776 26.051 23.7656 25.659 23.0908C23.893 23.9383 21.9588 24.3772 20 24.3749C18.9675 24.3752 17.9386 24.2536 16.9346 24.0125C16.7712 25.3481 16.9423 26.7034 17.4327 27.9565C17.9231 29.2095 18.7173 30.321 19.7439 31.1909C21.2561 28.4453 23.6961 26.3274 26.6271 25.2163ZM20.7643 31.9313C22.507 32.9976 24.5877 33.3678 26.5912 32.968C27.0327 31.7049 27.2585 30.3765 27.2591 29.0385C27.2591 28.1589 27.1613 27.2821 26.9675 26.4242C24.3083 27.4599 22.1078 29.4135 20.7643 31.9313Z" fill="black"/>
</svg>
