<svg width="50" height="50" viewBox="0 0 50 50" fill="none" xmlns="http://www.w3.org/2000/svg">
<path d="M1.15727 25.0885L1.15726 25.0885C0.318695 32.021 2.89896 37.6919 7.37979 41.7861C11.8842 45.9018 18.3291 48.4331 25.1516 48.9396C38.4557 49.9273 48.4874 38.5654 48.9912 24.9315C49.1621 20.3063 46.833 14.3037 42.5636 9.43742C38.3132 4.59267 32.2501 1 25.0775 1C18.7956 1 13.3479 2.88423 9.21955 6.77476C5.08549 10.6706 2.17514 16.6723 1.15727 25.0885Z" stroke="black" stroke-width="2"/>
<path d="M26.5155 15C26.1115 19.5045 25.5458 29.8108 26.5155 35M15 25.2703C20.4545 25.2703 32.0909 25.4865 35 26.3514" stroke="black" stroke-width="2"/>
</svg>
