<svg width="120" height="120" viewBox="0 0 120 120" fill="none" xmlns="http://www.w3.org/2000/svg">
<path d="M15.93 12.1029C16.512 19.5315 14.7959 28.1121 14.1779 35.6246C13.5778 42.9812 10.5716 49.9777 10.2236 57.3462C9.5035 72.6533 9.46755 88.7345 10.2056 104.036C10.6916 114.158 15.156 117.411 25.1347 117.465C30.3971 117.495 46.7362 118.149 49.1964 113.186C50.6785 110.192 50.6005 103.358 50.6005 100.003C50.6005 95.821 50.8645 91.7227 51.0445 87.6004C51.4466 78.2637 50.5465 68.771 50.1685 59.4344C49.9585 54.256 47.1683 50.2717 46.1062 45.4654C44.9241 40.077 44.072 36.3387 43.472 32.3004C42.3559 24.7639 43.964 15.7032 41.6538 8.38868C39.4397 8.01065 36.8715 9.68477 34.8014 9.03672" fill="#F9F9F9"/>
<path d="M15.2579 12.1029C15.6119 16.7953 15.1199 21.4996 14.5679 26.156C14.2918 28.4901 13.9858 30.8183 13.7398 33.1525C13.4818 35.5706 13.2898 37.9708 12.8158 40.359C11.8977 45.0273 10.4636 49.5937 9.83358 54.316C9.50355 56.7882 9.45553 59.2904 9.36553 61.7745C9.26952 64.2827 9.19151 66.7909 9.13751 69.2991C8.90349 79.4398 8.96349 89.5925 9.35351 99.7273C9.58153 105.59 9.4915 112.976 15.4019 116.21C17.9521 117.609 20.9523 117.993 23.8145 118.101C26.2807 118.191 28.7589 118.191 31.2251 118.167C34.2913 118.143 37.3635 118.023 40.4058 117.621C42.9379 117.285 45.7101 116.829 47.9063 115.436C50.2585 113.942 50.6725 111.206 50.9665 108.62C51.3805 104.96 51.2246 101.275 51.3026 97.6031C51.4106 92.4548 51.8366 87.3244 51.8186 82.17C51.8006 77.0216 51.5006 71.8793 51.2126 66.7369C51.0685 64.2107 50.9785 61.6785 50.8285 59.1524C50.6965 56.9622 50.1145 54.85 49.3644 52.7979C48.6324 50.8058 47.7743 48.8616 47.1683 46.8275C46.5202 44.6493 46.1182 42.3751 45.6441 40.155C44.7861 36.1647 43.958 32.1504 43.778 28.0581C43.58 23.5038 43.874 18.9314 43.466 14.3831C43.28 12.289 42.938 10.2008 42.3139 8.18467C42.2479 7.98065 42.0739 7.74663 41.8399 7.71063C40.6818 7.54862 39.5837 7.74664 38.4556 8.02266C37.3275 8.29868 36.1454 8.6767 34.9874 8.35868C34.1473 8.12466 33.7933 9.42676 34.6273 9.66077C36.9855 10.3148 39.1517 8.68871 41.4799 9.01273C41.3238 8.85672 41.1678 8.70071 41.0058 8.53869C42.3079 12.739 42.3379 17.1853 42.3439 21.5476C42.3499 25.7899 42.3919 29.9722 43.0939 34.1665C43.784 38.2708 44.6001 42.4351 45.6621 46.4614C46.7362 50.5237 49.0044 54.256 49.4304 58.4923C49.6705 60.9285 49.6825 63.4007 49.8145 65.8428C49.9525 68.339 50.0964 70.8412 50.2165 73.3374C50.4565 78.3237 50.5645 83.3101 50.3365 88.3025C50.1325 92.8268 49.9464 97.3391 49.9224 101.875C49.9104 105.236 49.9945 108.908 48.8964 112.124C48.1823 114.212 46.0462 115.004 44.072 115.532C41.2698 116.288 38.3416 116.534 35.4554 116.679C32.7252 116.817 29.995 116.817 27.2648 116.781C24.5886 116.745 21.8944 116.787 19.2662 116.186C16.9201 115.646 14.6699 114.56 13.2418 112.556C11.5917 110.246 11.0876 107.3 10.9076 104.528C10.2896 94.7529 10.2595 84.9002 10.3736 75.1075C10.4336 70.1751 10.5596 65.2488 10.7636 60.3224C10.8656 57.9043 10.9616 55.5041 11.3576 53.1159C11.7477 50.7517 12.3177 48.4236 12.8818 46.0954C13.4338 43.8092 13.9919 41.5231 14.3819 39.2009C14.7599 36.9687 14.9039 34.7186 15.15 32.4684C15.654 27.8601 16.35 23.2638 16.614 18.6314C16.74 16.4473 16.758 14.2571 16.596 12.0729C16.542 11.2449 15.1919 11.2389 15.2579 12.1029Z" fill="black"/>
<path d="M15.786 11.8149C16.338 14.7251 15.918 18.1154 15.636 21.0316C15.2999 24.4698 14.8919 29.2762 14.5079 32.9004C15.768 32.6784 17.7001 32.1924 18.7322 32.0244C20.7603 31.6943 22.6205 31.6463 24.4926 31.5323C28.9389 31.2563 33.6973 31.2083 38.3176 31.9164C39.7457 32.1384 42.2659 32.5764 43.586 32.7384C43.586 31.8623 43.2019 29.2282 43.1479 27.6921C43.0759 25.6279 42.986 23.9838 42.986 21.2716C42.98 17.4313 42.824 14.7431 42.824 10.9028" fill="#92D6E8"/>
<path d="M15.1319 11.9949C15.7679 15.5111 15.1259 19.1774 14.8018 22.6996C14.4838 26.1019 14.1898 29.5041 13.8298 32.9004C13.7818 33.3744 14.2978 33.6204 14.6819 33.5484C16.98 33.1344 19.1942 32.5523 21.5284 32.3783C24.1266 32.1863 26.7427 32.0423 29.3469 32.0183C32.0891 31.9883 34.8433 32.1023 37.5675 32.4803C39.5777 32.7624 41.5698 33.1524 43.58 33.4104C43.94 33.4584 44.258 33.0624 44.252 32.7384C44.228 31.2682 43.952 29.8041 43.85 28.34C43.73 26.6899 43.7059 25.0218 43.6699 23.3717C43.5859 19.2194 43.49 15.0611 43.484 10.9088C43.484 10.0387 42.1339 10.0387 42.1339 10.9088C42.1399 15.0611 42.2418 19.2194 42.3198 23.3717C42.3498 24.9918 42.3859 26.6239 42.4939 28.244C42.5959 29.7441 42.8839 31.2382 42.9019 32.7444C43.1299 32.5163 43.352 32.2943 43.574 32.0723C41.5278 31.8083 39.4996 31.3943 37.4595 31.1242C34.6753 30.7582 31.8671 30.6442 29.0649 30.6802C26.4187 30.7162 23.7545 30.8482 21.1203 31.0702C18.8042 31.2622 16.602 31.8503 14.3219 32.2583C14.6039 32.4743 14.8919 32.6903 15.1739 32.9064C15.5399 29.4321 15.8399 25.9519 16.164 22.4716C16.5 18.8833 17.0761 15.2231 16.428 11.6408C16.284 10.7828 14.9819 11.1428 15.1319 11.9949Z" fill="black"/>
<path d="M42.752 3.48632C37.0035 0.738121 20.8684 -1.94407 14.1779 5.52047C13.6319 6.94857 13.3918 12.1449 14.7239 12.763C20.8683 15.6132 39.8537 14.1911 43.91 12.433C45.3381 8.92271 44.018 4.53039 42.7039 3.54632" fill="#CC90D3"/>
<path d="M43.094 2.90433C40.9818 1.90225 38.6896 1.28421 36.4035 0.828178C33.5413 0.258136 30.6071 -0.0478874 27.6849 0.00611654C24.7687 0.05412 21.7805 0.444148 19.0503 1.50623C17.7662 2.00426 16.5421 2.63431 15.444 3.46237C14.904 3.8704 14.3939 4.30843 13.9259 4.79447C13.5299 5.20849 13.4038 5.64052 13.3018 6.19256C13.0678 7.47666 13.0018 8.82075 13.0978 10.1228C13.1698 11.1129 13.2899 12.451 14.0999 13.1531C14.79 13.7471 15.978 13.9691 16.8481 14.1731C18.0362 14.4552 19.2543 14.6292 20.4664 14.7552C26.2148 15.3792 32.1492 15.1152 37.8736 14.3832C39.1517 14.2211 40.4238 14.0351 41.6839 13.7711C42.476 13.6031 43.556 13.4711 44.2461 13.0151C44.9181 12.571 45.0261 11.0769 45.1161 10.3509C45.2481 9.29479 45.2061 8.23871 45.0381 7.18864C44.8161 5.79654 44.3301 4.00241 43.178 3.07234C42.5059 2.5323 41.5459 3.48037 42.2239 4.02641C43.13 4.75846 43.478 6.13856 43.682 7.22464C44 8.91076 43.8801 10.6569 43.256 12.253C43.358 12.121 43.46 11.983 43.568 11.851C42.38 12.355 40.7298 12.607 39.3557 12.823C37.1536 13.1651 34.9274 13.3751 32.7013 13.5191C28.0029 13.8191 23.1245 13.9451 18.4682 13.1231C17.5801 12.967 16.6981 12.769 15.846 12.481C15.0479 12.211 14.7899 12.037 14.5979 11.1849C14.3639 10.1468 14.3819 9.03677 14.4479 7.97469C14.4779 7.50066 14.5199 7.02062 14.6099 6.55259C14.6459 6.36057 14.6759 6.15656 14.7419 5.97055C14.7599 5.91655 14.7719 5.83854 14.8019 5.78453C14.6819 6.01255 15.018 5.61652 15.066 5.56852C18.4502 2.17827 23.6706 1.35022 28.2609 1.34422C30.9911 1.33821 33.7153 1.63823 36.3855 2.19027C38.4377 2.61631 40.5198 3.16835 42.4219 4.06241C43.19 4.44044 43.88 3.27635 43.094 2.90433Z" fill="black"/>
<path d="M17.124 6.21642C18.8641 6.96048 20.7423 6.79847 22.5904 6.86447C24.8586 6.94848 27.1328 6.97848 29.401 6.91247C31.6031 6.85247 33.7152 6.55845 35.8874 6.19242C37.3515 5.9464 39.2056 6.15642 40.3277 5.01033C40.9338 4.38629 39.9797 3.43222 39.3737 4.05627C38.8876 4.5543 38.1436 4.59031 37.4835 4.64431C36.6795 4.71032 35.8994 4.82432 35.1074 4.96233C33.1032 5.30436 31.1411 5.52037 29.1069 5.56837C27.1328 5.61638 25.1587 5.59838 23.1845 5.53237C21.4624 5.47237 19.4282 5.74239 17.8081 5.04634C17.016 4.71032 16.332 5.8744 17.124 6.21642Z" fill="black"/>
<path d="M15.894 35.6967C16.794 36.3988 17.7781 36.7288 18.9122 36.7948C20.0703 36.8608 21.2343 36.6568 22.3984 36.7708C23.6345 36.8968 24.7386 37.5569 25.9687 37.7369C27.2467 37.9289 28.4349 37.4609 29.689 37.3528C30.547 37.2808 30.559 35.9307 29.689 36.0028C28.5909 36.0928 27.4868 36.5308 26.3767 36.4348C25.2066 36.3328 24.1505 35.6907 22.9925 35.4927C21.0303 35.1627 18.5522 36.0628 16.854 34.7367C16.17 34.2146 15.2099 35.1627 15.894 35.6967Z" fill="black"/>
<path d="M41.2097 34.5686C40.1356 34.7966 39.1516 35.2526 38.1255 35.6186C37.1354 35.9727 36.1694 36.1227 35.1313 35.8827C34.2852 35.6847 33.9252 36.9867 34.7713 37.1848C35.9714 37.4608 37.1535 37.3768 38.3175 36.9807C39.4036 36.6087 40.4357 36.1107 41.5697 35.8707C41.9238 35.7927 42.1338 35.3786 42.0438 35.0426C41.9358 34.6706 41.5637 34.4966 41.2097 34.5686Z" fill="black"/>
<path d="M50.1685 60.8265C41.6598 63.4367 31.4051 60.7425 22.9985 63.3947C23.7605 76.1876 23.7245 91.5427 24.3306 104.648C29.4789 106.262 36.2714 105.926 41.7198 105.602C45.2481 105.392 49.4004 104.822 50.3905 104.168C50.7205 103.292 50.6485 99.7453 50.8285 95.827C51.1105 89.5926 51.2666 84.8522 51.1585 79.1458C51.0685 74.3095 50.6125 65.3208 50.1685 60.3824" fill="#FFE35B"/>
<path d="M49.9884 60.1725C41.1497 62.8307 31.651 60.0105 22.8184 62.7407C22.5484 62.8247 22.3024 63.0947 22.3204 63.3887C22.9564 74.1415 23.0225 84.9183 23.3285 95.6891C23.4125 98.6773 23.5145 101.66 23.6525 104.648C23.6645 104.954 23.8565 105.206 24.1505 105.296C29.0529 106.802 34.3693 106.658 39.4336 106.4C41.9118 106.274 44.39 106.112 46.8442 105.752C47.8042 105.608 48.7823 105.458 49.7124 105.17C50.3664 104.972 50.9605 104.774 51.1165 104.048C51.2905 103.244 51.2965 102.386 51.3265 101.563C51.3745 100.321 51.3925 99.0733 51.4285 97.8312C51.5185 94.957 51.6745 92.0828 51.7646 89.2086C51.9086 84.4803 51.8905 79.7519 51.7045 75.0236C51.5185 70.1392 51.2725 65.2489 50.8405 60.3765C50.7625 59.5184 49.4124 59.5124 49.4904 60.3765C50.4984 71.8253 50.7024 83.3102 50.1924 94.795C50.1084 96.7151 50.0544 98.6353 50.0004 100.555C49.9704 101.642 50.0844 102.932 49.7304 103.982C49.8324 103.85 49.9344 103.712 50.0424 103.58C49.4963 103.916 48.7943 104.03 48.1762 104.156C47.1202 104.372 46.0521 104.522 44.984 104.642C42.7699 104.894 40.5377 105.008 38.3116 105.104C33.7212 105.302 28.9449 105.356 24.5046 103.994C24.6726 104.21 24.8346 104.426 25.0026 104.642C24.5105 93.8289 24.4566 82.9982 24.0785 72.1854C23.9765 69.2512 23.8505 66.3169 23.6765 63.3887C23.5085 63.6047 23.3465 63.8208 23.1785 64.0368C31.9991 61.3066 41.4977 64.1268 50.3484 61.4686C51.1764 61.2286 50.8224 59.9205 49.9884 60.1725Z" fill="black"/>
<path d="M16.7941 51.3097C18.9722 52.7858 21.6424 53.4278 24.2226 53.7279C26.8388 54.0339 29.5569 53.9679 32.1251 53.3498C32.9712 53.1458 32.6112 51.8437 31.7651 52.0477C29.3829 52.6178 26.8688 52.6658 24.4386 52.4018C22.0204 52.1377 19.5123 51.5197 17.4721 50.1396C16.7581 49.6596 16.08 50.8296 16.7941 51.3097Z" fill="black"/>
<path d="M90.8334 57.8022C82.9429 57.6882 67.7197 57.3642 64.4615 65.1707C64.2875 69.719 64.8335 81.1079 65.0795 86.6043C65.3196 91.9507 65.4996 97.387 65.7576 102.817C66.1236 110.564 65.4215 112.526 67.4497 114.56C75.2442 118.629 84.1309 119.367 90.8274 119.307C98.214 119.235 102.684 118.293 108.109 113.546C109.321 107.924 107.773 98.4011 107.773 92.6707C107.773 85.3802 107.539 71.2492 107.545 63.9586C104.718 60.0043 100.398 58.3662 91.1694 57.8022" fill="#92D6E8"/>
<path d="M90.8334 57.1242C85.319 57.0461 79.7206 56.9861 74.2962 58.1322C71.722 58.6783 69.0698 59.5243 66.9336 61.1084C65.9736 61.8165 65.1275 62.6566 64.4855 63.6706C64.2035 64.1147 63.8674 64.6487 63.7894 65.1707C63.7114 65.6928 63.7594 66.2748 63.7594 66.8029C63.7234 72.9953 64.0775 79.1938 64.3535 85.3742C64.7195 93.4628 65.0195 101.557 65.2536 109.652C65.3076 111.476 65.4515 113.3 66.6936 114.734C67.1736 115.292 67.8937 115.544 68.5538 115.85C69.4899 116.282 70.4439 116.678 71.41 117.038C73.3541 117.759 75.3583 118.323 77.3864 118.755C81.1067 119.547 84.917 119.907 88.7152 119.973C92.0995 120.033 95.5617 119.979 98.8739 119.229C101.994 118.521 104.802 117.05 107.311 115.082C107.677 114.794 108.061 114.5 108.403 114.182C108.733 113.876 108.787 113.63 108.865 113.192C109.003 112.43 109.093 111.662 109.147 110.888C109.285 109.13 109.261 107.36 109.195 105.602C109.057 102.049 108.679 98.5092 108.505 94.9569C108.361 91.9867 108.433 89.0045 108.403 86.0282C108.343 79.2778 108.241 72.5213 108.217 65.7708C108.217 65.1827 108.283 64.5407 108.217 63.9586C108.145 63.3946 107.545 62.8366 107.179 62.4285C106.441 61.5945 105.576 60.8744 104.64 60.2804C102.27 58.7803 99.456 58.1022 96.7138 57.6882C94.8717 57.4122 93.0235 57.2442 91.1634 57.1302C90.2933 57.0762 90.2993 58.4263 91.1634 58.4803C96.4378 58.8103 102.804 59.2903 106.452 63.6466C106.915 64.1927 106.867 64.1927 106.867 64.9187C106.867 65.6208 106.873 66.3288 106.873 67.0309C106.879 68.501 106.891 69.9711 106.903 71.4412C106.933 74.8194 106.975 78.1977 107.005 81.5819C107.071 87.6544 107.017 93.7028 107.473 99.7632C107.731 103.183 108.013 106.628 107.845 110.06C107.809 110.798 107.749 111.542 107.647 112.28C107.605 112.574 107.593 112.988 107.443 113.228C107.227 113.57 106.669 113.882 106.351 114.128C105.072 115.124 103.692 116.006 102.216 116.69C99.402 117.999 96.3058 118.431 93.2336 118.569C89.8133 118.725 86.3631 118.641 82.9548 118.275C79.1446 117.873 75.3583 117.068 71.758 115.736C70.8159 115.388 69.8919 114.998 68.9858 114.572C68.3858 114.29 67.8337 114.074 67.4497 113.534C67.0236 112.94 66.8256 112.25 66.7236 111.53C66.5796 110.534 66.5916 109.508 66.5736 108.506C66.5496 106.796 66.5256 105.086 66.4536 103.376C66.2676 98.9532 66.0816 94.5309 65.9016 90.1085C65.6436 83.7601 65.2955 77.4116 65.1515 71.0572C65.1215 69.7431 65.0975 68.423 65.0975 67.1089C65.0975 66.5868 65.1336 66.0588 65.1156 65.5368C65.1156 65.5188 65.1515 65.1167 65.0915 65.3748C65.1215 65.2427 65.2175 65.0987 65.2775 64.9787C65.4095 64.7207 65.5536 64.4687 65.7156 64.2287C66.9877 62.3145 69.1478 61.1324 71.266 60.3764C76.3964 58.5343 82.0787 58.4203 87.4731 58.4383C88.5892 58.4443 89.7053 58.4563 90.8214 58.4743C91.7035 58.4863 91.7035 57.1362 90.8334 57.1242Z" fill="black"/>
<path d="M65.0855 86.6042C65.7636 87.4503 65.5055 97.387 65.7636 102.817C66.1296 110.564 65.4275 112.526 67.4557 114.56C75.2502 118.629 84.1369 119.367 90.8334 119.307C98.2199 119.235 102.69 118.292 108.115 113.546C109.327 107.924 107.779 98.401 107.779 92.6706V86.0942C107.779 86.0942 89.8193 76.6015 65.0855 86.6042Z" fill="#F9F9F9"/>
<path d="M64.5035 86.9403C64.5515 87.0063 64.5515 87.0063 64.5095 86.9223C64.5395 86.9823 64.5514 87.0543 64.5694 87.1143C64.6115 87.2823 64.6415 87.4563 64.6655 87.6303C64.7375 88.1583 64.7615 88.6924 64.7915 89.2204C64.8755 90.7745 64.8934 92.3286 64.9174 93.8768C64.9654 97.525 65.0555 101.167 65.1635 104.816C65.2115 106.502 65.2055 108.182 65.2655 109.868C65.3015 110.9 65.3495 111.986 65.6855 112.976C66.0035 113.906 66.5856 114.872 67.4796 115.322C69.5378 116.366 71.6979 117.206 73.9061 117.86C78.0284 119.085 82.3247 119.691 86.609 119.895C90.4193 120.075 94.3496 120.093 98.1119 119.385C101.688 118.707 104.874 117.074 107.689 114.788C108.007 114.53 108.505 114.236 108.709 113.882C108.907 113.54 108.913 113.018 108.973 112.634C109.099 111.782 109.177 110.918 109.219 110.06C109.315 108.068 109.249 106.076 109.141 104.083C108.931 100.279 108.469 96.4809 108.463 92.6707C108.457 90.7025 108.463 88.7344 108.463 86.7602C108.463 86.5382 108.463 86.3162 108.463 86.0942C108.463 85.8662 108.337 85.6202 108.127 85.5121C105.726 84.2461 103.002 83.454 100.386 82.818C93.8155 81.2278 86.9511 80.9638 80.2606 81.8579C74.9862 82.5599 69.8498 83.97 64.9174 85.9502C64.1194 86.2682 64.4674 87.5763 65.2775 87.2523C73.204 84.066 81.7006 82.3739 90.2573 82.752C95.2976 82.974 100.368 83.886 105.102 85.6682C105.966 85.9922 106.626 86.2442 107.449 86.6762C107.335 86.4842 107.227 86.2862 107.113 86.0942C107.113 87.9963 107.113 89.8985 107.113 91.8006C107.113 94.5728 107.317 97.333 107.527 100.099C107.809 103.903 108.151 107.774 107.755 111.584C107.713 111.968 107.665 112.352 107.599 112.736C107.509 113.24 107.317 113.354 106.92 113.684C106.164 114.308 105.378 114.89 104.55 115.412C103.116 116.324 101.58 117.05 99.954 117.548C96.4797 118.599 92.7655 118.665 89.1652 118.623C85.0849 118.575 80.9986 118.197 77.0143 117.284C74.8542 116.792 72.73 116.144 70.6778 115.304C69.3578 114.764 67.7916 114.338 67.1436 112.976C66.7776 112.214 66.7056 111.338 66.6576 110.504C66.5736 109.01 66.5916 107.504 66.5616 106.01C66.4836 102.445 66.3396 98.8811 66.3036 95.3169C66.2736 92.6047 66.4355 89.7365 65.9555 87.0543C65.9075 86.7902 65.8475 86.4842 65.6915 86.2622C65.1695 85.5602 63.9994 86.2322 64.5035 86.9403Z" fill="black"/>
<path d="M69.1479 90.4026C72.3881 92.5567 76.6604 92.8988 80.4407 93.0728C84.845 93.2828 89.3513 93.3908 93.7316 92.9288C96.7198 92.6167 99.6661 92.0287 102.534 91.1406C103.362 90.8826 103.008 89.5805 102.174 89.8385C97.2479 91.3627 92.1355 91.9327 86.9932 91.8487C83.1949 91.7887 79.3486 91.8787 75.5863 91.2426C73.5762 90.9006 71.542 90.3726 69.8259 89.2265C69.0999 88.7585 68.4278 89.9225 69.1479 90.4026Z" fill="black"/>
<path d="M67.1137 65.3328C71.632 67.7329 77.0864 67.8229 82.0847 67.8169C84.5029 67.8169 86.9211 67.7929 89.3393 67.829C91.9435 67.865 94.5536 67.8889 97.1518 67.6609C99.87 67.4209 102.624 66.9409 105.072 65.6688C105.846 65.2668 105.162 64.1027 104.388 64.5047C100.11 66.7189 94.8117 66.5449 90.1253 66.4908C85.319 66.4368 80.4647 66.6829 75.6763 66.2268C72.9761 65.9688 70.2099 65.4528 67.7917 64.1687C67.0297 63.7607 66.3456 64.9247 67.1137 65.3328Z" fill="black"/>
</svg>
