<svg width="20" height="20" viewBox="0 0 20 20" fill="none" xmlns="http://www.w3.org/2000/svg">
<path d="M20 12.6198V13.7661C20 13.8319 19.9633 13.8904 19.91 13.916C19.5833 14.0695 18.465 14.6326 18 15.3419C16.8133 17.1536 15.9067 19.7441 13.88 19.7441H5.42498C2.42833 19.7441 0 17.0714 0 13.7734V13.6673C0 13.5796 0.0649967 13.5083 0.144989 13.5083H4.85833C4.95166 13.5083 5.02001 13.6033 5.01168 13.7039C4.97833 14.0403 5.035 14.384 5.17999 14.6966C5.45999 15.32 6.04001 15.7094 6.66666 15.7094H9V13.7112H6.69333C6.57498 13.7112 6.50501 13.5613 6.57332 13.4553C6.59834 13.4132 6.62668 13.3693 6.65667 13.32C6.87498 12.98 7.18666 12.4516 7.49665 11.8501C7.70833 11.4443 7.91334 11.011 8.07833 10.5759C8.11168 10.4973 8.13832 10.4169 8.165 10.3382C8.20999 10.1993 8.25667 10.0695 8.28998 9.93973C8.32332 9.83004 8.35 9.71485 8.37668 9.60698C8.45501 9.2377 8.48832 8.84647 8.48832 8.44061C8.48832 8.28157 8.48165 8.11522 8.46831 7.95614C8.46168 7.78247 8.44167 7.6088 8.42167 7.43513C8.40833 7.28155 8.38335 7.12983 8.35667 6.97079C8.32333 6.7386 8.27668 6.50827 8.22332 6.27608L8.20501 6.18833C8.165 6.02929 8.13165 5.87753 8.085 5.71849C7.95332 5.21939 7.80166 4.73311 7.64167 4.2779C7.58335 4.09691 7.51665 3.92324 7.45 3.74958C7.35166 3.48812 7.25166 3.25048 7.15999 3.0256C7.11334 2.92323 7.07332 2.82999 7.03335 2.73493C6.98832 2.62706 6.94167 2.51922 6.89499 2.41681C6.86168 2.3382 6.82332 2.26509 6.79665 2.19197L6.51168 1.61426C6.47167 1.53566 6.53832 1.44241 6.61666 1.46618L8.4 1.99636H8.40501C8.40833 1.99636 8.40999 1.99818 8.41168 1.99818L8.64665 2.06947L8.90501 2.1499L9 2.17916V1.01647C9 0.455208 9.40999 0 9.91665 0C10.17 0 10.4 0.113327 10.565 0.297989C10.73 0.48265 10.8333 0.734929 10.8333 1.01647V2.74224L11.0233 2.80072C11.0383 2.80622 11.0533 2.81354 11.0667 2.82449C11.1133 2.86288 11.18 2.91959 11.265 2.98902C11.3317 3.04755 11.4033 3.11884 11.49 3.19195C11.6617 3.34372 11.8667 3.53933 12.0917 3.76417C12.1517 3.82087 12.21 3.87935 12.2633 3.93788C12.5533 4.23401 12.8783 4.58138 13.1883 4.9653C13.275 5.07313 13.36 5.18282 13.4466 5.298C13.5333 5.41501 13.625 5.53019 13.705 5.64538C13.81 5.79892 13.9233 5.95796 14.0217 6.12435C14.0683 6.20296 14.1217 6.28339 14.1667 6.362C14.2933 6.57225 14.405 6.78981 14.5117 7.00733C14.5567 7.10788 14.6033 7.21757 14.6433 7.32544C14.7616 7.61612 14.855 7.91229 14.915 8.20846C14.9333 8.27244 14.9466 8.34191 14.9533 8.40407V8.41866C14.9733 8.50645 14.98 8.59969 14.9867 8.69475C15.0133 8.99819 15 9.30168 14.94 9.60698C14.915 9.7368 14.8817 9.85926 14.8417 9.98908C14.8017 10.1134 14.7616 10.2432 14.71 10.3657C14.61 10.6198 14.4917 10.8739 14.3517 11.1116C14.3067 11.1993 14.2533 11.2925 14.2 11.3803C14.1417 11.4735 14.0817 11.5613 14.0283 11.6472C13.955 11.7569 13.8767 11.8721 13.7966 11.9744C13.725 12.0823 13.6517 12.1902 13.5717 12.2852C13.46 12.4297 13.3533 12.5668 13.2417 12.6984C13.175 12.7843 13.1033 12.8721 13.03 12.9507C12.9583 13.0384 12.885 13.117 12.8183 13.1902C12.7067 13.3127 12.6133 13.4077 12.535 13.4863L12.3517 13.671C12.325 13.6966 12.29 13.7112 12.2533 13.7112H10.8333V15.7094H12.62C13.02 15.7094 13.4 15.554 13.7067 15.2688C13.8116 15.1683 14.27 14.7331 14.8117 14.0769C14.83 14.0549 14.8533 14.0385 14.88 14.0311L19.815 12.4662C19.9067 12.437 20 12.5138 20 12.6198Z" fill="#FFE14B"/>
</svg>
