<svg width="120" height="120" viewBox="0 0 120 120" fill="none" xmlns="http://www.w3.org/2000/svg">
<path d="M102.158 47.5155C98.8192 61.8629 102.824 81.7104 102.824 96.9677C102.824 105.693 102.906 107.822 95.8701 113.208C89.9232 117.758 87.6728 119.35 80.1172 118.968C66.4929 118.278 51.7636 118.952 38.0499 118.302C34.8003 118.148 24.2469 119.277 21.8665 117.693C18.6899 115.58 19.1043 101.72 18.6818 97.6014C17.2438 83.6358 17.0164 68.3704 17.0164 54.1936" fill="#E59E41"/>
<path d="M101.2 47.2473C99.5666 54.3966 99.6722 61.8466 100.07 69.1259C100.501 76.8439 101.386 84.5294 101.72 92.2556C101.858 95.5052 101.931 98.7874 101.752 102.037C101.638 104.174 101.232 106.213 99.9728 107.984C98.2749 110.373 95.667 112.152 93.3434 113.874C91.158 115.499 88.8914 117.043 86.1941 117.644C82.7413 118.424 79.0692 117.896 75.5757 117.782C71.1968 117.644 66.8178 117.619 62.4308 117.619C58.0762 117.611 53.7135 117.628 49.3589 117.595C45.378 117.554 41.3972 117.319 37.4163 117.286C34.9059 117.27 32.3874 117.473 29.877 117.522C28.504 117.554 27.1229 117.563 25.7418 117.481C24.7587 117.424 23.6538 117.392 22.7277 117.01C21.3872 116.458 21.0297 114.11 20.7778 112.777C20.2823 110.186 20.1361 107.529 20.0061 104.897C19.9005 102.655 19.8842 100.404 19.7136 98.1619C19.4292 94.3435 19.023 90.5413 18.7874 86.7148C18.2512 78.0138 18.0725 69.3046 18.0156 60.5873C17.9994 58.4506 17.9994 56.314 17.9994 54.1773C17.9994 52.9018 16.0089 52.8937 16.0089 54.1773C16.0089 63.1058 16.0983 72.0425 16.4964 80.971C16.8132 88.0147 17.6419 95.0178 17.9019 102.053C17.9994 104.799 18.1131 107.545 18.4218 110.275C18.6737 112.534 18.9499 115.012 20.0548 117.034C21.0622 118.895 22.9308 119.228 24.8806 119.399C27.6997 119.65 30.5513 119.496 33.3704 119.382C36.2789 119.26 39.1224 119.342 42.0308 119.431C46.5479 119.569 51.0731 119.594 55.5902 119.594C60.1397 119.594 64.6812 119.577 69.2307 119.634C73.5528 119.683 77.8749 120.008 82.1889 120C85.0649 119.992 87.8352 119.512 90.3943 118.164C93.2216 116.677 95.8538 114.557 98.2911 112.509C100.192 110.917 101.947 109.097 102.857 106.757C103.759 104.458 103.767 101.875 103.791 99.4374C103.856 91.7844 103.166 84.1882 102.556 76.5677C101.931 68.7115 101.338 60.7417 102.223 52.8855C102.418 51.1632 102.703 49.4571 103.093 47.7673C103.401 46.5324 101.484 46.0043 101.2 47.2473Z" fill="black"/>
<path d="M44.2244 46.1749C41.3891 46.6786 26.2292 51.3907 16.9676 53.9417C32.4849 56.4114 51.6743 56.4196 66.3223 56.4114C71.9442 56.4114 80.4584 56.1921 83.1313 56.0215C85.8042 55.8509 94.9683 51.5369 102.386 47.2879C87.6403 45.5087 50.7482 46.3455 44.5656 46.1749" fill="#E59E41"/>
<path d="M43.9644 45.2162C40.1704 45.9067 36.4333 47.2472 32.7449 48.3278C27.4072 49.8957 22.0696 51.4962 16.7076 52.9829C15.8302 53.2267 15.7002 54.7378 16.7076 54.9003C29.5358 56.9232 42.5914 57.2725 55.5577 57.3782C61.334 57.4269 67.1185 57.4431 72.8948 57.3375C75.527 57.2888 78.1674 57.2238 80.7996 57.1263C82.392 57.0694 83.8868 57.0044 85.4142 56.517C88.0952 55.6558 90.6869 54.4453 93.2216 53.2267C96.5038 51.6506 99.721 49.9526 102.881 48.149C103.816 47.6128 103.296 46.4104 102.378 46.2967C94.359 45.3381 86.2104 45.2893 78.143 45.1918C69.6045 45.0862 61.0578 45.1349 52.5192 45.1837C49.8626 45.1999 47.206 45.2487 44.5575 45.1837C43.282 45.1512 43.282 47.1335 44.5575 47.1741C50.5856 47.3285 56.6382 47.1416 62.6745 47.1254C71.7817 47.101 80.9053 47.1173 90.0044 47.4503C94.1315 47.6047 98.2748 47.7916 102.378 48.2871C102.207 47.6697 102.044 47.0523 101.874 46.4348C96.8531 49.3108 91.6536 52.0974 86.2266 54.1366C84.6749 54.7215 83.3507 55.0384 81.7421 55.1115C79.3617 55.2171 76.9812 55.274 74.6008 55.3227C62.5932 55.5827 50.5451 55.534 38.5456 54.9815C31.4125 54.6484 24.2794 54.1041 17.2276 52.9911C17.2276 53.6329 17.2276 54.2666 17.2276 54.9084C22.5895 53.4217 27.9272 51.8212 33.2648 50.2532C36.9532 49.1646 40.6904 47.8322 44.4844 47.1416C45.7436 46.906 45.2155 44.9887 43.9644 45.2162Z" fill="black"/>
<path d="M29.812 51.3013C31.0144 46.3455 30.4457 40.3498 30.9331 35.2072C31.3393 30.9014 31.9568 26.6768 32.6555 22.3628C34.4834 10.997 41.4296 4.06705 52.4867 1.83289C63.3082 -0.35253 77.5987 0.97172 84.3499 10.8345C86.8522 14.4986 87.3803 19.3731 87.7377 23.6952C88.1846 29.0978 88.5745 34.5085 88.802 39.903C88.9076 42.4703 89.6388 46.4918 89.0213 48.8965C88.3389 51.545 84.3906 52.1462 81.8964 52.1868C80.9053 52.2031 78.5248 52.4224 77.6555 51.9756C75.8763 51.0576 76.307 48.4253 76.1201 46.5649C75.7464 42.7709 75.657 38.8712 75.6651 35.0528C75.6732 29.2359 76.047 20.7136 72.3911 15.9203C68.3208 10.5827 55.3789 7.21112 50.5775 13.288C44.3544 21.1604 43.8425 31.5513 43.8425 41.0648C43.8425 43.4777 44.7281 47.8079 43.8506 49.9771C42.697 52.8287 36.7176 52.0731 34.0853 51.9756C32.4767 51.9187 31.0631 51.87 29.6008 51.0819" fill="#CC90D3"/>
<path d="M30.665 51.5369C31.843 46.5162 31.38 41.3248 31.7374 36.2228C31.9243 33.493 32.2898 30.7633 32.6798 28.0498C33.0454 25.4825 33.3622 22.8747 33.9553 20.348C34.8002 16.7246 36.3357 13.2312 38.7567 10.3877C41.1534 7.56862 44.2731 5.46445 47.7096 4.13207C54.8671 1.36983 63.5112 1.01237 70.9124 2.96218C74.7471 3.96959 78.4192 5.75691 81.2789 8.54352C82.7575 9.98151 84.0087 11.6551 84.8455 13.548C85.8448 15.8228 86.2916 18.3332 86.5759 20.7867C87.2096 26.2056 87.5102 31.6894 87.7864 37.1408C87.9083 39.5374 88.1033 41.9179 88.2901 44.3064C88.4201 45.9718 88.8426 48.5878 87.4371 49.8309C86.1697 50.9439 84.1793 51.1957 82.5626 51.2851C81.7177 51.3338 80.8646 51.3582 80.0197 51.3744C79.2073 51.3826 78.1186 51.5126 77.5906 50.7651C77.1112 50.0908 77.1274 49.124 77.1031 48.336C77.0625 47.1498 76.965 45.98 76.8756 44.7938C76.6563 41.9503 76.5913 39.0906 76.575 36.239C76.5588 31.9413 76.7212 27.6355 76.0875 23.3702C75.5432 19.7062 74.2921 15.9772 71.3349 13.5562C68.6945 11.3951 65.3554 10.0384 62.0082 9.45343C58.7423 8.89286 55.0702 8.96598 52.1536 10.7371C50.5694 11.7038 49.4726 13.1662 48.4733 14.7017C47.1978 16.6596 46.1985 18.8044 45.4267 21.0061C43.9075 25.3688 43.3307 30.0077 43.0951 34.606C42.9813 36.8971 42.8919 39.2125 42.9732 41.5035C43.0463 43.5102 43.3957 45.4925 43.3551 47.5073C43.3388 48.2954 43.3307 49.3353 42.827 50.0015C42.4045 50.5539 41.6652 50.7976 41.0153 50.952C39.3417 51.3663 37.5381 51.2607 35.8239 51.1713C33.8903 51.0657 31.8186 51.1957 30.0476 50.3102C29.032 49.7984 28.1302 51.3338 29.1539 51.8457C31.1281 52.8368 33.2404 52.8043 35.3933 52.9262C37.1969 53.0318 39.0248 53.1049 40.8122 52.8043C42.2583 52.5606 43.8181 51.9594 44.5331 50.5864C45.4592 48.8234 45.1424 46.4512 44.9799 44.5501C44.5818 39.9599 44.6712 35.3129 45.1586 30.7227C45.6704 25.8563 46.8322 20.9736 49.3101 16.7165C50.3338 14.9535 51.4955 13.1256 53.3154 12.1101C54.7696 11.2976 56.4513 10.9727 58.1005 10.9239C61.7483 10.8102 65.5179 11.8826 68.6132 13.7918C70.0512 14.6773 71.3349 15.7822 72.2204 17.2283C73.3659 19.0888 73.9347 21.2579 74.2921 23.3946C75.0314 27.8873 74.7471 32.4937 74.7877 37.0271C74.8121 39.9437 74.9095 42.8603 75.1614 45.7687C75.3239 47.6292 74.9989 49.9933 76.0388 51.6425C77.1031 53.3243 79.191 53.1699 80.9377 53.1049C82.6926 53.0399 84.4555 52.9912 86.1453 52.4469C87.8108 51.9107 89.3869 50.8951 89.8744 49.124C90.435 47.093 90.11 44.7857 89.915 42.7303C89.3788 37.1246 89.2488 31.4782 88.802 25.8562C88.412 20.9248 88.1845 15.5872 85.6335 11.192C83.5943 7.69049 80.2878 4.95262 76.6725 3.18966C69.3607 -0.376877 60.6353 -0.636853 52.7548 0.866129C45.1018 2.32037 38.1718 6.44748 34.5402 13.5237C32.4036 17.6833 31.7455 22.2085 31.0794 26.7905C30.6731 29.5853 30.3075 32.38 30.0476 35.191C29.8038 37.8882 29.8282 40.6017 29.7551 43.3071C29.6901 45.9068 29.552 48.5066 28.9589 51.0495C28.6989 52.1706 30.405 52.65 30.665 51.5369Z" fill="black"/>
<path d="M83.5699 62.8701C83.5781 79.4029 84.4555 95.9195 84.5692 112.452C84.5773 113.59 86.3484 113.598 86.3403 112.452C86.2184 95.9195 85.3491 79.4029 85.341 62.8701C85.341 61.7327 83.5699 61.7327 83.5699 62.8701Z" fill="black"/>
<path d="M55.0783 82.9045C60.4241 82.0677 61.1715 73.4398 58.588 70.8807C55.9801 68.3053 49.6107 67.5172 46.4017 68.0453C42.2583 68.7196 37.2619 70.3932 36.3845 75.2271C35.5883 79.6223 39.2198 83.5707 43.3226 83.3838C43.4038 88.0796 43.3795 95.1152 43.5663 99.2667C43.8019 104.426 43.0626 105.636 49.1151 105.953C51.788 106.091 54.5909 105.782 54.5909 105.279C54.5909 99.9167 54.0953 88.3721 54.5909 82.9045" fill="black"/>
<path d="M55.3139 83.7575C58.8317 83.132 60.554 79.6548 60.8627 76.397C61.009 74.8453 60.8465 73.1879 60.2047 71.7499C59.5222 70.2144 58.1574 69.2558 56.6625 68.5896C52.9823 66.9485 48.6276 66.6073 44.7036 67.4685C40.8446 68.3134 36.7176 70.2957 35.6452 74.4472C34.3778 79.3379 38.2124 84.3912 43.3144 84.2694C43.022 83.9769 42.7213 83.6763 42.4289 83.3838C42.502 88.0715 42.4776 92.7592 42.6076 97.4469C42.6564 99.1529 42.6564 100.875 42.7945 102.573C42.8838 103.67 43.095 104.775 43.94 105.547C44.9311 106.448 46.4341 106.611 47.7096 106.741C48.9201 106.863 50.1469 106.903 51.3574 106.855C52.3729 106.814 53.5753 106.79 54.5259 106.4C55.9638 105.807 55.452 103.735 55.4358 102.468C55.4033 100.477 55.3545 98.4786 55.3139 96.4882C55.2326 91.9793 55.062 87.4134 55.4601 82.9126C55.5576 81.7752 53.7865 81.7834 53.689 82.9126C53.0635 89.9969 53.624 97.1869 53.6809 104.287C53.6809 104.417 53.6728 104.572 53.6809 104.702C53.6809 104.767 53.6809 104.832 53.6809 104.905C53.6403 105.238 53.7378 105.181 53.9571 104.726C53.9571 104.734 53.2178 104.921 53.1447 104.929C51.9423 105.132 50.6912 105.132 49.4726 105.092C48.2133 105.051 46.4178 105.116 45.3048 104.385C44.6305 103.938 44.5818 103.069 44.5331 102.33C44.4356 100.802 44.4193 99.2667 44.3706 97.7393C44.2243 92.9623 44.2568 88.1771 44.1837 83.4001C44.1756 82.9289 43.7856 82.4983 43.2982 82.5145C39.4879 82.6039 36.4738 78.9399 37.2781 75.2027C38.0336 71.6849 41.4783 70.0763 44.663 69.3127C47.9046 68.5327 51.2843 68.6871 54.469 69.6782C55.7851 70.0926 57.3937 70.7019 58.2305 71.8718C58.8967 72.7979 59.0835 74.0572 59.116 75.1702C59.1891 78.0381 57.9949 81.499 54.8264 82.0677C53.7216 82.2464 54.1927 83.9606 55.3139 83.7575Z" fill="black"/>
</svg>
