<svg width="240" height="231" viewBox="0 0 240 231" fill="none" xmlns="http://www.w3.org/2000/svg">
<path d="M175.089 51.7329C179.797 61.927 184.505 72.1211 189.2 82.3151C198.357 102.16 207.661 122.511 209.576 144.283C211.368 164.584 206.524 185.17 197.393 203.396C195.354 207.461 192.907 211.625 188.916 213.813C185.79 215.53 182.095 215.802 178.537 216.037C143.506 218.335 108.34 220.386 73.2969 218.199" fill="#FFE04A"/>
<path d="M174.212 52.2517C178.314 61.1484 182.429 70.045 186.531 78.9416C190.448 87.4305 194.427 95.9071 197.949 104.581C204.807 121.485 209.712 139.192 208.81 157.59C208.365 166.561 206.71 175.458 204.078 184.046C202.743 188.395 201.161 192.67 199.345 196.847C197.677 200.653 195.947 204.57 193.575 208.005C190.992 211.736 187.569 213.887 183.084 214.578C178.376 215.307 173.495 215.345 168.75 215.641C158.964 216.259 149.178 216.827 139.379 217.26C117.36 218.236 95.3037 218.52 73.2969 217.161C71.9871 217.074 71.9871 219.126 73.2969 219.212C93.6727 220.472 114.098 220.324 134.486 219.521C144.482 219.126 154.479 218.57 164.475 217.952C169.517 217.643 174.57 217.346 179.612 216.976C183.739 216.679 187.903 216.074 191.264 213.479C194.316 211.119 196.33 207.733 198.06 204.347C200.111 200.319 201.928 196.18 203.522 191.954C206.771 183.366 209.045 174.432 210.182 165.313C212.505 146.692 209.045 128.442 202.607 110.957C199.011 101.208 194.674 91.7429 190.325 82.315C185.543 71.9479 180.761 61.5808 175.967 51.2138C175.423 50.0275 173.668 51.0655 174.212 52.2517Z" fill="black"/>
<path d="M140.516 12.2935C137.55 9.71101 134.597 7.14086 131.632 4.55836C130.1 3.22387 128.518 1.86466 126.578 1.25919C123.378 0.270677 119.955 1.56811 116.866 2.86554C116.211 3.13738 115.519 3.43393 115.074 4.00233C114.605 4.59544 114.506 5.38625 114.419 6.13999C113.492 13.8998 112.553 21.6721 111.627 29.4319" fill="#71CCB4"/>
<path d="M141.233 11.5638C137.526 8.33879 133.942 4.75542 129.964 1.88872C125.787 -1.1139 121.265 -0.0636052 116.829 1.77751C114.938 2.56832 113.777 3.42092 113.468 5.55859C113.085 8.11637 112.85 10.6865 112.541 13.2567C111.898 18.6564 111.244 24.0562 110.601 29.456C110.44 30.7658 112.492 30.7534 112.652 29.456C113.196 24.9088 113.74 20.3616 114.283 15.8144C114.543 13.6397 114.802 11.4526 115.062 9.27787C115.198 8.14108 115.284 6.96722 115.482 5.83042C115.741 4.38472 116.631 4.0511 117.867 3.54448C119.807 2.75367 121.882 1.96286 124.008 1.93815C126.281 1.91343 128.122 2.95137 129.828 4.36001C133.226 7.15257 136.463 10.1305 139.775 13.0095C140.775 13.8745 142.234 12.4288 141.233 11.5638Z" fill="black"/>
<path d="M206.994 166.526C209.687 170.134 211.22 174.904 211.257 179.698C213.024 175.534 211.751 170.641 211.405 166.02" fill="#333333"/>
<path d="M206.116 167.044C208.81 170.701 210.182 175.174 210.231 179.709C210.243 180.932 211.825 180.994 212.245 179.981C214.062 175.533 212.789 170.627 212.431 166.03C212.332 164.733 210.281 164.721 210.379 166.03C210.725 170.442 212.01 175.174 210.268 179.437C210.935 179.524 211.603 179.623 212.282 179.709C212.233 174.853 210.775 169.947 207.883 166.018C207.55 165.573 207.006 165.363 206.487 165.647C206.042 165.895 205.783 166.599 206.116 167.044Z" fill="black"/>
<path d="M210.627 164.82C213.913 167.686 216.273 171.962 217.163 176.632C218.127 172.122 216.014 167.662 214.84 163.226" fill="#333333"/>
<path d="M209.897 165.536C213.234 168.49 215.322 172.555 216.175 176.904C216.372 177.881 217.954 177.881 218.152 176.904C219.128 172.073 217.052 167.526 215.829 162.954C215.483 161.681 213.518 162.225 213.852 163.498C214.964 167.637 217.077 171.974 216.175 176.361C216.829 176.361 217.484 176.361 218.152 176.361C217.237 171.702 214.927 167.254 211.343 164.091C210.367 163.226 208.909 164.672 209.897 165.536Z" fill="black"/>
<path d="M169.134 25.292C171.407 23.0802 173.866 19.8181 172.284 17.0626C169.937 12.9974 163.202 16.4942 159.1 14.2083C156.468 12.7379 155.653 9.27806 153.354 7.32574C150.611 5.00273 146.447 5.38578 143.136 6.79441C139.836 8.20305 136.92 10.4643 133.547 11.6876C127.245 13.9612 120.017 12.3672 113.764 14.789C105.325 18.0635 100.259 28.0475 91.3373 29.5674C86.9261 30.3211 92.6471 33.7562 94.6365 34.9053C96.6259 36.0545 99.0107 37.6979 98.6277 39.9591C98.3929 41.3431 97.1325 42.381 96.9101 43.7649C96.5641 45.8655 98.7883 47.5831 100.889 47.892C103.002 48.2009 105.164 47.6696 107.277 47.9414C109.736 48.275 111.936 49.6837 114.357 50.215C116.779 50.7463 119.918 49.9061 120.486 47.4842" fill="#71CCB4"/>
<path d="M169.863 26.0208C171.728 24.1673 173.804 21.7702 173.817 18.9776C173.829 16.7905 172.371 14.9618 170.332 14.2945C168.256 13.6273 165.97 13.998 163.833 14.0227C161.077 14.0598 159.063 13.479 157.444 11.1189C156.085 9.12953 154.998 6.89301 152.786 5.68208C150.5 4.42172 147.745 4.42172 145.249 5.01483C142.221 5.7315 139.602 7.46141 136.92 8.95654C133.881 10.6494 130.829 11.5885 127.356 11.9097C121.388 12.4658 115.42 12.2186 110.132 15.4807C105.782 18.1621 102.458 22.1162 98.3929 25.1559C96.4282 26.6263 94.2658 27.8619 91.8563 28.418C90.4229 28.7516 88.1988 29.184 88.7672 31.2105C89.1997 32.7674 91.0902 33.8795 92.3382 34.7074C94.0434 35.8195 97.6638 37.1416 97.6391 39.5511C97.6268 40.9474 96.1934 42.1089 95.9216 43.4928C95.6868 44.6667 96.0822 45.8529 96.8236 46.7549C99.2207 49.6587 102.841 48.7814 106.116 48.8802C109.551 48.9914 112.417 51.4257 115.865 51.3886C118.311 51.3639 120.733 50.2147 121.462 47.7558C121.845 46.4954 119.868 45.9518 119.485 47.2121C118.756 49.6587 115.544 49.5475 113.579 48.9544C110.947 48.1512 108.636 46.8414 105.807 46.8414C103.533 46.8291 98.8253 47.7929 97.948 44.7038C97.5897 43.4558 98.7512 42.3313 99.2331 41.281C99.6285 40.4037 99.7768 39.4275 99.5296 38.4885C98.5411 34.8309 93.858 33.8548 91.3867 31.47C91.152 31.2476 90.8678 31.0005 90.7319 30.7039C90.633 30.4815 90.8183 30.6668 90.6453 30.8398C90.7318 30.741 91.1273 30.6421 91.2138 30.6298C92.2517 30.5309 93.3391 30.1726 94.3029 29.8019C96.2058 29.0728 97.948 28.0225 99.5667 26.7993C103.076 24.155 106.041 20.8435 109.6 18.2733C111.565 16.8647 113.665 15.7402 116.013 15.1348C118.756 14.4181 121.598 14.3192 124.403 14.1586C127.035 14.0103 129.716 13.825 132.274 13.1454C134.98 12.4163 137.377 11.0324 139.787 9.66086C143.976 7.27606 150.191 4.53292 153.812 9.3643C155.22 11.2548 156.159 13.5408 158.198 14.8753C160.015 16.0615 162.276 16.1233 164.376 16.0615C166.279 15.9997 168.985 15.4807 170.629 16.7164C173.57 18.9406 170.097 22.8575 168.367 24.5627C167.478 25.5018 168.924 26.9475 169.863 26.0208Z" fill="black"/>
<path d="M212.505 163.288C216.459 164.524 219.993 167.477 222.303 171.431C221.784 166.822 218.411 163.597 215.915 159.977" fill="#333333"/>
<path d="M212.233 164.278C216.162 165.538 219.35 168.43 221.414 171.951C221.896 172.767 223.453 172.482 223.317 171.432C223.032 169.072 222.118 166.947 220.821 164.97C219.573 163.067 218.09 161.337 216.792 159.471C216.483 159.014 215.89 158.804 215.396 159.1C214.951 159.36 214.717 160.04 215.025 160.497C217.386 163.895 220.746 167.132 221.265 171.432C221.896 171.259 222.538 171.086 223.168 170.913C220.833 166.934 217.2 163.709 212.764 162.301C211.516 161.905 210.985 163.882 212.233 164.278Z" fill="black"/>
<path d="M184.666 95.9326C191.004 97.1312 195.786 102.346 199.394 107.696C209.823 123.154 214.408 141.886 216.199 160.446C216.434 162.843 216.496 165.598 214.754 167.254C213.073 168.86 210.268 168.712 208.254 167.538C206.24 166.377 204.831 164.412 203.484 162.522C194.044 149.214 184.517 135.745 178.401 120.621" fill="#E59E41"/>
<path d="M184.394 96.9219C192.981 98.6889 198.307 107.202 202.249 114.332C206.672 122.327 209.737 131.013 211.837 139.885C212.888 144.309 213.703 148.794 214.333 153.292C214.667 155.664 214.951 158.062 215.174 160.446C215.347 162.386 215.631 165.08 214.025 166.538C212.332 168.083 209.7 167.403 208.044 166.192C206.166 164.808 204.881 162.745 203.546 160.867C200.778 156.962 198.011 153.045 195.342 149.066C189.225 139.972 183.529 130.531 179.389 120.362C178.895 119.164 176.918 119.683 177.412 120.906C181.453 130.816 186.865 140.046 192.784 148.93C195.811 153.465 198.95 157.913 202.101 162.362C204.485 165.735 207.377 169.825 212.047 169.454C216.805 169.084 217.571 164.339 217.212 160.459C216.755 155.492 216.063 150.537 215.137 145.631C213.271 135.696 210.33 125.923 205.845 116.828C201.557 108.142 195.243 97.0826 184.925 94.9572C183.652 94.6854 183.109 96.6624 184.394 96.9219Z" fill="black"/>
<path d="M171.63 58.6918C183.035 57.2337 194.427 55.7633 205.832 54.3052C209.724 53.811 214 53.119 216.558 50.1411C220.24 45.8658 218.3 38.7979 214 35.1404C209.7 31.4828 203.868 30.3461 198.319 29.3328C186.457 27.1704 174.607 25.0204 162.745 22.858C146.744 19.9419 127.381 18.1502 116.989 30.6673C109.242 39.9965 109.996 53.4279 107.685 65.3395C102.755 90.7444 83.1203 110.453 72.0118 133.819C63.7206 151.266 60.1496 170.888 49.8814 187.248C39.6132 203.608 18.8173 216.199 1.18462 208.341C0.257882 211.652 4.33553 214.012 7.64706 214.939C44.2839 225.17 83.9234 222.637 120.029 210.639C138.761 204.411 173.977 226.517 185.506 210.491C203.003 186.186 203.633 154.837 196.503 125.75C193.624 113.999 188.867 100.679 184.011 88.6438L171.63 58.6918Z" fill="#E59E41"/>
<path d="M171.63 59.704C179.772 58.6537 187.915 57.6158 196.058 56.5655C199.703 56.0959 203.361 55.6635 207.006 55.1569C209.91 54.7491 212.962 54.1807 215.421 52.4879C219.956 49.3617 220.388 43.6036 218.164 38.9205C215.458 33.2241 209.329 30.6664 203.534 29.3195C196.157 27.602 188.583 26.5146 181.119 25.1554C173.718 23.8085 166.329 22.3381 158.89 21.1519C147.942 19.4096 135.771 18.2975 125.392 23.0301C120.276 25.3654 116.038 29.2824 113.357 34.225C110.416 39.6371 109.341 45.7907 108.55 51.8206C107.71 58.2089 107.104 64.5972 105.312 70.8125C103.484 77.1884 100.753 83.2678 97.6021 89.0877C91.3621 100.629 83.5528 111.218 76.9174 122.512C73.5317 128.27 70.5414 134.213 68.0331 140.416C65.4011 146.904 63.2141 153.551 60.891 160.15C56.4304 172.864 51.4137 186.036 41.788 195.81C33.6327 204.077 22.1659 210.589 10.2048 209.613C7.27636 209.365 4.39734 208.624 1.70363 207.45C1.13523 207.203 0.356775 207.351 0.196141 208.056C-1.27428 214.58 8.52437 216.285 12.8368 217.335C20.2259 219.127 27.7387 220.424 35.3008 221.252C50.6476 222.92 66.1919 222.612 81.4892 220.585C89.2491 219.559 96.9472 218.089 104.546 216.199C108.204 215.284 111.837 214.283 115.445 213.171C118.2 212.331 120.931 211.219 123.798 210.799C128.456 210.107 133.3 210.7 137.909 211.491C143.148 212.393 148.313 213.678 153.503 214.839C158.396 215.939 163.338 216.977 168.355 217.335C172.42 217.632 176.696 217.447 180.477 215.791C185.024 213.801 187.569 209.575 190.016 205.461C193.501 199.604 196.182 193.277 198.072 186.741C206.129 158.914 200.049 129.518 190.547 102.902C185.321 88.2969 179.081 74.0499 173.162 59.7287C172.976 59.2839 172.803 58.8514 172.618 58.4066C172.124 57.208 170.147 57.727 170.641 58.9503C174.916 69.2803 179.291 79.5732 183.455 89.9403C193.97 116.185 202.669 144.383 198.876 172.976C197.133 186.061 192.623 199.32 184.641 209.946C179.377 216.965 169.232 215.741 161.646 214.407C151.773 212.665 142.11 209.526 132.089 208.636C127.739 208.253 123.402 208.426 119.226 209.798C112.059 212.146 104.769 214.135 97.392 215.729C68.2308 222.006 36.7218 222.377 7.91893 213.913C5.67005 213.245 1.48118 211.602 2.17314 208.575C1.66653 208.772 1.17227 208.982 0.665655 209.18C11.1069 213.74 22.6231 211.552 32.187 205.906C42.8506 199.604 50.351 189.867 55.6148 178.82C61.4841 166.526 64.9563 153.279 70.0842 140.688C75.0515 128.492 82.2801 117.545 89.3974 106.523C96.1934 96.0196 102.903 85.2201 106.709 73.2096C108.599 67.2538 109.44 61.125 110.193 54.9468C110.947 48.7809 111.701 42.3556 114.382 36.6716C116.829 31.4819 120.857 27.3919 126.034 24.933C131.175 22.4987 136.994 21.7574 142.629 21.7203C148.412 21.6832 154.182 22.3752 159.879 23.339C167.292 24.587 174.682 26.0203 182.071 27.3672C189.349 28.6893 196.787 29.6778 203.954 31.4942C209.823 32.9894 215.829 36.0043 217.237 42.4297C217.855 45.2346 217.25 48.2125 215.038 50.1648C212.715 52.2037 209.416 52.7473 206.45 53.1551C198.715 54.2178 190.967 55.1445 183.22 56.133C179.352 56.6273 175.485 57.1215 171.617 57.6281C170.345 57.8258 170.32 59.877 171.63 59.704Z" fill="black"/>
<path d="M197.949 29.7648C192.487 34.0401 184.962 34.1761 178.018 34.1266C166.044 34.0401 154.071 33.9413 142.11 33.8548C136.908 33.8177 130.94 34.1143 127.69 38.1795C125.157 41.3428 125.157 45.7664 125.169 49.8193C125.194 60.9154 124.329 72.2463 120.14 82.5269C113.023 99.9865 107.759 116.89 99.6285 133.893C93.302 147.139 92.993 171.197 93.5367 185.876C93.858 194.538 92.8201 205.375 88.4088 211.541C75.7929 229.136 42.4799 221.796 17.1862 217.311C13.4052 216.644 -0.9407 214.42 1.30818 208.649C9.52522 210.503 19.0644 210.429 26.8366 207.191C39.9468 201.742 49.0164 189.41 54.9352 176.498C60.8539 163.585 64.289 149.659 70.0718 136.685C81.8352 110.317 103.261 87.9266 108.476 59.5439C110.589 48.0524 110.589 34.695 119.485 27.1329C125.997 21.6095 135.302 21.1153 143.84 21.3995C161.522 21.9802 179.142 24.7234 196.169 29.53" fill="#FFE04A"/>
<path d="M197.43 28.8751C192.487 32.6191 186.198 33.0763 180.217 33.101C172.989 33.1381 165.773 33.0021 158.544 32.9527C151.773 32.9033 144.878 32.4708 138.119 32.9157C133.016 33.2493 127.678 34.8433 125.478 39.9218C124.366 42.4919 124.181 45.3339 124.156 48.1017C124.119 51.5121 124.144 54.9101 123.958 58.3082C123.6 65.1536 122.649 72.0115 120.511 78.548C118.336 85.2205 115.42 91.6953 112.961 98.2689C110.477 104.917 108.031 111.577 105.387 118.163C103.99 121.635 102.545 125.082 101.012 128.493C99.8386 131.125 98.5041 133.695 97.4661 136.389C95.6374 141.195 94.5994 146.311 93.8827 151.389C92.3382 162.177 92.1281 173.137 92.4494 184.01C92.7583 194.192 92.7954 206.734 84.6895 214.197C77.7946 220.548 67.5882 221.722 58.6174 221.685C47.7314 221.648 36.9071 219.807 26.2188 217.892C22.1165 217.163 18.0017 216.495 13.9117 215.668C10.4767 214.976 6.44847 214.222 3.58177 212.072C2.4944 211.256 1.80246 210.268 2.28436 208.909C1.86424 209.143 1.4441 209.391 1.02398 209.625C10.8226 211.788 21.3133 211.355 30.3335 206.672C38.5505 202.409 45.0377 195.415 50.005 187.705C55.6395 178.944 59.2847 169.133 62.695 159.347C66.3155 148.955 69.8865 138.637 75.0391 128.888C84.257 111.429 96.527 95.6247 104.151 77.3247C106.017 72.8394 107.586 68.2304 108.698 63.4979C109.761 59.0001 110.304 54.4035 110.996 49.844C112.306 41.1574 114.296 31.3711 122.327 26.3544C130.94 20.967 142.555 22.2026 152.193 22.8822C164.104 23.7348 175.93 25.5636 187.545 28.3561C190.35 29.0234 193.142 29.7648 195.91 30.5432C197.183 30.9015 197.726 28.9245 196.454 28.5662C185.259 25.4153 173.829 23.1541 162.288 21.7948C156.369 21.0905 150.414 20.6333 144.445 20.4233C139.676 20.2503 134.857 20.2874 130.161 21.2141C125.725 22.1038 121.438 23.9078 118.101 27.0216C115.037 29.876 112.986 33.6076 111.627 37.537C108.636 46.1988 108.624 55.565 106.363 64.3999C101.408 83.7501 89.4591 100.221 79.3516 117.125C74.1124 125.886 69.4417 134.881 65.8089 144.433C61.7683 155.084 58.6422 166.094 53.8355 176.436C49.8814 184.949 44.667 193.08 37.5373 199.283C33.8922 202.459 29.6663 205.14 25.0944 206.783C20.0776 208.575 14.6779 209.094 9.37695 208.785C6.74503 208.637 4.13779 208.254 1.55529 207.673C0.986897 207.549 0.492653 207.846 0.294949 208.39C-2.15163 215.309 11.3045 217.323 15.4934 218.065C25.7369 219.894 35.968 221.895 46.3227 223.007C56.1956 224.058 66.8468 224.577 76.3737 221.29C80.4389 219.894 84.2571 217.706 87.2226 214.568C90.7936 210.787 92.5853 205.931 93.5491 200.877C94.6365 195.168 94.6365 189.422 94.4759 183.627C94.3276 178.277 94.3276 172.927 94.5253 167.589C94.7477 161.744 95.1925 155.899 96.1192 150.129C96.9348 145.026 98.0592 139.824 100.197 135.091C103.125 128.592 106.029 122.105 108.636 115.469C111.293 108.673 113.789 101.815 116.371 94.9945C118.892 88.3096 121.994 81.7484 123.711 74.804C125.367 68.1315 125.985 61.2366 126.145 54.3788C126.281 48.6454 124.91 40.3913 130.73 36.9068C133.201 35.424 136.179 35.0657 139.009 34.9545C142.271 34.8186 145.545 34.9421 148.795 34.9668C156.406 35.0286 164.018 35.078 171.617 35.1398C177.993 35.1892 184.666 35.6835 190.93 34.1637C193.649 33.4964 196.219 32.3843 198.455 30.6791C199.493 29.8512 198.48 28.0843 197.43 28.8751Z" fill="black"/>
<path d="M104.386 210.924C105.164 216.287 106.326 221.6 107.87 226.802C108.043 227.395 108.253 228.013 108.723 228.409C109.192 228.792 109.823 228.878 110.416 228.94C115.272 229.471 120.153 229.669 125.033 229.545C125.676 229.533 126.356 229.496 126.874 229.113C127.591 228.569 127.727 227.568 127.789 226.666C128.333 219.487 128.876 212.296 129.42 205.117" fill="#E59E41"/>
<path d="M103.397 211.196C104.04 215.533 104.905 219.833 106.042 224.072C106.474 225.666 106.721 228.1 108.105 229.2C109.477 230.299 111.923 230.114 113.579 230.25C115.766 230.423 117.965 230.534 120.153 230.571C121.289 230.596 122.426 230.596 123.563 230.584C124.502 230.571 125.54 230.645 126.454 230.398C128.073 229.953 128.617 228.508 128.777 226.988C129 224.838 129.111 222.675 129.272 220.525C129.667 215.385 130.05 210.245 130.446 205.092C130.544 203.782 128.493 203.782 128.394 205.092C128.024 209.985 127.653 214.891 127.282 219.784C127.097 222.169 127.072 224.615 126.739 226.975C126.652 227.593 126.59 228.149 125.923 228.409C125.466 228.582 124.799 228.508 124.317 228.508C123.093 228.532 121.882 228.532 120.659 228.52C118.225 228.483 115.778 228.372 113.357 228.174C112.343 228.088 110.972 228.174 109.996 227.828C108.785 227.408 108.661 225.789 108.352 224.677C107.067 220.068 106.091 215.373 105.399 210.64C105.177 209.355 103.2 209.899 103.397 211.196Z" fill="black"/>
<path d="M153.07 211.072C156.246 214.63 154.985 220.586 157.889 224.38C160.583 227.901 165.674 228.21 170.11 228.21C172.569 228.21 175.028 228.21 177.487 228.21C178.055 228.21 178.673 228.185 179.093 227.802C179.538 227.382 179.575 226.69 179.562 226.073C179.55 221.229 179.525 216.397 179.513 211.554" fill="#E59E41"/>
<path d="M152.341 211.789C154.516 214.371 154.429 218.091 155.294 221.204C156.147 224.281 158.013 226.678 160.991 227.926C164.104 229.224 167.577 229.236 170.901 229.236C173.149 229.236 175.411 229.323 177.659 229.236C179.216 229.174 180.366 228.482 180.551 226.827C180.823 224.467 180.576 221.971 180.563 219.598C180.551 216.917 180.539 214.235 180.539 211.566C180.539 210.257 178.487 210.244 178.487 211.566C178.5 214.161 178.512 216.756 178.512 219.339C178.512 220.55 178.524 221.76 178.524 222.971C178.524 223.663 178.524 224.355 178.537 225.047C178.537 225.517 178.747 226.814 178.24 227.136C178.018 227.271 177.178 227.197 176.955 227.197C176.251 227.197 175.547 227.197 174.842 227.197C173.607 227.197 172.383 227.197 171.148 227.197C169.121 227.197 167.082 227.222 165.068 226.925C163.227 226.654 161.324 226.135 159.841 224.961C158.42 223.836 157.654 222.218 157.197 220.5C156.258 216.991 156.233 213.272 153.774 210.368C152.934 209.342 151.501 210.788 152.341 211.789Z" fill="black"/>
<path d="M75.1627 62.5457C70.8998 59.852 67.6624 55.589 66.192 50.77C65.3517 55.5767 68.3049 60.0621 70.1089 64.5969" fill="#333333"/>
<path d="M75.6817 61.6557C71.6411 59.0732 68.6014 55.0697 67.1804 50.4855C66.9086 49.5958 65.3764 49.4228 65.2034 50.4855C64.3632 55.7123 67.2546 60.21 69.1204 64.8561C69.3305 65.375 69.8 65.721 70.3808 65.5727C70.875 65.4492 71.2951 64.8313 71.0974 64.3124C69.4293 60.1606 66.4267 55.7123 67.1804 51.0292C66.5255 51.0292 65.8706 51.0292 65.2034 51.0292C66.785 56.1324 70.146 60.5437 74.6437 63.4227C75.7682 64.1394 76.7938 62.3724 75.6817 61.6557Z" fill="black"/>
<path d="M71.394 65.5259C66.6615 63.796 62.5838 60.3239 60.1373 55.9126C60.335 60.7934 64.1778 64.5498 66.8963 68.6027" fill="#333333"/>
<path d="M71.6659 64.549C67.1681 62.8809 63.3747 59.5817 61.0146 55.4053C60.5327 54.5403 59.0623 54.8986 59.1117 55.9242C59.3835 61.1757 63.2264 65.0062 66.0066 69.1209C66.7356 70.2083 68.515 69.1827 67.7736 68.083C65.2529 64.3513 61.3976 60.6815 61.1505 55.9119C60.5203 56.0849 59.8778 56.2579 59.2476 56.4309C61.8672 61.0892 66.1178 64.6479 71.1222 66.5137C72.3578 66.9709 72.8891 64.9939 71.6659 64.549Z" fill="black"/>
<path d="M69.6147 67.7242C64.5732 67.8601 59.5071 66.1426 55.6024 62.9546C57.5918 67.4153 62.5468 69.4788 66.5626 72.2466" fill="#333333"/>
<path d="M69.6147 66.7119C64.8327 66.8231 60.0631 65.2538 56.3191 62.2389C55.4047 61.5098 54.2185 62.3995 54.7128 63.4745C56.8875 68.207 61.9784 70.3571 66.0436 73.1373C67.131 73.8786 68.1566 72.1117 67.0816 71.3703C63.3128 68.8001 58.4938 66.8355 56.4797 62.4489C55.9484 62.8567 55.4047 63.2768 54.8734 63.6846C59.0375 67.0332 64.252 68.8743 69.6147 68.7507C70.9368 68.726 70.9368 66.6748 69.6147 66.7119Z" fill="black"/>
<path d="M158.989 41.1694C155.616 39.7113 150.092 38.8463 146.422 39.1058C142.765 39.3653 139.033 41.3176 137.526 44.6662C140.948 45.6053 144.433 46.5444 147.979 46.4703C151.526 46.3961 156.728 44.2338 158.977 41.4906" fill="#FFE04A"/>
<path d="M159.261 40.1815C155.393 38.5504 150.747 37.809 146.571 38.0809C142.53 38.3404 138.44 40.3792 136.648 44.1603C136.364 44.7534 136.574 45.4824 137.254 45.6677C141.492 46.8293 146.027 48.102 150.426 47.2123C153.787 46.5327 157.444 44.8893 159.706 42.2203C160.546 41.2194 159.112 39.7737 158.26 40.7746C156.209 43.1965 152.934 44.6174 149.895 45.2353C145.879 46.0508 141.653 44.741 137.81 43.6907C138.008 44.1973 138.218 44.6916 138.415 45.1982C140.046 41.7507 143.766 40.1691 147.436 40.1073C151.217 40.0456 155.233 40.7004 158.717 42.1709C159.928 42.6651 160.459 40.6881 159.261 40.1815Z" fill="black"/>
<path d="M152.922 41.4672C149.561 40.4292 146.064 40.7999 142.876 42.2086C142.048 42.5792 142.332 43.8643 143.123 44.0744C146.237 44.8899 149.808 44.5316 152.848 43.5431C154.096 43.1353 153.564 41.1583 152.304 41.566C149.61 42.4433 146.435 42.8264 143.667 42.0974C143.753 42.7152 143.828 43.3453 143.914 43.9632C146.595 42.7769 149.573 42.5669 152.378 43.4318C153.639 43.8272 154.182 41.8626 152.922 41.4672Z" fill="black"/>
<path d="M117.026 93.0905C104.448 86.6281 92.9931 77.9909 83.3427 67.6609C81.4151 65.5974 79.5122 63.4226 77.0903 61.9522C74.6685 60.4818 71.5794 59.7898 68.9845 60.9143C65.3517 62.4836 63.8936 67.1296 64.6968 71.0095C65.5 74.8894 68.0083 78.1639 70.4796 81.253C81.7734 95.3641 93.7963 108.894 106.499 121.757" fill="#E59E41"/>
<path d="M117.533 92.2127C109.205 87.9126 101.358 82.6982 94.2164 76.6312C90.7195 73.6533 87.3832 70.4777 84.2323 67.1291C81.2421 63.9411 78.1283 60.3454 73.6058 59.5175C69.9607 58.8502 66.4391 60.3454 64.6968 63.6693C62.9175 67.0302 63.2017 70.9225 64.6845 74.3329C66.4762 78.4599 69.6765 81.9321 72.4814 85.3919C75.7311 89.383 79.0426 93.3371 82.4159 97.2294C89.9163 105.904 97.7009 114.331 105.757 122.486C106.684 123.425 108.13 121.979 107.203 121.04C100.58 114.331 94.1423 107.448 87.8899 100.393C81.6622 93.3494 75.3975 86.2198 69.7383 78.7071C67.3658 75.5685 65.0428 71.8245 65.537 67.7222C66.0313 63.5828 69.2563 60.6296 73.544 61.6057C77.8811 62.5942 80.7725 66.5112 83.6887 69.5509C86.6295 72.6153 89.7186 75.5191 92.956 78.2622C100.172 84.3787 108.08 89.6549 116.483 93.992C117.669 94.5851 118.707 92.8181 117.533 92.2127Z" fill="black"/>
<path d="M210.861 42.813C208.402 41.5156 205.523 41.4415 202.99 42.5535C202.669 42.6895 202.484 43.1096 202.484 43.4309C202.484 43.8139 202.694 44.0981 202.99 44.3082C205.029 45.7415 207.834 46.0998 210.169 45.1978C210.973 44.8889 211.207 43.8263 210.416 43.332C209.44 42.7265 208.304 42.5536 207.179 42.7636C206.635 42.8625 206.326 43.5174 206.462 44.024C206.623 44.5924 207.179 44.8395 207.723 44.7406C208.056 44.6789 207.636 44.7406 207.834 44.7283C207.92 44.7159 208.019 44.7159 208.106 44.7159C208.192 44.7159 208.291 44.7159 208.378 44.7283C208.563 44.7406 208.168 44.6789 208.489 44.753C208.897 44.8518 209.033 44.9013 209.366 45.1113C209.453 44.4935 209.527 43.8633 209.613 43.2455C207.686 43.9869 205.709 43.7521 204.016 42.5659C204.016 43.159 204.016 43.7398 204.016 44.3329C203.942 44.3576 203.966 44.3576 204.078 44.3082C204.152 44.2835 204.214 44.2587 204.288 44.234C204.424 44.1846 204.572 44.1352 204.72 44.0981C204.967 44.024 205.227 43.9622 205.486 43.9128C205.709 43.8757 205.795 43.8633 206.104 43.8386C206.388 43.8139 206.66 43.8139 206.944 43.8263C207.883 43.8633 208.971 44.1475 209.811 44.5924C210.293 44.8518 210.923 44.7159 211.207 44.2217C211.491 43.7521 211.343 43.0725 210.861 42.813Z" fill="black"/>
<path d="M158.087 88.5938C144.89 90.3237 137.909 100.53 133.535 111.466C129.062 122.636 127.393 135.215 126.479 147.213C125.837 155.689 126.022 164.376 128.74 172.42C131.459 180.464 137.031 187.853 144.816 191.226C146.954 192.153 149.24 192.771 151.575 192.82C156.814 192.932 161.757 190.139 165.513 186.494C172.013 180.18 176.041 173.656 179.093 165.13C183.047 154.058 183.195 146.805 183.591 137.748C184.073 126.676 182.429 120.523 180.378 113.368C178.45 106.634 176.745 101.605 174.027 96.7737C171.321 91.9547 163.635 88.1489 158.136 88.7667" fill="#CC90D3"/>
<path d="M157.815 87.6163C140.392 90.0505 132.509 107.683 128.889 122.943C126.541 132.841 125.33 143.282 125.157 153.451C125.009 162.941 126.454 172.777 131.669 180.895C136.092 187.79 143.902 194.228 152.551 193.832C161.398 193.437 168.269 186.06 173.051 179.289C178.265 171.912 181.539 162.978 183.158 154.131C183.9 150.066 184.233 145.963 184.431 141.836C184.653 137.302 184.851 132.767 184.456 128.232C183.764 120.176 181.416 112.082 178.648 104.508C177.314 100.862 175.818 96.7477 173.149 93.8563C170.592 91.0761 166.984 89.1237 163.338 88.1847C161.646 87.7522 159.879 87.5421 158.136 87.7151C156.839 87.8387 156.827 89.8898 158.136 89.7663C161.781 89.4203 165.464 90.7177 168.516 92.67C171.79 94.7706 173.545 97.6868 175.102 101.159C176.906 105.162 178.178 109.401 179.389 113.614C180.304 116.815 181.193 120.027 181.774 123.314C183.17 131.197 182.738 139.402 182.021 147.347C181.255 155.799 178.969 164.239 175.139 171.825C173.298 175.471 171.036 178.881 168.367 181.97C165.624 185.146 162.597 188.185 158.804 190.064C150.525 194.178 141.653 189.841 136.055 183.366C130.124 176.509 127.739 167.439 127.282 158.542C126.8 149.028 127.9 139.204 129.556 129.838C131.063 121.3 133.411 112.737 137.625 105.113C141.06 98.8853 146.015 93.3249 152.872 90.8784C154.652 90.2482 156.493 89.8281 158.359 89.5686C159.656 89.4079 159.1 87.4309 157.815 87.6163Z" fill="black"/>
<path d="M162.202 57.8883C155.986 57.9378 149.771 57.5794 143.605 56.8257C142.814 57.6659 143.197 59.1363 144.087 59.8654C144.977 60.5944 146.188 60.7921 147.324 60.9527C152.588 61.6941 158.136 62.4108 163.079 60.4708C164.772 59.7912 163.721 58.605 162.844 57.9625" fill="black"/>
<path d="M162.202 56.8636C158.272 56.8883 154.343 56.7647 150.414 56.4682C148.511 56.3322 146.62 56.1469 144.73 55.9368C143.902 55.838 143.197 55.6279 142.641 56.394C142.246 56.9377 142.11 57.6173 142.172 58.2846C142.493 61.8185 146.904 61.9421 149.573 62.288C153.045 62.7329 156.579 62.9924 160.052 62.3745C161.473 62.1274 163.969 61.7814 164.759 60.3975C165.525 59.0754 164.339 57.8397 163.363 57.086C162.313 56.2952 161.3 58.0621 162.325 58.853C162.523 59.0012 162.683 59.1989 162.856 59.3719C163.116 59.6314 162.955 59.3843 162.918 59.409C162.733 59.5202 162.523 59.5943 162.313 59.6685C161.398 60.0021 160.447 60.2369 159.496 60.3975C157.543 60.7435 155.541 60.7435 153.564 60.6323C151.612 60.5211 149.684 60.2616 147.757 59.9897C146.88 59.8662 145.891 59.7797 145.1 59.3349C144.581 59.0383 143.803 58.1733 144.309 57.5432C144.062 57.642 143.828 57.7409 143.58 57.8397C149.759 58.5935 155.962 58.9394 162.177 58.9024C163.511 58.9024 163.511 56.8636 162.202 56.8636Z" fill="black"/>
<path d="M105.127 79.7709C106.647 81.7233 109.39 82.1928 111.688 81.6738C114.419 81.056 116.569 78.9925 118.509 77.0896C119.448 76.1629 118.003 74.7171 117.063 75.6439C115.445 77.2255 113.702 78.9925 111.466 79.6227C109.724 80.1169 107.734 79.8204 106.573 78.3252C106.239 77.8928 105.485 77.9669 105.127 78.3252C104.695 78.7577 104.781 79.3385 105.127 79.7709Z" fill="black"/>
<path d="M107.042 66.811C110.613 69.2453 115.853 68.0961 118.225 64.5622C118.534 64.105 118.311 63.4254 117.854 63.1659C117.348 62.8693 116.767 63.0794 116.458 63.5366C114.654 66.2179 110.675 66.8234 108.068 65.0564C107.611 64.7475 106.931 64.9699 106.672 65.4271C106.375 65.9214 106.585 66.5021 107.042 66.811Z" fill="black"/>
<path d="M126.244 22.8577C124.292 24.6741 123.81 27.8867 125.219 30.1727C126.603 32.4216 129.581 33.5089 132.089 32.6563C132.608 32.4833 132.954 31.952 132.806 31.396C132.67 30.8894 132.077 30.5063 131.545 30.6793C129.902 31.2353 127.912 30.6299 126.986 29.1347C126.047 27.6149 126.356 25.539 127.69 24.291C128.654 23.4013 127.208 21.9556 126.244 22.8577Z" fill="black"/>
<path d="M144.754 20.362C142.345 20.9922 139.7 21.7707 138.181 23.9083C136.883 25.7371 136.686 28.5791 138.452 30.1854C138.86 30.5561 139.49 30.5932 139.898 30.1854C140.269 29.8147 140.306 29.1104 139.898 28.7397C139.355 28.2454 139.182 27.6894 139.219 26.8986C139.231 26.6144 139.231 26.6762 139.293 26.3796C139.342 26.1696 139.404 25.9595 139.49 25.7618C139.429 25.9101 139.565 25.6012 139.565 25.6012C139.614 25.5023 139.663 25.4035 139.725 25.317C139.775 25.2181 139.836 25.1316 139.898 25.0451C139.997 24.8968 139.873 25.0575 139.997 24.9092C141.282 23.3523 143.432 22.8457 145.31 22.3514C146.571 22.0054 146.027 20.0407 144.754 20.362Z" fill="black"/>
<path d="M157.123 21.1901C155.146 21.6968 152.996 22.3146 151.575 23.8715C150.203 25.3666 149.573 27.5908 150.574 29.469C150.834 29.9509 151.513 30.1115 151.97 29.8397C152.465 29.5555 152.601 28.9253 152.341 28.4434C152.316 28.4063 152.218 28.1715 152.279 28.3445C152.242 28.258 152.218 28.1715 152.193 28.0727C152.168 27.9862 152.156 27.8874 152.131 27.8009C152.18 28.0109 152.131 27.7391 152.119 27.702C152.106 27.5167 152.119 27.319 152.131 27.1336C152.119 27.2819 152.131 27.1583 152.143 27.0718C152.168 26.973 152.18 26.8865 152.205 26.7876C152.23 26.6888 152.255 26.6023 152.292 26.5034C152.304 26.454 152.329 26.4169 152.341 26.3675C152.304 26.4416 152.304 26.454 152.329 26.3799C152.403 26.2192 152.489 26.0586 152.576 25.898C152.625 25.8115 152.675 25.725 152.737 25.6508C152.737 25.6385 152.922 25.4037 152.811 25.5396C152.934 25.3913 153.07 25.2431 153.206 25.1071C153.676 24.6623 154.516 24.1804 155.084 23.958C155.924 23.6244 156.789 23.3896 157.654 23.1672C158.186 23.0313 158.507 22.4381 158.371 21.9068C158.235 21.3631 157.654 21.0542 157.123 21.1901Z" fill="black"/>
<path d="M170.097 23.2641C169.121 23.5113 168.133 23.7337 167.169 24.0055C166.304 24.2527 165.451 24.5986 164.784 25.2288C163.301 26.6127 163.524 28.738 163.931 30.5297C164.055 31.0487 164.685 31.407 165.192 31.2464C165.736 31.0734 166.032 30.5421 165.909 29.986C165.871 29.8007 165.822 29.6154 165.785 29.43C165.773 29.3312 165.748 29.2447 165.736 29.1458C165.736 29.1334 165.686 28.8122 165.711 29.0346C165.661 28.6763 165.637 28.3056 165.661 27.9472C165.661 27.9102 165.698 27.6383 165.674 27.7619C165.649 27.8854 165.711 27.6136 165.711 27.5889C165.723 27.5147 165.748 27.4406 165.773 27.3665C165.797 27.3047 165.871 27.107 165.797 27.28C165.834 27.1935 165.884 27.1193 165.921 27.0329C165.933 27.0205 166.106 26.7734 165.97 26.934C166.082 26.7981 166.217 26.6745 166.353 26.5509C166.217 26.6622 166.378 26.5386 166.44 26.5015C166.514 26.4521 166.588 26.4027 166.675 26.3656C166.736 26.3285 166.811 26.2915 166.872 26.2667C166.909 26.242 166.959 26.2297 166.996 26.205C166.909 26.242 166.897 26.242 166.959 26.2173C167.292 26.1061 167.626 25.9826 167.972 25.8961C168.849 25.6613 169.739 25.4512 170.629 25.2288C171.148 25.0929 171.506 24.4874 171.345 23.9684C171.185 23.4495 170.653 23.1282 170.097 23.2641Z" fill="black"/>
<path d="M180.057 24.5765C178.772 24.7989 177.672 25.8121 177.14 26.9736C176.486 28.4193 176.547 29.9762 176.832 31.4961C176.93 32.0274 177.598 32.3734 178.092 32.2128C178.66 32.0274 178.907 31.5208 178.809 30.9524C178.784 30.8041 178.759 30.6435 178.734 30.4952C178.71 30.3222 178.747 30.6311 178.734 30.4581C178.722 30.384 178.722 30.3222 178.71 30.2481C178.685 29.9392 178.66 29.6303 178.673 29.3337C178.673 29.1854 178.685 29.0248 178.697 28.8765C178.71 28.8024 178.722 28.7406 178.697 28.8518C178.71 28.79 178.722 28.7159 178.734 28.6541C178.759 28.5058 178.796 28.3575 178.846 28.2093C178.87 28.1475 178.883 28.0857 178.907 28.0239C178.92 27.9745 179.006 27.8015 178.907 27.9992C179.006 27.7891 179.118 27.5791 179.253 27.3814C179.266 27.3567 179.377 27.2208 179.303 27.3196C179.216 27.4308 179.377 27.2331 179.377 27.2331C179.451 27.1466 179.525 27.0725 179.612 26.9983C179.637 26.986 179.81 26.8253 179.698 26.9242C179.599 26.9983 179.735 26.8995 179.76 26.8871C179.859 26.813 179.97 26.7636 180.081 26.7018C180.18 26.64 180.143 26.6771 180.057 26.7018C180.106 26.6771 180.155 26.6647 180.205 26.64C180.341 26.6029 180.464 26.5659 180.6 26.5411C181.132 26.4546 181.478 25.775 181.317 25.2808C181.132 24.7247 180.625 24.4776 180.057 24.5765Z" fill="black"/>
<path d="M115.321 30.3083C115.123 31.7417 115.383 33.175 116.149 34.423C116.903 35.6463 118.04 36.573 119.399 37.0426C119.905 37.2156 120.536 36.8449 120.659 36.3259C120.783 35.7575 120.486 35.2509 119.943 35.0656C119.868 35.0408 119.794 35.0161 119.72 34.9914C119.535 34.9173 119.831 35.0532 119.72 34.9914C119.597 34.9296 119.473 34.8678 119.349 34.7937C119.238 34.7319 119.127 34.6578 119.028 34.596C118.979 34.5589 118.929 34.5219 118.867 34.4848C118.769 34.4107 119.016 34.6084 118.867 34.4848C118.657 34.2994 118.447 34.1141 118.262 33.8917C118.225 33.8423 118.176 33.7928 118.138 33.7434C118.052 33.6446 118.25 33.8917 118.138 33.7434C118.052 33.6322 117.978 33.5086 117.904 33.3974C117.842 33.2862 117.768 33.175 117.718 33.0638C117.694 33.002 117.657 32.9526 117.632 32.8908C117.607 32.8537 117.484 32.6313 117.607 32.8537C117.484 32.6313 117.422 32.3348 117.36 32.0876C117.335 32.0011 117.335 31.7417 117.286 31.6799C117.311 31.717 117.311 31.8776 117.298 31.7293C117.286 31.6552 117.286 31.581 117.286 31.5069C117.274 31.3833 117.274 31.2474 117.286 31.1238C117.286 31.0497 117.286 30.9756 117.298 30.8891C117.298 30.8273 117.335 30.5925 117.298 30.852C117.372 30.3207 117.175 29.7276 116.582 29.5916C116.1 29.4804 115.395 29.7399 115.321 30.3083Z" fill="black"/>
<path d="M110.972 42.3071C113.208 44.3089 115.741 46.3971 118.905 46.4095C119.461 46.4095 119.93 45.9399 119.93 45.3839C119.93 44.8278 119.461 44.3583 118.905 44.3583C118.262 44.3583 117.805 44.2842 117.138 44.0617C116.804 43.9505 116.668 43.9011 116.371 43.7528C116.075 43.6046 115.778 43.4439 115.494 43.2709C114.357 42.579 113.418 41.7511 112.417 40.8614C112.01 40.4907 111.379 40.4537 110.972 40.8614C110.601 41.2321 110.552 41.9364 110.972 42.3071Z" fill="black"/>
<path d="M108.538 51.1172C108.525 52.3775 108.71 53.675 109.143 54.8612C109.563 56.0103 110.243 57.0483 111.454 57.4561C112.553 57.8391 113.863 57.629 114.926 57.2336C116.063 56.8135 117.088 56.171 118.101 55.5161C118.559 55.2195 118.756 54.6141 118.472 54.1198C118.2 53.6626 117.533 53.4526 117.076 53.7491C116.297 54.2557 115.507 54.7871 114.642 55.1578C113.925 55.4667 113.011 55.7261 112.244 55.5532C111.552 55.3925 111.256 54.7623 111.046 54.1322C110.712 53.1436 110.564 52.1428 110.576 51.1048C110.601 49.8074 108.562 49.8074 108.538 51.1172Z" fill="black"/>
<path d="M78.4001 120.831C83.664 124.463 90.1141 121.881 95.2791 119.496C96.4776 118.952 95.4397 117.185 94.2411 117.729C89.731 119.805 84.0347 122.252 79.4257 119.064C78.3507 118.322 77.3251 120.089 78.4001 120.831Z" fill="black"/>
<path d="M71.0851 133.844C72.2343 137.465 76.3984 138.589 79.7593 137.675C81.7858 137.131 83.6146 136.019 85.3815 134.919C87.4451 133.634 89.4468 132.263 91.3991 130.805C92.4494 130.026 91.4238 128.247 90.3612 129.038C87.3709 131.262 84.1829 133.634 80.7602 135.142C78.2889 136.229 74.0877 136.55 73.0498 133.288C72.6544 132.053 70.6897 132.584 71.0851 133.844Z" fill="black"/>
<path d="M64.9934 151.057C67.9219 150.748 70.6526 149.5 72.7532 147.437C73.6923 146.51 72.2466 145.064 71.3075 145.991C70.4302 146.856 69.4911 147.511 68.3296 148.067C67.8477 148.302 67.3411 148.487 66.748 148.66C66.4391 148.747 66.1178 148.833 65.7965 148.895C65.4629 148.957 65.2405 148.994 64.9934 149.018C64.4497 149.08 63.9678 149.451 63.9678 150.044C63.9678 150.551 64.4373 151.119 64.9934 151.057Z" fill="black"/>
<path d="M70.319 144.805C71.0604 146.412 71.8512 148.055 73.1363 149.291C74.4708 150.576 76.2377 151.231 78.0912 151.206C82.07 151.169 85.1097 148.426 87.8158 145.831C88.7672 144.917 87.3215 143.471 86.37 144.385C84.1459 146.523 81.6252 148.994 78.3507 149.155C76.8556 149.229 75.4717 148.759 74.409 147.672C73.3463 146.585 72.7038 145.139 72.0736 143.767C71.5423 142.581 69.7753 143.619 70.319 144.805Z" fill="black"/>
<path d="M59.8407 166.055C62.7321 166.104 65.5865 164.918 67.6006 162.83C67.9836 162.435 67.996 161.78 67.6006 161.384C67.2175 161.001 66.5379 160.989 66.1548 161.384C65.71 161.841 65.3146 162.187 64.8451 162.509C64.5979 162.682 64.3385 162.83 64.0666 162.978C63.9307 163.052 63.7948 163.114 63.6588 163.188C63.5847 163.225 63.5229 163.25 63.4488 163.287C63.4364 163.299 63.2264 163.386 63.3252 163.337C62.139 163.831 61.0516 164.029 59.8283 164.004C59.2723 163.991 58.8028 164.486 58.8028 165.029C58.8275 165.585 59.297 166.043 59.8407 166.055Z" fill="black"/>
<path d="M65.7348 158.593C65.7842 162.683 68.7127 166.292 72.7903 166.922C77.1892 167.614 81.4275 164.574 84.6031 161.868C85.604 161.015 84.1582 159.57 83.1574 160.422C81.7487 161.621 80.2289 162.671 78.6226 163.561C77.0656 164.426 75.4099 165.118 73.6058 164.969C70.2943 164.698 67.823 161.856 67.7859 158.581C67.7612 157.284 65.7224 157.271 65.7348 158.593Z" fill="black"/>
<path d="M58.7163 179.131C58.8275 183.098 63.1399 184.963 66.5997 184.902C70.6897 184.827 74.4214 182.64 77.461 180.058C78.4619 179.205 77.0162 177.772 76.0153 178.612C73.5935 180.651 70.6279 182.48 67.4029 182.801C65.0057 183.036 60.8416 182.22 60.7551 179.119C60.7304 177.821 58.6792 177.809 58.7163 179.131Z" fill="black"/>
<path d="M53.2671 190.83C52.1303 194.34 54.4904 198.516 58.0984 199.369C60.372 199.9 62.7198 199.047 64.7833 198.17C67.0198 197.231 69.108 196.02 71.0233 194.537C71.4681 194.204 71.6906 193.66 71.394 193.141C71.1469 192.709 70.4302 192.437 69.9977 192.77C68.4161 193.981 66.7232 195.044 64.9192 195.884C63.214 196.687 61.1628 197.602 59.2476 197.478C56.3685 197.293 54.3791 194.031 55.2441 191.374C55.6395 190.114 53.6748 189.582 53.2671 190.83Z" fill="black"/>
<path d="M48.411 201.111C47.3113 202.718 46.2734 204.522 46.7305 206.536C47.0889 208.167 48.4234 209.427 49.8567 210.193C53.3042 212.022 57.7896 211.899 61.3606 210.502C61.8672 210.305 62.2379 209.81 62.0772 209.242C61.9413 208.748 61.3359 208.328 60.8169 208.525C57.8884 209.662 54.3544 209.934 51.4136 208.674C50.3633 208.216 49.2018 207.463 48.8064 206.338C48.2627 204.831 49.3748 203.323 50.1903 202.137C50.9194 201.05 49.1524 200.024 48.411 201.111Z" fill="black"/>
<path d="M61.3729 207.709C60.3102 210.613 62.0031 213.69 64.3755 215.358C67.2299 217.372 71.048 217.199 74.3595 216.939C75.657 216.841 75.6693 214.789 74.3595 214.888C71.567 215.111 68.3543 215.37 65.8459 213.875C63.9554 212.751 62.5468 210.452 63.3499 208.265C63.5353 207.746 63.1399 207.141 62.6333 207.005C62.0649 206.832 61.5706 207.178 61.3729 207.709Z" fill="black"/>
<path d="M31.8286 203.881C30.7289 206.327 30.8154 209.281 32.3229 211.554C33.7439 213.692 36.1163 215.014 38.6741 215.138C39.9839 215.199 39.9839 213.148 38.6741 213.086C36.8701 213 35.0908 212.036 34.0899 210.516C33.0149 208.885 32.7925 206.698 33.5956 204.906C33.8181 204.4 33.7439 203.807 33.2249 203.51C32.7924 203.263 32.0511 203.374 31.8286 203.881Z" fill="black"/>
<path d="M22.7466 207.439C20.1889 208.946 19.2374 212.295 20.4483 214.952C20.6707 215.446 21.4121 215.594 21.8446 215.322C22.3512 215.001 22.4501 214.445 22.2153 213.926C22.1041 213.691 22.2524 214.05 22.203 213.901C22.1906 213.84 22.1535 213.778 22.1288 213.716C22.0918 213.592 22.0547 213.457 22.0176 213.321C22.0053 213.259 21.9929 213.185 21.9805 213.123C21.9558 212.999 21.9558 212.975 21.9805 213.111C21.9682 212.975 21.9558 212.839 21.9558 212.703C21.9558 212.567 21.9558 212.431 21.9558 212.295C21.9558 212.221 22.0176 211.825 21.9682 212.085C22.0176 211.813 22.067 211.554 22.1535 211.294C22.1906 211.158 22.24 211.035 22.2894 210.911C22.2647 210.985 22.24 211.035 22.2894 210.936C22.3265 210.862 22.3636 210.788 22.4007 210.713C22.5242 210.479 22.6725 210.281 22.8084 210.059C22.8702 209.96 22.6972 210.182 22.8208 210.046C22.8702 209.997 22.9073 209.947 22.9567 209.898C23.0432 209.799 23.142 209.7 23.2409 209.614C23.2903 209.564 23.3397 209.527 23.3892 209.478C23.5251 209.354 23.3027 209.527 23.4015 209.465C23.5251 209.391 23.6486 209.292 23.7722 209.218C24.2294 208.946 24.4394 208.279 24.1429 207.822C23.8463 207.34 23.2409 207.155 22.7466 207.439Z" fill="black"/>
<path d="M105.906 68.1441C106.56 73.7663 109.835 78.7336 113.455 83.0831C126.084 98.2074 145.15 108.686 164.834 107.907C169.022 107.747 173.359 107.03 176.832 104.682C180.44 102.248 182.763 98.3186 184.394 94.2904C186.544 88.9771 187.693 83.2437 187.755 77.5103C189.299 76.9543 190.411 79.0301 190.609 80.6488C191.585 89.0636 187.779 97.3671 182.652 104.114C181.033 106.251 179.229 108.315 176.906 109.662C173.026 111.923 168.269 111.886 163.783 111.787C158.285 111.664 152.699 111.528 147.473 109.822C143.963 108.673 140.726 106.857 137.501 105.04C130.297 100.975 123.044 96.8852 116.804 91.4484C110.576 86.0239 105.35 79.0919 103.36 71.0726C103.064 69.874 102.854 68.5148 103.521 67.4645C104.361 67.4151 105.152 68.243 105.053 69.0832" fill="#71CCB4"/>
<path d="M104.88 68.1439C105.93 76.1509 111.355 82.7616 116.853 88.3344C122.364 93.9195 128.765 98.6891 135.771 102.223C142.58 105.67 149.956 107.956 157.556 108.71C165.081 109.452 174.064 109.217 179.785 103.57C182.874 100.518 184.789 96.4526 186.198 92.3997C187.854 87.6053 188.694 82.5639 188.78 77.4978C188.533 77.8314 188.274 78.1527 188.027 78.4863C190.955 77.7943 189.213 88.4827 188.879 89.7183C187.829 93.7589 185.926 97.5276 183.615 101C181.366 104.373 178.685 108.018 174.78 109.563C171.049 111.046 166.86 110.835 162.918 110.749C158.569 110.65 154.17 110.502 149.919 109.464C145.644 108.414 141.813 106.301 138.008 104.163C130.68 100.036 123.266 95.8718 116.965 90.2373C113.752 87.3706 110.861 84.1208 108.55 80.4757C107.364 78.6099 106.338 76.6328 105.535 74.5693C104.831 72.7653 103.447 69.8368 104.386 67.9833C104.089 68.1563 103.793 68.3169 103.508 68.4899C103.681 68.6876 103.842 68.8853 104.015 69.083C104.077 70.3928 106.116 70.4052 106.066 69.083C105.992 67.5385 105.016 66.5994 103.521 66.4388C103.187 66.4017 102.792 66.6488 102.644 66.9454C101.704 68.7618 102.162 70.6523 102.705 72.5305C103.311 74.5817 104.126 76.5834 105.09 78.4863C107.079 82.3909 109.786 85.9496 112.838 89.0758C119.547 95.9583 127.974 100.814 136.265 105.498C140.541 107.907 144.841 110.341 149.66 111.478C154.528 112.627 159.582 112.714 164.562 112.8C168.998 112.874 173.73 112.763 177.635 110.378C181.317 108.129 184.023 104.25 186.247 100.654C188.99 96.2302 191.029 91.3123 191.61 86.1102C191.907 83.4412 192.29 75.3478 187.471 76.4969C187.026 76.5958 186.729 77.0406 186.717 77.4854C186.581 85.3318 184.69 94.4508 179.612 100.691C174.62 106.82 166.329 107.302 158.989 106.77C144.606 105.745 131.026 98.825 120.573 89.0881C114.654 83.5772 108.006 76.4845 106.919 68.1192C106.758 66.8589 104.707 66.8342 104.88 68.1439Z" fill="black"/>
<path d="M167.391 112.108C166.217 114.518 165.377 117.088 164.932 119.72C164.784 120.609 164.673 121.536 164.858 122.426C165.118 123.6 165.884 124.601 166.625 125.552C168.256 127.628 169.887 129.704 171.518 131.767C172.717 129.247 173.804 126.676 174.78 124.057C174.978 123.526 175.176 122.957 175.102 122.401C175.015 121.82 174.657 121.326 174.311 120.857C172.074 117.842 169.838 114.814 167.601 111.799" fill="#FFE04A"/>
<path d="M166.514 111.591C165.661 113.37 164.945 115.223 164.45 117.139C163.993 118.893 163.474 120.895 163.882 122.699C164.278 124.441 165.575 125.838 166.638 127.209C168.021 128.976 169.405 130.731 170.802 132.485C171.197 132.98 172.149 132.831 172.408 132.275C173.285 130.422 174.113 128.531 174.879 126.628C175.534 124.997 176.634 123.07 175.818 121.327C175.435 120.512 174.805 119.808 174.274 119.091C173.656 118.263 173.038 117.423 172.42 116.595C171.111 114.828 169.801 113.061 168.491 111.282C167.713 110.231 165.946 111.257 166.724 112.32C168.961 115.335 171.234 118.337 173.434 121.377C173.977 122.118 174.2 122.538 173.916 123.465C173.656 124.293 173.298 125.109 172.976 125.912C172.26 127.716 171.469 129.495 170.641 131.25C171.172 131.176 171.716 131.114 172.247 131.04C171.098 129.594 169.961 128.148 168.825 126.69C167.824 125.417 166.415 124.058 165.946 122.464C165.476 120.907 166.082 119.004 166.477 117.497C166.922 115.817 167.54 114.185 168.293 112.616C168.849 111.442 167.082 110.404 166.514 111.591Z" fill="black"/>
<path d="M111.923 222.352C111.75 224.267 111.849 226.195 112.146 228.098C112.232 228.629 112.924 228.963 113.406 228.815C113.987 228.629 114.209 228.123 114.123 227.554C114.098 227.431 114.086 227.307 114.073 227.183C114.061 227.109 114.061 227.109 114.073 227.196C114.061 227.146 114.061 227.097 114.049 227.035C114.024 226.813 113.999 226.578 113.974 226.356C113.937 225.923 113.913 225.478 113.9 225.033C113.876 224.131 113.9 223.242 113.987 222.352C114.036 221.821 113.48 221.302 112.961 221.327C112.356 221.351 111.973 221.784 111.923 222.352Z" fill="black"/>
<path d="M119.213 222.997C119.349 225.023 119.485 227.062 119.621 229.088C119.658 229.62 120.066 230.139 120.647 230.114C121.166 230.089 121.71 229.657 121.672 229.088C121.537 227.062 121.401 225.023 121.265 222.997C121.228 222.465 120.82 221.946 120.239 221.971C119.708 221.996 119.176 222.428 119.213 222.997Z" fill="black"/>
<path d="M163.388 221.697C163.487 223.736 163.598 225.774 163.697 227.813C163.721 228.345 164.142 228.864 164.722 228.839C165.254 228.814 165.773 228.394 165.748 227.813C165.649 225.774 165.538 223.736 165.439 221.697C165.414 221.166 164.994 220.647 164.413 220.671C163.882 220.696 163.363 221.128 163.388 221.697Z" fill="black"/>
<path d="M172.149 221.39C172.396 223.528 172.643 225.666 172.89 227.791C172.952 228.322 173.322 228.841 173.916 228.816C174.422 228.792 175.003 228.359 174.941 227.791C174.694 225.653 174.447 223.515 174.2 221.39C174.138 220.859 173.767 220.34 173.174 220.365C172.668 220.402 172.074 220.822 172.149 221.39Z" fill="black"/>
<path d="M210.824 176.821C213.456 174.646 216.521 173.077 219.634 171.718C221.204 171.026 222.822 170.259 224.466 169.765C226.319 169.209 227.197 170.297 227.691 171.965C228.197 173.67 228.457 175.474 228.704 177.229C228.741 177.476 228.951 178.155 228.803 178.378C228.679 178.551 228.099 178.736 227.938 178.798C227.048 179.181 226.159 179.552 225.257 179.898C221.821 181.232 218.288 182.332 214.692 183.172C213.666 183.407 212.641 183.666 211.603 183.827C211.059 183.913 210.589 184.025 210.392 183.407C210.231 182.937 210.194 182.381 210.108 181.899C209.947 180.861 209.848 179.823 209.786 178.773C209.762 178.378 209.514 176.623 210.108 176.425C211.356 176.005 210.812 174.028 209.564 174.448C207.612 175.103 207.649 177.253 207.76 178.971C207.834 180.132 207.957 181.294 208.143 182.431C208.316 183.493 208.415 184.704 209.317 185.408C210.046 185.989 210.96 185.977 211.837 185.841C213.11 185.643 214.371 185.334 215.619 185.038C218.053 184.457 220.462 183.753 222.835 182.95C225.071 182.183 227.493 181.417 229.581 180.281C231.608 179.181 230.681 176.475 230.36 174.658C230.014 172.718 229.73 170.432 228.407 168.863C226.925 167.109 224.799 167.393 222.872 168.159C218.115 170.049 213.357 172.063 209.378 175.363C208.365 176.215 209.811 177.649 210.824 176.821Z" fill="black"/>
<path d="M210.12 186.716C216.137 184.64 222.155 182.564 228.173 180.488C228.716 180.303 229.285 180.118 229.841 180.241C230.459 180.377 230.928 180.871 231.336 181.353C234.215 184.665 236.674 188.335 238.651 192.239C238.836 192.61 239.022 193.018 238.947 193.426C238.787 194.179 237.872 194.439 237.106 194.562C228.358 196.02 220.141 199.616 211.85 202.792C211.195 203.039 210.318 203.224 209.935 202.643C209.786 202.433 209.762 202.162 209.737 201.914C209.28 197.441 209.082 192.956 209.144 188.471C209.156 187.729 209.391 186.741 210.145 186.716" fill="#92D6E8"/>
<path d="M210.392 187.704C215.408 185.974 220.425 184.244 225.43 182.515C226.529 182.131 227.703 181.526 228.852 181.341C230.236 181.118 231.163 182.7 231.966 183.701C233.548 185.69 234.993 187.803 236.266 189.99C236.674 190.694 237.971 192.301 237.699 193.079C237.415 193.858 235.228 193.87 234.4 194.043C231.88 194.574 229.384 195.279 226.937 196.07C222.093 197.639 217.373 199.566 212.628 201.408C212.258 201.543 211.43 202.062 211.034 201.964C212.332 202.272 210.688 201.951 210.787 202.025C210.664 201.951 210.651 200.703 210.626 200.456C210.491 198.998 210.392 197.54 210.318 196.07C210.268 195.106 209.638 187.865 210.416 187.692C211.701 187.408 211.158 185.443 209.873 185.715C207.401 186.259 208.106 190.213 208.131 191.967C208.192 195.291 208.118 198.899 208.761 202.174C209.341 205.127 212.344 203.693 214.21 202.964C217.311 201.754 220.413 200.518 223.551 199.381C226.678 198.257 229.841 197.219 233.066 196.428C234.623 196.045 236.241 195.847 237.786 195.452C238.725 195.217 239.701 194.698 239.948 193.672C240.22 192.486 239.355 191.275 238.824 190.299C238.07 188.915 237.255 187.556 236.377 186.246C235.549 185.011 234.672 183.8 233.745 182.626C232.918 181.575 232.016 180.142 230.805 179.487C229.495 178.771 228.099 179.401 226.813 179.846C224.985 180.476 223.168 181.106 221.34 181.736C217.509 183.058 213.679 184.38 209.848 185.702C208.612 186.16 209.144 188.137 210.392 187.704Z" fill="black"/>
</svg>
