<svg width="160" height="191" viewBox="0 0 160 191" fill="none" xmlns="http://www.w3.org/2000/svg">
<path d="M46.2836 153.529C45.7399 159.561 44.3961 174.599 43.042 180.508C42.9086 181.103 42.7444 181.729 42.3033 182.159C41.8007 182.652 41.0416 182.765 40.3441 182.847C39.4927 182.949 38.4565 182.98 37.9846 182.262C37.6872 181.821 37.7385 181.236 37.7898 180.713C38.5694 172.824 39.1028 155.837 38.6309 147.928" fill="#E59E41"/>
<path d="M47.1246 153.529C46.7245 157.981 46.3142 162.443 45.8218 166.895C45.3397 171.337 44.8883 175.84 43.965 180.221C43.7496 181.257 43.5035 182.313 42.6213 182.98C41.7493 183.637 40.4054 183.811 39.3386 183.75C36.5176 183.596 36.9177 180.99 37.0921 178.928C37.5024 173.953 37.6973 168.947 37.8306 163.961C37.9743 158.627 38.0769 153.262 37.7692 147.938C37.7076 146.851 39.4001 146.851 39.4719 147.938C39.9746 156.719 39.6053 165.613 39.1026 174.384C38.9898 176.292 38.8667 178.2 38.6923 180.108C38.6513 180.59 38.4359 181.585 38.8565 181.944C39.2052 182.242 40.426 182.026 40.8158 181.924C42.1186 181.585 42.2109 180.354 42.4366 179.205C43.2367 175.143 43.6778 170.999 44.1189 166.895C44.6011 162.443 45.0114 157.991 45.4217 153.529C45.5243 152.452 47.2272 152.441 47.1246 153.529Z" fill="black"/>
<path d="M54.7672 146.656C51.9154 150.903 48.243 154.411 43.1344 154.206C37.2667 153.97 32.8044 144.974 32.8557 139.865" fill="#CC90D3"/>
<path d="M55.4954 147.087C52.6437 151.293 48.4994 155.406 43.0112 155.047C38.5591 154.76 35.3995 150.564 33.7069 146.82C32.7222 144.645 31.9939 142.265 31.9939 139.855C31.9939 138.757 33.6864 138.757 33.6967 139.855C33.6967 142.224 34.4866 144.615 35.5329 146.717C36.6203 148.882 38.1078 151.036 40.1799 152.349C45.5655 155.745 51.1665 150.431 54.0183 146.225C54.644 145.322 56.1109 146.174 55.4954 147.087Z" fill="black"/>
<path d="M56.5828 29.5791C55.9468 16.6948 45.3706 0.0970516 32.4965 0.917709C25.0593 1.38959 10.9235 -0.928769 6.34836 12.2428C2.57333 23.1062 3.65036 36.2367 9.72322 40.5452C11.6518 41.9198 15.7756 43.2226 18.9659 43.1508C17.5092 49.9725 16.1552 54.404 14.5344 60.8257C10.4619 76.89 2.72713 89.4358 9.22058 113.686C13.4162 129.361 26.0749 136.921 36.6101 143.897C43.2574 148.308 57.7112 148.841 65.6716 149.385C83.8081 150.636 102.129 146.01 118.46 138.029C122.759 136.829 129.119 134.48 129.826 132.346C137.643 132.346 152.836 124.221 159.124 123.462C148.845 117.195 133.776 110.496 127.836 100.033C124.287 93.7648 118.132 83.5784 113.598 77.9877C92.8866 52.4447 78.484 41.5813 56.7469 29.5894" fill="#CC90D3"/>
<path d="M55.7416 29.5791C55.3312 22.2239 52.1307 14.797 47.3401 9.23703C45.0012 6.52886 42.1392 4.11818 38.7848 2.79487C35.8817 1.65621 33.0915 1.81008 30.055 1.85111C24.4746 1.91266 18.4324 1.67673 13.4366 4.59006C10.472 6.3237 8.39995 9.09341 7.25104 12.3042C5.7841 16.387 5.04547 20.757 5.02496 25.086C5.00444 29.1892 5.58911 33.6516 7.80489 37.2009C10.113 40.8836 14.8215 42.33 18.9864 42.3095C19.5608 42.3095 19.9199 42.8532 19.8071 43.3866C18.2786 50.4956 16.4321 57.584 14.4215 64.5698C12.8315 70.0682 10.8927 75.464 9.51805 81.024C7.98958 87.22 7.29202 93.5595 7.72287 99.9401C8.22552 107.408 9.76425 115.317 13.488 121.882C16.6373 127.432 21.2432 131.956 26.2902 135.793C28.6701 137.598 31.1526 139.28 33.6454 140.932C35.9535 142.46 38.1795 144.061 40.8056 145.004C46.7349 147.159 53.2385 147.682 59.496 148.133C66.687 148.656 73.8268 149.005 81.0281 148.256C89.3167 147.405 97.4823 145.435 105.33 142.655C109.3 141.25 113.198 139.629 116.993 137.813C120.009 136.377 123.343 135.762 126.339 134.203C127.2 133.751 128.626 133.105 129.016 132.13C129.16 131.771 129.426 131.515 129.837 131.505C135.068 131.453 140.362 129.094 145.162 127.258C149.666 125.534 154.313 123.257 159.134 122.631C158.99 123.154 158.847 123.688 158.703 124.211C150.999 119.533 142.793 115.615 135.704 109.983C132.34 107.306 129.262 104.218 127.108 100.474C124.81 96.5036 122.492 92.5542 120.03 88.6869C114.501 79.9982 107.905 72.1301 100.909 64.5698C94.692 57.861 88.0344 51.5521 80.7716 45.9717C73.0882 40.063 64.7996 35.0262 56.3263 30.3382C55.3723 29.8047 56.2237 28.3378 57.188 28.8712C64.7072 33.0258 72.0932 37.4574 79.0277 42.5352C86.1982 47.7874 92.8353 53.7064 99.021 60.087C106.058 67.36 112.952 75.064 118.645 83.4449C121.363 87.4559 123.907 91.5899 126.369 95.765C127.405 97.5192 128.349 99.3452 129.478 101.038C130.698 102.864 132.165 104.505 133.755 106.023C141.223 113.142 150.856 117.441 159.585 122.744C160.365 123.216 159.944 124.221 159.155 124.324C157.062 124.591 155 125.37 153.03 126.078C150.322 127.053 147.655 128.119 144.967 129.145C140.208 130.961 135.027 133.156 129.857 133.208C130.134 133.002 130.401 132.787 130.678 132.582C129.755 134.9 126.667 136.018 124.554 136.88C122.923 137.547 121.251 138.121 119.558 138.614C117.517 139.219 115.588 140.357 113.629 141.209C105.832 144.584 97.6977 147.189 89.3475 148.749C81.1512 150.287 72.9036 150.708 64.5944 150.164C58.183 149.744 51.7306 149.385 45.4321 148.041C42.5906 147.436 39.7182 146.625 37.1639 145.199C34.5993 143.773 32.1784 141.989 29.7575 140.327C24.495 136.726 19.407 132.746 15.4268 127.719C10.7901 121.862 8.39987 115.112 7.04579 107.818C5.743 100.802 5.5481 93.6826 6.65598 86.6352C7.59973 80.6342 9.46674 74.8588 11.2824 69.0834C13.3546 62.5079 15.0781 55.8093 16.7502 49.121C17.2631 47.0693 17.7451 45.0074 18.1862 42.9352C18.4632 43.2943 18.7299 43.6533 19.0069 44.0124C15.1498 44.0329 10.4721 42.8429 7.76395 39.9193C5.26094 37.2112 4.15305 33.4567 3.66066 29.8765C3.04517 25.3732 3.3631 20.757 4.34789 16.3357C5.23009 12.3863 6.60474 8.40611 9.52832 5.48252C14.2471 0.76374 21.2329 0.230312 27.552 0.168763C30.4858 0.137989 33.5633 -0.210793 36.4561 0.343151C40.1491 1.05097 43.4728 3.09236 46.2117 5.60562C52.7462 11.6067 56.9725 20.7467 57.4649 29.5893C57.4957 30.6664 55.8031 30.6664 55.7416 29.5791Z" fill="black"/>
<path d="M9.8771 35.4776C6.98428 41.0067 3.96843 46.4744 0.839676 51.8702C7.04589 52.3831 12.9752 49.5313 18.5454 46.7616C19.4071 46.3308 20.3815 45.7666 20.5354 44.8023C20.6175 44.2894 20.4329 43.7662 20.2175 43.2841C18.5146 39.4783 14.5036 35.7443 10.3388 35.416" fill="#92D6E8"/>
<path d="M10.6055 35.9083C7.70244 41.4375 4.69673 46.9051 1.56797 52.301C1.32177 51.8701 1.07562 51.4495 0.839678 51.0187C6.95357 51.4598 12.6263 48.7721 17.9503 46.105C18.4427 45.8588 19.0172 45.6126 19.3967 45.192C19.961 44.5663 19.5608 43.8277 19.2326 43.1814C18.6684 42.053 17.9401 40.9964 17.0887 40.0629C15.3345 38.1344 12.9957 36.5136 10.3491 36.2571C9.27195 36.1545 9.26169 34.4517 10.3491 34.5543C13.4573 34.862 16.2065 36.5751 18.2889 38.8524C19.8482 40.5656 22.7717 44.1662 20.597 46.382C19.4994 47.5001 17.7656 48.0848 16.3808 48.7516C14.7907 49.5107 13.17 50.2391 11.5184 50.8648C8.11266 52.1574 4.51213 52.9677 0.849947 52.701C0.224195 52.66 -0.227251 52.0137 0.121529 51.4188C3.25028 46.0127 6.256 40.5553 9.15907 35.0261C9.65147 34.0824 11.1184 34.9338 10.6055 35.9083Z" fill="black"/>
<path d="M51.4228 46.9666C42.9701 61.4717 43.0214 80.5417 51.5459 95.0058C60.0705 109.47 76.7299 118.743 93.5123 118.384C93.6354 117.256 93.7585 116.127 93.8816 114.999C98.3747 118.969 104.427 121.133 110.418 120.918C110.202 119.113 109.987 117.307 109.772 115.502C113.967 118.559 118.85 120.692 123.948 121.698C124.051 119.79 124.143 117.892 124.246 115.984C127.211 117.666 130.38 118.99 133.653 119.903C133.232 102.063 126.657 84.4296 115.301 70.6631C103.945 56.8966 87.8703 47.1102 70.4313 43.3147" fill="#CC90D3"/>
<path d="M52.1615 47.3975C45.5039 58.9482 44.2114 73.2174 48.3557 85.8555C52.3256 97.9705 61.4964 107.726 72.9754 113.112C79.3868 116.117 86.4445 117.656 93.5329 117.533C93.2457 117.82 92.9687 118.097 92.6814 118.384C92.8045 117.256 92.9276 116.128 93.0507 114.999C93.1328 114.261 93.9124 113.891 94.4972 114.394C98.9082 118.21 104.601 120.221 110.428 120.056C110.141 120.344 109.864 120.621 109.577 120.908C109.361 119.102 109.146 117.297 108.93 115.492C108.859 114.876 109.71 114.404 110.213 114.763C114.408 117.779 119.127 119.841 124.184 120.877C123.825 121.154 123.466 121.421 123.107 121.698C123.21 119.79 123.302 117.892 123.405 115.984C123.436 115.338 124.102 114.927 124.687 115.256C127.611 116.887 130.678 118.169 133.899 119.092C133.54 119.369 133.181 119.636 132.822 119.913C132.453 105.797 128.277 91.8874 120.861 79.875C113.69 68.2627 103.473 58.7123 91.5223 52.1471C84.8442 48.4746 77.6634 45.7972 70.2159 44.1559C69.1491 43.92 69.6004 42.2786 70.6673 42.5146C84.0953 45.469 96.6821 51.8803 107.022 60.9383C117.722 70.3143 125.733 82.5114 130.278 95.9804C132.873 103.695 134.299 111.778 134.514 119.913C134.525 120.467 133.96 120.877 133.437 120.733C130.083 119.769 126.872 118.436 123.825 116.722C124.256 116.476 124.677 116.23 125.108 115.994C125.005 117.902 124.913 119.8 124.81 121.708C124.779 122.282 124.297 122.641 123.733 122.529C118.542 121.472 113.649 119.338 109.361 116.24C109.792 115.994 110.213 115.748 110.644 115.512C110.859 117.317 111.074 119.123 111.29 120.928C111.341 121.39 110.859 121.77 110.438 121.78C104.15 121.944 98.0567 119.728 93.3072 115.615C93.7893 115.409 94.2715 115.215 94.7536 115.009C94.6305 116.138 94.5074 117.266 94.3843 118.395C94.333 118.856 94.0355 119.236 93.5329 119.246C80.505 119.472 67.6206 114.148 58.337 105.028C48.6532 95.5085 43.6984 82.0908 44.3344 68.5704C44.6934 60.846 46.8375 53.2652 50.6946 46.5563C51.2383 45.5921 52.7052 46.4435 52.1615 47.3975Z" fill="black"/>
<path d="M28.4444 17.9052C29.6446 16.6639 31.7168 16.4998 33.2248 17.3512C34.7327 18.1924 35.6457 19.8953 35.7791 21.6187C35.8714 22.8189 35.574 24.1114 34.6918 24.9218C34.1378 25.4347 33.3992 25.7117 32.6504 25.7937C30.5782 26.0297 27.7469 24.7679 27.1007 22.7778C26.4544 20.7877 27.3571 18.4078 29.1728 17.3718" fill="#FFE04A"/>
<path d="M27.8495 17.3102C29.5011 15.6586 32.2811 15.5663 34.1378 16.9409C36.0458 18.3565 36.969 20.8801 36.5177 23.2087C36.292 24.3884 35.5945 25.4757 34.5379 26.081C33.4813 26.676 32.2709 26.7683 31.0912 26.5939C29.1113 26.2964 27.0083 25.0757 26.2903 23.1164C25.4183 20.7467 26.598 17.9154 28.7112 16.6434C29.6549 16.0792 30.5065 17.5461 29.573 18.1103C28.2804 18.8797 27.511 20.48 27.747 21.9777C27.9829 23.4241 29.2754 24.3371 30.6295 24.7474C32.0964 25.1885 34.025 25.0757 34.6815 23.4344C35.2868 21.9264 34.7943 19.9979 33.7172 18.8284C32.517 17.5359 30.3628 17.1974 29.0395 18.5104C28.2701 19.2798 27.0699 18.0796 27.8495 17.3102Z" fill="black"/>
<path d="M30.6397 19.7105C30.9167 19.4951 31.3066 19.4643 31.6348 19.5771C31.9631 19.69 32.24 19.9362 32.4452 20.2234C32.8042 20.7158 32.9683 21.4134 32.6708 21.9468C32.3938 22.4494 31.7476 22.6854 31.1937 22.5418C30.6397 22.3981 30.1986 21.9263 30.0345 21.3826C29.9217 21.003 29.9319 20.5722 30.1371 20.2337C30.3422 19.8951 30.7731 19.69 31.1526 19.8131" fill="black"/>
<path d="M30.2088 18.9822C30.65 18.6539 31.2962 18.5924 31.8193 18.7462C32.281 18.8899 32.6913 19.1771 32.9888 19.5464C33.6248 20.3363 33.9428 21.4852 33.3786 22.3982C32.8759 23.2188 31.7988 23.6189 30.8755 23.3214C29.9933 23.0342 29.2856 22.234 29.142 21.3108C29.0394 20.644 29.1624 19.9978 29.6241 19.4848C30.0446 19.013 30.7525 18.8078 31.368 18.9822C31.7989 19.1053 32.1066 19.5874 31.963 20.0285C31.8193 20.4594 31.3782 20.7569 30.9166 20.6235C30.8756 20.6132 30.8345 20.603 30.7935 20.5927C30.8653 20.603 30.9474 20.6132 31.0192 20.6235C30.9474 20.6132 30.8859 20.6132 30.814 20.6235C30.8859 20.6132 30.9679 20.603 31.0397 20.5927C30.9884 20.603 30.9268 20.6132 30.8755 20.6338C30.7319 20.6748 31.0602 20.5312 30.9269 20.6132C30.8858 20.6338 30.8551 20.6645 30.814 20.685C31.0192 20.5722 30.9064 20.6132 30.8449 20.6748C30.7115 20.8081 30.9269 20.5209 30.8654 20.6543C30.8449 20.6953 30.8243 20.7466 30.8038 20.7774C30.8551 20.644 30.8654 20.6235 30.8346 20.7056C30.8346 20.7158 30.8243 20.7363 30.8243 20.7466C30.8038 20.8082 30.7935 20.8697 30.7935 20.9312C30.8038 20.8594 30.8141 20.7774 30.8243 20.7056C30.8141 20.8287 30.8141 20.962 30.8243 21.0851C30.8141 21.0133 30.8038 20.9312 30.7935 20.8594C30.8038 20.9518 30.8243 21.0441 30.8551 21.1364C30.8654 21.1672 30.8756 21.2287 30.8961 21.2595C30.8756 21.2287 30.8037 21.0646 30.8755 21.198C30.9063 21.2698 30.9475 21.3416 30.9885 21.4031C31.0295 21.4647 31.1218 21.5467 30.9577 21.3723C30.9885 21.4031 31.0089 21.4339 31.0397 21.4647C31.091 21.5262 31.1526 21.5775 31.2141 21.6288C31.2859 21.6904 31.0397 21.516 31.1628 21.5878C31.2038 21.6083 31.2346 21.6288 31.2756 21.6596C31.3167 21.6801 31.3474 21.7006 31.3884 21.7211C31.1833 21.6083 31.2654 21.6698 31.3475 21.7006C31.4296 21.7211 31.5116 21.7416 31.5937 21.7519C31.5219 21.7416 31.4398 21.7314 31.368 21.7211C31.4911 21.7314 31.6142 21.7314 31.7373 21.7211C31.6655 21.7314 31.5833 21.7416 31.5115 21.7519C31.5731 21.7416 31.6347 21.7314 31.6962 21.7109C31.7373 21.7006 31.9116 21.6288 31.768 21.6904C31.6244 21.7519 31.8091 21.6596 31.8501 21.6391C31.8604 21.6288 31.9014 21.598 31.9219 21.598C31.9014 21.598 31.7476 21.7416 31.8604 21.6391C31.9014 21.598 31.9322 21.5673 31.9732 21.5262C32.0348 21.4647 31.8501 21.7109 31.9219 21.5878C31.9321 21.5673 31.9527 21.5467 31.963 21.516C31.963 21.5057 32.004 21.4442 32.004 21.4339C32.004 21.4339 31.9322 21.6391 31.963 21.516C31.9835 21.4442 32.004 21.3723 32.0143 21.3005C32.004 21.3723 31.9938 21.4544 31.9835 21.5262C32.004 21.3929 32.004 21.2595 31.9835 21.1262C31.9938 21.198 32.004 21.28 32.0143 21.3518C32.004 21.2595 31.9835 21.1672 31.9527 21.0851C31.9424 21.0441 31.9321 21.0133 31.9116 20.9723C31.8603 20.8389 31.9219 20.9723 31.9322 21.0236C31.9116 20.9415 31.8398 20.8492 31.7988 20.7774C31.7783 20.7466 31.7578 20.7158 31.7373 20.685C31.6347 20.5312 31.8194 20.7774 31.7578 20.7158C31.6963 20.6543 31.645 20.5927 31.5834 20.5312C31.5526 20.5004 31.5219 20.4696 31.4809 20.4389C31.5321 20.4696 31.6346 20.5517 31.5218 20.4799C31.491 20.4594 31.4603 20.4388 31.4295 20.4183C31.3577 20.3773 31.2654 20.3773 31.4706 20.4286C31.3783 20.4081 31.2962 20.3773 31.2039 20.3568C31.2757 20.367 31.3577 20.3773 31.4295 20.3876C31.3269 20.3773 31.2142 20.3773 31.1116 20.3876C31.1834 20.3773 31.2654 20.367 31.3372 20.3568C31.3167 20.3568 31.1218 20.3876 31.1218 20.4081C31.1218 20.4183 31.3064 20.3055 31.2039 20.3773C31.1628 20.3978 31.1321 20.4286 31.091 20.4491C30.9269 20.5722 30.6294 20.5825 30.4345 20.5312C30.2396 20.4799 30.0242 20.326 29.9319 20.1414C29.8293 19.9465 29.7779 19.7105 29.8497 19.4848C29.8907 19.2592 30.0242 19.1155 30.2088 18.9822Z" fill="black"/>
<path d="M89.4501 147.384C84.8954 151.949 79.2022 155.899 72.76 156.319C66.3281 156.74 59.3012 152.554 58.3985 146.164" fill="#CC90D3"/>
<path d="M90.0553 147.979C85.039 152.975 78.2891 157.684 70.8621 157.15C64.82 156.719 58.5933 152.688 57.588 146.379C57.4136 145.312 59.055 144.851 59.2294 145.928C60.1526 151.724 65.969 155.365 71.5597 155.488C78.3096 155.642 84.2902 151.323 88.8551 146.779C89.6347 146.01 90.8349 147.21 90.0553 147.979Z" fill="black"/>
<path d="M73.0575 153.878C74.7399 154.288 75.0373 156.525 74.9758 158.258C74.7604 163.993 74.5552 169.727 74.3398 175.472C74.2885 176.733 74.2474 178.026 74.6373 179.226C75.7964 182.878 80.5255 184.827 80.8743 188.643C80.3614 189.259 79.3663 188.756 78.7611 188.233C76.4427 186.232 74.1243 184.232 71.806 182.242C70.3083 184.919 68.308 187.31 65.9486 189.248C65.0664 189.966 63.7123 190.613 62.9019 189.813C61.9786 188.91 62.9121 187.402 63.8251 186.489C65.1279 185.186 66.441 183.883 67.7438 182.581C64.0816 182.765 60.4194 182.95 56.7572 183.124C56.152 183.155 55.3724 183.073 55.1877 182.498C54.9928 181.893 55.6391 181.37 56.2033 181.083C58.7678 179.77 61.6094 178.98 64.4919 178.795C65.2818 178.744 66.1229 178.723 66.759 178.252C67.6412 177.595 67.7643 176.344 67.8156 175.256C68.0926 169.409 68.3695 163.552 68.6362 157.704C68.6875 156.648 68.7593 155.519 69.3851 154.658C70.0108 153.796 71.3957 153.416 72.1343 154.186" fill="#92D6E8"/>
<path d="M73.2831 153.057C76.2785 154.022 75.8374 157.807 75.7451 160.279C75.581 164.67 75.4272 169.05 75.263 173.44C75.1912 175.451 74.8116 177.79 75.7246 179.667C76.3606 180.97 77.4275 181.996 78.4225 183.022C79.3868 184.017 80.3921 185.053 81.0281 186.294C81.4897 187.197 82.2283 188.797 81.141 189.494C79.6433 190.448 78.0122 188.694 76.9967 187.812C75.0681 186.15 73.1293 184.478 71.2007 182.816C71.6418 182.755 72.0932 182.704 72.5343 182.642C71.3751 184.673 69.9698 186.55 68.3182 188.202C67.1282 189.392 65.4049 191.238 63.5174 190.972C61.8042 190.725 61.3426 188.941 62.0094 187.535C62.4915 186.52 63.3327 185.76 64.1123 184.971C65.1176 183.965 66.1332 182.96 67.1385 181.944C67.3436 182.427 67.5386 182.909 67.7437 183.391C65.5793 183.493 63.4147 183.606 61.2503 183.709C60.1732 183.76 59.0858 183.811 58.0087 183.873C57.188 183.914 56.2853 184.058 55.4954 183.781C54.3362 183.36 53.9875 182.078 54.7466 181.124C55.7314 179.893 57.9061 179.298 59.3525 178.857C61.1682 178.292 63.0044 178.057 64.8919 177.892C66.2665 177.769 66.7897 177.092 66.9333 175.779C67.0461 174.682 67.0462 173.563 67.0975 172.466C67.3026 168.034 67.518 163.603 67.7232 159.181C67.8053 157.458 67.6514 155.294 68.8926 153.909C69.9185 152.77 71.5598 152.585 72.7395 153.55C73.5909 154.237 72.3805 155.437 71.5393 154.75C70.298 153.734 69.6107 156.135 69.5389 156.873C69.4261 157.971 69.426 159.089 69.3748 160.187C69.2722 162.361 69.1696 164.536 69.067 166.701C68.9644 168.875 68.8619 171.05 68.7593 173.215C68.6875 174.815 68.8721 176.826 67.9078 178.221C66.9025 179.667 65.1382 179.523 63.5892 179.698C61.4862 179.934 59.3833 180.508 57.4547 181.39C57.3316 181.442 56.3674 181.78 56.3469 181.955C56.2853 182.509 57.465 182.211 57.7625 182.201C58.7576 182.15 59.7628 182.098 60.7579 182.047C63.0865 181.934 65.4151 181.811 67.754 181.698C68.5029 181.657 68.8619 182.642 68.3592 183.145C67.1692 184.335 65.9793 185.504 64.7996 186.704C64.3688 187.145 63.5276 187.843 63.4558 188.51C63.3122 189.823 64.7176 189.074 65.251 188.694C67.6719 186.95 69.621 184.345 71.0879 181.78C71.3752 181.278 72.0111 181.257 72.4215 181.606C74.2269 183.155 76.0324 184.714 77.8276 186.263C78.2174 186.591 78.5969 186.94 78.9867 187.258C79.2329 187.494 79.4996 187.699 79.7971 187.884C79.992 188.315 80.0228 188.335 79.8894 187.915C79.7458 187.299 79.3765 186.725 79.0175 186.212C77.3146 183.822 74.586 182.17 73.7653 179.195C73.2114 177.185 73.5191 174.969 73.6011 172.907C73.6832 170.63 73.7653 168.352 73.8474 166.075C73.9294 163.798 74.0115 161.52 74.0936 159.243C74.1449 157.92 74.4936 155.201 72.842 154.668C71.7957 154.36 72.2471 152.719 73.2831 153.057Z" fill="black"/>
<path d="M20.8328 68.3242C22.2895 66.8471 23.9411 65.5648 25.7363 64.5185C26.0748 65.9649 26.1773 67.4523 26.0542 68.9295C26.5569 68.4474 27.0595 67.9755 27.5519 67.4933C27.7878 67.2779 28.0854 67.0317 28.3829 67.1343C28.7111 67.2369 28.7932 67.6575 28.8138 68.0062C29.0497 71.6376 28.4649 75.3203 27.1006 78.6953C26.4543 77.8644 25.2233 78.921 24.7514 79.8647C23.9102 81.5573 23.0691 83.2602 22.2177 84.9528C21.9817 84.0911 21.7356 83.2397 21.4996 82.378C20.0635 84.5015 18.6273 86.6352 17.1911 88.7586C16.8731 87.384 16.5552 85.9991 16.2372 84.6245C15.2934 86.2556 14.3599 87.8764 13.4162 89.5075C13.3238 87.5789 13.2315 85.6401 13.1392 83.7116C12.7083 84.3476 12.2672 84.9938 11.8364 85.6299C14.524 78.603 14.4009 70.4887 18.5042 64.1902C18.3708 64.7339 18.2272 65.2878 18.0938 65.8315C18.6068 65.1545 19.3044 64.621 20.084 64.2928C20.3917 64.8878 20.5251 65.575 20.4738 66.2418C20.8944 65.77 21.315 65.2981 21.7253 64.8262C21.715 65.7494 21.5304 66.6727 21.2021 67.5241" fill="#FFE04A"/>
<path d="M20.238 67.7191C21.7664 66.1906 23.4591 64.8878 25.3159 63.7799C25.7672 63.5132 26.4442 63.7492 26.5673 64.2826C26.8956 65.8213 27.0289 67.3498 26.9161 68.9193C26.4339 68.7141 25.9519 68.5192 25.4698 68.3141C26.2186 67.596 27.306 66.0367 28.5164 66.2829C29.7166 66.5291 29.7063 67.9345 29.7268 68.8988C29.8294 72.3148 29.1934 75.7307 27.9419 78.9108C27.706 79.5058 27.0289 79.752 26.5263 79.2903C26.0954 78.8903 24.7824 81.7626 24.6696 81.978C24.1054 83.1064 23.5412 84.2348 22.9872 85.3735C22.6487 86.0402 21.6229 85.8453 21.4382 85.1683C21.2023 84.3066 20.9561 83.4552 20.7202 82.5935C21.2331 82.6653 21.7563 82.7268 22.2692 82.7986C20.8331 84.9221 19.3968 87.0558 17.9607 89.1793C17.5709 89.7537 16.5861 89.7332 16.4117 88.9741C16.0937 87.5995 15.7757 86.2146 15.4577 84.84C15.9706 84.9118 16.4938 84.9734 17.0067 85.0452C16.063 86.6763 15.1295 88.2971 14.1857 89.9281C13.7446 90.6872 12.647 90.3179 12.6059 89.4973C12.5136 87.5687 12.4213 85.6299 12.3289 83.7014C12.8521 83.845 13.3856 83.9886 13.9087 84.1322C13.4779 84.7682 13.0368 85.4145 12.6059 86.0505C12.1033 86.7994 10.6979 86.348 11.0569 85.394C13.7138 78.2953 13.6522 70.2734 17.8171 63.7492C18.33 62.9388 19.6122 63.4517 19.3661 64.4057C19.2327 64.9494 19.0891 65.5033 18.9557 66.047C18.4838 65.77 18.0119 65.493 17.5401 65.2161C18.1453 64.4877 18.8532 63.9441 19.7047 63.544C20.0842 63.3696 20.6689 63.4004 20.8638 63.8517C21.2126 64.6416 21.387 65.3597 21.3665 66.2316C20.8843 66.0265 20.4022 65.8316 19.92 65.6264C20.3406 65.1545 20.7612 64.6826 21.1715 64.2108C21.6536 63.6671 22.6487 64.0979 22.618 64.816C22.5769 65.8316 22.4025 66.7753 22.064 67.7396C21.7049 68.7654 20.0636 68.3243 20.4227 67.2882C20.7099 66.4676 20.8843 65.6777 20.9151 64.816C21.3972 65.0212 21.8794 65.2161 22.3615 65.4212C21.9409 65.8931 21.5204 66.365 21.11 66.8369C20.6176 67.3908 19.6431 66.9497 19.6636 66.2316C19.6738 65.688 19.6123 65.2263 19.3866 64.7134C19.7764 64.816 20.1662 64.9186 20.5458 65.0212C19.8072 65.37 19.243 65.8008 18.73 66.4265C18.1658 67.1138 17.1195 66.365 17.3144 65.5956C17.4478 65.0519 17.5914 64.498 17.7248 63.9543C18.2377 64.1697 18.7609 64.3954 19.2738 64.6108C15.2115 71.0017 15.2935 78.9005 12.6879 85.8556C12.175 85.6402 11.6519 85.4145 11.1389 85.1991C11.5698 84.5631 12.0109 83.9168 12.4418 83.2808C12.9136 82.5832 13.9805 82.8499 14.0216 83.7116C14.1139 85.6402 14.2062 87.579 14.2986 89.5075C13.7754 89.3639 13.2419 89.2203 12.7188 89.0767C13.6625 87.4456 14.596 85.8248 15.5398 84.1938C15.8988 83.5783 16.9246 83.6809 17.0888 84.3989C17.4068 85.7735 17.7248 87.1584 18.0428 88.533C17.5299 88.4612 17.0067 88.3996 16.4938 88.3278C17.93 86.2044 19.3661 84.0707 20.8022 81.9472C21.2023 81.3522 22.1461 81.4138 22.3512 82.1524C22.5872 83.0141 22.8333 83.8655 23.0693 84.7272C22.5563 84.6554 22.0332 84.5938 21.5203 84.522C22.4332 82.6858 23.2129 80.388 24.4746 78.7877C25.3055 77.7414 26.6186 77.0643 27.7265 78.1004C27.2546 78.2235 26.7828 78.3466 26.3109 78.4799C27.1418 76.3565 27.7265 74.151 27.9316 71.8737C28.0342 70.8171 28.0651 69.7502 28.024 68.6936C28.0138 68.4679 28.0035 68.2423 27.9932 68.0166C28.2805 68.0884 28.2497 68.2217 27.8702 68.3961C27.6034 68.8167 27.0289 69.1963 26.6699 69.545C26.1672 70.0169 25.162 69.7092 25.2236 68.9398C25.3262 67.5242 25.2338 66.1393 24.9363 64.7545C25.3569 64.9186 25.7672 65.093 26.1878 65.2571C24.4542 66.2829 22.8847 67.5037 21.4588 68.9296C20.6586 69.6887 19.4584 68.4884 20.238 67.7191Z" fill="black"/>
<path d="M110.418 67.1858C105.176 74.3768 97.4515 79.4957 89.1937 82.8193C80.9358 86.143 72.1035 87.7945 63.3019 89.1076C65.6613 90.6771 68.3593 91.744 71.1598 92.2056C72.8524 92.4826 75.1502 92.103 75.3656 90.4104C76.5966 91.5696 77.9302 92.7698 79.5817 93.098C81.2436 93.4263 83.2747 92.4723 83.4594 90.8002C84.7109 92.5851 87.378 92.8826 89.3988 92.0415C91.4197 91.2003 92.9482 89.5282 94.4049 87.8971C95.7179 89.2409 97.3797 90.513 99.2467 90.3796C101.114 90.2463 102.735 87.9074 101.565 86.4405C103.186 87.3534 105.33 87.5996 106.869 86.543C108.407 85.4865 108.807 82.9116 107.34 81.7627C108.069 80.501 110.069 82.8091 111.341 82.1012C111.967 81.7525 111.998 80.8703 111.957 80.1522C111.823 78.2339 111.7 76.3053 111.567 74.3871C112.613 74.8795 113.66 75.3719 114.716 75.8642C115.28 72.9304 114.357 69.7401 112.305 67.5654" fill="#333333"/>
<path d="M111.146 67.6063C100.037 82.6654 81.059 87.3021 63.5174 89.9179C63.5892 89.405 63.6508 88.8818 63.7226 88.3689C65.6204 89.5999 67.6515 90.5232 69.8467 91.0668C71.088 91.3746 74.1552 92.0824 74.545 90.1846C74.6784 89.5281 75.5298 89.405 75.9607 89.8051C77.0378 90.8104 78.279 92.0311 79.8075 92.2773C81.0385 92.4722 82.4028 91.867 82.6388 90.5642C82.7413 89.9795 83.6748 89.7025 84.0543 90.1846C87.0497 94.052 91.6352 89.7025 93.7996 87.2918C94.1074 86.9533 94.6921 86.9841 94.9999 87.2918C96.0565 88.3484 97.4618 89.6307 99.0826 89.5281C100.303 89.446 101.637 88.0714 100.827 86.8712C100.324 86.1224 101.288 85.3428 101.986 85.7121C103.35 86.4199 105.32 86.8199 106.581 85.6813C107.535 84.8196 107.72 83.2501 106.735 82.3679C106.479 82.1422 106.387 81.6293 106.602 81.342C107.73 79.8238 108.982 81.0035 110.377 81.3215C111.557 81.5883 111.075 79.6905 111.023 78.9622C110.921 77.4439 110.818 75.9155 110.715 74.3973C110.664 73.6997 111.454 73.4125 111.998 73.6689C113.044 74.1613 114.09 74.6537 115.147 75.1461C114.726 75.3102 114.316 75.4846 113.896 75.6487C114.357 72.9508 113.536 70.2016 111.7 68.1808C110.972 67.3704 112.162 66.1702 112.9 66.9806C115.178 69.4938 116.101 72.7662 115.527 76.1001C115.424 76.6848 114.726 76.8182 114.275 76.6028C113.229 76.1104 112.182 75.618 111.126 75.1256C111.557 74.8794 111.977 74.6332 112.408 74.3973C112.511 75.9975 112.623 77.5978 112.726 79.1981C112.798 80.2444 112.983 81.4549 112.295 82.3474C111.813 82.9731 111.044 83.1578 110.295 83.0347C109.915 82.9731 108.069 82.1832 108.069 82.1935C108.028 81.855 107.977 81.5062 107.935 81.1677C109.505 82.5833 109.392 85.0966 108.028 86.625C106.263 88.6151 103.268 88.2971 101.124 87.179C101.514 86.7892 101.893 86.4096 102.283 86.0198C103.494 87.815 102.283 90.1128 100.457 90.9232C97.9953 92.0311 95.4513 90.1641 93.7894 88.5023C94.1895 88.5023 94.5896 88.5023 94.9896 88.5023C93.2765 90.4103 91.3685 92.4927 88.7834 93.1287C86.66 93.6519 84.239 93.1903 82.8439 91.3951C83.3158 91.272 83.7876 91.1489 84.2595 91.0156C83.9313 92.7902 82.2591 93.8878 80.5255 93.9904C78.2174 94.134 76.3197 92.4722 74.7502 91.0053C75.2221 90.8822 75.6939 90.7591 76.1658 90.6257C75.7247 92.8005 73.232 93.2929 71.3342 93.0774C68.3285 92.7287 65.3742 91.4669 62.8609 89.8358C62.3172 89.4871 62.2865 88.3997 63.0661 88.2869C80.0742 85.7531 98.8775 81.4036 109.679 66.7549C110.326 65.8829 111.803 66.7344 111.146 67.6063Z" fill="black"/>
<path d="M151.676 123.114C152.866 123.503 153.02 125.688 152.076 126.509C151.133 127.33 149.758 127.381 148.507 127.319C146.045 127.217 145.019 127.36 142.618 126.837C144.003 128.212 141.736 130.305 140.085 131.341C138.423 132.366 136.34 132.315 134.391 132.223C132.832 132.151 131.262 132.079 129.703 132.007C129.857 134.582 127.703 136.839 125.261 137.67C122.82 138.501 120.153 138.234 117.588 137.957C118.122 138.921 117.701 140.204 116.88 140.942C116.06 141.681 114.931 141.978 113.844 142.153C111.485 142.512 109.043 142.358 106.756 141.701" fill="#CC90D3"/>
<path d="M152.107 122.375C154.405 123.411 153.728 126.806 151.728 127.719C150.312 128.366 148.702 128.171 147.183 128.13C145.552 128.089 143.993 127.986 142.393 127.658C142.67 127.186 142.947 126.714 143.224 126.242C145.111 128.458 142.383 130.961 140.516 132.079C137.428 133.915 133.099 133.023 129.714 132.869C130.001 132.582 130.278 132.305 130.565 132.018C130.616 134.592 128.955 136.798 126.718 137.967C123.918 139.434 120.625 139.127 117.599 138.809C117.845 138.378 118.091 137.957 118.327 137.526C119.343 139.865 117.722 141.907 115.496 142.645C112.664 143.579 109.351 143.281 106.53 142.522C105.473 142.235 105.925 140.604 106.981 140.881C108.838 141.383 110.736 141.589 112.664 141.435C114.101 141.322 117.855 140.676 116.86 138.388C116.634 137.875 116.881 137.034 117.588 137.106C120.04 137.372 122.656 137.68 125.036 136.849C127.118 136.121 128.903 134.305 128.862 132.007C128.852 131.566 129.262 131.135 129.714 131.156C132.217 131.269 134.863 131.638 137.356 131.351C138.577 131.207 139.633 130.725 140.577 129.966C141.121 129.535 142.711 128.243 142.023 127.443C141.47 126.796 141.993 125.842 142.854 126.027C144.793 126.427 146.732 126.437 148.712 126.488C149.604 126.509 150.866 126.581 151.523 125.852C152.025 125.299 152.005 124.191 151.256 123.852C150.251 123.401 151.112 121.934 152.107 122.375Z" fill="black"/>
<path d="M19.9199 43.4893C14.4728 47.6234 8.17415 50.547 1.50631 52.0549C0.439455 52.3011 -0.0118465 50.6598 1.05501 50.4136C7.59975 48.9262 13.7137 46.0641 19.0582 42.0121C19.9302 41.3659 20.7713 42.8328 19.9199 43.4893Z" fill="black"/>
<path d="M9.52832 36.8728C10.9132 37.0062 12.2365 37.6935 13.129 38.7603C13.2828 38.9347 13.4264 39.1399 13.4366 39.3758C13.4571 39.7143 13.1905 39.9913 12.9545 40.2273C12.3083 40.8633 11.6518 41.4788 10.985 42.1045C10.8927 42.1866 10.8106 42.2686 10.6978 42.3199C10.3592 42.4635 10.0002 42.2071 9.69248 42.0122C9.10776 41.6326 8.41015 41.4275 7.71259 41.4275C8.18447 39.8477 8.78973 38.3192 9.52832 36.842" fill="#F9F9F9"/>
<path d="M9.52845 36.0212C10.4414 36.1135 11.3031 36.37 12.1033 36.8213C12.8419 37.2419 13.6522 37.8677 14.0728 38.6165C14.36 39.1192 14.3498 39.7244 14.0524 40.227C13.8062 40.6374 13.4163 40.9656 13.0675 41.2939C12.6982 41.6427 12.3289 42.0017 11.9596 42.3505C11.5493 42.7403 11.139 43.1814 10.5235 43.2019C9.90797 43.2122 9.46684 42.8224 8.95393 42.5659C8.7898 42.4838 8.59495 42.412 8.36927 42.3505C8.10255 42.2889 7.98969 42.2684 7.70246 42.2684C7.15877 42.2582 6.71775 41.735 6.88188 41.1913C7.37427 39.55 8.01026 37.9395 8.77962 36.411C8.98479 36.0007 9.56951 35.8878 9.93881 36.1032C10.3594 36.3494 10.4516 36.8521 10.2465 37.2624C9.53866 38.6781 8.97453 40.1245 8.52317 41.6427C8.24619 41.2836 7.97943 40.9246 7.70246 40.5656C8.24614 40.5758 8.78988 40.6681 9.29253 40.863C9.54899 40.9656 9.79516 41.0785 10.0311 41.2118C10.1132 41.2631 10.1952 41.3144 10.2773 41.3657C10.3286 41.3965 10.3902 41.4375 10.4414 41.4683C10.5338 41.5196 10.5542 41.5298 10.4927 41.4991C10.6465 41.5298 10.6055 41.5401 10.3901 41.5196C10.3696 41.5298 10.3491 41.5401 10.3389 41.5504C10.3389 41.5504 10.5132 41.3862 10.5543 41.3452C10.7492 41.1605 10.944 40.9861 11.1287 40.8015C11.5287 40.4219 11.9186 40.0526 12.3084 39.6628C12.3802 39.591 12.4623 39.5192 12.5239 39.4372C12.5957 39.3551 12.5956 39.3448 12.5546 39.4064C12.6059 39.3141 12.6059 39.3141 12.5751 39.3859C12.5854 39.3551 12.5854 39.3346 12.5956 39.3038C12.5751 39.3448 12.5751 39.3859 12.5751 39.4269C12.6059 39.4987 12.5956 39.4884 12.5443 39.3961C12.4828 39.3141 12.4726 39.3038 12.5136 39.3551C12.2674 39.0473 11.9186 38.7396 11.6827 38.5755C11.5083 38.4524 11.3338 38.3395 11.1389 38.2369C11.0364 38.1754 10.9236 38.1241 10.8107 38.0728C10.5645 37.9497 10.9338 38.1138 10.6774 38.0215C10.4825 37.9497 10.2773 37.8779 10.0722 37.8266C9.95933 37.7958 9.83614 37.7753 9.7233 37.7446C9.66175 37.7343 9.60028 37.724 9.54899 37.7138C9.6208 37.724 9.6105 37.724 9.50792 37.7138C9.05655 37.6625 8.65653 37.3547 8.65653 36.8623C8.67704 36.452 9.06683 35.9801 9.52845 36.0212Z" fill="black"/>
<path d="M36.4768 1.85108C26.8443 6.01592 17.2221 10.1807 7.58962 14.3456C6.16373 14.9611 4.68658 15.6176 3.6505 16.787C2.62468 17.9565 2.26566 22.0803 3.15813 23.3626C4.4917 24.2345 6.24576 23.5677 7.68191 22.8804C18.6787 17.659 32.7736 12.335 43.7704 7.11355C44.3756 6.82632 45.0116 6.50831 45.3296 5.92359C45.9349 4.79519 41.6879 1.17404 40.4262 0.938102C39.1644 0.702163 37.8103 1.11249 36.6922 1.73824" fill="#F9F9F9"/>
<path d="M36.9075 2.58972C30.0755 5.54409 23.2435 8.49845 16.4116 11.4528C13.1495 12.8684 9.77456 14.1405 6.59451 15.7305C5.48662 16.2844 4.32745 16.941 3.90686 18.1617C3.52731 19.2696 3.41449 20.5826 3.54785 21.7521C3.6094 22.2547 3.61956 22.6753 4.09144 22.8599C4.76848 23.1369 5.70205 22.7881 6.34832 22.5522C7.95886 21.947 9.5181 21.0955 11.0876 20.3877C14.0522 19.0439 17.0476 17.7616 20.0533 16.4896C26.0954 13.925 32.1683 11.4323 38.1693 8.76517C39.7901 8.04709 41.4006 7.31876 42.9906 6.55965C43.3189 6.40578 44.5191 5.96467 44.5499 5.63641C44.5807 5.32866 44.0267 4.77472 43.8625 4.57982C43.1342 3.73864 42.2726 2.96928 41.3493 2.35379C39.9645 1.42029 38.6104 1.69725 37.1435 2.46662C36.1792 2.96927 35.3174 1.51261 36.2817 0.999703C37.6358 0.291886 39.3285 -0.303096 40.857 0.168782C41.7802 0.456012 42.6008 1.14331 43.3291 1.73829C44.5293 2.71282 47.1452 4.85679 45.8937 6.6212C45.0217 7.85218 43.0625 8.39587 41.7597 8.99084C40.0466 9.77047 38.3334 10.5398 36.61 11.2887C33.0094 12.8582 29.3779 14.3764 25.7568 15.9049C22.0023 17.4846 18.2478 19.0644 14.5241 20.7057C12.7597 21.4854 10.9952 22.2752 9.25135 23.0856C7.79469 23.7627 6.26619 24.6346 4.61462 24.6244C3.20924 24.6141 2.29633 23.9986 1.98858 22.6548C1.71161 21.4238 1.78343 20.1005 1.99885 18.8592C2.21427 17.5975 2.6348 16.5101 3.60933 15.6484C4.90187 14.5098 6.54319 13.884 8.10244 13.2172C17.4169 9.18575 26.7416 5.15427 36.0561 1.1228C37.0409 0.691951 37.9025 2.15888 36.9075 2.58972Z" fill="black"/>
<path d="M43.5446 5.18489C37.1743 7.99564 30.8962 11.0116 24.4848 13.7095C21.1816 15.1046 17.8272 16.3561 14.5344 17.7922C11.1081 19.2797 7.7126 20.8287 4.22481 22.1827C3.20925 22.5828 2.7682 20.9415 3.77351 20.5414C7.34336 19.1463 10.8311 17.546 14.3497 16.0278C17.4887 14.6737 20.6892 13.4838 23.8282 12.1502C30.1678 9.47283 36.3843 6.48769 42.6828 3.70772C43.6779 3.27687 44.5397 4.74379 43.5446 5.18489Z" fill="#E59E41"/>
<path d="M41.2569 3.53354C34.9994 6.30326 28.7523 9.06272 22.4948 11.8324C19.4481 13.1763 16.4013 14.5304 13.3547 15.8742C11.8159 16.5512 10.2669 17.2077 8.74873 17.9258C7.35361 18.5926 5.9995 19.3107 4.49155 19.7005C3.43495 19.9672 2.98365 18.3361 4.04025 18.0592C5.62001 17.6591 7.02536 16.8487 8.50254 16.1717C9.97972 15.5049 11.4774 14.8586 12.9546 14.2021C16.0013 12.8583 19.048 11.5042 22.0947 10.1603C28.1881 7.46244 34.2916 4.76453 40.385 2.06662C41.3903 1.62551 42.252 3.09244 41.2569 3.53354Z" fill="#92D6E8"/>
</svg>
