<svg width="340" height="204" viewBox="0 0 340 204" fill="none" xmlns="http://www.w3.org/2000/svg">
<path d="M212.768 127.01C155.8 124.147 0.481859 131.094 29.157 178.376C45.3915 205.141 127.356 202.828 164.694 203.066C208.397 203.345 294.972 206.944 312.15 174.431C328.591 143.308 263.63 128.55 211.658 126.791" fill="#A3896B"/>
<path d="M212.768 126.329C204.269 125.903 195.754 125.767 187.246 125.775C176.705 125.787 166.159 126.042 155.629 126.516C144.256 127.029 132.894 127.802 121.564 128.908C110.405 129.995 99.2703 131.397 88.223 133.311C78.37 135.019 68.5529 137.117 58.9945 140.075C51.4545 142.412 43.8668 145.254 37.1946 149.542C32.4134 152.611 27.7915 156.68 25.8567 162.186C23.9538 167.608 25.4308 173.328 28.2254 178.149C32.5169 185.562 40.5068 189.901 48.2498 192.891C59.0105 197.047 70.5554 199.085 81.9569 200.542C94.8195 202.187 107.786 202.939 120.74 203.333C132.48 203.691 144.224 203.719 155.972 203.727C166.477 203.735 176.983 203.902 187.489 203.97C200.26 204.058 213.039 203.978 225.798 203.397C238.653 202.808 251.531 201.749 264.219 199.543C275.107 197.648 286.146 194.957 296.031 189.881C303.766 185.908 310.956 180.076 314.125 171.732C315.55 167.974 315.892 163.834 314.666 159.972C313.42 156.051 310.789 152.731 307.739 150.032C299.204 142.48 287.647 138.451 276.866 135.381C262.758 131.365 248.159 129.044 233.581 127.579C226.292 126.846 218.983 126.361 211.662 126.106C210.782 126.074 210.782 127.443 211.662 127.471C226.563 127.985 241.459 129.426 256.137 132.061C269.072 134.382 282.201 137.499 294.152 143.101C301.931 146.747 311.33 152.273 313.611 161.25C315.713 169.526 310.374 177.751 304.292 182.879C296.74 189.244 286.994 192.752 277.575 195.256C265.744 198.401 253.53 200.005 241.348 201.032C228.525 202.115 215.651 202.505 202.788 202.605C191.418 202.692 180.053 202.521 168.683 202.413C158.408 202.314 148.133 202.39 137.858 202.29C125.346 202.171 112.834 201.844 100.349 200.956C88.0996 200.089 75.8143 198.747 63.8195 196.052C54.3328 193.918 44.3843 191 36.4621 185.136C31.247 181.274 26.9157 175.271 26.3942 168.627C25.9841 163.372 28.4882 158.738 32.1786 155.159C37.119 150.362 43.5961 147.213 49.9258 144.689C58.3894 141.317 67.2472 138.968 76.1367 137.038C86.5152 134.78 97.021 133.128 107.559 131.815C118.698 130.425 129.884 129.418 141.083 128.678C151.879 127.965 162.691 127.507 173.508 127.284C182.855 127.089 192.207 127.065 201.554 127.284C205.296 127.372 209.034 127.499 212.772 127.686C213.648 127.738 213.648 126.373 212.768 126.329Z" fill="black"/>
<path d="M121.552 79.6236C121.687 89.3253 129.331 98.2547 138.312 100.918C144.056 102.622 150.044 102.423 155.613 100.205C159.26 98.7523 165.008 97.3072 166.931 93.4894C169.137 98.2587 161.967 101.029 158.336 102.701C154.323 104.549 149.646 104.668 145.219 104.664C136.373 104.66 125.82 100.058 121.062 91.9846C118.626 87.8523 118.053 82.2352 118.12 77.5575" fill="#424242"/>
<path d="M120.891 79.6236C121.03 87.518 125.847 94.8231 132.432 98.9593C136.079 101.248 140.31 102.447 144.598 102.678C146.998 102.809 149.423 102.602 151.768 102.084C153.838 101.627 155.777 100.83 157.763 100.11C161.294 98.828 165.661 97.4028 167.509 93.8238C167.126 93.8238 166.744 93.8238 166.362 93.8238C167.931 97.3152 163.309 99.6321 160.82 100.834C158.902 101.762 156.955 102.682 154.877 103.187C152.182 103.844 149.391 103.967 146.628 103.995C144.387 104.015 142.181 103.912 139.976 103.486C137.743 103.052 135.545 102.387 133.455 101.479C129.391 99.7157 125.561 97.0843 122.882 93.5133C119.45 88.9431 118.713 83.1309 118.785 77.5615C118.797 76.7056 117.467 76.7056 117.459 77.5615C117.392 82.8084 117.993 88.4694 120.895 92.9759C123.483 96.9967 127.388 100.058 131.668 102.116C135.935 104.166 140.653 105.329 145.398 105.329C148.34 105.329 151.306 105.261 154.204 104.696C156.557 104.234 158.703 103.287 160.864 102.279C163.854 100.886 168.579 98.5572 167.95 94.5325C167.875 94.0468 167.708 93.6009 167.509 93.155C167.306 92.7012 166.577 92.741 166.362 93.155C164.833 96.1169 161.258 97.4187 158.32 98.4975C156.617 99.1226 154.921 99.8352 153.177 100.349C150.975 101.002 148.694 101.352 146.397 101.384C142.217 101.447 137.95 100.528 134.275 98.5015C131.055 96.726 128.24 94.1901 126.138 91.1725C123.773 87.7767 122.288 83.7758 122.217 79.6197C122.201 78.7717 120.875 78.7677 120.891 79.6236Z" fill="black"/>
<path d="M114.35 124.74C114.35 127.244 114.522 129.689 114.522 132.209C114.522 132.786 114.247 134.51 114.689 134.999C115.624 136.026 116.289 134.633 116.568 133.837C117.822 130.278 116.01 125.353 116.062 121.651" fill="#FFE35B"/>
<path d="M113.801 124.74C113.805 127.037 113.948 129.33 113.968 131.627C113.98 132.862 113.419 134.832 114.621 135.664C116.09 136.683 117.006 134.442 117.276 133.367C117.726 131.576 117.563 129.689 117.32 127.877C117.045 125.811 116.588 123.745 116.604 121.651C116.607 120.946 115.517 120.946 115.513 121.651C115.489 124.904 116.576 128.068 116.452 131.329C116.424 132.085 116.321 132.834 116.082 133.554C115.986 133.849 115.688 134.796 115.33 134.816C114.868 134.84 114.975 133.69 114.983 133.447C115.011 132.806 115.063 132.173 115.055 131.528C115.031 129.263 114.892 127.001 114.888 124.736C114.892 124.04 113.801 124.036 113.801 124.74Z" fill="black"/>
<path d="M113.662 78.5965C114.776 87.3029 113.403 94.7195 113.403 103.557C113.403 108.991 112.857 118.008 114.004 123.223C114.967 127.611 116.412 124.868 116.404 121.532C116.401 119.318 116.062 117.061 116.062 114.792C116.066 108.358 116.07 101.925 116.062 95.4919C116.054 89.8189 117.165 83.8873 116.747 78.2542" fill="#424242"/>
<path d="M112.997 78.5964C113.865 85.4796 113.124 92.3508 112.838 99.2419C112.714 102.208 112.734 105.182 112.674 108.151C112.619 111.038 112.567 113.928 112.67 116.81C112.718 118.183 112.802 119.557 112.965 120.918C113.116 122.18 113.283 123.498 113.733 124.692C114.024 125.453 114.689 126.555 115.668 126.03C116.448 125.612 116.715 124.501 116.866 123.705C117.145 122.228 117.073 120.727 116.97 119.238C116.846 117.419 116.723 115.62 116.723 113.796C116.727 110.05 116.727 106.3 116.727 102.554C116.727 98.9115 116.631 95.2609 116.858 91.6262C117.085 88.0433 117.507 84.4684 117.503 80.8736C117.503 79.9977 117.471 79.1259 117.408 78.2541C117.348 77.4061 116.018 77.3982 116.082 78.2541C116.325 81.6658 116.034 85.0815 115.764 88.4852C115.628 90.1931 115.493 91.9049 115.429 93.6167C115.365 95.3684 115.397 97.124 115.397 98.8796C115.401 102.462 115.397 106.041 115.397 109.624C115.397 111.412 115.381 113.203 115.397 114.991C115.413 116.734 115.612 118.466 115.7 120.202C115.764 121.48 115.787 122.785 115.429 124.024C115.377 124.199 115.326 124.374 115.246 124.537C115.178 124.684 115.055 124.816 115.035 124.872C115.031 124.879 115.035 124.864 115.055 124.864C115.103 124.864 115.298 124.887 115.33 124.879C115.298 124.887 115.302 124.883 115.278 124.84C115.242 124.772 115.202 124.736 115.15 124.641C114.609 123.653 114.478 122.356 114.33 121.257C114.163 119.987 114.076 118.701 114.016 117.423C113.892 114.66 113.928 111.893 113.98 109.131C114.032 106.404 114.028 103.677 114.103 100.95C114.287 94.3572 115.099 87.7726 114.589 81.1761C114.521 80.3162 114.434 79.4563 114.326 78.6004C114.283 78.2421 114.052 77.9396 113.662 77.9356C113.339 77.9276 112.953 78.2381 112.997 78.5964Z" fill="black"/>
<path d="M167.118 159.49C162.739 159.49 155.812 158.165 152.281 161.111C149.928 163.073 150.004 166.557 146.811 168.177C144.419 169.391 140.235 168.647 137.603 168.806C133.379 169.061 122.961 171.74 132.03 173.738C137.814 175.012 144.148 172.54 150.128 174.12C153.054 174.893 154.857 176.238 158.46 175.944C162.011 175.649 166.123 173.957 169.762 174.821C176.171 176.342 178.791 180.645 186.295 179.367C192.282 178.348 196.964 175.51 203.19 175.932C208.254 176.278 212.956 177.879 218.083 178.121C225.675 178.484 233.02 178.659 240.504 177.64C242.077 177.425 248.832 177.174 248.848 174.829C248.864 172.062 241.862 171.593 240.022 170.884C242.674 166.596 251.225 168.491 255.731 167.596C262.945 166.158 263.853 159.562 257.224 155.625C252.973 153.101 244.811 154.514 239.935 154.554C233.183 154.61 226.527 155.103 219.723 155.103" fill="#F9F9F9"/>
<path d="M167.118 158.941C164.18 158.933 161.254 158.523 158.312 158.682C155.601 158.829 152.675 159.454 150.948 161.736C149.299 163.913 148.81 167.054 145.868 167.962C143.045 168.834 139.976 168.026 137.086 168.296C135.724 168.424 126.21 169.749 128.105 172.596C128.646 173.408 129.868 173.734 130.744 173.977C132.5 174.471 134.307 174.674 136.126 174.658C139.952 174.63 143.762 173.838 147.592 174.216C150.836 174.535 153.694 176.366 156.959 176.517C160.633 176.684 164.129 175.04 167.803 175.124C170.833 175.195 173.599 176.76 176.243 178.082C178.751 179.336 181.323 180.239 184.161 180.136C187.748 180.008 191.191 178.691 194.599 177.691C196.335 177.182 198.102 176.728 199.91 176.541C201.845 176.338 203.779 176.473 205.702 176.744C209.607 177.297 213.429 178.344 217.374 178.623C221.543 178.922 225.758 179.001 229.938 178.934C232.044 178.902 234.146 178.81 236.244 178.643C237.857 178.512 239.457 178.281 241.069 178.121C243.147 177.914 245.337 177.795 247.304 177.031C248.096 176.72 248.991 176.258 249.294 175.398C249.573 174.602 249.238 173.754 248.661 173.185C247.941 172.472 246.929 172.078 245.986 171.772C244.883 171.413 243.741 171.175 242.606 170.94C241.794 170.772 240.95 170.649 240.174 170.358C240.281 170.625 240.393 170.892 240.5 171.159C241.555 169.507 243.565 168.937 245.401 168.678C247.538 168.38 249.716 168.456 251.87 168.428C255.584 168.384 260.457 167.767 261.946 163.73C263.435 159.701 259.585 155.804 256.106 154.494C253.9 153.662 251.432 153.559 249.099 153.575C246.623 153.59 244.159 153.821 241.686 153.945C238.239 154.12 234.775 154.108 231.328 154.239C227.462 154.387 223.601 154.546 219.731 154.55C219.031 154.55 219.027 155.641 219.731 155.641C226.308 155.637 232.872 155.171 239.445 155.099C244.123 155.048 248.916 154.156 253.566 154.956C255.799 155.338 257.778 156.314 259.354 157.966C260.552 159.224 261.452 160.971 261.09 162.751C260.246 166.851 255.082 167.301 251.714 167.337C249.362 167.361 246.989 167.293 244.664 167.695C242.666 168.038 240.687 168.834 239.557 170.605C239.354 170.924 239.568 171.29 239.883 171.405C241.702 172.078 243.717 172.19 245.572 172.775C246.424 173.046 249.481 174.264 247.873 175.51C247.116 176.095 246.038 176.31 245.122 176.497C244.115 176.7 243.092 176.824 242.069 176.927C238.955 177.238 235.862 177.628 232.733 177.759C228.756 177.926 224.775 177.847 220.802 177.687C218.851 177.608 216.905 177.54 214.974 177.265C213.071 176.995 211.184 176.605 209.297 176.246C205.722 175.566 202.151 175.04 198.528 175.629C195.101 176.187 191.864 177.5 188.508 178.336C185.475 179.093 182.461 179.367 179.467 178.308C177.047 177.453 174.873 176.031 172.481 175.096C171.02 174.527 169.495 174.085 167.919 174.033C166.223 173.977 164.531 174.288 162.875 174.622C161.131 174.972 159.375 175.414 157.588 175.43C156.043 175.446 154.598 175.064 153.157 174.546C151.704 174.025 150.275 173.507 148.746 173.269C146.927 172.982 145.088 172.982 143.252 173.093C139.661 173.308 135.971 173.977 132.396 173.253C131.377 173.046 129.908 172.827 129.108 172.082C129.004 171.987 129.02 171.975 128.988 171.923C128.965 171.883 129.004 171.875 128.988 171.899C129.116 171.704 129.323 171.529 129.57 171.378C131.246 170.354 133.411 169.96 135.318 169.63C137.818 169.196 140.267 169.447 142.783 169.427C144.188 169.415 145.669 169.311 146.963 168.706C148.161 168.145 149.092 167.178 149.777 166.063C150.454 164.96 150.908 163.734 151.632 162.659C152.381 161.549 153.475 160.812 154.733 160.39C157.441 159.478 160.442 159.693 163.245 159.857C164.539 159.932 165.836 160.028 167.13 160.032C167.823 160.036 167.823 158.945 167.118 158.941Z" fill="black"/>
<path d="M98.3426 167.162C96.7462 166.019 87.6098 163.69 87.9323 166.62C88.0836 167.998 95.5599 168.312 97.5225 168.531" fill="#D6A4DA"/>
<path d="M98.6174 166.688C98.1357 166.35 97.5505 166.139 96.9971 165.94C96.2128 165.653 95.4047 165.426 94.5926 165.231C92.9285 164.833 91.1092 164.479 89.3934 164.721C88.8082 164.805 88.1872 164.98 87.7731 165.426C87.387 165.844 87.2158 166.573 87.5263 167.082C87.8448 167.604 88.5375 167.835 89.0869 167.998C89.9269 168.249 90.8067 168.384 91.6745 168.503C93.6133 168.77 95.5679 168.862 97.5146 169.073C98.2113 169.148 98.2073 168.057 97.5146 167.982C96.0496 167.823 94.5766 167.747 93.1116 167.588C92.2517 167.496 91.3919 167.385 90.5439 167.221C89.9348 167.102 89.2461 166.979 88.7087 166.688C88.6052 166.632 88.5255 166.577 88.5096 166.565C88.4181 166.485 88.4778 166.501 88.4658 166.541C88.4618 166.549 88.4539 166.493 88.4658 166.385C88.4658 166.389 88.4897 166.286 88.5255 166.226C88.5375 166.206 88.5773 166.147 88.6728 166.075C88.633 166.107 88.84 165.983 88.8958 165.959C89.0351 165.9 89.3854 165.816 89.6084 165.788C91.0694 165.597 92.6299 165.904 94.0512 166.23C94.8951 166.425 95.7311 166.656 96.5472 166.943C97.0688 167.126 97.6062 167.317 98.064 167.635C98.6412 168.038 99.1906 167.09 98.6174 166.688Z" fill="black"/>
<path d="M237.952 98.5891C237.817 102.65 238.597 109.963 239.664 110.234C241.718 110.234 240.484 104.891 239.596 96.3956" fill="#D6A4DA"/>
<path d="M237.407 98.5891C237.339 100.743 237.474 102.916 237.717 105.058C237.833 106.069 237.968 107.081 238.175 108.076C238.318 108.757 238.474 109.481 238.808 110.102C239.075 110.6 239.493 110.89 240.07 110.731C240.568 110.596 240.89 110.194 241.069 109.732C241.583 108.402 241.316 106.714 241.181 105.345C240.89 102.359 240.456 99.3853 240.138 96.4035C240.066 95.7108 238.971 95.7028 239.047 96.4035C239.314 98.9314 239.652 101.451 239.943 103.975C240.122 105.528 240.397 107.196 240.19 108.761C240.17 108.92 240.122 109.143 240.062 109.318C240.03 109.409 239.935 109.577 239.887 109.62C239.923 109.589 239.764 109.688 239.859 109.652C239.851 109.656 239.791 109.668 239.779 109.676C239.684 109.772 239.736 109.612 239.756 109.684C239.74 109.684 239.724 109.684 239.712 109.688C239.891 109.756 239.939 109.768 239.855 109.728C239.99 109.764 239.875 109.792 239.867 109.732C239.863 109.708 239.815 109.668 239.748 109.549C239.493 109.071 239.365 108.438 239.246 107.889C239.055 106.997 238.924 106.093 238.82 105.19C238.565 103.004 238.426 100.791 238.494 98.593C238.521 97.8844 237.427 97.8884 237.407 98.5891Z" fill="black"/>
<path d="M289.056 169.626C287.09 170.195 284.98 170.701 283.049 171.326C284.597 174.925 290.047 171.031 291.52 169.077" fill="#FFE35B"/>
<path d="M288.909 169.1C286.91 169.678 284.884 170.163 282.902 170.8C282.539 170.916 282.428 171.274 282.575 171.601C282.957 172.456 283.674 173.117 284.613 173.284C285.561 173.456 286.516 173.205 287.388 172.839C289.136 172.102 290.832 170.864 291.99 169.351C292.169 169.116 292.026 168.742 291.795 168.603C291.516 168.436 291.226 168.567 291.047 168.798C290.119 170.012 288.622 171.067 287.209 171.728C286.532 172.042 285.744 172.317 284.988 172.237C284.259 172.162 283.805 171.692 283.515 171.047C283.407 171.314 283.296 171.581 283.188 171.847C285.171 171.21 287.197 170.725 289.196 170.147C289.876 169.96 289.59 168.905 288.909 169.1Z" fill="black"/>
<path d="M164.105 159.761C162.086 157.93 157.437 158.463 154.893 158.391C152.221 158.316 149.311 158.578 146.708 159.072C144.311 159.53 139.04 160.382 142.165 163.384C143.73 164.884 149.857 166.955 148.352 167.982C144.94 170.306 136.29 167.998 133.352 167.639C127.846 166.966 120.867 166.982 115.405 167.572C112.463 167.89 101.293 168.599 98.0043 166.544C97.2519 166.68 97.5266 167.297 97.232 167.663C96.2805 169.805 105.791 170.088 107.79 170.179C112.021 170.378 116.018 169.347 120.254 169.355C124.697 169.363 129.331 169.013 133.694 169.654C137.946 170.275 143.304 171.911 147.807 171.071C156.907 169.367 147.321 163.153 144.451 162.233C143.423 160.589 158.153 159.972 164.933 160.314" fill="#424242"/>
<path d="M164.574 159.291C162.488 157.464 159.196 157.679 156.612 157.723C155.004 157.747 153.4 157.687 151.795 157.782C149.944 157.89 148.109 158.137 146.29 158.479C145.239 158.678 144.184 158.877 143.173 159.224C142.285 159.53 141.254 159.964 140.776 160.828C140.203 161.863 140.82 162.954 141.556 163.71C142.277 164.455 143.248 164.944 144.156 165.426C145.159 165.959 146.198 166.449 147.158 167.058C147.297 167.146 147.516 167.293 147.592 167.353C147.663 167.409 147.731 167.472 147.799 167.532C147.87 167.596 147.95 167.679 147.902 167.635C148.014 167.743 147.886 167.695 147.93 167.659C147.922 167.663 147.926 167.695 147.93 167.6C147.926 167.711 147.938 167.544 147.942 167.536C147.946 167.516 147.974 167.385 147.958 167.484C147.97 167.401 148.053 167.448 147.974 167.452C147.978 167.452 148.157 167.329 147.95 167.464C147.898 167.496 147.846 167.528 147.795 167.56C146.855 168.109 145.705 168.268 144.634 168.324C143.272 168.396 141.903 168.3 140.553 168.145C138.24 167.878 135.975 167.341 133.67 167.022C130.135 166.537 126.524 166.433 122.961 166.481C117.718 166.549 112.527 167.317 107.28 167.293C104.871 167.281 102.375 167.229 100.031 166.628C99.6405 166.529 99.1826 166.389 98.8602 166.246C98.685 166.166 98.5258 166.055 98.3506 165.975C97.9684 165.8 97.5106 165.944 97.2041 166.214C96.9732 166.417 96.8577 166.688 96.7821 166.979C96.7264 167.194 96.6268 167.365 96.5671 167.576C96.4676 167.918 96.5034 168.288 96.6826 168.599C97.0608 169.248 97.861 169.558 98.5377 169.773C99.5171 170.088 100.548 170.243 101.563 170.378C103.502 170.637 105.453 170.745 107.403 170.832C111.054 170.991 114.621 170.323 118.252 170.092C120.274 169.964 122.308 170.008 124.331 169.972C126.361 169.932 128.395 169.905 130.425 170.012C134.124 170.207 137.683 171.183 141.341 171.684C143.109 171.927 144.9 172.074 146.68 171.899C148.085 171.76 149.614 171.489 150.84 170.753C151.616 170.287 152.233 169.574 152.297 168.643C152.353 167.823 151.955 167.026 151.481 166.385C150.279 164.765 148.503 163.539 146.752 162.568C146.075 162.193 145.366 161.839 144.626 161.596C144.757 161.7 144.888 161.799 145.024 161.903C145.068 161.978 145.04 162.17 145.016 162.265C144.952 162.512 145.016 162.281 145.016 162.281C145.02 162.337 144.9 162.341 145.06 162.261C145.119 162.229 145.179 162.197 145.243 162.17C145.382 162.102 145.099 162.221 145.255 162.166C145.295 162.15 145.334 162.134 145.374 162.122C145.569 162.058 145.768 161.998 145.967 161.947C147.126 161.652 148.328 161.513 149.518 161.393C152.922 161.043 156.354 160.924 159.777 160.9C161.497 160.888 163.221 160.904 164.937 160.987C165.793 161.031 165.789 159.701 164.937 159.662C162.074 159.518 159.204 159.55 156.342 159.642C153.428 159.737 150.498 159.892 147.607 160.298C146.688 160.43 143.372 160.681 143.766 162.297C143.889 162.803 144.407 162.91 144.757 163.057C145.115 163.209 145.613 163.459 146.007 163.674C147.038 164.24 148.037 164.893 148.937 165.649C149.662 166.262 150.514 167.082 150.836 167.874C151.007 168.296 151.027 168.499 150.924 168.826C150.848 169.065 150.537 169.387 150.171 169.606C148.71 170.482 146.763 170.641 145.103 170.645C142.95 170.649 140.812 170.299 138.702 169.901C136.64 169.511 134.582 169.065 132.492 168.842C130.131 168.591 127.754 168.587 125.382 168.623C122.977 168.659 120.553 168.611 118.156 168.766C115.835 168.921 113.534 169.284 111.213 169.451C108.534 169.646 105.799 169.483 103.128 169.224C101.894 169.104 100.652 168.957 99.4494 168.651C98.9955 168.535 98.5298 168.392 98.1954 168.213C98.1277 168.177 98.06 168.133 97.9923 168.093C97.8331 167.99 98.0083 168.125 97.8848 168.006C97.7654 167.89 97.9048 168.038 97.845 167.966C97.8172 167.934 97.8052 167.842 97.8212 167.934C97.845 168.089 97.8012 167.779 97.8251 167.95C97.8251 167.962 97.8291 167.974 97.8291 167.97C97.8769 167.854 97.857 167.922 97.9326 167.763C97.9963 167.627 98.0321 167.476 98.056 167.329C98.06 167.305 98.0799 167.182 98.0998 167.154C98.0202 167.253 98.0282 167.225 98.1834 167.186C98.0122 167.162 97.841 167.142 97.6738 167.118C98.5616 167.663 99.6166 167.926 100.632 168.113C101.981 168.364 103.359 168.483 104.732 168.551C107.475 168.686 110.23 168.615 112.969 168.436C115.895 168.249 118.797 167.906 121.731 167.827C123.809 167.771 125.887 167.787 127.965 167.874C129.765 167.95 131.803 168.081 133.455 168.316C136.11 168.694 138.722 169.311 141.401 169.554C142.882 169.69 144.383 169.733 145.86 169.526C146.457 169.443 147.05 169.315 147.611 169.096C148.109 168.905 148.774 168.655 149.08 168.185C149.65 167.309 148.746 166.533 148.085 166.079C147.066 165.378 145.92 164.857 144.829 164.279C143.841 163.758 142.743 163.252 142.114 162.317C141.998 162.146 141.895 161.927 141.875 161.771C141.859 161.66 141.891 161.552 141.962 161.441C142.142 161.158 142.575 160.904 142.962 160.728C144.021 160.247 145.215 160.036 146.349 159.821C148.276 159.455 150.215 159.192 152.178 159.092C153.874 159.009 155.573 159.064 157.269 159.044C158.826 159.025 160.434 159.009 161.951 159.415C162.564 159.578 163.169 159.813 163.651 160.235C164.276 160.792 165.219 159.857 164.574 159.291Z" fill="black"/>
<path d="M227.952 159.761C231.559 158.849 231.722 159.486 234.795 161.146C237.379 162.544 239.764 162.038 242.483 161.346C248.028 159.932 252.117 161.549 257.75 160.788C263.896 159.96 269.804 158.117 276.198 158.117C281.07 158.117 285.931 158.129 290.442 160.235C293.105 161.477 295.673 163.798 294.542 166.947C293.818 168.973 290.27 171.409 288.324 169.853C289.363 167.572 293.71 167.508 292.142 164.14C291.174 162.062 287.747 161.385 285.76 160.86C280.911 159.578 275.604 159.976 270.592 160.482C265.612 160.983 261.217 162.265 256.309 162.946C251.603 163.603 247.168 162.269 242.471 162.986C239.76 163.4 237.152 163.921 234.509 163.053C231.471 162.058 229.656 161.043 226.304 161.676" fill="#424242"/>
<path d="M228.127 160.402C229.055 160.171 230.078 159.885 231.041 160.044C231.845 160.175 232.558 160.645 233.251 161.043C234.405 161.704 235.56 162.353 236.889 162.572C238.199 162.791 239.505 162.671 240.799 162.416C242.208 162.142 243.573 161.712 245.003 161.545C246.336 161.389 247.682 161.381 249.023 161.433C251.75 161.537 254.461 161.819 257.188 161.521C263.064 160.88 268.761 159.068 274.689 158.814C277.503 158.69 280.39 158.73 283.192 159.021C285.907 159.303 288.734 159.936 291.11 161.334C293.061 162.476 295.06 164.709 293.758 167.086C292.934 168.591 290.358 170.57 288.662 169.284C288.742 169.586 288.821 169.889 288.901 170.191C289.534 168.87 291.174 168.416 292.197 167.468C293.535 166.234 293.304 164.331 292.193 163.014C290.919 161.501 288.738 160.939 286.902 160.47C284.319 159.805 281.747 159.399 279.072 159.347C273.224 159.236 267.435 160.171 261.723 161.318C258.817 161.903 255.899 162.516 252.921 162.472C250.003 162.428 247.1 161.975 244.178 162.154C242.538 162.253 240.934 162.619 239.302 162.783C237.598 162.954 235.982 162.862 234.353 162.313C233.075 161.883 231.817 161.365 230.496 161.079C229.043 160.76 227.598 160.784 226.137 161.051C225.297 161.202 225.651 162.484 226.491 162.333C227.705 162.114 228.935 162.098 230.145 162.361C231.296 162.612 232.403 163.041 233.513 163.428C234.835 163.885 236.145 164.188 237.554 164.2C238.951 164.212 240.341 164.001 241.714 163.786C243.159 163.563 244.588 163.424 246.054 163.448C247.479 163.467 248.9 163.587 250.321 163.682C251.687 163.774 253.056 163.846 254.422 163.786C255.867 163.726 257.3 163.491 258.725 163.241C261.476 162.759 264.199 162.134 266.95 161.66C269.732 161.182 272.555 160.912 275.374 160.756C278.124 160.605 280.919 160.605 283.642 161.079C284.745 161.27 285.824 161.557 286.902 161.839C287.838 162.086 288.785 162.353 289.657 162.783C290.505 163.197 291.313 163.758 291.66 164.674C291.93 165.39 291.859 165.96 291.325 166.473C290.187 167.576 288.487 167.998 287.758 169.523C287.587 169.877 287.691 170.199 287.997 170.43C289.813 171.808 292.344 170.542 293.77 169.192C295.454 167.596 296.011 165.179 294.853 163.101C293.599 160.852 291.019 159.61 288.682 158.822C285.804 157.85 282.738 157.568 279.717 157.488C276.608 157.408 273.526 157.472 270.441 157.894C267.34 158.32 264.286 158.997 261.209 159.562C259.665 159.845 258.112 160.131 256.547 160.259C255.082 160.378 253.609 160.35 252.14 160.279C249.31 160.135 246.499 159.916 243.685 160.414C242.22 160.673 240.803 161.166 239.322 161.322C237.896 161.469 236.499 161.29 235.221 160.621C234.238 160.107 233.31 159.47 232.283 159.045C231.451 158.698 230.591 158.634 229.7 158.746C229.051 158.83 228.418 158.969 227.785 159.128C226.945 159.331 227.295 160.609 228.127 160.402Z" fill="black"/>
<path d="M225.758 21.9312C237.769 26.6088 238.924 37.5167 238.382 49.1014C237.821 61.128 237.881 72.9874 238.912 85.006C239.174 88.0714 240.353 95.2213 240.078 98.9276C239.987 100.166 238.231 99.7477 238.227 99.7477C237.407 98.9276 236.547 91.5349 236.376 87.8286C235.874 76.9286 234.664 66.1839 235.759 55.5626C236.631 47.111 237.96 28.1853 226.304 26.3102" fill="#424242"/>
<path d="M225.583 22.5721C228.012 23.5275 230.293 24.881 232.148 26.7282C233.756 28.3286 235.01 30.2713 235.862 32.3733C237.705 36.9315 237.924 41.9794 237.805 46.8362C237.721 50.2957 237.518 53.7472 237.443 57.2067C237.359 61.0126 237.347 64.8224 237.415 68.6322C237.534 75.2765 237.837 81.9367 238.653 88.5371C238.983 91.2203 239.334 93.9115 239.433 96.6146C239.453 97.1759 239.461 97.7372 239.445 98.2986C239.433 98.6529 239.513 99.0271 239.186 99.1226C239.051 99.1624 238.896 99.1624 238.725 99.1545C238.569 99.1465 238.474 99.1704 238.446 99.1226C238.402 99.0549 238.657 99.2898 238.705 99.3018C238.76 99.3137 238.713 99.3217 238.669 99.2341C238.657 99.2102 238.581 99.0589 238.613 99.1306C238.637 99.1863 238.565 99.0032 238.549 98.9554C238.255 98.1154 238.103 97.2197 237.952 96.3479C237.745 95.1376 237.586 93.9195 237.447 92.6973C237.132 89.9026 237.017 87.1 236.857 84.2894C236.431 76.841 235.814 69.3806 236.021 61.9123C236.153 57.2306 236.834 52.5888 236.949 47.9031C237.053 43.7032 236.861 39.3798 235.711 35.3152C234.696 31.7284 232.733 28.1256 229.206 26.5053C228.334 26.1032 227.426 25.8285 226.483 25.6693C225.647 25.5299 225.289 26.8118 226.129 26.9512C227.96 27.2537 229.64 28.026 230.981 29.3238C232.287 30.5898 233.211 32.218 233.852 33.9099C235.349 37.8591 235.655 42.2063 235.643 46.3983C235.631 50.857 235.01 55.252 234.783 59.6988C234.393 67.3105 234.97 74.9261 235.428 82.5259C235.611 85.5634 235.703 88.6048 236.009 91.6344C236.244 93.9752 236.487 96.3718 237.08 98.6568C237.232 99.2341 237.427 100.19 238.076 100.397C238.824 100.639 239.903 100.484 240.408 99.8551C240.767 99.4093 240.763 98.836 240.779 98.2946C240.799 97.6895 240.787 97.0883 240.763 96.4832C240.707 95.1337 240.588 93.7881 240.444 92.4465C240.186 89.9942 239.811 87.5499 239.588 85.0896C239.246 81.2519 239.027 77.4023 238.88 73.5527C238.593 65.8654 238.661 58.1701 238.991 50.4868C239.218 45.1881 239.405 39.7739 238.008 34.6026C236.714 29.8215 233.912 25.7091 229.656 23.1055C228.477 22.385 227.227 21.7958 225.942 21.2902C225.141 20.9797 224.795 22.2655 225.583 22.5721Z" fill="black"/>
<path d="M163.221 149.371C163.149 153.387 162.556 161.011 163.603 164.853C184.722 170.319 208.083 169.085 229.266 165.163C229.385 159.685 228.716 153.869 228.792 148.236C208.278 139.964 183.397 142.937 163.129 149.207" fill="#424242"/>
<path d="M162.556 149.371C162.508 151.998 162.349 154.626 162.325 157.253C162.305 159.825 162.293 162.528 162.962 165.032C163.022 165.251 163.205 165.438 163.424 165.494C171.792 167.651 180.411 168.758 189.038 169.092C197.744 169.427 206.475 168.981 215.129 167.97C219.922 167.412 224.696 166.68 229.441 165.804C229.727 165.752 229.923 165.438 229.927 165.163C230.038 159.514 229.385 153.881 229.453 148.236C229.457 147.918 229.238 147.707 228.967 147.595C220.826 144.327 212.064 142.826 203.318 142.551C194.48 142.272 185.618 143.224 176.963 144.976C172.234 145.931 167.56 147.141 162.95 148.562C162.138 148.813 162.485 150.095 163.305 149.844C171.517 147.308 179.961 145.433 188.508 144.498C197.179 143.546 206.021 143.515 214.64 144.98C219.417 145.792 224.114 147.066 228.613 148.873C228.45 148.658 228.286 148.447 228.127 148.232C228.059 153.881 228.716 159.514 228.601 165.159C228.764 164.944 228.927 164.733 229.087 164.518C220.695 166.067 212.215 167.158 203.688 167.619C195.089 168.085 186.438 167.922 177.883 166.867C173.13 166.282 168.412 165.402 163.778 164.204C163.934 164.359 164.089 164.514 164.24 164.666C163.591 162.229 163.627 159.594 163.655 157.09C163.679 154.51 163.834 151.934 163.882 149.359C163.902 148.519 162.572 148.519 162.556 149.371Z" fill="black"/>
<path d="M164.654 149.896C173.54 155.864 192.282 153.503 202.637 153.001C208.047 152.739 214.767 152.695 220.073 151.548C227.809 149.88 226.885 149.383 227.311 141.448C228.828 113.414 229.596 85.2686 229.596 57.0433C229.596 48.0065 228.804 44.1171 229.047 35.0842C229.238 28.0179 229.182 25.9717 228.772 23.7145C218.358 18.0654 201.001 16.1108 191.781 16.4531C186.577 16.6482 169.642 18.989 165.474 22.4803C165.884 26.5887 164.821 34.3875 164.471 41.4458C163.973 51.3744 164.2 61.5538 163.83 71.6018C162.898 97.0643 165.482 123.789 163.83 149.076" fill="#92D6E8"/>
<path d="M164.379 150.37C168.603 153.173 173.97 153.929 178.918 154.264C184.543 154.642 190.196 154.343 195.813 153.977C198.234 153.822 200.65 153.642 203.071 153.531C206.526 153.372 209.99 153.292 213.441 153.01C216.519 152.759 219.564 152.309 222.554 151.537C223.971 151.17 225.635 150.736 226.606 149.55C227.538 148.407 227.606 146.811 227.685 145.406C227.856 142.289 227.988 139.168 228.143 136.046C228.545 128.104 228.887 120.158 229.166 112.212C229.727 96.2803 230.05 80.3404 230.126 64.4005C230.146 60.5469 230.193 56.6893 230.082 52.8397C229.994 49.8341 229.795 46.8324 229.668 43.8267C229.52 40.3991 229.552 36.9794 229.632 33.5478C229.692 31.1393 229.775 28.7189 229.628 26.3143C229.584 25.6017 229.509 24.8891 229.401 24.1845C229.349 23.8421 229.345 23.4799 229.047 23.2529C228.505 22.8389 227.729 22.5682 227.112 22.2816C224.536 21.0833 221.849 20.1398 219.118 19.3635C213.417 17.7393 207.521 16.7679 201.622 16.2464C197.286 15.8602 192.931 15.7209 188.6 16.1628C183.831 16.6445 179.061 17.4009 174.4 18.5076C172.246 19.0172 170.092 19.6024 168.046 20.4503C167.27 20.7728 166.497 21.1231 165.797 21.5849C165.526 21.7641 165.112 21.979 164.981 22.2816C164.793 22.7115 165.008 23.5714 165.02 24.0491C165.084 27.1503 164.774 30.2635 164.519 33.3488C164.216 37.0272 163.938 40.7017 163.802 44.392C163.512 52.2943 163.591 60.2045 163.396 68.1108C163.205 75.9135 163.026 83.6924 163.137 91.4991C163.356 106.981 164.117 122.463 163.766 137.949C163.683 141.668 163.532 145.382 163.289 149.092C163.245 149.793 164.336 149.793 164.379 149.092C165.47 132.205 164.726 115.27 164.352 98.3703C164.168 89.9744 164.065 81.5705 164.324 73.1746C164.594 64.4762 164.567 55.7737 164.805 47.0752C164.929 42.4891 165.227 37.9269 165.606 33.3567C165.9 29.7818 166.362 26.0914 166.024 22.5005C165.972 22.6279 165.916 22.7593 165.864 22.8867C166.963 21.983 168.396 21.4496 169.726 20.9838C171.589 20.3309 173.508 19.8333 175.435 19.3954C179.483 18.4758 183.604 17.8109 187.732 17.3531C196.004 16.4375 204.504 17.2894 212.637 18.9296C218.087 20.0283 223.589 21.557 228.505 24.2044C228.422 24.0969 228.338 23.9855 228.255 23.878C228.525 25.3828 228.597 26.9075 228.613 28.4362C228.645 31.5971 228.481 34.754 228.466 37.915C228.434 44.1293 229.039 50.3197 229.059 56.5301C229.114 72.2948 228.832 88.0636 228.358 103.82C228.119 111.727 227.825 119.633 227.466 127.539C227.287 131.464 227.096 135.39 226.889 139.311C226.758 141.783 226.794 144.315 226.491 146.775C226.344 147.966 225.985 148.969 224.895 149.578C224.17 149.984 223.35 150.215 222.554 150.43C221.264 150.776 219.95 151.067 218.636 151.302C212.414 152.404 206.029 152.245 199.743 152.647C194.364 152.99 188.986 153.4 183.592 153.356C178.317 153.312 172.732 152.998 167.795 150.959C166.796 150.549 165.837 150.044 164.937 149.447C164.34 149.036 163.794 149.984 164.379 150.37Z" fill="black"/>
<path d="M164.037 142.293C164.224 147.977 162.775 149.725 168.762 151.966C172.99 153.547 178.054 153.328 182.612 153.583C191.932 154.104 205.543 154.224 214.795 152.914C220.969 152.038 229.767 150.048 226.511 140.855C224.297 134.609 203.154 133.503 196.713 133.662C186.016 133.928 170.204 133.869 164.447 141.676" fill="#F9F9F9"/>
<path d="M163.492 142.292C163.528 143.451 163.492 144.609 163.468 145.768C163.452 146.62 163.448 147.488 163.635 148.324C164.049 150.163 165.622 151.21 167.246 151.934C170.359 153.324 173.699 153.742 177.075 153.909C180.252 154.064 183.432 154.196 186.609 154.315C193.074 154.562 199.56 154.594 206.025 154.255C208.983 154.1 211.94 153.861 214.878 153.447C216.948 153.156 219.023 152.79 221.005 152.121C222.868 151.496 224.763 150.585 226.077 149.076C227.502 147.444 227.96 145.35 227.669 143.232C227.419 141.397 226.857 139.681 225.396 138.479C224.051 137.372 222.414 136.663 220.782 136.098C216.562 134.633 212.032 134.024 207.601 133.594C203.931 133.24 200.22 133.029 196.53 133.12C191.132 133.251 185.718 133.323 180.359 134.048C175.435 134.713 170.144 135.875 166.195 139.076C165.355 139.756 164.618 140.537 163.977 141.401C163.559 141.966 164.503 142.511 164.921 141.95C167.7 138.216 172.56 136.631 176.932 135.724C182.115 134.649 187.445 134.434 192.724 134.298C196.446 134.203 200.137 134.159 203.855 134.386C208.194 134.657 212.557 135.127 216.797 136.106C218.676 136.54 220.571 137.065 222.323 137.877C223.549 138.447 224.903 139.207 225.643 140.338C226.145 141.102 226.364 142.081 226.531 143.021C226.718 144.056 226.73 145.139 226.447 146.154C225.954 147.945 224.576 149.223 222.988 150.087C221.236 151.039 219.261 151.552 217.315 151.934C214.974 152.392 212.593 152.663 210.221 152.866C204.03 153.399 197.796 153.467 191.582 153.356C188.679 153.304 185.777 153.2 182.879 153.041C179.527 152.858 176.135 152.934 172.811 152.412C171.211 152.161 169.65 151.755 168.153 151.134C167.258 150.764 166.314 150.326 165.602 149.649C164.463 148.57 164.527 147.014 164.559 145.557C164.582 144.466 164.61 143.371 164.578 142.28C164.563 141.592 163.468 141.592 163.492 142.292Z" fill="black"/>
<path d="M219.456 145.318C216.029 146.867 212.215 147.46 208.493 147.747C204.476 148.057 200.443 148.001 196.418 147.961C194.324 147.942 192.23 147.922 190.14 147.981C189.44 148.001 189.436 149.092 190.14 149.072C198.078 148.845 206.116 149.645 213.971 148.125C216.049 147.723 218.079 147.129 220.01 146.258C220.647 145.971 220.089 145.027 219.456 145.318Z" fill="black"/>
<path d="M168.488 145.163C171.087 146.743 173.87 148.053 176.983 147.977C177.684 147.961 177.688 146.867 176.983 146.886C174.061 146.958 171.478 145.704 169.037 144.219C168.436 143.853 167.887 144.796 168.488 145.163Z" fill="black"/>
<path d="M175.956 56.1836C176.629 61.2952 176.187 66.5899 176.386 71.7691C178.802 71.4706 179.109 71.7731 179.053 69.1377C179.021 67.5214 178.914 66.0087 178.83 64.3964C178.663 61.1001 178.086 57.6326 178.213 54.3324" fill="#FFE35B"/>
<path d="M175.411 56.1835C176.076 61.3548 175.65 66.5739 175.841 71.7691C175.849 72.0358 176.083 72.3503 176.386 72.3145C177.158 72.2229 178.142 72.2707 178.834 71.8607C179.511 71.4586 179.587 70.6226 179.603 69.91C179.642 68.3614 179.507 66.8048 179.424 65.2562C179.328 63.5444 179.189 61.8365 179.029 60.1287C178.85 58.2019 178.695 56.2671 178.763 54.3284C178.787 53.6237 177.696 53.6277 177.672 54.3284C177.6 56.3627 177.775 58.393 177.966 60.4153C178.15 62.374 178.285 64.3286 178.392 66.2913C178.448 67.2865 178.5 68.2778 178.516 69.273C178.524 69.7468 178.552 70.2524 178.424 70.7102C178.4 70.7938 178.337 70.8814 178.337 70.8814C178.209 70.9769 178.134 70.9809 177.959 71.0207C177.449 71.1322 176.912 71.1521 176.394 71.2158C176.577 71.3989 176.756 71.578 176.939 71.7612C176.748 66.566 177.174 61.3469 176.509 56.1756C176.414 55.4988 175.319 55.4868 175.411 56.1835Z" fill="black"/>
<path d="M172.317 25.0641C179.236 27.1182 186.506 27.8189 193.699 27.9463C200.702 28.0697 207.701 27.6198 214.675 27.0705C218.003 26.8077 221.328 26.5171 224.66 26.3141C225.356 26.2703 225.364 25.1795 224.66 25.2233C218.409 25.6055 212.175 26.2384 205.921 26.5808C198.735 26.9749 191.498 27.0665 184.332 26.2902C180.367 25.8603 176.43 25.1437 172.604 24.0091C171.931 23.81 171.645 24.861 172.317 25.0641Z" fill="black"/>
<path d="M185.411 17.755C186.283 19.6738 189.281 26.6008 186.048 26.2903C184.575 26.1509 183.397 24.7735 181.673 24.7894C180.22 24.8014 178.341 25.2233 177.202 26.1668C174.101 28.7346 175.737 35.9004 175.554 39.5231C175.383 42.9189 175.287 46.4142 175.136 49.8259C175.06 51.5855 175.096 53.4048 175.18 55.1604C175.319 58.0068 175.944 57.6167 178.544 57.6207C179.364 54.0059 178.341 48.9541 178.213 45.1442C178.09 41.3981 177.811 37.5684 178.006 33.7825C178.221 29.6821 178.397 26.6724 183.166 26.5928C184.925 26.5649 186.57 27.4885 188.234 27.4248C190.706 27.3293 190.296 26.2106 189.929 24.1883C189.36 21.0632 188.707 14.3552 184.384 15.6809C184.535 16.3816 184.738 17.0782 184.989 17.755" fill="#424242"/>
<path d="M184.838 18.0893C185.371 19.2717 185.865 20.4739 186.259 21.708C186.478 22.3967 186.677 23.0974 186.785 23.814C186.868 24.3554 186.92 24.9127 186.737 25.3705C186.725 25.4024 186.625 25.5377 186.578 25.5656C186.57 25.5696 186.466 25.6174 186.41 25.6293C186.359 25.6373 186.128 25.6373 186.008 25.6213C185.073 25.49 184.241 24.8371 183.381 24.4828C182.342 24.0568 181.287 24.0847 180.196 24.2598C179.137 24.427 178.038 24.7694 177.151 25.3825C175.737 26.3618 175.08 27.9781 174.826 29.6302C174.539 31.4734 174.611 33.3405 174.726 35.1956C174.834 36.9712 174.933 38.7109 174.849 40.4904C174.718 43.3129 174.631 46.1354 174.515 48.9579C174.451 50.5225 174.416 52.079 174.463 53.6436C174.495 54.7065 174.432 55.9127 174.77 56.9398C175.323 58.6039 177.151 58.2854 178.552 58.2854C178.831 58.2854 179.129 58.0824 179.193 57.7997C179.686 55.5544 179.559 53.2256 179.368 50.9524C179.165 48.5598 178.934 46.1872 178.838 43.7906C178.723 40.98 178.568 38.1694 178.627 35.3549C178.663 33.5754 178.647 31.6486 179.125 29.9168C179.487 28.6031 180.303 27.7432 181.645 27.4287C182.728 27.1739 183.827 27.2336 184.902 27.4924C186.052 27.7671 187.199 28.1533 188.401 28.0856C189.161 28.0418 190.025 27.9064 190.519 27.2655C190.953 26.7082 190.917 25.9995 190.821 25.3347C190.622 23.9215 190.355 22.5002 190.073 21.0989C189.75 19.5065 189.332 17.7867 188.353 16.4531C187.354 15.0916 185.857 14.5582 184.225 15.0399C183.866 15.1434 183.683 15.5017 183.763 15.856C183.918 16.5606 184.121 17.2533 184.368 17.9301C184.659 18.7263 185.941 18.3839 185.65 17.5758C185.403 16.895 185.2 16.2063 185.045 15.5017C184.89 15.7724 184.734 16.0471 184.583 16.3178C185.773 15.9674 186.721 16.3496 187.394 17.3847C188.158 18.5591 188.496 19.9882 188.775 21.3458C189.05 22.6834 189.273 24.0369 189.5 25.3825C189.543 25.6492 189.587 25.9279 189.559 26.2026C189.547 26.3419 189.5 26.4613 189.4 26.5211C188.723 26.9391 187.656 26.7798 186.932 26.6246C185.745 26.3738 184.587 25.9478 183.361 25.9239C182.481 25.908 181.542 26.0115 180.71 26.314C179.332 26.8196 178.409 27.8467 177.947 29.2281C177.445 30.7329 177.421 32.401 177.35 33.9735C177.222 36.6567 177.326 39.3438 177.441 42.023C177.553 44.6704 177.708 47.2939 177.955 49.9333C178.186 52.4015 178.456 54.9931 177.919 57.4375C178.134 57.2742 178.345 57.111 178.56 56.9518C178.158 56.9518 177.752 56.9637 177.35 56.9677C177.182 56.9677 177.015 56.9717 176.848 56.9637C176.701 56.9597 176.561 56.9478 176.506 56.9358C176.454 56.9239 176.195 56.8443 176.315 56.8921C176.183 56.8403 176.195 56.8204 176.175 56.7965C176.088 56.701 176.155 56.7726 176.167 56.7925C176.135 56.7368 176.096 56.685 176.072 56.6253C176.068 56.6174 175.992 56.3586 175.972 56.2591C175.749 55.232 175.805 54.1133 175.785 53.0703C175.757 51.7287 175.793 50.3951 175.849 49.0535C175.964 46.2628 176.052 43.4721 176.179 40.6814C176.259 38.9218 176.191 37.206 176.08 35.4504C175.964 33.643 175.841 31.7839 176.115 29.9845C176.354 28.42 176.916 26.955 178.393 26.1946C179.332 25.7129 180.431 25.4939 181.478 25.4581C182.521 25.4223 183.337 25.9239 184.241 26.3698C185.391 26.943 187.183 27.4526 187.915 25.9995C188.576 24.6858 188.019 22.8745 187.617 21.5647C187.179 20.1475 186.609 18.7701 186 17.4245C185.63 16.6402 184.487 17.317 184.838 18.0893Z" fill="black"/>
<path d="M37.4972 10.6609C57.2986 10.6609 76.8891 12.5877 96.6428 13.2605C109.422 13.6944 122.328 12.934 135.008 13.7024C140.633 14.0447 140.418 13.8138 139.896 19.9605C139.542 24.1485 139.395 28.229 139.395 32.5006C139.395 48.6396 138.73 65.0891 139.355 81.1126C111.838 81.3713 84.1544 81.1643 56.4865 81.1643C52.394 81.1643 47.6686 81.2798 43.5562 81.1643C37.4932 80.9931 38.6636 81.7137 39.209 75.6745C40.0649 66.2396 37.9709 53.3411 37.4932 43.8544C37.0075 34.1368 37.2145 20.904 37.4932 11.1744" fill="#424242"/>
<path d="M37.4972 11.3257C49.4641 11.3296 61.415 12.0343 73.358 12.7429C85.2293 13.4475 97.0847 14.1124 108.98 14.0646C114.912 14.0407 120.843 13.9491 126.775 14.0566C129.677 14.1084 132.579 14.2238 135.477 14.395C136.254 14.4428 137.034 14.4746 137.806 14.5662C137.997 14.5901 138.244 14.6259 138.475 14.6856C138.575 14.7095 138.674 14.7374 138.774 14.7692C138.794 14.7772 138.973 14.8449 138.825 14.7812C138.881 14.8051 138.937 14.8329 138.989 14.8608C139.025 14.8807 139.06 14.9046 139.096 14.9245C139.235 15.0081 138.997 14.8289 139.116 14.9364C139.172 14.9882 139.228 15.0439 139.275 15.1036C139.164 14.9643 139.303 15.1594 139.323 15.2071C139.391 15.3624 139.279 15.0678 139.335 15.231C139.359 15.2987 139.379 15.3664 139.399 15.438C139.466 15.7048 139.454 15.6849 139.47 15.9516C139.49 16.282 139.482 16.6124 139.466 16.9389C139.367 19.2041 139.096 21.4613 138.965 23.7225C138.634 29.5825 138.738 35.4585 138.674 41.3264C138.547 53.1261 138.252 64.9298 138.551 76.7294C138.587 78.1905 138.634 79.6515 138.69 81.1085C138.913 80.8856 139.132 80.6666 139.355 80.4437C126.313 80.5671 113.267 80.583 100.226 80.5711C87.1442 80.5552 74.0666 80.5074 60.9851 80.4994C55.0136 80.4954 49.0381 80.6189 43.0666 80.4835C42.2386 80.4636 41.4065 80.4676 40.5785 80.4318C40.4312 80.4238 40.2879 80.4198 40.1406 80.4039C39.9853 80.3919 39.8978 80.38 39.8938 80.376C39.7942 80.3601 39.6987 80.3322 39.6032 80.3123C39.5633 80.3044 39.5196 80.2845 39.4797 80.2685C39.5554 80.2964 39.5912 80.3083 39.4957 80.2685C39.3842 80.2208 39.5196 80.3681 39.436 80.2208C39.3802 80.1212 39.5514 80.3123 39.4598 80.2447C39.4081 80.2088 39.436 80.0814 39.4638 80.2765C39.4519 80.2009 39.42 80.1252 39.4041 80.0496C39.4439 80.2486 39.4041 79.958 39.4041 79.8983C39.3961 79.3171 39.5036 78.7319 39.5833 78.1586C40.2361 73.266 40.1326 68.3494 39.7982 63.4369C39.428 57.975 38.7831 52.5329 38.3651 47.075C37.967 41.8639 37.8873 36.6329 37.8674 31.4058C37.8475 25.8842 37.9272 20.3625 38.0585 14.8449C38.0864 13.6187 38.1222 12.3926 38.1541 11.1664C38.178 10.3105 36.8523 10.3105 36.8284 11.1664C36.5179 22.0465 36.279 32.9703 36.8284 43.8464C37.0991 49.2287 37.748 54.5832 38.2018 59.9535C38.6517 65.2562 39.0339 70.6425 38.5203 75.9531C38.4327 76.8688 38.3053 77.7844 38.1859 78.696C38.1222 79.1897 38.0466 79.6913 38.0983 80.1889C38.2178 81.3235 39.1294 81.6499 40.1406 81.7375C40.9209 81.8012 41.7051 81.7893 42.4854 81.8012C43.8111 81.8251 45.1328 81.8649 46.4545 81.8729C49.4442 81.8928 52.4299 81.841 55.4196 81.8291C68.5848 81.7734 81.75 81.8689 94.9111 81.8928C108.096 81.9167 121.285 81.9167 134.47 81.8171C136.098 81.8052 137.723 81.7893 139.351 81.7773C139.701 81.7734 140.028 81.4748 140.016 81.1125C139.55 69.1337 139.797 57.139 139.952 45.1562C140.032 39.1687 139.94 33.1734 140.135 27.1899C140.227 24.3993 140.414 21.6205 140.653 18.8418C140.76 17.5997 141.039 16.0989 140.613 14.8847C140.263 13.8854 139.359 13.4794 138.376 13.3201C136.417 13.0017 134.379 12.9937 132.4 12.9061C126.353 12.6354 120.294 12.6673 114.239 12.7071C108.235 12.7469 102.232 12.7947 96.2328 12.5876C90.2215 12.3767 84.2142 12.0542 78.2069 11.7039C66.1325 11.0032 54.0621 10.199 41.9639 10.0318C40.475 10.0119 38.9821 10 37.4932 10C36.6413 10 36.6413 11.3257 37.4972 11.3257Z" fill="black"/>
<path d="M46.4147 19.2398C51.5621 19.0687 57.4301 19.2757 62.3426 19.4907C72.6852 19.9405 83.0955 20.0122 93.474 20.0122C101.699 20.0122 109.919 20.0122 118.144 20.0122C121.64 20.0122 128.212 19.0726 131.305 20.5655C130.446 23.7065 130.816 27.6437 130.816 30.948C130.816 37.7873 130.816 44.6227 130.816 51.462C130.816 56.0999 130.605 60.6939 130.557 65.3C130.537 67.4696 130.963 73.1704 129.43 74.0581C128.256 74.7429 124.641 74.098 123.196 74.0502C120.115 73.9467 117.129 73.8591 114.088 73.9905C105.003 74.3846 95.4963 73.5764 86.2963 73.5327C80.9259 73.5088 75.5834 73.4849 70.217 73.2978C66.3276 73.1624 62.3625 73.1823 58.4731 73.2978C56.3234 73.3615 51.5501 74.5558 49.4721 73.5366C47.0994 72.3742 47.6965 59.3364 47.6965 56.0362C47.6965 48.4086 47.5214 43.2652 46.6655 35.7092C46.2315 31.8078 46.1599 23.1014 46.4147 19.2398Z" fill="#F9F9F9"/>
<path d="M46.4147 19.7852C51.9204 19.6061 57.4301 19.829 62.9318 20.0599C68.967 20.3147 75.0102 20.4421 81.0493 20.5018C93.2152 20.6252 105.381 20.5536 117.547 20.5536C119.848 20.5536 122.141 20.3426 124.438 20.2789C126.564 20.2192 129.052 20.1037 131.031 21.0313C130.947 20.8243 130.864 20.6212 130.78 20.4142C129.896 23.7304 130.246 27.2257 130.27 30.6136C130.294 34.503 130.27 38.3924 130.27 42.2818C130.27 46.231 130.306 50.1841 130.25 54.1333C130.195 57.9311 130.008 61.725 130.012 65.5229C130.016 67.7284 130.25 70.0254 129.785 72.203C129.613 73.0072 129.43 73.6043 128.598 73.7516C127.408 73.9626 126.114 73.7635 124.92 73.6441C121.596 73.3137 118.2 73.2978 114.864 73.4053C111.018 73.5287 107.189 73.5645 103.339 73.465C99.4535 73.3615 95.572 73.1863 91.6905 73.0748C87.809 72.9634 83.9236 72.9753 80.0382 72.9395C76.1129 72.9037 72.1916 72.7723 68.2663 72.6847C66.3037 72.6409 64.3451 72.6369 62.3824 72.6568C60.7582 72.6767 59.1021 72.6369 57.4858 72.8161C56.188 72.9594 54.9022 73.1783 53.6004 73.2978C52.4419 73.4053 51.1441 73.5287 50.0175 73.1584C49.8742 73.1107 49.7308 73.0589 49.6074 72.9713C49.7189 73.051 49.4562 72.8002 49.4721 72.824C49.3606 72.6807 49.2014 72.3583 49.1297 72.1632C48.8391 71.3949 48.6918 70.5708 48.5764 69.7626C47.9792 65.6543 48.1623 61.4265 48.23 57.2902C48.3335 51.1236 48.1305 44.9332 47.5413 38.7945C47.2825 36.0914 46.9959 33.4122 46.9004 30.6932C46.8048 27.9224 46.7809 25.1476 46.8367 22.3769C46.8566 21.3299 46.8884 20.2789 46.9561 19.2319C47.0039 18.5312 45.9091 18.5312 45.8653 19.2319C45.7021 21.728 45.7021 24.236 45.726 26.7361C45.7498 29.4033 45.8056 32.0786 46.0285 34.7339C46.3072 38.0262 46.7093 41.2985 46.8924 44.5988C47.0914 48.114 47.1432 51.6332 47.1512 55.1484C47.1591 59.2648 46.9601 63.3771 47.2507 67.4895C47.3781 69.277 47.4935 71.2595 48.2658 72.9076C49.1217 74.7389 51.5462 74.5598 53.258 74.4244C54.5996 74.3169 55.9253 74.098 57.2589 73.9387C58.8553 73.7476 60.4795 73.7755 62.0839 73.7556C66.0529 73.7038 70.014 73.8511 73.9831 73.9427C78.0198 74.0343 82.0525 74.0502 86.0893 74.0701C90.0265 74.09 93.9597 74.2373 97.8969 74.3806C101.798 74.5239 105.7 74.6553 109.605 74.6314C111.552 74.6195 113.494 74.5279 115.441 74.4801C117.408 74.4324 119.37 74.4682 121.337 74.5279C122.734 74.5677 124.104 74.6633 125.493 74.7906C126.668 74.8981 127.961 75.0574 129.12 74.7508C130.039 74.508 130.481 73.7874 130.732 72.9156C131.047 71.8089 131.102 70.6186 131.13 69.472C131.158 68.3136 131.122 67.1551 131.106 66.0006C131.082 64.3167 131.142 62.6327 131.182 60.9487C131.278 56.9598 131.361 52.9748 131.361 48.9858C131.361 44.977 131.361 40.9641 131.361 36.9553C131.361 34.9489 131.365 32.9464 131.361 30.94C131.357 29.1884 131.27 27.4407 131.282 25.6891C131.293 24.0131 131.397 22.3291 131.831 20.7049C131.887 20.4899 131.795 20.1913 131.58 20.0878C129.785 19.2438 127.691 19.1682 125.74 19.1682C123.614 19.1682 121.496 19.3473 119.37 19.4309C116.643 19.5384 113.904 19.4588 111.178 19.4588C108.06 19.4588 104.943 19.4588 101.826 19.4588C89.6443 19.4588 77.4625 19.5066 65.2886 19.0567C58.9986 18.8258 52.7086 18.4835 46.4147 18.6865C45.714 18.7183 45.714 19.8091 46.4147 19.7852Z" fill="black"/>
<path d="M64.0863 30.5938C65.814 30.6057 67.5537 30.3111 69.1859 29.7339C69.5084 29.6184 69.9463 29.4194 70.2887 29.5706C70.5156 29.6702 70.6668 29.9488 70.8022 30.1439C71.1525 30.6375 71.5029 31.0436 72.1398 31.1113C73.5571 31.2586 74.5523 29.921 75.9297 29.8971C76.1129 29.8931 76.1407 29.905 76.1925 29.9409C76.3915 30.0762 76.5587 30.2434 76.7697 30.3629C77.2315 30.6176 77.8167 30.8883 78.3541 30.9043C78.8558 30.9202 79.3733 30.7251 79.851 30.6176C80.1098 30.5579 80.5636 30.4584 80.7388 30.2275C80.7348 30.2355 80.9538 30.1001 80.7905 30.12C80.7507 30.124 80.7109 30.0444 80.7706 30.1081C80.8701 30.2156 80.9378 30.3668 81.0214 30.4863C81.4155 31.0396 81.9649 31.0277 82.578 30.8286C83.1393 30.6495 83.84 30.128 84.4491 30.339C85.082 30.5539 85.4921 31.0317 86.2246 30.96C86.8456 30.8963 87.3114 30.4823 87.809 30.1479C88.2748 29.8374 88.4738 29.9249 88.8481 30.3031C89.2302 30.6893 89.6443 30.9719 90.2016 31.0038C90.5479 31.0237 90.8824 30.9481 91.1769 30.7649C91.4437 30.5977 91.6308 30.331 91.8935 30.1638C92.411 29.8334 92.9525 30.5579 93.4222 30.7172C93.7367 30.8207 94.0711 30.7968 94.3896 30.7251C94.728 30.6455 95.0942 30.4186 95.4406 30.4066C95.7272 30.3947 95.9581 30.6973 96.1412 30.8923C96.4 31.167 96.6428 31.4298 96.9454 31.6487C97.1365 31.788 97.451 31.7244 97.6062 31.5651C97.9008 31.2665 98.1914 30.956 98.5338 30.7172C98.697 30.6057 98.8722 30.4982 99.0673 30.4544C99.131 30.4425 99.2066 30.4226 99.2703 30.4345C99.1827 30.4186 99.2345 30.4146 99.2982 30.4823C99.7082 30.9043 99.8953 31.4735 100.596 31.4616C100.914 31.4536 101.197 31.3064 101.428 31.0993C101.675 30.8764 101.679 30.7371 102.009 30.753C102.774 30.7928 103.462 31.1869 104.243 31.0635C104.891 30.964 105.441 30.5579 105.974 30.2036C106.468 29.8732 107.093 29.4114 107.714 29.6662C108.335 29.921 108.737 30.55 109.346 30.8406C109.657 30.9879 109.931 31.0118 110.262 30.9162C110.381 30.8804 110.556 30.7689 110.684 30.7729C110.843 30.7769 110.962 30.9202 111.078 31.0277C111.365 31.2825 111.627 31.5651 112.006 31.6806C112.396 31.804 112.849 31.8239 113.256 31.8239C114.195 31.8279 115.015 31.7681 115.911 32.1304C116.56 32.3932 116.846 31.3382 116.201 31.0794C115.397 30.753 114.597 30.6933 113.741 30.7211C113.359 30.7331 112.973 30.745 112.595 30.6893C112.189 30.6296 112.006 30.3748 111.707 30.12C111.444 29.8971 111.146 29.6901 110.787 29.6741C110.636 29.6662 110.481 29.698 110.333 29.7378C110.222 29.7697 110.007 29.9011 109.9 29.8971C109.633 29.8891 109.251 29.4432 109.06 29.284C108.773 29.0412 108.482 28.8142 108.136 28.667C106.623 28.018 105.616 29.4114 104.35 29.913C103.633 30.1956 102.813 29.7259 102.085 29.6662C101.731 29.6383 101.408 29.6702 101.117 29.8812C100.998 29.9648 100.723 30.3668 100.592 30.3708C100.469 30.3748 100.202 29.8732 100.11 29.7657C99.8834 29.499 99.6246 29.3517 99.2663 29.3477C98.2591 29.3358 97.4828 30.132 96.826 30.7968C97.0449 30.7689 97.2679 30.741 97.4868 30.7132C96.9733 30.339 96.6707 29.7498 96.0895 29.4592C95.4764 29.1486 94.8872 29.4512 94.2821 29.6264C94.0234 29.702 93.8402 29.7458 93.6054 29.6104C93.3665 29.4751 93.1674 29.292 92.9206 29.1725C92.3354 28.8939 91.6984 28.9496 91.1809 29.3397C90.7788 29.6463 90.4205 30.1638 89.8752 29.7936C89.4691 29.5189 89.2422 29.0929 88.7485 28.9257C88.1793 28.7306 87.6697 28.9217 87.1959 29.2482C86.7222 29.5746 86.2684 30.0643 85.6633 29.7776C85.0263 29.4751 84.5844 29.1287 83.832 29.2442C83.1632 29.3477 82.5461 29.8573 81.8734 29.8772C81.8933 29.8772 81.9928 29.9767 81.9251 29.905C81.8853 29.8613 81.8455 29.7816 81.8136 29.7339C81.746 29.6303 81.6783 29.5268 81.5987 29.4313C81.4235 29.2243 81.2085 29.0611 80.9259 29.0531C80.6034 29.0451 80.3327 29.1964 80.07 29.3596C79.7555 29.5587 79.4051 29.5985 79.0508 29.6861C78.6209 29.7936 78.3621 29.8613 77.9362 29.706C77.6535 29.6025 77.3589 29.4831 77.1121 29.3119C76.9608 29.2044 76.8334 29.0611 76.6702 28.9695C76.2084 28.7068 75.5515 28.8063 75.0619 28.9257C74.3811 29.0929 73.7999 29.5149 73.1709 29.8055C72.8962 29.9329 72.4464 30.1399 72.1319 30.0245C71.885 29.9329 71.7377 29.6104 71.5904 29.4074C71.1366 28.7784 70.5952 28.3763 69.7791 28.4599C69.3571 28.5037 68.9749 28.6669 68.5768 28.7983C68.115 28.9496 67.6413 29.069 67.1676 29.1765C66.1484 29.4074 65.1174 29.5189 64.0704 29.5109C63.3816 29.495 63.3816 30.5858 64.0863 30.5938Z" fill="black"/>
<path d="M58.9388 26.8437C55.9013 24.1486 51.4107 31.7881 56.4626 33.4243C62.1156 35.2555 62.5017 27.0786 59.2493 26.9989" fill="#FFE35B"/>
<path d="M59.4205 26.362C58.7 25.737 57.8043 25.4504 56.8608 25.6773C56.0287 25.8764 55.2922 26.4456 54.7667 27.1025C53.6242 28.5277 53.0151 30.6496 53.9706 32.3335C54.508 33.285 55.4754 33.8582 56.5025 34.1528C57.4499 34.4236 58.5129 34.4912 59.4444 34.117C61.0806 33.4601 61.9286 31.7762 61.9843 30.0763C62.036 28.3844 61.1762 26.3859 59.2494 26.3182C58.3696 26.2864 58.3696 27.6559 59.2494 27.6837C59.321 27.6877 59.524 27.7315 59.317 27.6837C59.3807 27.6997 59.4484 27.7076 59.5121 27.7275C59.5718 27.7434 59.7629 27.839 59.5718 27.7395C59.6275 27.7673 59.6873 27.7952 59.743 27.827C59.7987 27.8589 59.8505 27.8987 59.9062 27.9345C59.7311 27.8231 59.9062 27.9385 59.946 27.9783C59.9898 28.0181 60.0296 28.0619 60.0694 28.1057C60.2128 28.253 60.0296 28.0221 60.1252 28.1734C60.2008 28.2928 60.2725 28.4083 60.3362 28.5357C60.3481 28.5595 60.3601 28.5874 60.372 28.6153C60.4437 28.7427 60.3282 28.5038 60.364 28.5914C60.3919 28.667 60.4198 28.7427 60.4476 28.8223C60.4954 28.9656 60.5312 29.1169 60.5591 29.2642C60.5671 29.304 60.5989 29.511 60.583 29.4035C60.571 29.308 60.5989 29.5468 60.5989 29.5946C60.6109 29.7459 60.6148 29.9011 60.6109 30.0524C60.6109 30.1241 60.6069 30.1997 60.5989 30.2714C60.5949 30.3231 60.5551 30.6257 60.587 30.4306C60.5312 30.7571 60.4516 31.0716 60.3401 31.3821C60.2725 31.5652 60.38 31.3144 60.2924 31.4896C60.2605 31.5533 60.2287 31.6209 60.1928 31.6846C60.1132 31.8359 60.0177 31.9752 59.9182 32.1146C60.0256 31.9633 59.8744 32.1663 59.8425 32.2022C59.7987 32.2499 59.7549 32.2977 59.7112 32.3415C59.6554 32.3972 59.5917 32.453 59.532 32.5047C59.524 32.5127 59.3967 32.6082 59.4882 32.5405C59.5718 32.4768 59.4126 32.5923 59.3966 32.6003C59.2693 32.6839 59.1379 32.7515 59.0025 32.8192C58.8473 32.8909 59.1419 32.7714 58.9747 32.8272C58.9428 32.8391 58.911 32.8511 58.8751 32.863C58.7756 32.8948 58.6721 32.9267 58.5646 32.9466C58.5168 32.9585 58.3098 32.9904 58.3815 32.9824C58.4532 32.9745 58.2342 32.9944 58.1864 32.9984C57.9595 33.0103 57.7286 33.0023 57.5017 32.9745C57.6291 32.9904 57.3504 32.9466 57.3146 32.9386C57.2071 32.9187 57.1036 32.8948 57.0001 32.867C56.8767 32.8351 56.7533 32.7993 56.6338 32.7595C56.5861 32.7436 56.5383 32.7276 56.4905 32.7117C56.4428 32.6958 56.399 32.6799 56.3552 32.66C56.399 32.6799 56.395 32.6799 56.3552 32.66C56.1601 32.5764 55.977 32.4729 55.8018 32.3574C55.8098 32.3614 55.6426 32.242 55.7182 32.3017C55.7939 32.3574 55.6426 32.238 55.6466 32.242C55.5669 32.1703 55.4873 32.0986 55.4157 32.019C55.3838 31.9872 55.2365 31.8001 55.3241 31.9195C55.2684 31.8439 55.2166 31.7682 55.1728 31.6886C55.125 31.609 55.0852 31.5294 55.0454 31.4497C54.9897 31.3343 55.0414 31.4418 55.0494 31.4657C55.0255 31.406 55.0056 31.3502 54.9857 31.2865C54.934 31.1233 54.8941 30.9561 54.8703 30.7889C54.8981 30.968 54.8663 30.6934 54.8623 30.6456C54.8583 30.554 54.8583 30.4625 54.8583 30.3709C54.8623 30.2793 54.8663 30.1878 54.8742 30.0962C54.8742 30.0922 54.8981 29.9131 54.8822 30.0206C54.8663 30.132 54.8941 29.9489 54.8981 29.9449C54.934 29.7618 54.9777 29.5787 55.0335 29.3995C55.0613 29.308 55.0932 29.2204 55.125 29.1328C55.125 29.1328 55.1927 28.9576 55.1529 29.0572C55.1131 29.1527 55.1848 28.9815 55.1848 28.9815C55.2644 28.8103 55.352 28.6431 55.4475 28.4799C55.5032 28.3844 55.5669 28.2888 55.6306 28.1973C55.6585 28.1535 55.8177 27.9504 55.7222 28.0659C55.8536 27.9027 55.9929 27.7474 56.1442 27.6041C56.2158 27.5364 56.2875 27.4767 56.3631 27.413C56.4905 27.3015 56.2835 27.4688 56.3671 27.409C56.4149 27.3732 56.4627 27.3414 56.5144 27.3055C56.5861 27.2578 56.6538 27.218 56.7294 27.1742C56.7772 27.1503 57.0479 27.0308 56.8767 27.0945C57.0399 27.0308 57.2031 26.991 57.3743 26.9552C57.1753 26.999 57.434 26.9552 57.4937 26.9512C57.5813 26.9512 57.6649 26.9552 57.7485 26.9632C57.5455 26.9472 57.8321 26.987 57.8918 27.007C57.9515 27.0269 58.1506 27.1144 58.0033 27.0428C58.0949 27.0866 58.1864 27.1383 58.274 27.1941C58.3059 27.214 58.3337 27.2339 58.3616 27.2538C58.4213 27.2976 58.4213 27.2976 58.3576 27.2498C58.3855 27.2737 58.4173 27.2976 58.4452 27.3254C58.7239 27.5683 59.1379 27.6001 59.4126 27.3254C59.6674 27.0786 59.7032 26.6049 59.4205 26.362Z" fill="black"/>
<path d="M59.2812 38.1655C56.2437 35.4703 51.7532 43.1099 56.805 44.7461C62.4581 46.5773 62.8442 38.4003 59.5917 38.3207" fill="#D6A4DA"/>
<path d="M59.7629 37.6839C59.0424 37.0589 58.1467 36.7723 57.2032 36.9992C56.3711 37.1983 55.6346 37.7675 55.1092 38.4244C53.9666 39.8496 53.3575 41.9715 54.313 43.6554C54.8504 44.6069 55.8178 45.1801 56.8449 45.4747C57.7923 45.7455 58.8553 45.8131 59.7868 45.4389C61.423 44.782 62.271 43.0981 62.3267 41.3982C62.3785 39.7063 61.5186 37.7078 59.5918 37.6401C58.712 37.6083 58.712 38.9778 59.5918 39.0056C59.6634 39.0096 59.8664 39.0534 59.6594 39.0056C59.7231 39.0215 59.7908 39.0295 59.8545 39.0494C59.9142 39.0653 60.1053 39.1609 59.9142 39.0614C59.97 39.0892 60.0297 39.1171 60.0854 39.1489C60.1411 39.1808 60.1929 39.2206 60.2486 39.2564C60.0735 39.145 60.2486 39.2604 60.2884 39.3002C60.3322 39.34 60.372 39.3838 60.4118 39.4276C60.5552 39.5749 60.372 39.344 60.4676 39.4953C60.5432 39.6147 60.6149 39.7302 60.6786 39.8576C60.6905 39.8814 60.7024 39.9093 60.7144 39.9372C60.7861 40.0646 60.6706 39.8257 60.7064 39.9133C60.7343 39.9889 60.7622 40.0646 60.79 40.1442C60.8378 40.2875 60.8736 40.4388 60.9015 40.5861C60.9095 40.6259 60.9413 40.8329 60.9254 40.7254C60.9134 40.6299 60.9413 40.8687 60.9413 40.9165C60.9533 41.0678 60.9572 41.223 60.9533 41.3743C60.9533 41.446 60.9493 41.5216 60.9413 41.5933C60.9373 41.645 60.8975 41.9476 60.9294 41.7525C60.8736 42.079 60.794 42.3934 60.6825 42.704C60.6149 42.8871 60.7224 42.6363 60.6348 42.8115C60.6029 42.8752 60.5711 42.9428 60.5353 43.0065C60.4556 43.1578 60.3601 43.2971 60.2606 43.4365C60.3681 43.2852 60.2168 43.4882 60.1849 43.5241C60.1411 43.5718 60.0973 43.6196 60.0535 43.6634C59.9978 43.7191 59.9341 43.7749 59.8744 43.8266C59.8664 43.8346 59.739 43.9301 59.8306 43.8624C59.9142 43.7987 59.755 43.9142 59.7391 43.9222C59.6117 44.0058 59.4803 44.0734 59.3449 44.1411C59.1897 44.2128 59.4843 44.0933 59.3171 44.1491C59.2852 44.161 59.2534 44.173 59.2175 44.1849C59.118 44.2167 59.0145 44.2486 58.907 44.2685C58.8593 44.2804 58.6522 44.3123 58.7239 44.3043C58.7956 44.2964 58.5766 44.3163 58.5288 44.3203C58.3019 44.3322 58.071 44.3242 57.8441 44.2964C57.9715 44.3123 57.6928 44.2685 57.657 44.2605C57.5495 44.2406 57.446 44.2167 57.3425 44.1889C57.2191 44.157 57.0957 44.1212 56.9762 44.0814C56.9285 44.0655 56.8807 44.0495 56.8329 44.0336C56.7852 44.0177 56.7414 44.0018 56.6976 43.9819C56.7414 44.0018 56.7374 44.0018 56.6976 43.9819C56.5025 43.8983 56.3194 43.7948 56.1442 43.6793C56.1522 43.6833 55.985 43.5639 56.0606 43.6236C56.1362 43.6793 55.985 43.5599 55.989 43.5639C55.9093 43.4922 55.8297 43.4205 55.7581 43.3409C55.7262 43.3091 55.5789 43.122 55.6665 43.2414C55.6108 43.1658 55.559 43.0901 55.5152 43.0105C55.4674 42.9309 55.4276 42.8513 55.3878 42.7716C55.3321 42.6562 55.3838 42.7637 55.3918 42.7876C55.3679 42.7279 55.348 42.6721 55.3281 42.6084C55.2764 42.4452 55.2366 42.278 55.2127 42.1108C55.2405 42.2899 55.2087 42.0153 55.2047 41.9675C55.2007 41.8759 55.2007 41.7844 55.2007 41.6928C55.2047 41.6012 55.2087 41.5097 55.2166 41.4181C55.2166 41.4141 55.2405 41.235 55.2246 41.3425C55.2087 41.4539 55.2365 41.2708 55.2405 41.2668C55.2764 41.0837 55.3201 40.9006 55.3759 40.7214C55.4037 40.6299 55.4356 40.5423 55.4674 40.4547C55.4674 40.4547 55.5351 40.2795 55.4953 40.3791C55.4555 40.4746 55.5272 40.3034 55.5272 40.3034C55.6068 40.1322 55.6944 39.965 55.7899 39.8018C55.8456 39.7063 55.9093 39.6107 55.973 39.5192C56.0009 39.4754 56.1601 39.2723 56.0646 39.3878C56.196 39.2246 56.3353 39.0693 56.4866 38.926C56.5582 38.8583 56.6299 38.7986 56.7055 38.7349C56.8329 38.6234 56.6259 38.7907 56.7095 38.7309C56.7573 38.6951 56.8051 38.6633 56.8568 38.6274C56.9285 38.5797 56.9961 38.5398 57.0718 38.4961C57.1196 38.4722 57.3903 38.3527 57.2191 38.4164C57.3823 38.3527 57.5455 38.3129 57.7167 38.2771C57.5177 38.3209 57.7764 38.2771 57.8361 38.2731C57.9237 38.2731 58.0073 38.2771 58.0909 38.2851C57.8879 38.2691 58.1745 38.3089 58.2342 38.3289C58.294 38.3488 58.493 38.4363 58.3457 38.3647C58.4373 38.4085 58.5288 38.4602 58.6164 38.516C58.6483 38.5359 58.6761 38.5558 58.704 38.5757C58.7637 38.6195 58.7637 38.6195 58.7 38.5717C58.7279 38.5956 58.7597 38.6195 58.7876 38.6473C59.0663 38.8902 59.4803 38.922 59.755 38.6473C60.0137 38.4005 60.0456 37.9268 59.7629 37.6839Z" fill="black"/>
<path d="M59.2812 49.3163C56.2437 46.6212 51.7532 54.2607 56.805 55.8969C62.4581 57.7282 62.8442 49.5512 59.5917 49.4716" fill="#7BDF9B"/>
<path d="M59.7629 48.8346C59.0424 48.2096 58.1467 47.9229 57.2032 48.1498C56.3711 48.3489 55.6346 48.9182 55.1092 49.575C53.9666 51.0002 53.3575 53.1221 54.313 54.8061C54.8504 55.7575 55.8178 56.3308 56.8449 56.6254C57.7923 56.8961 58.8553 56.9638 59.7868 56.5895C61.423 55.9327 62.271 54.2487 62.3267 52.5488C62.3785 50.8569 61.5186 48.8585 59.5918 48.7908C58.712 48.7589 58.712 50.1284 59.5918 50.1563C59.6634 50.1602 59.8664 50.204 59.6594 50.1563C59.7231 50.1722 59.7908 50.1801 59.8545 50.2001C59.9142 50.216 60.1053 50.3115 59.9142 50.212C59.97 50.2399 60.0297 50.2677 60.0854 50.2996C60.1411 50.3314 60.1929 50.3712 60.2486 50.4071C60.0735 50.2956 60.2486 50.411 60.2884 50.4509C60.3322 50.4907 60.372 50.5345 60.4118 50.5782C60.5552 50.7255 60.372 50.4946 60.4676 50.6459C60.5432 50.7654 60.6149 50.8808 60.6786 51.0082C60.6905 51.0321 60.7024 51.0599 60.7144 51.0878C60.7861 51.2152 60.6706 50.9763 60.7064 51.0639C60.7343 51.1396 60.7622 51.2152 60.79 51.2948C60.8378 51.4381 60.8736 51.5894 60.9015 51.7367C60.9095 51.7765 60.9413 51.9835 60.9254 51.876C60.9134 51.7805 60.9413 52.0194 60.9413 52.0671C60.9533 52.2184 60.9572 52.3737 60.9533 52.525C60.9533 52.5966 60.9493 52.6722 60.9413 52.7439C60.9373 52.7957 60.8975 53.0982 60.9294 52.9031C60.8736 53.2296 60.794 53.5441 60.6825 53.8546C60.6149 54.0377 60.7224 53.7869 60.6348 53.9621C60.6029 54.0258 60.5711 54.0935 60.5353 54.1572C60.4556 54.3084 60.3601 54.4478 60.2606 54.5871C60.3681 54.4358 60.2168 54.6389 60.1849 54.6747C60.1411 54.7225 60.0973 54.7702 60.0535 54.814C59.9978 54.8698 59.9341 54.9255 59.8744 54.9772C59.8664 54.9852 59.739 55.0807 59.8306 55.0131C59.9142 54.9494 59.755 55.0648 59.7391 55.0728C59.6117 55.1564 59.4803 55.2241 59.3449 55.2917C59.1897 55.3634 59.4843 55.244 59.3171 55.2997C59.2852 55.3116 59.2534 55.3236 59.2175 55.3355C59.118 55.3674 59.0145 55.3992 58.907 55.4191C58.8593 55.4311 58.6522 55.4629 58.7239 55.455C58.7956 55.447 58.5766 55.4669 58.5288 55.4709C58.3019 55.4828 58.071 55.4749 57.8441 55.447C57.9715 55.4629 57.6928 55.4191 57.657 55.4112C57.5495 55.3913 57.446 55.3674 57.3425 55.3395C57.2191 55.3077 57.0957 55.2718 56.9762 55.232C56.9285 55.2161 56.8807 55.2002 56.8329 55.1843C56.7852 55.1683 56.7414 55.1524 56.6976 55.1325C56.7414 55.1524 56.7374 55.1524 56.6976 55.1325C56.5025 55.0489 56.3194 54.9454 56.1442 54.8299C56.1522 54.8339 55.985 54.7145 56.0606 54.7742C56.1362 54.8299 55.985 54.7105 55.989 54.7145C55.9093 54.6428 55.8297 54.5712 55.7581 54.4916C55.7262 54.4597 55.5789 54.2726 55.6665 54.392C55.6108 54.3164 55.559 54.2408 55.5152 54.1611C55.4674 54.0815 55.4276 54.0019 55.3878 53.9223C55.3321 53.8068 55.3838 53.9143 55.3918 53.9382C55.3679 53.8785 55.348 53.8228 55.3281 53.7591C55.2764 53.5958 55.2366 53.4286 55.2127 53.2614C55.2405 53.4406 55.2087 53.1659 55.2047 53.1181C55.2007 53.0266 55.2007 52.935 55.2007 52.8434C55.2047 52.7519 55.2087 52.6603 55.2166 52.5687C55.2166 52.5648 55.2405 52.3856 55.2246 52.4931C55.2087 52.6046 55.2365 52.4214 55.2405 52.4175C55.2764 52.2343 55.3201 52.0512 55.3759 51.8721C55.4037 51.7805 55.4356 51.6929 55.4674 51.6053C55.4674 51.6053 55.5351 51.4302 55.4953 51.5297C55.4555 51.6252 55.5272 51.4541 55.5272 51.4541C55.6068 51.2829 55.6944 51.1157 55.7899 50.9525C55.8456 50.8569 55.9093 50.7614 55.973 50.6698C56.0009 50.626 56.1601 50.423 56.0646 50.5384C56.196 50.3752 56.3353 50.22 56.4866 50.0766C56.5582 50.009 56.6299 49.9492 56.7055 49.8855C56.8329 49.7741 56.6259 49.9413 56.7095 49.8816C56.7573 49.8457 56.8051 49.8139 56.8568 49.7781C56.9285 49.7303 56.9961 49.6905 57.0718 49.6467C57.1196 49.6228 57.3903 49.5034 57.2191 49.5671C57.3823 49.5034 57.5455 49.4636 57.7167 49.4277C57.5177 49.4715 57.7764 49.4277 57.8361 49.4238C57.9237 49.4238 58.0073 49.4277 58.0909 49.4357C57.8879 49.4198 58.1745 49.4596 58.2342 49.4795C58.294 49.4994 58.493 49.587 58.3457 49.5153C58.4373 49.5591 58.5288 49.6109 58.6164 49.6666C58.6483 49.6865 58.6761 49.7064 58.704 49.7263C58.7637 49.7701 58.7637 49.7701 58.7 49.7223C58.7279 49.7462 58.7597 49.7701 58.7876 49.798C59.0663 50.0408 59.4803 50.0727 59.755 49.798C60.0137 49.5511 60.0456 49.0774 59.7629 48.8346Z" fill="black"/>
<path d="M59.4524 60.6384C56.4149 57.9432 51.9244 65.5828 56.9763 67.219C62.6293 69.0502 63.0154 60.8732 59.7629 60.7936" fill="#A0DCEC"/>
<path d="M59.9381 60.1566C59.2176 59.5316 58.3218 59.2449 57.3783 59.4719C56.5463 59.6709 55.8098 60.2402 55.2843 60.897C54.1418 62.3222 53.5327 64.4441 54.4881 66.1281C55.0256 67.0795 55.9929 67.6528 57.02 67.9474C57.9675 68.2181 59.0304 68.2858 59.962 67.9116C61.5982 67.2547 62.4461 65.5707 62.5019 63.8709C62.5536 62.1789 61.6937 60.1805 59.7669 60.1128C58.8871 60.0809 58.8871 61.4504 59.7669 61.4783C59.8386 61.4823 60.0416 61.526 59.8346 61.4783C59.8983 61.4942 59.966 61.5022 60.0297 61.5221C60.0894 61.538 60.2805 61.6335 60.0894 61.534C60.1451 61.5619 60.2048 61.5897 60.2606 61.6216C60.3163 61.6534 60.3681 61.6932 60.4238 61.7291C60.2486 61.6176 60.4238 61.7331 60.4636 61.7729C60.5074 61.8127 60.5472 61.8565 60.587 61.9003C60.7303 62.0476 60.5472 61.8167 60.6427 61.9679C60.7184 62.0874 60.79 62.2028 60.8537 62.3302C60.8657 62.3541 60.8776 62.382 60.8896 62.4098C60.9612 62.5372 60.8458 62.2984 60.8816 62.3859C60.9095 62.4616 60.9373 62.5372 60.9652 62.6168C61.013 62.7602 61.0488 62.9114 61.0767 63.0587C61.0846 63.0985 61.1165 63.3055 61.1006 63.1981C61.0886 63.1025 61.1165 63.3414 61.1165 63.3892C61.1284 63.5404 61.1324 63.6957 61.1284 63.847C61.1284 63.9186 61.1244 63.9943 61.1165 64.0659C61.1125 64.1177 61.0727 64.4202 61.1045 64.2252C61.0488 64.5516 60.9692 64.8661 60.8577 65.1766C60.79 65.3597 60.8975 65.1089 60.81 65.2841C60.7781 65.3478 60.7463 65.4155 60.7104 65.4792C60.6308 65.6305 60.5353 65.7698 60.4357 65.9091C60.5432 65.7578 60.3919 65.9609 60.3601 65.9967C60.3163 66.0445 60.2725 66.0922 60.2287 66.136C60.173 66.1918 60.1093 66.2475 60.0496 66.2993C60.0416 66.3072 59.9142 66.4028 60.0058 66.3351C60.0894 66.2714 59.9302 66.3868 59.9142 66.3948C59.7868 66.4784 59.6555 66.5461 59.5201 66.6138C59.3648 66.6854 59.6594 66.566 59.4922 66.6217C59.4604 66.6337 59.4285 66.6456 59.3927 66.6575C59.2932 66.6894 59.1897 66.7212 59.0862 66.7411C59.0384 66.7531 58.8314 66.7849 58.9031 66.777C58.9747 66.769 58.7558 66.7889 58.708 66.7929C58.4811 66.8048 58.2502 66.7969 58.0233 66.769C58.1506 66.7849 57.872 66.7411 57.8361 66.7332C57.7287 66.7133 57.6252 66.6894 57.5216 66.6615C57.3982 66.6297 57.2748 66.5938 57.1554 66.554C57.1076 66.5381 57.0598 66.5222 57.0121 66.5063C56.9643 66.4903 56.9205 66.4744 56.8767 66.4545C56.9205 66.4744 56.9165 66.4744 56.8767 66.4545C56.6817 66.3709 56.4985 66.2674 56.3234 66.152C56.3313 66.1559 56.1641 66.0365 56.2398 66.0962C56.3154 66.152 56.1641 66.0325 56.1681 66.0365C56.0885 65.9649 56.0089 65.8932 55.9372 65.8136C55.9054 65.7817 55.7581 65.5946 55.8456 65.7141C55.7899 65.6384 55.7382 65.5628 55.6944 65.4831C55.6466 65.4035 55.6068 65.3239 55.567 65.2443C55.5112 65.1289 55.563 65.2363 55.571 65.2602C55.5471 65.2005 55.5272 65.1448 55.5073 65.0811C55.4555 64.9179 55.4157 64.7507 55.3918 64.5835C55.4197 64.7626 55.3878 64.4879 55.3839 64.4401C55.3799 64.3486 55.3799 64.257 55.3799 64.1654C55.3838 64.0739 55.3878 63.9823 55.3958 63.8908C55.3958 63.8868 55.4197 63.7076 55.4038 63.8151C55.3878 63.9266 55.4157 63.7435 55.4197 63.7395C55.4555 63.5564 55.4993 63.3732 55.555 63.1941C55.5829 63.1025 55.6148 63.0149 55.6466 62.9274C55.6466 62.9274 55.7143 62.7522 55.6745 62.8517C55.6346 62.9473 55.7063 62.7761 55.7063 62.7761C55.7859 62.6049 55.8735 62.4377 55.9691 62.2745C56.0248 62.1789 56.0885 62.0834 56.1522 61.9918C56.18 61.948 56.3393 61.745 56.2437 61.8605C56.3751 61.6972 56.5145 61.542 56.6657 61.3987C56.7374 61.331 56.809 61.2713 56.8847 61.2076C57.0121 61.0961 56.8051 61.2633 56.8887 61.2036C56.9364 61.1678 56.9842 61.1359 57.036 61.1001C57.1076 61.0523 57.1753 61.0125 57.2509 60.9687C57.2987 60.9448 57.5694 60.8254 57.3982 60.8891C57.5615 60.8254 57.7247 60.7856 57.8959 60.7498C57.6968 60.7935 57.9556 60.7497 58.0153 60.7458C58.1029 60.7458 58.1865 60.7497 58.2701 60.7577C58.067 60.7418 58.3537 60.7816 58.4134 60.8015C58.4731 60.8214 58.6721 60.909 58.5249 60.8373C58.6164 60.8811 58.708 60.9329 58.7956 60.9886C58.8274 61.0085 58.8553 61.0284 58.8832 61.0483C58.9429 61.0921 58.9429 61.0921 58.8792 61.0443C58.907 61.0682 58.9389 61.0921 58.9667 61.12C59.2454 61.3628 59.6594 61.3947 59.9341 61.12C60.1849 60.8732 60.2168 60.3994 59.9381 60.1566Z" fill="black"/>
<path d="M64.5719 42.5804C65.4398 42.4451 66.2878 42.2022 67.1556 42.0748C66.9327 41.9474 66.7097 41.82 66.4828 41.6926C66.5624 41.9634 66.8132 42.25 66.8491 42.5207C66.9008 42.9228 67.275 43.2134 67.6692 42.9904C68.2464 42.668 68.6604 42.1505 69.2058 41.7922C68.9391 41.6847 68.6724 41.5732 68.4056 41.4657C69.4049 44.6426 73.1112 42.3933 75.042 41.6051C74.835 41.5215 74.6319 41.4379 74.4249 41.3543C75.1813 42.5565 76.7618 42.3814 77.976 42.1942C78.601 42.0987 79.23 41.9395 79.8629 41.9076C80.8184 41.8598 81.7818 41.8758 82.7372 41.824C83.8002 41.7683 84.8671 41.7125 85.93 41.7683C86.8098 41.8161 87.6657 42.035 88.5455 42.0907C89.3815 42.1465 90.2812 42.027 91.0774 41.7842C91.3163 41.7125 91.5949 41.5453 91.8537 41.5613C92.0408 41.5732 92.3951 41.6887 92.4907 41.836C92.5942 41.9912 92.5862 42.242 92.6778 42.4132C92.8251 42.6839 93.0679 42.8631 93.3506 42.9745C94.0831 43.2572 94.8514 43.1258 95.5043 42.7277C96.3124 42.238 97.2878 40.9761 98.2074 41.9275C98.5179 42.246 98.7528 42.6242 99.0991 42.9108C99.537 43.2771 100.074 43.4562 100.644 43.4284C101.42 43.3885 102.149 43.078 102.786 42.6441C103.395 42.2301 103.972 41.6767 104.692 41.4578C105.648 41.1711 106.165 41.7125 106.946 42.1266C107.853 42.6123 108.701 42.5087 109.661 42.3137C110.047 42.2341 110.461 42.1704 110.855 42.2221C111.277 42.2739 111.687 42.3973 112.109 42.4411C113.216 42.5565 114.314 41.8638 115.397 42.238C116.062 42.4689 116.349 41.414 115.688 41.1871C114.752 40.8646 113.881 41.1672 112.949 41.3184C112.157 41.4498 111.46 41.1433 110.684 41.1154C109.868 41.0875 109.068 41.4896 108.263 41.41C107.487 41.3344 106.978 40.7531 106.289 40.4665C104.665 39.7897 103.391 40.9402 102.125 41.7683C101.603 42.1067 100.906 42.445 100.266 42.3057C99.8475 42.2142 99.5808 41.8638 99.3221 41.5493C98.6214 40.6974 97.7018 40.152 96.5911 40.6576C95.982 40.9363 95.5162 41.4339 94.9509 41.7802C94.6125 41.9872 93.8004 42.25 93.6054 41.8001C93.5217 41.609 93.5058 41.406 93.3904 41.2229C93.1993 40.9203 92.8808 40.7611 92.5583 40.6337C91.8895 40.3749 91.4317 40.5302 90.7868 40.7292C89.9707 40.98 89.0869 41.0676 88.235 40.9681C87.3393 40.8646 86.4714 40.6855 85.5677 40.6576C84.3814 40.6218 83.195 40.7054 82.0087 40.7651C81.105 40.8089 80.1854 40.7491 79.2857 40.8726C78.5572 40.9721 77.8366 41.1433 77.1041 41.207C76.5587 41.2547 75.7068 41.3383 75.3644 40.7969C75.249 40.6138 74.9743 40.4546 74.7474 40.5461C73.7362 40.9601 72.7808 41.4976 71.7338 41.824C70.838 42.1027 69.795 42.2579 69.4526 41.1711C69.3531 40.8526 68.955 40.6417 68.6525 40.8447C68.1071 41.203 67.6891 41.7245 67.1158 42.043C67.3905 42.1982 67.6652 42.3575 67.9359 42.5127C67.8802 42.0907 67.6453 41.7882 67.5298 41.3941C67.4383 41.0836 67.1556 40.9681 66.857 41.0119C65.9852 41.1393 65.1412 41.3821 64.2734 41.5175C63.5926 41.6369 63.8872 42.6879 64.5719 42.5804Z" fill="black"/>
<path d="M66.1882 53.5919C66.6261 53.1301 67.0839 52.6882 67.5616 52.2663C67.3029 52.2663 67.0481 52.2663 66.7893 52.2663C67.3466 52.7718 67.4104 53.6357 67.7288 54.2886C67.8682 54.5752 68.2225 54.5951 68.4772 54.4837C69.6994 53.9542 70.635 52.7281 71.9686 52.4454C72.6414 52.3021 72.6732 52.8554 73.0634 53.2615C73.549 53.7631 74.2656 53.6238 74.8389 53.369C75.5077 53.0744 76.073 52.6086 76.6701 52.2026C76.9448 52.0155 77.2354 51.8602 77.534 51.7169C77.6733 51.6492 77.8167 51.5815 77.9679 51.5417C78.0237 51.5258 78.2148 51.4701 78.1471 51.5019C78.0874 51.5338 78.0794 51.4462 78.0794 51.4701C78.0754 51.5099 78.1789 51.6412 78.1988 51.6811C78.3183 51.896 78.4417 52.0991 78.5969 52.2901C79.003 52.7917 79.5962 53.1819 80.2371 53.2814C81.941 53.5442 83.5135 52.2065 84.8192 51.3068C84.6003 51.279 84.3773 51.2511 84.1584 51.2232C84.5167 51.6054 84.8192 52.0155 85.1258 52.4335C85.3328 52.7161 85.5398 52.9948 85.8583 53.158C86.8057 53.6477 88.0359 52.8515 88.9276 52.5967C89.051 52.5609 89.3058 52.5051 89.3576 52.5091C89.4133 52.5131 89.3934 52.521 89.3974 52.525C89.3775 52.5091 89.477 52.6206 89.5009 52.6524C89.7477 52.959 90.0184 53.2257 90.3687 53.4168C90.95 53.7313 91.6029 53.8985 92.2478 53.6795C92.4986 53.5919 92.7334 53.4526 92.9882 53.3849C93.3943 53.2734 93.8282 53.3531 94.2422 53.3849C94.8275 53.4287 95.3729 53.3133 95.9501 53.2416C96.3243 53.1938 97.1802 53.0266 97.4111 53.4406C97.5624 53.7114 97.8968 53.7671 98.1595 53.6357C98.3944 53.5163 98.5497 53.3531 98.697 53.1381C99.0951 52.5569 98.1516 52.0115 97.7535 52.5887C97.7216 52.6445 97.6699 52.6803 97.6062 52.6922C97.857 52.7559 98.1038 52.8236 98.3546 52.8873C97.7893 51.8761 96.4238 52.0752 95.4684 52.2145C94.8633 52.3021 94.3338 52.2822 93.7247 52.2464C93.3624 52.2264 92.9882 52.2384 92.6419 52.3499C92.3712 52.4374 92.1244 52.5967 91.8457 52.6644C91.36 52.7878 90.7987 52.4812 90.4762 52.1269C90.2493 51.8801 90.0861 51.6054 89.7517 51.49C88.7206 51.1317 87.6378 52.0752 86.6386 52.2026C86.5788 52.2105 86.4475 52.2145 86.4315 52.2145C86.4076 52.2105 86.336 52.1787 86.34 52.1827C86.3042 52.1588 86.1688 52.0194 86.0931 51.9199C85.711 51.4223 85.3646 50.9167 84.9347 50.4549C84.7794 50.2917 84.4649 50.2359 84.2738 50.3713C83.6409 50.8052 83.0278 51.267 82.359 51.6452C81.7778 51.9756 81.0452 52.3459 80.3565 52.2026C79.8151 52.0911 79.4369 51.6572 79.1782 51.1954C78.9592 50.8092 78.7243 50.4668 78.2466 50.4231C77.6495 50.3673 76.9846 50.7535 76.487 51.0361C75.8819 51.3785 75.3524 51.8443 74.7513 52.1946C74.5682 52.3021 74.1462 52.5847 73.9193 52.5171C73.7561 52.4653 73.6764 52.2304 73.5729 52.0791C73.1908 51.5218 72.6692 51.263 71.9885 51.3466C70.3921 51.5377 69.3411 52.9351 67.9319 53.5442C68.1827 53.6078 68.4295 53.6755 68.6803 53.7392C68.3061 52.9669 68.2424 52.103 67.5736 51.4939C67.3466 51.2869 67.0321 51.2909 66.8013 51.4939C66.3235 51.9159 65.8657 52.3578 65.4278 52.8196C64.9302 53.3292 65.7025 54.1015 66.1882 53.5919Z" fill="black"/>
<path d="M101.798 53.3888C102.801 53.0305 103.594 52.3299 104.521 51.8363C104.254 51.7288 103.988 51.6173 103.721 51.5098C104.04 52.4334 104.533 53.7232 105.795 53.357C105.994 53.2973 106.145 53.154 106.337 53.0823C106.575 52.9907 106.798 53.0783 107.017 53.1858C107.595 53.4685 108.148 53.8705 108.825 53.6874C109.39 53.5361 109.728 53.0823 110.083 52.6524C110.326 52.3578 110.779 51.9676 111.201 52.1587C111.488 52.2901 111.679 52.7161 111.886 52.939C112.228 53.3132 112.682 53.572 113.18 53.6715C113.877 53.8108 114.525 53.6715 115.19 53.4764C115.927 53.2614 116.48 53.2694 117.161 53.6755C117.766 54.0377 118.315 53.0942 117.71 52.732C117.145 52.3976 116.524 52.1707 115.859 52.2264C115.338 52.2702 114.856 52.4613 114.354 52.5807C113.865 52.6961 113.283 52.6961 112.865 52.3777C112.559 52.1428 112.384 51.7845 112.117 51.5138C111.408 50.7972 110.206 50.9644 109.521 51.6412C109.239 51.9198 108.92 52.6205 108.478 52.6563C108.243 52.6762 107.949 52.4573 107.758 52.3498C107.479 52.2025 107.196 52.0512 106.886 51.9875C106.563 51.9238 106.233 51.9517 105.93 52.0791C105.795 52.1348 105.632 52.2901 105.493 52.3179C105.035 52.4095 104.88 51.5217 104.776 51.2232C104.657 50.8808 104.298 50.7256 103.976 50.8967C103.14 51.3426 102.411 52.0194 101.512 52.3379C100.851 52.5688 101.133 53.6237 101.798 53.3888Z" fill="black"/>
<path d="M66.7018 64.9138C67.1596 64.4799 67.5537 63.9903 67.9956 63.5404C68.4096 63.1144 68.9431 62.5452 69.5562 62.4337C70.0976 62.3342 70.2608 62.6686 70.3842 63.1304C70.5315 63.6797 70.631 64.2291 70.9216 64.7307C71.065 64.9815 71.4193 65.081 71.6701 64.9258C72.2393 64.5755 72.7131 64.1017 73.2027 63.6519C73.6645 63.2259 74.1781 62.7721 74.8349 62.7163C74.6797 62.6248 74.5205 62.5372 74.3652 62.4456C74.5961 62.9831 74.7514 63.5444 74.9504 64.0938C75.0778 64.4481 75.5714 64.671 75.8621 64.3366C76.1447 64.0062 76.6463 63.3613 77.1479 63.3891C77.6177 63.413 77.8724 64.1097 78.0197 64.456C78.1392 64.7387 78.5293 64.7705 78.7682 64.6511C79.5206 64.2729 80.3566 63.1582 81.2643 63.6797C81.6106 63.8788 81.8893 64.1495 82.2715 64.2888C82.7253 64.452 83.2229 64.4202 83.6887 64.3286C84.3256 64.2012 84.7556 63.8668 85.2333 63.4568C85.2652 63.4289 85.3527 63.3772 85.3527 63.3692C85.3687 63.4687 85.2094 63.3175 85.293 63.3971C85.2333 63.3374 85.305 63.409 85.297 63.4011C85.6832 63.6439 86.0136 63.9146 86.348 64.2251C86.8615 64.7029 87.6378 63.9305 87.1203 63.4528C86.6068 62.9751 85.8145 62.1112 85.0104 62.3342C84.4928 62.4775 84.2182 63.0109 83.7086 63.1901C83.2747 63.3414 82.793 63.3732 82.3949 63.1304C82.0047 62.8915 81.6783 62.585 81.2165 62.4775C79.9704 62.1908 79.2141 63.198 78.2148 63.6996C78.4656 63.7633 78.7124 63.831 78.9632 63.8947C78.6487 63.1622 78.1233 62.3461 77.2395 62.2904C76.3517 62.2386 75.6272 62.9313 75.0897 63.5523C75.3923 63.632 75.6988 63.7116 76.0014 63.7952C75.7705 63.1582 75.5714 62.5093 75.3047 61.8883C75.237 61.729 75.0021 61.6017 74.8349 61.6176C73.1868 61.7609 72.4145 63.1821 71.1207 63.9783C71.3715 64.042 71.6183 64.1097 71.8691 64.1734C71.5307 63.5882 71.5267 62.8875 71.2481 62.2744C70.9535 61.6295 70.3444 61.2872 69.6358 61.323C68.0235 61.4066 66.9884 63.1343 65.9374 64.1336C65.4199 64.6272 66.1922 65.3995 66.7018 64.9138Z" fill="black"/>
<path d="M93.2034 64.8024C93.3785 64.5675 93.7806 63.9226 94.1469 63.9226C94.2663 63.9226 94.541 64.2211 94.6564 64.3406C95.2138 64.9138 95.8308 65.6583 96.6469 65.8454C97.3715 66.0086 97.6661 65.4871 98.1557 65.1049C98.3548 64.9497 98.6653 64.8263 98.8763 64.9696C99.2386 65.2164 99.3938 65.6224 99.8596 65.7578C100.771 66.0205 101.826 65.3637 102.551 64.886C103.028 64.5715 103.2 64.8382 103.57 65.1527C103.976 65.503 104.426 65.6623 104.967 65.6702C105.417 65.6742 105.835 65.5428 106.253 65.4035C106.687 65.2602 107.101 65.1288 107.495 65.4353C107.826 65.6941 108.104 66.0046 108.502 66.1639C108.992 66.355 109.454 66.2475 109.848 65.9131C110.21 65.6025 110.437 65.1447 110.879 64.9337C111.345 64.7148 111.886 64.6073 112.396 64.5555C113.323 64.46 114.478 64.452 115.278 65.0014C115.859 65.3995 116.405 64.452 115.827 64.0579C115.047 63.5245 113.988 63.413 113.065 63.4249C112.113 63.4369 111.078 63.5802 110.23 64.038C109.816 64.261 109.569 64.6391 109.251 64.9656C109.088 65.1368 109.036 65.2044 108.817 65.1129C108.59 65.0173 108.403 64.7785 108.216 64.6272C107.328 63.9066 106.496 64.2251 105.509 64.4998C105.059 64.6232 104.617 64.6272 104.251 64.3047C103.876 63.9703 103.51 63.632 102.977 63.62C102.463 63.6081 102.085 63.8987 101.679 64.1734C101.448 64.3286 101.205 64.4003 100.95 64.5118C100.727 64.6073 100.465 64.7864 100.206 64.7188C99.8476 64.6272 99.6367 64.1216 99.3023 63.9385C98.9081 63.7235 98.3707 63.8111 97.9686 63.9703C97.6501 64.0977 97.3993 64.3047 97.1605 64.5476C97.0968 64.6113 96.9614 64.7586 96.9336 64.7745C96.8858 64.7984 96.9495 64.8183 96.8141 64.7705C95.9423 64.4481 95.5323 63.4369 94.7361 63.0069C93.6811 62.4376 92.8212 63.5046 92.2559 64.257C91.8419 64.8143 92.7893 65.3597 93.2034 64.8024Z" fill="black"/>
</svg>
