<svg width="340" height="204" viewBox="0 0 340 204" fill="none" xmlns="http://www.w3.org/2000/svg">
<path d="M205.278 123.768C155.175 120.928 18.5612 127.822 43.7819 174.747C58.0598 201.307 130.153 199.014 162.992 199.248C201.433 199.524 277.574 203.099 292.686 170.828C307.146 139.943 250.014 125.295 204.299 123.549" fill="#A3896B"/>
<path d="M205.278 123.039C197.748 122.616 190.198 122.476 182.658 122.491C173.398 122.507 164.138 122.757 154.894 123.231C144.816 123.747 134.754 124.524 124.723 125.634C114.874 126.723 105.047 128.124 95.323 130.042C86.6364 131.756 77.9915 133.862 69.6332 136.806C62.9216 139.171 56.1995 142.069 50.4519 146.326C46.1112 149.541 42.177 153.705 40.6554 159.015C39.0817 164.496 40.5095 170.213 43.1566 175.116C46.9658 182.161 54.2142 186.559 61.3896 189.561C70.936 193.552 81.2692 195.574 91.4825 196.976C102.764 198.524 114.15 199.243 125.531 199.608C135.822 199.941 146.114 199.946 156.41 199.962C165.701 199.972 174.992 200.149 184.284 200.212C195.586 200.285 206.894 200.181 218.18 199.555C229.452 198.93 240.744 197.825 251.812 195.553C261.353 193.599 271.024 190.791 279.414 185.715C286.422 181.479 292.451 175.335 294.822 167.326C295.932 163.579 296.047 159.557 294.838 155.82C293.624 152.063 291.248 148.806 288.418 146.097C280.987 138.989 270.826 134.914 261.176 131.861C248.878 127.968 236.075 125.68 223.277 124.247C216.977 123.544 210.651 123.07 204.314 122.825C203.371 122.788 203.376 124.253 204.314 124.289C217.274 124.795 230.223 126.202 242.943 128.75C254.355 131.032 265.902 134.138 276.282 139.515C283.515 143.262 291.467 148.765 293.692 157.092C295.776 164.887 291.81 173.058 286.376 178.519C280.128 184.798 271.665 188.524 263.328 191.124C253.099 194.318 242.422 195.981 231.781 197.054C220.525 198.185 209.212 198.607 197.905 198.732C187.79 198.847 177.676 198.685 167.562 198.565C158.578 198.461 149.595 198.529 140.611 198.446C129.632 198.341 118.647 198.044 107.699 197.211C96.8133 196.382 85.8912 195.084 75.2714 192.479C66.7255 190.384 57.768 187.461 50.8271 181.849C45.8871 177.852 42.1457 171.969 41.536 165.539C41.0566 160.484 42.9638 155.779 46.2988 152.027C50.4415 147.358 56.064 144.148 61.6814 141.574C69.034 138.202 76.8451 135.842 84.6823 133.898C93.7962 131.637 103.061 129.985 112.357 128.661C122.19 127.259 132.086 126.254 141.992 125.509C151.512 124.795 161.053 124.336 170.6 124.107C178.885 123.909 187.176 123.883 195.456 124.102C198.739 124.19 202.021 124.315 205.304 124.498C206.216 124.55 206.216 123.091 205.278 123.039Z" fill="black"/>
<path d="M160.647 140.021C157.088 140.307 153.227 139.823 149.839 140.109C145.473 140.479 143.581 143.83 140.627 147.384C139.089 149.234 134.462 153.402 134.347 156.07C134.217 159.056 138.73 160.474 141.544 161.313C156.676 165.804 174.414 166.925 189.88 164.601C197.66 163.428 205.012 161.313 212.412 158.306C210.26 155.242 208.514 151.751 206.143 148.947C204.299 146.769 201.125 141.996 199.067 140.469C194.836 137.342 185.492 139.578 180.464 139.578" fill="#424242"/>
<path d="M160.647 139.177C158.422 139.349 156.192 139.239 153.961 139.192C151.986 139.151 149.85 139.031 147.932 139.614C144.519 140.657 142.503 143.757 140.361 146.378C138.501 148.661 136.234 150.599 134.634 153.09C133.905 154.226 133.305 155.534 133.571 156.915C133.832 158.29 134.936 159.317 136.072 160.026C137.354 160.828 138.813 161.349 140.251 161.802C142.044 162.37 143.863 162.86 145.686 163.314C149.85 164.345 154.076 165.106 158.333 165.653C166.853 166.748 175.514 166.94 184.07 166.148C192.756 165.341 201.261 163.402 209.437 160.364C210.51 159.963 211.578 159.546 212.641 159.119C213.105 158.931 213.491 158.368 213.147 157.879C211.13 154.981 209.499 151.829 207.316 149.046C205.659 146.941 204.059 144.784 202.371 142.699C200.859 140.834 199.312 139.229 196.946 138.541C194.408 137.806 191.662 137.884 189.057 138.062C186.196 138.254 183.34 138.718 180.469 138.729C179.38 138.734 179.38 140.422 180.469 140.422C185.43 140.401 190.479 138.984 195.424 139.922C196.477 140.12 197.519 140.438 198.416 141.042C199.286 141.626 199.994 142.486 200.661 143.278C202.313 145.237 203.751 147.368 205.377 149.343C207.79 152.266 209.52 155.633 211.682 158.733C211.849 158.322 212.021 157.905 212.188 157.493C204.351 160.666 196.175 162.97 187.775 164.054C179.688 165.096 171.475 165.2 163.357 164.507C155.587 163.845 147.745 162.49 140.324 160.062C138.527 159.473 134.556 158.202 135.28 155.612C135.624 154.377 136.52 153.267 137.328 152.298C138.266 151.167 139.282 150.114 140.288 149.041C142.341 146.842 143.909 143.981 146.411 142.241C147.844 141.24 149.391 140.954 151.111 140.896C153.247 140.823 155.379 140.959 157.515 140.974C158.563 140.985 159.61 140.959 160.657 140.881C161.726 140.787 161.736 139.093 160.647 139.177Z" fill="black"/>
<path d="M152.966 144.033C153.372 119.063 152.174 98.959 152.966 75.3692C153.372 63.332 153.372 46.3862 153.763 34.5887C155.9 26.3607 158.495 15.9076 163.56 11.0406C167.598 10.3059 175.118 11.15 178.604 11.0406C181.537 14.3443 185.44 21.2436 187.817 32.9942C188.551 47.7254 189.072 62.8162 189.364 80.2727C189.604 94.7486 190.578 135.112 188.556 144.924C180.48 151.902 160.928 149.468 152.971 144.924" fill="#F9F9F9"/>
<path d="M153.696 144.033C153.873 133.007 153.727 121.986 153.576 110.965C153.43 100.35 153.315 89.7357 153.586 79.121C153.836 69.2672 154.029 59.4186 154.175 49.5596C154.243 44.8854 154.321 40.206 154.462 35.5319C154.493 34.4428 154.816 33.4266 155.092 32.374C155.379 31.2745 155.67 30.1751 155.973 29.0756C156.598 26.8088 157.27 24.5525 158.052 22.3326C158.797 20.2274 159.641 18.1535 160.704 16.189C161.178 15.3083 161.699 14.4538 162.283 13.6356C162.544 13.2657 162.82 12.9113 163.117 12.5674C163.263 12.4007 163.409 12.2339 163.56 12.0724C163.633 11.9942 163.711 11.916 163.784 11.8379C163.841 11.7754 164.05 11.6555 163.893 11.718C164.242 11.5825 164.743 11.6034 165.113 11.5721C165.613 11.5304 166.108 11.5044 166.608 11.4887C167.666 11.4523 168.729 11.4627 169.787 11.4887C171.913 11.5409 174.039 11.6711 176.165 11.7441C176.978 11.7701 177.786 11.791 178.598 11.7701C178.426 11.6972 178.255 11.6294 178.083 11.5565C181.329 15.2302 183.356 20.0086 184.867 24.6098C185.451 26.3919 185.961 28.1949 186.399 30.0135C186.634 30.9775 186.894 31.952 187.051 32.9316C187.196 33.8331 187.165 34.7919 187.207 35.6986C187.389 39.513 187.556 43.3274 187.707 47.1417C188.239 60.6432 188.51 74.1499 188.755 87.6617C188.953 98.4743 189.119 109.292 189.057 120.11C189.025 125.196 188.958 130.287 188.718 135.373C188.629 137.301 188.515 139.229 188.332 141.152C188.265 141.881 188.176 142.689 188.082 143.34C188.035 143.648 187.988 143.95 187.936 144.257C187.91 144.388 187.905 144.544 187.858 144.669C187.983 144.335 187.837 144.58 187.718 144.674C187.587 144.778 187.452 144.883 187.311 144.982C183.054 148.04 177.311 148.629 172.22 148.562C166.775 148.494 161.173 147.603 156.093 145.602C155.144 145.227 154.222 144.794 153.331 144.294C152.513 143.83 151.773 145.091 152.591 145.555C156.301 147.655 160.631 148.728 164.816 149.38C169.651 150.135 174.638 150.312 179.479 149.489C181.662 149.119 183.815 148.515 185.821 147.551C186.727 147.118 187.587 146.602 188.385 145.993C188.76 145.706 189.161 145.461 189.281 144.987C189.343 144.732 189.38 144.461 189.421 144.2C189.911 141.157 190.068 138.051 190.203 134.977C190.61 125.873 190.573 116.749 190.5 107.64C190.432 99.1674 190.276 90.6997 190.125 82.2268C189.896 69.2985 189.573 56.3703 189.031 43.4524C188.895 40.2686 188.749 37.0795 188.593 33.8956C188.51 32.2125 188.056 30.5607 187.645 28.9296C187.259 27.4133 186.832 25.9073 186.347 24.4222C184.956 20.1493 183.153 15.8763 180.485 12.2287C180.24 11.8952 179.99 11.5721 179.734 11.249C179.505 10.9624 179.229 10.5143 178.885 10.3684C178.494 10.2017 177.864 10.3163 177.442 10.3111C176.848 10.3059 176.248 10.285 175.654 10.259C172.919 10.1495 170.188 9.97238 167.447 10.0036C166.228 10.0193 165.008 10.0766 163.799 10.259C162.695 10.4205 161.913 11.7024 161.277 12.5466C159.688 14.6674 158.542 17.0905 157.552 19.5344C156.452 22.2493 155.582 25.0527 154.79 27.8718C154.394 29.2684 154.024 30.6701 153.654 32.077C153.487 32.7232 153.32 33.3641 153.154 34.0103C152.976 34.6929 153.002 35.3964 152.982 36.0998C152.799 42.207 152.726 48.3194 152.643 54.4266C152.466 67.1881 151.966 79.9496 151.955 92.7111C151.945 106.27 152.325 119.823 152.32 133.382C152.32 136.931 152.289 140.479 152.236 144.028C152.221 144.976 153.68 144.976 153.696 144.033Z" fill="black"/>
<path d="M107.887 145.445C111.498 147.118 123.613 158.223 129.428 156.076C127.026 152.23 127.334 146.076 122.305 144.857C119.455 144.164 111.998 144.705 109.236 145.195C109.507 145.92 110.815 144.888 111.227 145.586" fill="#D6A4DA"/>
<path d="M107.423 146.243C108.517 146.759 109.507 147.504 110.492 148.197C111.92 149.208 113.332 150.239 114.765 151.24C117.855 153.392 121.127 155.612 124.754 156.753C126.317 157.248 128.094 157.529 129.679 156.967C130.226 156.774 130.559 156.149 130.231 155.612C128.334 152.511 128.287 148.416 125.666 145.727C124.395 144.419 122.727 143.903 120.955 143.726C118.991 143.528 116.995 143.596 115.031 143.7C113.014 143.809 110.982 143.965 108.991 144.315C108.366 144.424 108.199 145.19 108.439 145.669C108.684 146.154 109.179 146.394 109.71 146.399C109.929 146.399 110.148 146.347 110.367 146.31C110.409 146.305 110.534 146.274 110.555 146.269C110.883 146.154 110.805 146.555 110.435 146.055C110.732 146.461 111.232 146.654 111.701 146.389C112.097 146.164 112.326 145.524 112.034 145.122C111.69 144.659 111.268 144.414 110.674 144.408C110.45 144.408 110.226 144.466 110.002 144.502C109.976 144.507 109.783 144.56 109.825 144.539C109.611 144.648 109.841 144.335 110.039 144.731C109.856 145.185 109.669 145.638 109.486 146.086C112.915 145.487 116.563 145.305 120.033 145.497C121.513 145.576 123.029 145.779 124.16 146.831C125.327 147.921 125.911 149.479 126.411 150.953C127.052 152.85 127.584 154.815 128.636 156.534C128.819 156.081 129.006 155.627 129.189 155.179C128.001 155.601 126.755 155.414 125.494 155.039C123.858 154.554 122.326 153.778 120.846 152.939C117.662 151.13 114.718 148.931 111.737 146.816C110.659 146.05 109.564 145.211 108.361 144.643C107.282 144.143 106.344 145.737 107.423 146.243Z" fill="black"/>
<path d="M187.129 141.949C184.534 144.851 187.457 152.287 188.754 156.493C189.557 159.103 194.054 168.905 194.507 163.236C194.862 158.806 191.725 143.085 187.129 141.949Z" fill="#D6A4DA"/>
<path d="M186.472 141.292C184.997 143.007 185.034 145.373 185.331 147.488C185.675 149.963 186.446 152.355 187.217 154.721C188.265 157.941 189.411 161.229 191.36 164.038C191.996 164.955 193.179 166.482 194.455 165.669C195.607 164.934 195.487 162.97 195.44 161.782C195.284 157.967 194.46 154.096 193.371 150.453C192.741 148.348 191.985 146.222 190.87 144.32C190.078 142.96 188.973 141.48 187.368 141.053C186.217 140.745 185.727 142.527 186.879 142.835C187.269 142.939 187.582 143.132 187.947 143.481C188.431 143.945 188.734 144.372 189.093 144.945C189.974 146.368 190.599 147.931 191.136 149.51C192.282 152.897 193.085 156.461 193.46 160.015C193.585 161.198 193.747 162.542 193.523 163.694C193.496 163.83 193.46 163.965 193.418 164.095C193.455 163.991 193.439 164.184 193.351 164.226C193.46 164.173 193.429 164.121 193.538 164.08C193.611 164.054 193.788 164.043 193.788 164.043C193.741 164.048 193.887 164.147 193.762 164.017C193.622 163.871 193.872 164.111 193.767 164.028C193.721 163.991 193.674 163.949 193.632 163.908C193.476 163.751 193.226 163.465 193.173 163.397C192.256 162.188 191.568 160.776 190.933 159.405C190.365 158.186 189.885 156.967 189.474 155.68C188.723 153.324 187.905 150.99 187.394 148.567C187.025 146.811 186.477 144.117 187.785 142.595C188.551 141.704 187.254 140.391 186.472 141.292Z" fill="black"/>
<path d="M126.119 163.637C129.757 163.642 139.527 164.695 142.768 163.355C144.384 162.688 147.302 156.816 145.848 154.971C144.561 153.335 138.48 155.586 136.494 156.435C132.346 158.207 129.293 160.724 126.119 163.637Z" fill="#D6A4DA"/>
<path d="M126.119 164.564C129.465 164.58 132.8 164.924 136.145 164.96C137.865 164.976 139.595 164.945 141.299 164.684C142.586 164.486 143.644 164.116 144.488 163.084C145.541 161.797 146.307 160.239 146.786 158.655C147.182 157.342 147.495 155.591 146.572 154.419C145.64 153.241 143.857 153.418 142.544 153.616C140.877 153.871 139.246 154.398 137.667 154.987C135.572 155.768 133.566 156.748 131.695 157.972C129.46 159.437 127.433 161.182 125.468 162.985C124.587 163.793 125.901 165.096 126.776 164.293C128.339 162.86 129.934 161.453 131.669 160.224C133.326 159.051 135.348 157.905 137.047 157.206C138.355 156.67 139.694 156.201 141.064 155.831C142.221 155.518 143.79 155.065 144.905 155.424C145.092 155.487 144.946 155.445 145.066 155.497C145.124 155.523 145.145 155.56 145.108 155.518C145.217 155.664 145.264 155.805 145.301 156.018C145.384 156.534 145.264 157.196 145.129 157.738C144.775 159.129 144.134 160.515 143.269 161.667C143.128 161.855 142.977 162.032 142.815 162.193C142.586 162.423 142.607 162.433 142.372 162.532C142.534 162.464 142.263 162.568 142.211 162.584C142.096 162.621 141.976 162.657 141.862 162.688C141.559 162.766 141.247 162.829 140.939 162.881C139.48 163.121 137.969 163.121 136.494 163.116C133.034 163.1 129.585 162.73 126.125 162.72C124.931 162.709 124.931 164.559 126.119 164.564Z" fill="black"/>
<path d="M134.921 128.859C133.383 131.298 131.862 133.554 130.168 135.884C129.59 136.676 127.902 138.546 127.839 139.562C127.75 140.975 128.595 140.959 129.814 141.397C134.519 143.075 139.814 142.361 144.014 139.516C143.701 135.68 138.365 130.662 135.937 127.973" fill="#D6A4DA"/>
<path d="M134.123 128.39C132.722 130.61 131.263 132.788 129.731 134.914C128.793 136.217 127.276 137.572 126.958 139.208C126.781 140.104 127.037 141.084 127.823 141.605C128.516 142.069 129.486 142.277 130.278 142.517C132.477 143.184 134.827 143.366 137.104 143.074C139.746 142.736 142.263 141.787 144.477 140.307C144.733 140.135 144.967 139.838 144.936 139.51C144.696 136.988 143.133 134.799 141.596 132.877C140.038 130.923 138.261 129.167 136.583 127.317C135.78 126.436 134.478 127.744 135.275 128.625C136.828 130.334 138.464 131.965 139.928 133.747C141.241 135.347 142.872 137.368 143.081 139.515C143.232 139.25 143.388 138.984 143.539 138.718C140.199 140.954 136.067 141.902 132.102 141.084C131.164 140.891 130.267 140.578 129.355 140.281C128.829 140.109 128.626 140.021 128.787 139.484C128.98 138.838 129.501 138.228 129.908 137.702C130.382 137.087 130.867 136.488 131.32 135.857C132.852 133.731 134.316 131.553 135.713 129.333C136.354 128.317 134.759 127.384 134.123 128.39Z" fill="black"/>
<path d="M182.903 31.6393C180.584 33.1974 177.786 33.9894 175.071 34.5262C172.012 35.1306 168.838 35.3651 165.722 35.1098C164.242 34.9899 162.768 34.7294 161.371 34.2187C160.251 33.8123 159.771 35.5944 160.881 36.0008C163.68 37.017 166.817 37.1525 169.766 37.0118C173.064 36.8554 176.41 36.3239 179.542 35.2557C181.037 34.745 182.522 34.1145 183.841 33.2287C184.82 32.5773 183.893 30.9723 182.903 31.6393Z" fill="black"/>
<path d="M153.117 57.4802C156.228 58.1472 160.272 56.9174 163.049 58.2306C162.971 64.0824 162.94 70.4502 162.669 76.2655C162.481 80.2779 162.439 91.3667 162.439 95.1811C162.439 96.1555 155.889 96.0513 154.477 95.8481C151.663 95.4469 152.862 93.128 152.659 90.0796C152.335 85.27 152.648 80.5228 152.862 75.7028C153.128 69.7102 152.961 63.5874 152.961 57.5323" fill="#424242"/>
<path d="M152.893 58.2984C154.545 58.6319 156.218 58.5381 157.885 58.4756C159.443 58.4183 161.163 58.3088 162.622 58.9654C162.481 58.7205 162.34 58.4808 162.205 58.2359C162.064 69.3716 161.647 80.5021 161.606 91.6378C161.6 92.5549 161.6 93.472 161.6 94.3891C161.6 94.5611 161.6 94.7331 161.6 94.905C161.6 95.4 161.673 94.9415 161.752 94.78C161.783 94.7226 161.783 94.7539 161.72 94.7747C161.554 94.8321 161.376 94.8738 161.204 94.9102C159.433 95.2698 157.494 95.1864 155.697 95.103C155.379 95.0874 155.061 95.0718 154.748 95.0405C154.706 95.0353 154.467 95.004 154.712 95.0405C154.602 95.0249 154.488 95.004 154.378 94.978C154.185 94.9363 153.956 94.8842 153.8 94.7643C153.18 94.3058 153.44 93.0343 153.477 92.3777C153.565 90.877 153.451 89.4023 153.404 87.8964C153.346 86.0621 153.367 84.2227 153.425 82.3832C153.55 78.2874 153.815 74.1969 153.852 70.1011C153.894 65.9115 153.815 61.722 153.81 57.5324C153.81 56.4433 152.117 56.4433 152.117 57.5324C152.117 61.4667 152.184 65.3957 152.164 69.3299C152.143 73.1756 151.939 77.0056 151.783 80.846C151.705 82.8105 151.653 84.775 151.684 86.7395C151.71 88.4539 151.903 90.1683 151.809 91.8827C151.757 92.8936 151.585 94.0035 151.945 94.9832C152.362 96.1087 153.414 96.5725 154.54 96.708C156.358 96.9268 158.266 96.8904 160.089 96.7445C160.897 96.6767 161.835 96.6298 162.565 96.2442C163.367 95.8221 163.289 95.0666 163.289 94.2797C163.294 89.444 163.315 84.6031 163.414 79.7673C163.476 76.7502 163.633 73.7331 163.706 70.716C163.81 66.5577 163.841 62.3942 163.893 58.2307C163.898 57.9597 163.737 57.6158 163.476 57.5012C160.235 56.0421 156.702 57.3396 153.341 56.6622C152.278 56.4538 151.825 58.0796 152.893 58.2984Z" fill="black"/>
<path d="M189.057 68.6836C185.842 70.1218 182.079 69.2412 178.755 70.0228C176.186 70.6221 176.056 70.5074 176.003 73.7017C175.972 75.5828 176.462 77.761 176.634 79.6526C176.801 81.4712 176.285 84.6185 176.931 86.2131C177.749 88.2453 178.343 87.6148 180.558 87.7399C182.329 87.8389 184.096 88.2922 185.904 88.0786C188.932 87.7138 188.739 87.1927 188.76 83.8942C188.791 78.7615 188.458 73.7955 188.458 68.6836" fill="#424242"/>
<path d="M188.629 67.9541C186.321 68.9494 183.71 68.6993 181.256 68.8452C180.13 68.9129 179.031 69.0849 177.931 69.3455C177.348 69.4809 176.717 69.6164 176.212 69.9603C174.982 70.7993 175.133 72.7325 175.149 74.0301C175.18 76.4323 175.863 78.7668 175.805 81.1742C175.758 83.1491 175.477 85.2752 176.399 87.1094C176.728 87.7608 177.223 88.3079 177.942 88.5007C178.656 88.6935 179.453 88.5581 180.183 88.5737C181.48 88.605 182.762 88.8655 184.059 88.9541C185.138 89.027 186.243 88.9489 187.301 88.7092C188.671 88.3965 189.395 87.5628 189.541 86.1767C189.651 85.1293 189.599 84.0506 189.593 83.0032C189.588 81.4347 189.557 79.8715 189.515 78.303C189.427 75.0983 189.296 71.8936 189.291 68.6889C189.291 67.5998 187.598 67.5998 187.598 68.6889C187.603 73.8216 187.921 78.9544 187.9 84.0871C187.895 84.7906 187.947 85.5305 187.843 86.2288C187.843 86.234 187.707 86.6978 187.754 86.5935C187.686 86.7499 187.624 86.7916 187.525 86.8541C187.129 87.0886 186.425 87.1772 185.894 87.2397C184.633 87.3856 183.372 87.2136 182.121 87.0573C181.141 86.9375 180.183 86.8749 179.198 86.8958C178.994 86.901 178.572 86.9062 178.484 86.8906C178.296 86.8645 178.249 86.8385 178.135 86.7186C177.65 86.1975 177.509 85.3221 177.462 84.6447C177.395 83.6806 177.447 82.7114 177.478 81.7526C177.551 79.6318 177.15 77.6152 176.931 75.5152C176.827 74.4938 176.816 73.4673 176.879 72.4407C176.894 72.1854 176.921 71.9457 176.978 71.6956C177.014 71.534 177.082 71.435 177.098 71.4194C177.165 71.3464 177.285 71.2891 177.468 71.2266C177.791 71.1224 178.119 71.0442 178.453 70.9713C179.604 70.7003 180.74 70.5596 181.923 70.5179C184.502 70.4189 187.061 70.4658 189.479 69.4288C190.479 68.9859 189.619 67.5268 188.629 67.9541Z" fill="black"/>
<path d="M199.156 142.923C206.8 145.894 219.108 143.022 227.487 144.408C238.003 146.154 243.735 153.528 242.771 165.56C239.441 166.669 236.143 165.325 232.583 165.575C232.088 152.459 227.607 150.698 216.279 151.24C209.916 151.547 194.94 155.956 199.161 144.257" fill="#F9F9F9"/>
<path d="M198.895 143.867C202.668 145.305 206.883 145.367 210.864 145.294C215.189 145.216 219.52 144.836 223.845 145.029C227.289 145.18 230.77 145.847 233.818 147.53C236.492 148.999 238.628 151.198 239.993 153.924C241.781 157.498 242.093 161.625 241.786 165.554C242.026 165.236 242.265 164.924 242.51 164.606C239.274 165.633 235.882 164.387 232.583 164.585C232.912 164.913 233.24 165.242 233.568 165.57C233.417 161.782 233.105 157.363 230.744 154.205C228.8 151.6 225.788 150.63 222.667 150.312C219.186 149.958 215.679 150.24 212.219 150.693C210.578 150.912 208.931 151.125 207.279 151.24C205.805 151.344 204.101 151.375 202.798 151.141C202.407 151.073 202.022 150.979 201.646 150.854C201.235 150.719 201.24 150.724 200.88 150.521C200.333 150.213 200.052 149.937 199.75 149.411C199.723 149.364 199.697 149.307 199.671 149.26C199.593 149.104 199.692 149.354 199.619 149.13C199.567 148.968 199.515 148.807 199.479 148.64C199.411 148.322 199.39 147.999 199.411 147.545C199.453 146.524 199.76 145.498 200.109 144.513C200.531 143.319 198.634 142.804 198.212 143.992C197.17 146.925 196.852 150.735 200.125 152.345C202.933 153.726 206.435 153.34 209.437 153.006C212.798 152.631 216.081 152.131 219.478 152.136C221.239 152.136 222.975 152.209 224.668 152.616C225.33 152.772 226.07 153.017 226.56 153.251C227.19 153.554 227.763 153.924 228.185 154.294C229.384 155.357 230.113 156.774 230.598 158.353C231.312 160.687 231.515 163.147 231.609 165.575C231.63 166.081 232.042 166.591 232.594 166.56C236.096 166.346 239.597 167.602 243.047 166.508C243.49 166.367 243.735 166.008 243.771 165.56C244.063 161.813 243.782 157.915 242.364 154.403C241.119 151.313 239.076 148.681 236.341 146.774C229.65 142.105 221.083 142.991 213.381 143.267C208.77 143.429 203.83 143.653 199.437 141.98C198.233 141.522 197.722 143.424 198.895 143.867Z" fill="black"/>
<path d="M188.812 57.3811C191.303 61.9146 192.6 66.9848 193.882 71.9612C194.523 74.452 195.148 76.9481 195.893 79.4128C196.748 82.2319 197.738 85.0145 198.655 87.8128C200.557 93.6073 202.423 99.4122 204.34 105.196C206.232 110.897 208.009 116.634 209.874 122.345C210.88 125.42 211.907 128.5 213.147 131.485C214.304 134.273 215.648 137.16 215.836 140.219C215.909 141.402 217.758 141.407 217.685 140.219C217.519 137.473 216.544 134.898 215.502 132.376C214.408 129.729 213.402 127.067 212.485 124.357C210.541 118.604 208.822 112.783 206.894 107.031C204.929 101.168 203.032 95.2852 201.115 89.4073C199.343 83.9828 197.488 78.6051 196.071 73.0764C194.617 67.4173 193.241 61.6176 190.401 56.4536C189.838 55.4062 188.239 56.3389 188.812 57.3811Z" fill="black"/>
<path d="M187.587 63.1548C188.9 73.5141 191.652 83.6284 194.617 93.6177C197.759 104.191 201.11 114.701 204.528 125.185C206.446 131.068 208.457 136.915 210.739 142.668C210.927 143.137 211.354 143.45 211.875 143.314C212.318 143.199 212.704 142.642 212.521 142.178C208.467 131.96 205.211 121.434 201.891 110.96C198.676 100.814 195.451 90.6423 192.84 80.3195C191.407 74.6657 190.172 68.9441 189.437 63.1548C189.375 62.6545 189.057 62.2377 188.515 62.2325C188.061 62.2273 187.525 62.6598 187.587 63.1548Z" fill="black"/>
<path d="M210.995 139.182C212.527 138.432 213.881 137.389 215.398 136.613C215.83 136.394 215.987 135.753 215.731 135.347C215.45 134.909 214.929 134.779 214.465 135.013C212.949 135.79 211.594 136.832 210.062 137.582C209.624 137.796 209.473 138.447 209.728 138.848C210.02 139.297 210.531 139.411 210.995 139.182Z" fill="black"/>
<path d="M209.895 134.414C210.859 133.893 211.839 133.403 212.829 132.945C213.027 132.856 213.199 132.595 213.251 132.392C213.313 132.173 213.282 131.876 213.157 131.678C213.032 131.48 212.839 131.308 212.605 131.256C212.349 131.199 212.131 131.241 211.891 131.35C210.896 131.809 209.916 132.298 208.957 132.819C208.53 133.049 208.363 133.674 208.624 134.086C208.91 134.513 209.442 134.659 209.895 134.414Z" fill="black"/>
<path d="M206.591 130.74C208.577 129.693 210.395 128.333 212.464 127.437C212.907 127.244 213.042 126.556 212.798 126.17C212.501 125.707 212.011 125.634 211.531 125.837C209.463 126.733 207.649 128.093 205.659 129.141C205.231 129.365 205.065 130.001 205.325 130.407C205.612 130.845 206.133 130.985 206.591 130.74Z" fill="black"/>
<path d="M205.638 126.066C206.513 125.769 207.342 125.368 208.165 124.946C208.551 124.748 208.936 124.55 209.327 124.357C209.52 124.263 209.718 124.169 209.916 124.075C210.02 124.028 210.124 123.982 210.234 123.935C210.067 124.008 210.385 123.872 210.416 123.862C210.864 123.685 211.229 123.236 211.062 122.726C210.922 122.293 210.406 121.892 209.926 122.08C209.056 122.424 208.228 122.846 207.394 123.273C207.008 123.471 206.628 123.664 206.237 123.846C206.148 123.888 206.055 123.929 205.966 123.971C205.914 123.992 205.862 124.018 205.81 124.039C205.898 124.002 205.893 124.002 205.794 124.044C205.586 124.127 205.372 124.206 205.158 124.279C204.7 124.435 204.351 124.92 204.512 125.415C204.648 125.873 205.148 126.233 205.638 126.066Z" fill="black"/>
<path d="M205.127 122.669C206.534 121.71 208.113 121.043 209.53 120.1C209.932 119.834 210.145 119.271 209.864 118.834C209.603 118.432 209.03 118.214 208.598 118.5C207.18 119.443 205.601 120.11 204.194 121.069C203.798 121.34 203.58 121.892 203.861 122.335C204.116 122.737 204.7 122.961 205.127 122.669Z" fill="black"/>
<path d="M203.475 118.12C203.653 117.963 203.835 117.812 204.017 117.666C204.106 117.593 204.194 117.525 204.283 117.453C204.408 117.354 204.116 117.578 204.335 117.411C204.382 117.374 204.429 117.338 204.476 117.307C204.877 117.004 205.294 116.718 205.726 116.457C206.138 116.207 206.565 115.988 206.998 115.785C207.139 115.717 206.8 115.858 207.05 115.764C207.102 115.743 207.154 115.723 207.206 115.707C207.311 115.67 207.41 115.634 207.514 115.597C207.738 115.524 207.972 115.467 208.202 115.42C208.676 115.326 208.994 114.732 208.848 114.284C208.686 113.779 208.222 113.539 207.712 113.638C205.617 114.039 203.741 115.441 202.167 116.812C201.803 117.129 201.818 117.796 202.167 118.12C202.558 118.479 203.085 118.458 203.475 118.12Z" fill="black"/>
<path d="M202.376 112.981C202.688 112.627 203.022 112.299 203.376 111.991C203.465 111.918 203.553 111.846 203.642 111.773C203.689 111.731 203.736 111.7 203.658 111.757C203.715 111.71 203.772 111.668 203.835 111.627C204.033 111.481 204.241 111.34 204.45 111.21C204.648 111.09 204.851 110.975 205.059 110.866C205.174 110.809 205.294 110.756 205.414 110.699C205.544 110.637 205.294 110.741 205.429 110.694C205.482 110.673 205.534 110.652 205.591 110.631C205.815 110.548 206.049 110.475 206.284 110.418C206.404 110.386 206.529 110.36 206.654 110.34C206.675 110.334 206.847 110.314 206.737 110.324C206.617 110.34 206.868 110.314 206.862 110.314C207.342 110.272 207.811 109.917 207.785 109.391C207.764 108.927 207.378 108.422 206.862 108.469C204.601 108.662 202.548 110.001 201.073 111.674C200.755 112.033 200.687 112.627 201.073 112.981C201.417 113.305 202.032 113.372 202.376 112.981Z" fill="black"/>
<path d="M201.089 106.89C202.376 106.27 203.616 105.546 204.757 104.686C204.955 104.535 205.111 104.383 205.179 104.133C205.242 103.914 205.21 103.617 205.085 103.419C204.84 103.039 204.236 102.779 203.819 103.086C202.678 103.946 201.438 104.665 200.151 105.29C199.713 105.499 199.562 106.16 199.817 106.556C200.114 107.005 200.62 107.114 201.089 106.89Z" fill="black"/>
<path d="M198.15 102.117C199.015 101.715 199.776 101.147 200.573 100.626C200.958 100.376 201.349 100.163 201.756 99.9593C201.876 99.8968 201.615 100.011 201.745 99.9645C201.803 99.9437 201.865 99.9176 201.922 99.8968C202.032 99.8603 202.141 99.8238 202.251 99.7925C202.365 99.7613 202.475 99.7352 202.589 99.7092C202.642 99.6987 202.694 99.6883 202.746 99.6831C203.006 99.6362 202.553 99.704 202.819 99.6779C203.298 99.631 203.767 99.2871 203.741 98.7556C203.72 98.297 203.335 97.7811 202.819 97.8332C201.704 97.9427 200.708 98.3595 199.765 98.9588C198.921 99.4955 198.124 100.105 197.212 100.527C196.774 100.731 196.628 101.397 196.878 101.794C197.181 102.242 197.681 102.335 198.15 102.117Z" fill="black"/>
<path d="M198.707 97.5674C199.807 96.4679 200.912 95.3632 202.011 94.2637C202.355 93.9198 202.381 93.2945 202.011 92.9558C201.641 92.6171 201.068 92.591 200.703 92.9558C199.604 94.0553 198.499 95.16 197.399 96.2595C197.056 96.6034 197.029 97.2287 197.399 97.5674C197.769 97.9061 198.343 97.9374 198.707 97.5674Z" fill="black"/>
<path d="M195.951 91.1114C197.806 90.0797 199.697 89.1105 201.276 87.6618C201.636 87.3335 201.631 86.6822 201.276 86.3539C200.896 86.0048 200.349 86.0048 199.968 86.3539C199.781 86.5258 199.583 86.6978 199.385 86.8593C199.338 86.8958 199.291 86.9323 199.244 86.974C199.124 87.0678 199.338 86.901 199.218 86.9948C199.124 87.0678 199.025 87.1355 198.931 87.2085C198.52 87.5055 198.092 87.7765 197.66 88.037C196.795 88.5581 195.904 89.0271 195.023 89.5117C194.601 89.7462 194.424 90.3611 194.69 90.778C194.961 91.2053 195.497 91.3616 195.951 91.1114Z" fill="black"/>
<path d="M193.528 85.6973C194.883 85.1658 196.097 84.3685 197.42 83.7693C197.618 83.6807 197.79 83.4201 197.842 83.2169C197.905 82.9981 197.874 82.701 197.749 82.503C197.457 82.0445 196.956 81.9559 196.482 82.1695C195.873 82.4457 195.289 82.7688 194.7 83.0919C194.408 83.2482 194.117 83.4097 193.82 83.5556C193.668 83.6286 193.522 83.7015 193.366 83.7693C193.288 83.8058 193.205 83.8474 193.121 83.8787C193.366 83.7901 193.08 83.8943 193.033 83.91C192.803 83.9985 192.611 84.1132 192.48 84.332C192.366 84.5301 192.314 84.8219 192.387 85.046C192.532 85.4889 193.048 85.8849 193.528 85.6973Z" fill="black"/>
<path d="M192.282 80.4655C193.585 79.9027 194.752 79.1003 195.774 78.1206C196.123 77.7819 196.138 77.1462 195.774 76.8127C195.398 76.4687 194.841 76.4531 194.466 76.8127C194.226 77.0472 193.976 77.2712 193.715 77.4797C193.689 77.5005 193.658 77.5266 193.632 77.5474C193.606 77.5682 193.476 77.6725 193.595 77.5735C193.71 77.4849 193.606 77.563 193.58 77.5839C193.543 77.6099 193.507 77.636 193.47 77.662C193.34 77.7558 193.21 77.8496 193.074 77.9382C192.527 78.2978 191.949 78.6052 191.35 78.8605C191.152 78.9439 190.98 79.2149 190.928 79.4129C190.865 79.6318 190.896 79.9288 191.021 80.1268C191.146 80.3248 191.339 80.4968 191.574 80.5489C191.829 80.6166 192.037 80.5697 192.282 80.4655Z" fill="black"/>
<path d="M190.813 75.3275C191.923 74.6032 193.022 73.8737 194.117 73.1233C194.513 72.8524 194.731 72.3 194.45 71.8571C194.195 71.461 193.611 71.2318 193.184 71.5236C192.09 72.2687 190.99 73.0035 189.88 73.7278C189.474 73.9935 189.27 74.5563 189.547 74.994C189.807 75.4005 190.38 75.6089 190.813 75.3275Z" fill="black"/>
<path d="M191.178 70.5598C191.886 70.0335 192.621 69.5436 193.382 69.0903C193.585 68.9704 193.747 68.762 193.804 68.5379C193.866 68.3191 193.835 68.0221 193.71 67.824C193.439 67.4072 192.892 67.23 192.444 67.4906C191.683 67.9387 190.948 68.4285 190.24 68.96C190.042 69.1111 189.885 69.2623 189.818 69.5124C189.755 69.7312 189.786 70.0283 189.911 70.2263C190.036 70.4243 190.229 70.5963 190.464 70.6484C190.693 70.7005 190.985 70.7057 191.178 70.5598Z" fill="black"/>
<path d="M191.146 65.8228C191.178 65.7811 191.204 65.7394 191.235 65.703C191.188 65.7655 191.141 65.828 191.089 65.8906C191.323 65.5883 191.594 65.3174 191.897 65.0829C191.834 65.1298 191.772 65.1767 191.709 65.2288C191.975 65.0256 192.261 64.8536 192.569 64.7233C192.496 64.7546 192.423 64.7859 192.35 64.8171C192.376 64.8067 192.402 64.7963 192.428 64.7859C192.548 64.7598 192.652 64.7025 192.741 64.6191C192.84 64.5514 192.923 64.468 192.981 64.3586C193.095 64.1605 193.147 63.8687 193.074 63.6447C193.001 63.4206 192.866 63.207 192.652 63.0923C192.444 62.9829 192.168 62.9099 191.938 62.9985C191.683 63.0975 191.433 63.207 191.198 63.3476C190.964 63.4831 190.75 63.6499 190.537 63.8218C190.156 64.1293 189.838 64.4993 189.552 64.8953C189.422 65.0777 189.401 65.3955 189.458 65.6092C189.515 65.8228 189.682 66.0573 189.88 66.1615C190.094 66.2762 190.354 66.3335 190.594 66.2553C190.667 66.2241 190.74 66.1928 190.813 66.1615C190.954 66.0729 191.063 65.9635 191.146 65.8228Z" fill="black"/>
<path d="M70.5556 149.922C77.5851 150.422 84.6094 150.302 91.5139 149.901C95.0938 149.692 100.081 149.614 101.472 145.013C102.452 141.756 100.664 137.89 97.4804 137.603C99.8044 129.021 89.0387 122.346 85.339 130.99C83.1295 127.207 78.2573 124.883 74.2397 124.842C71.7177 124.815 62.0827 126.931 66.5067 130.959C64.3546 129.964 59.4356 129.068 57.2209 130.271C54.5008 131.751 53.0053 135.513 56.5175 137.369C54.0214 138.979 49.3525 139.432 48.9095 143.434C48.5031 147.087 52.2758 149.437 54.6676 150.302C60.1495 152.282 66.5224 150.563 71.9678 149.515" fill="#7BDF9B"/>
<path d="M70.5556 150.489C77.9082 151.005 85.2869 150.849 92.6394 150.406C94.8489 150.271 97.2042 150.062 99.1479 148.9C101.263 147.634 102.436 145.226 102.295 142.783C102.139 140.016 100.378 137.363 97.4804 137.045C97.6627 137.285 97.8451 137.525 98.0275 137.759C98.8508 134.607 98.0953 131.214 95.8233 128.833C93.9422 126.858 90.9876 125.717 88.3665 126.858C86.699 127.582 85.563 129.083 84.8544 130.709C85.1774 130.709 85.5057 130.709 85.8288 130.709C83.4943 126.801 78.497 124.096 73.9323 124.284C72.4732 124.346 70.9934 124.669 69.5968 125.092C68.1638 125.524 66.5224 126.118 65.5011 127.27C64.2869 128.645 64.8862 130.224 66.1055 131.36C66.3348 131.063 66.5641 130.766 66.7881 130.474C64.3286 129.364 61.2229 128.828 58.5497 129.265C56.1683 129.656 53.8912 131.855 53.8912 134.367C53.8912 135.935 54.9073 137.139 56.2257 137.863C56.2257 137.54 56.2257 137.212 56.2257 136.889C54.4904 137.983 52.4113 138.405 50.7229 139.588C48.8627 140.886 47.9038 143.033 48.4718 145.284C49.0398 147.524 51.0043 149.171 52.9793 150.187C55.517 151.495 58.4247 151.87 61.2542 151.766C64.9279 151.636 68.5182 150.76 72.1137 150.067C72.8276 149.927 72.5254 148.838 71.8115 148.978C66.2514 150.057 60.0973 151.818 54.5738 149.677C52.7291 148.963 50.8272 147.707 49.9048 145.904C48.9564 144.044 49.5192 141.871 51.1763 140.646C52.875 139.395 55.0219 138.984 56.7989 137.863C57.148 137.645 57.1845 137.097 56.7989 136.889C55.5326 136.196 54.7301 135.039 55.1418 133.57C55.4857 132.329 56.5123 131.209 57.6795 130.683C58.977 130.099 60.6028 130.214 61.9785 130.375C63.4115 130.542 64.9018 130.86 66.2202 131.454C66.7673 131.699 67.4082 131.037 66.9028 130.568C66.0847 129.807 65.5167 128.864 66.4234 127.942C67.3405 127.009 68.7318 126.535 69.9512 126.17C71.1757 125.805 72.4524 125.519 73.7291 125.435C75.5685 125.316 77.4809 125.795 79.1588 126.525C81.4621 127.52 83.5464 129.12 84.8439 131.287C85.0419 131.621 85.6412 131.694 85.8184 131.287C86.8449 128.942 88.872 127.056 91.5973 127.64C94.0308 128.166 95.9744 130.214 96.7769 132.517C97.3345 134.122 97.3605 135.826 96.928 137.462C96.829 137.848 97.1104 138.14 97.4751 138.176C99.8253 138.437 101.133 140.875 101.17 143.043C101.211 145.32 99.9868 147.316 97.9233 148.27C96.1099 149.103 94.0255 149.202 92.0662 149.312C88.8303 149.494 85.5995 149.64 82.3583 149.682C78.4189 149.734 74.4847 149.64 70.5556 149.364C69.8261 149.307 69.8313 150.437 70.5556 150.489Z" fill="black"/>
<path d="M274.323 174.163C266.199 174.726 258.07 174.429 250.082 173.751C245.939 173.397 240.165 173.199 238.519 166.826C237.351 162.313 239.378 157.009 243.068 156.67C240.296 144.779 252.682 135.764 257.049 147.759C259.565 142.58 265.183 139.458 269.826 139.474C272.744 139.484 283.911 142.58 278.83 148.056C281.311 146.722 286.99 145.576 289.565 147.28C292.728 149.369 294.489 154.596 290.45 157.087C293.353 159.354 298.757 160.067 299.314 165.601C299.82 170.651 295.484 173.829 292.722 174.976C286.402 177.607 279.013 175.122 272.702 173.574" fill="#7BDF9B"/>
<path d="M274.323 173.449C265.98 174.022 257.643 173.663 249.321 172.975C247.054 172.787 244.662 172.563 242.651 171.406C240.207 170.005 238.993 167.274 238.909 164.528C238.826 161.907 239.894 157.733 243.068 157.384C243.537 157.332 243.865 156.972 243.756 156.482C242.927 152.824 243.469 148.734 245.819 145.717C247.434 143.643 250.269 141.934 252.864 143.309C254.636 144.247 255.683 146.139 256.356 147.957C256.548 148.484 257.366 148.723 257.658 148.129C259.857 143.69 264.813 140.063 269.914 140.198C271.28 140.235 272.707 140.626 274.036 141.063C275.605 141.579 277.277 142.277 278.476 143.45C278.966 143.935 279.388 144.544 279.419 145.243C279.461 146.139 278.898 146.931 278.325 147.561C277.778 148.161 278.46 149.067 279.19 148.682C280.378 148.056 281.707 147.686 283.025 147.431C284.463 147.15 286.026 146.999 287.48 147.27C289.992 147.733 291.962 150.245 292.081 152.772C292.154 154.341 291.409 155.643 290.096 156.477C289.606 156.79 289.674 157.384 290.096 157.712C291.852 159.062 294.015 159.744 295.818 161.021C297.959 162.532 299.033 165.028 298.538 167.644C298.048 170.213 296.167 172.23 293.989 173.543C291.248 175.195 288.001 175.586 284.854 175.367C280.779 175.085 276.84 173.866 272.895 172.892C272.004 172.673 271.623 174.048 272.515 174.267C279.461 175.976 287.574 178.775 294.343 174.981C296.761 173.626 298.913 171.49 299.726 168.78C300.57 165.971 299.867 162.772 297.72 160.74C295.713 158.838 292.973 158.134 290.815 156.477C290.815 156.889 290.815 157.301 290.815 157.712C292.253 156.795 293.254 155.43 293.468 153.715C293.66 152.178 293.202 150.594 292.41 149.281C291.607 147.952 290.419 146.748 288.95 146.191C287.366 145.586 285.547 145.639 283.895 145.852C282.035 146.092 280.138 146.561 278.471 147.447C278.757 147.822 279.049 148.192 279.336 148.567C280.638 147.134 281.394 145.237 280.305 143.45C279.31 141.819 277.434 140.855 275.724 140.157C274.078 139.484 272.316 139 270.55 138.807C268.169 138.552 265.673 139.286 263.562 140.339C260.519 141.855 257.95 144.346 256.439 147.4C256.871 147.457 257.309 147.514 257.742 147.572C257.012 145.602 255.954 143.674 254.198 142.444C252.854 141.501 251.192 141.188 249.592 141.522C245.986 142.272 243.521 145.81 242.541 149.14C241.801 151.652 241.807 154.32 242.385 156.863C242.614 156.561 242.844 156.258 243.073 155.961C239.972 156.305 238.19 159.234 237.68 162.079C237.117 165.205 237.784 168.733 239.993 171.115C241.838 173.1 244.511 173.85 247.111 174.189C250.806 174.668 254.573 174.851 258.294 175.018C263.64 175.257 268.997 175.252 274.333 174.887C275.235 174.814 275.24 173.387 274.323 173.449Z" fill="black"/>
<path d="M188.301 201.035C198.728 201.781 209.15 201.541 219.395 200.863C224.71 200.509 232.109 200.353 234.194 193.084C235.668 187.935 233.037 181.849 228.31 181.416C231.807 167.858 215.872 157.394 210.333 171.062C207.081 165.106 199.859 161.474 193.903 161.433C190.161 161.406 175.852 164.814 182.397 171.135C179.208 169.577 171.918 168.202 168.62 170.114C164.576 172.464 162.34 178.415 167.531 181.317C163.815 183.876 156.89 184.621 156.207 190.942C155.582 196.71 161.163 200.394 164.711 201.744C172.835 204.829 182.298 202.078 190.38 200.384" fill="#7BDF9B"/>
<path d="M188.301 201.9C199.228 202.672 210.192 202.369 221.114 201.614C224.376 201.39 227.852 201.02 230.681 199.243C233.949 197.184 235.642 193.354 235.449 189.55C235.241 185.403 232.776 181.025 228.305 180.556C228.581 180.921 228.863 181.286 229.139 181.651C230.384 176.721 229.316 171.354 225.856 167.545C223.074 164.481 218.655 162.725 214.715 164.59C212.157 165.804 210.541 168.295 209.494 170.833C210.02 170.765 210.547 170.697 211.073 170.624C209.254 167.352 206.362 164.747 203.064 163.011C200.182 161.495 196.774 160.427 193.491 160.573C191.365 160.666 189.208 161.167 187.186 161.813C185.024 162.501 182.59 163.444 181.037 165.179C180.292 166.008 179.771 167.05 179.849 168.191C179.943 169.603 180.808 170.786 181.782 171.75C182.131 171.297 182.481 170.843 182.83 170.39C181.042 169.53 179.083 169.009 177.134 168.681C174.972 168.316 172.736 168.149 170.563 168.54C166.89 169.207 163.664 172.782 163.638 176.575C163.622 178.978 165.076 180.906 167.098 182.068C167.098 181.567 167.098 181.072 167.098 180.572C164.592 182.271 161.548 182.98 159.078 184.746C157.786 185.674 156.666 186.841 156.025 188.31C155.285 189.999 155.113 191.911 155.509 193.714C156.265 197.184 159.12 199.821 162.116 201.478C165.868 203.552 170.24 204.151 174.477 203.969C179.953 203.735 185.279 202.333 190.62 201.212C191.709 200.983 191.245 199.316 190.161 199.545C185.753 200.473 181.371 201.603 176.884 202.062C172.7 202.489 168.229 202.39 164.326 200.65C161.59 199.43 158.839 197.45 157.614 194.621C156.353 191.708 157.208 188.394 159.678 186.445C162.163 184.491 165.378 183.824 167.979 182.057C168.5 181.703 168.573 180.906 167.979 180.562C166.556 179.749 165.436 178.483 165.378 176.773C165.326 175.247 166.014 173.746 166.994 172.599C168.031 171.385 169.302 170.536 170.876 170.223C172.674 169.869 174.612 170.01 176.41 170.291C178.291 170.588 180.24 171.036 181.965 171.87C182.814 172.276 183.752 171.234 183.012 170.51C182.611 170.119 182.241 169.707 181.96 169.223C181.777 168.91 181.61 168.436 181.584 168.222C181.511 167.54 181.767 166.946 182.23 166.424C183.538 164.96 185.565 164.153 187.41 163.548C189.27 162.938 191.308 162.454 193.153 162.313C195.878 162.105 198.733 162.86 201.193 163.996C204.658 165.596 207.722 168.123 209.588 171.484C209.984 172.198 210.906 171.922 211.167 171.276C211.969 169.327 213.199 167.425 215.059 166.346C216.487 165.518 218.149 165.32 219.739 165.695C223.423 166.57 226.169 169.895 227.289 173.391C228.097 175.924 228.123 178.602 227.472 181.177C227.32 181.765 227.748 182.214 228.305 182.271C231.692 182.625 233.506 186.309 233.709 189.358C233.933 192.729 232.531 196.137 229.556 197.888C226.966 199.415 223.834 199.691 220.901 199.889C216.06 200.212 211.208 200.473 206.357 200.572C200.333 200.697 194.309 200.587 188.301 200.16C187.191 200.092 187.197 201.822 188.301 201.9Z" fill="black"/>
<path d="M98.4912 197.956C108.918 198.701 119.34 198.461 129.585 197.784C134.9 197.429 142.299 197.273 144.384 190.004C145.858 184.856 143.227 178.769 138.501 178.337C141.997 164.778 126.062 154.314 120.523 167.983C117.271 162.027 110.049 158.395 104.093 158.353C100.352 158.327 86.0424 161.735 92.5873 168.056C89.3982 166.498 82.1082 165.122 78.8097 167.034C74.766 169.384 72.5305 175.335 77.7206 178.238C74.0052 180.796 67.0799 181.541 66.3973 187.862C65.772 193.631 71.3529 197.315 74.9015 198.664C83.0253 201.749 92.4883 198.998 100.57 197.304" fill="#7BDF9B"/>
<path d="M98.4912 198.821C109.419 199.592 120.382 199.29 131.304 198.534C134.566 198.31 138.042 197.94 140.872 196.163C144.139 194.105 145.832 190.275 145.639 186.471C145.431 182.323 142.966 177.946 138.495 177.477C138.772 177.842 139.053 178.206 139.329 178.571C140.574 173.642 139.506 168.274 136.046 164.465C133.264 161.401 128.845 159.645 124.905 161.511C122.347 162.725 120.731 165.216 119.684 167.753C120.21 167.686 120.737 167.618 121.263 167.545C119.444 164.272 116.552 161.667 113.254 159.932C110.372 158.415 106.964 157.347 103.681 157.493C101.555 157.587 99.398 158.092 97.3761 158.733C95.2136 159.421 92.7801 160.364 91.2272 162.099C90.4821 162.928 89.961 163.97 90.0392 165.111C90.133 166.524 90.998 167.706 91.9724 168.67C92.3216 168.217 92.6707 167.764 93.0198 167.31C91.2325 166.451 89.2732 165.929 87.3243 165.601C85.1618 165.236 82.9263 165.07 80.7533 165.461C77.0797 166.128 73.8541 169.702 73.8281 173.496C73.8124 175.898 75.2663 177.826 77.2881 178.988C77.2881 178.488 77.2881 177.993 77.2881 177.492C74.7816 179.191 71.7385 179.9 69.2685 181.666C67.9762 182.594 66.8559 183.761 66.2149 185.231C65.475 186.919 65.303 188.831 65.699 190.634C66.4546 194.105 69.3102 196.742 72.3065 198.399C76.0583 200.473 80.4303 201.072 84.6667 200.889C90.1434 200.655 95.4689 199.253 100.81 198.133C101.899 197.904 101.435 196.236 100.352 196.465C95.9431 197.393 91.5607 198.524 87.0742 198.982C82.8898 199.41 78.4189 199.311 74.5159 197.57C71.7802 196.351 69.0288 194.371 67.8043 191.541C66.5432 188.628 67.3978 185.314 69.8678 183.365C72.3534 181.411 75.5685 180.744 78.1687 178.978C78.6898 178.623 78.7628 177.826 78.1687 177.482C76.7462 176.669 75.6258 175.403 75.5685 173.694C75.5164 172.167 76.2042 170.666 77.1839 169.52C78.2208 168.306 79.4923 167.456 81.066 167.144C82.8638 166.789 84.8022 166.93 86.6 167.211C88.4811 167.508 90.43 167.957 92.1548 168.79C93.0042 169.197 93.9421 168.155 93.2022 167.43C92.8009 167.039 92.431 166.628 92.1496 166.143C91.9672 165.831 91.8005 165.356 91.7744 165.143C91.7015 164.46 91.9568 163.866 92.4206 163.345C93.7285 161.881 95.7555 161.073 97.6002 160.468C99.4605 159.859 101.498 159.374 103.343 159.233C106.068 159.025 108.923 159.781 111.383 160.917C114.848 162.516 117.912 165.044 119.778 168.405C120.174 169.119 121.096 168.842 121.357 168.196C122.159 166.247 123.389 164.345 125.249 163.267C126.677 162.438 128.339 162.24 129.929 162.615C133.613 163.491 136.359 166.815 137.479 170.312C138.287 172.844 138.313 175.523 137.662 178.097C137.51 178.686 137.938 179.134 138.495 179.191C141.882 179.546 143.696 183.23 143.899 186.278C144.123 189.65 142.721 193.057 139.746 194.808C137.156 196.335 134.024 196.611 131.091 196.809C126.25 197.132 121.398 197.393 116.547 197.492C110.523 197.617 104.499 197.508 98.4912 197.08C97.3813 197.013 97.3813 198.743 98.4912 198.821Z" fill="black"/>
</svg>
