<svg width="50" height="50" viewBox="0 0 50 50" fill="none" xmlns="http://www.w3.org/2000/svg">
<path d="M1.15727 25.0885L1.15726 25.0885C0.318695 32.021 2.89896 37.6919 7.37979 41.7861C11.8842 45.9018 18.3291 48.4331 25.1516 48.9396C38.4557 49.9273 48.4874 38.5654 48.9912 24.9315C49.1621 20.3063 46.833 14.3037 42.5636 9.43742C38.3132 4.59267 32.2501 1 25.0775 1C18.7956 1 13.3479 2.88423 9.21955 6.77476C5.08549 10.6706 2.17514 16.6723 1.15727 25.0885Z" fill="#72CCB3" stroke="black" stroke-width="2"/>
<path d="M16 22.5C18.1667 24.6667 22.8 29.6 24 32C26 35.5 43 11 47.5 5" stroke="black" stroke-width="2"/>
</svg>
